<svg width="80" height="80" viewBox="0 0 80 80" fill="none" xmlns="http://www.w3.org/2000/svg">
<path d="M71.1777 15.3668C71.3925 15.3372 71.5962 15.3113 71.7888 15.2853C71.9518 15.2668 72.1073 15.2483 72.2592 15.2335C72.3481 15.2224 72.4333 15.2113 72.5147 15.2039C72.474 15.289 72.4259 15.3853 72.3777 15.4779C72.311 15.6113 72.237 15.7557 72.1592 15.9002C72.0666 16.0705 71.9777 16.2483 71.874 16.4372C71.574 17.0039 71.211 17.6483 70.7962 18.352C69.8962 19.8742 68.7333 21.6779 67.2888 23.5853C66.974 24.0076 66.6444 24.4298 66.2962 24.8594C65.4185 25.952 64.4555 27.0594 63.3999 28.1594C63.0222 28.552 62.6333 28.9446 62.2296 29.3335C61.8481 29.7039 61.4518 30.0742 61.0444 30.4409C59.7925 31.5705 58.4407 32.6594 56.9851 33.6742C55.1185 34.9705 53.1925 36.0631 51.2777 36.989C50.7407 37.2483 50.1999 37.4927 49.6666 37.7261C49.1444 37.9557 48.6222 38.1742 48.1036 38.3779C42.1703 40.7187 36.774 41.5298 34.2666 41.7965C35.3851 39.5409 38.011 34.7779 42.2666 30.0372C42.637 29.6261 43.0222 29.2113 43.4185 28.7965C43.8222 28.3779 44.2407 27.9594 44.6703 27.5446C46.2073 26.0631 47.911 24.6298 49.7888 23.3261C51.2444 22.315 52.737 21.4261 54.2333 20.6446C54.7185 20.389 55.2036 20.1483 55.6851 19.9187C56.1888 19.6816 56.6925 19.452 57.1925 19.2335C58.5814 18.6298 59.9518 18.115 61.274 17.6779C61.7962 17.5002 62.3073 17.3372 62.811 17.1853C65.137 16.4853 67.2666 16.015 69.0296 15.7002C69.8296 15.5557 70.5518 15.4483 71.1814 15.3594L71.1777 15.3668Z" fill="#C3D65D"/>
<path d="M34.2666 43.0889C33.8443 43.0889 33.448 42.8852 33.2036 42.5334C32.9332 42.1445 32.8962 41.6408 33.1073 41.2186C34.3147 38.7852 36.9814 33.9852 41.3036 29.1704C41.6962 28.7334 42.0962 28.3037 42.4851 27.8963C42.8777 27.4889 43.2962 27.0667 43.7703 26.6112C45.4517 24.9889 47.2295 23.526 49.048 22.263C50.474 21.2741 52.0147 20.3408 53.6295 19.5C54.0851 19.2593 54.574 19.0149 55.1221 18.7556C55.6221 18.5186 56.1406 18.2815 56.6703 18.0519C58.0221 17.4667 59.4295 16.926 60.8629 16.4519C61.4147 16.263 61.9666 16.0926 62.4332 15.9519C64.5258 15.3223 66.6666 14.8149 68.7999 14.4334C69.5295 14.3037 70.248 14.1889 70.9962 14.0852C71.2184 14.0519 71.4295 14.026 71.6332 14C71.7962 13.9815 71.9554 13.963 72.111 13.9445C72.1851 13.9334 72.2592 13.926 72.3295 13.9186H72.3703C72.8406 13.8593 73.2999 14.0704 73.574 14.4556C73.848 14.8408 73.8888 15.3445 73.6814 15.7704C73.6369 15.863 73.5851 15.963 73.5369 16.063L73.2221 16.6704C73.1554 16.7963 73.0851 16.9297 73.0147 17.063C72.6851 17.6815 72.3147 18.3408 71.9184 19.0112C70.8184 20.8704 69.611 22.6741 68.3295 24.3704C67.9999 24.8075 67.6554 25.2482 67.3073 25.6778C66.3629 26.8519 65.3629 27.9926 64.3406 29.0593C63.9221 29.4926 63.5295 29.8852 63.1406 30.2667C62.6999 30.6926 62.2999 31.0667 61.9184 31.4112C60.5666 32.6297 59.1554 33.7519 57.7332 34.7408C55.9369 35.9926 53.9555 37.1408 51.848 38.1593C51.3036 38.4223 50.7443 38.6778 50.1888 38.9186C49.6925 39.1371 49.1666 39.3593 48.5888 39.5852C42.5777 41.9593 37.1258 42.7963 34.411 43.0889C34.3666 43.0926 34.3184 43.0963 34.274 43.0963L34.2666 43.0889ZM70.1814 16.8223C69.874 16.8704 69.5666 16.9223 69.2555 16.9778C67.2184 17.3408 65.1777 17.8297 63.1814 18.426C62.7406 18.5593 62.2184 18.7186 61.6925 18.9C60.3184 19.3556 58.9851 19.863 57.7036 20.4186C57.1999 20.6371 56.7073 20.863 56.2369 21.0852C55.7258 21.3297 55.2666 21.5593 54.8332 21.7852C53.311 22.5815 51.8629 23.4519 50.5258 24.3815C48.8184 25.5667 47.1517 26.9445 45.5666 28.4704C45.1184 28.9037 44.7184 29.3 44.3517 29.6852C43.9777 30.0741 43.5999 30.4815 43.2258 30.8926C40.1666 34.3 37.9814 37.6926 36.5888 40.163C39.4036 39.7112 43.3666 38.8408 47.6258 37.1593C48.1703 36.9445 48.6629 36.7371 49.1406 36.5297C49.674 36.3 50.1999 36.0593 50.7147 35.8112C52.6962 34.8519 54.5592 33.7704 56.2443 32.6C57.5777 31.6704 58.8999 30.6186 60.174 29.4704C60.5332 29.1482 60.911 28.7963 61.3258 28.3926C61.6962 28.0334 62.0666 27.6593 62.4629 27.2482C63.4295 26.2408 64.3814 25.1593 65.2814 24.0371C65.6147 23.6297 65.9369 23.2112 66.248 22.8C67.474 21.1778 68.6258 19.4556 69.674 17.6852C69.8443 17.3926 70.011 17.1037 70.174 16.8186L70.1814 16.8223Z" fill="#272727"/>
<path d="M55.8555 4.34824C56.0185 4.20009 56.1777 4.06306 56.3296 3.92972C56.4555 3.81861 56.5777 3.71491 56.7 3.61861C56.7703 3.55935 56.837 3.50009 56.9 3.44824C56.9222 3.54454 56.9444 3.65195 56.9666 3.75565C56.9962 3.9075 57.0296 4.06676 57.0629 4.23343C57.1 4.42972 57.1407 4.62972 57.174 4.84454C57.2925 5.48898 57.4148 6.23343 57.5296 7.05565C57.774 8.84083 57.9777 11.0112 58.0111 13.426C58.0185 13.9594 58.0185 14.5001 58.0074 15.0556C57.9814 16.4668 57.8925 17.9445 57.7185 19.4631C57.6555 20.0075 57.5814 20.5557 57.4963 21.1112C57.4148 21.6408 57.3222 22.1742 57.2148 22.7112C56.8925 24.3668 56.4555 26.0519 55.8777 27.726C55.137 29.8742 54.2074 31.889 53.174 33.7519C52.8851 34.2742 52.5851 34.789 52.2777 35.2853C51.9814 35.7779 51.674 36.2557 51.3666 36.7223C47.8185 42.0668 43.7037 45.826 41.7222 47.4779C41.174 44.9557 40.2518 39.4779 40.7481 33.0927C40.7925 32.5371 40.8444 31.9705 40.9111 31.4001C40.9777 30.8186 41.0592 30.2297 41.1518 29.6408C41.4851 27.526 41.9962 25.3594 42.7407 23.1964C43.3185 21.5186 44.0111 19.926 44.7777 18.4223C45.0259 17.9334 45.2814 17.4556 45.5444 16.989C45.8185 16.5038 46.1 16.026 46.3851 15.5556C47.1777 14.2594 48.0148 13.0445 48.8629 11.926C49.1925 11.4779 49.5296 11.0519 49.8592 10.6371C51.3962 8.72602 52.9185 7.11861 54.2296 5.84824C54.8222 5.27046 55.3703 4.77046 55.8555 4.33713V4.34824Z" fill="#C3D65D"/>
<path d="M41.7186 48.7816C41.5778 48.7816 41.4334 48.7593 41.2963 48.7112C40.8667 48.563 40.5482 48.2038 40.4519 47.7593C39.863 45.0371 38.9482 39.5001 39.4519 33.0001C39.5 32.4075 39.5556 31.8223 39.6223 31.2593C39.6852 30.6927 39.7667 30.1001 39.8704 29.4482C40.2371 27.1297 40.7889 24.8853 41.5149 22.7853C42.0815 21.1408 42.7926 19.4779 43.6223 17.8445C43.8519 17.389 44.1112 16.9038 44.4112 16.3668C44.6815 15.8853 44.9741 15.3927 45.2778 14.8927C46.0519 13.626 46.9112 12.3705 47.8297 11.1556C48.1815 10.6742 48.5445 10.2186 48.8482 9.83712C50.2334 8.1149 51.7408 6.46305 53.326 4.92601C53.8704 4.40009 54.4149 3.89268 54.9889 3.38157C55.1593 3.22601 55.326 3.08157 55.4815 2.94823C55.6074 2.83712 55.7334 2.73342 55.8556 2.62971C55.9149 2.57786 55.9704 2.52971 56.026 2.48157L56.0593 2.45564C56.4037 2.16305 56.8778 2.07416 57.3074 2.2186C57.7371 2.36305 58.0593 2.72231 58.1593 3.16305C58.1815 3.26675 58.2074 3.37786 58.2297 3.49268L58.3667 4.18527C58.3926 4.32972 58.4223 4.47416 58.4482 4.62601C58.5778 5.33342 58.7 6.09638 58.8074 6.87786C59.1037 9.06305 59.2704 11.2593 59.3 13.4112C59.3112 13.963 59.3074 14.5297 59.2963 15.089C59.2667 16.6112 59.1667 18.1371 59 19.6149C58.9297 20.2186 58.8556 20.7742 58.7704 21.3149C58.6778 21.9186 58.5815 22.4593 58.4815 22.9705C58.1297 24.7668 57.6667 26.5112 57.1 28.1556C56.3852 30.2297 55.4445 32.3297 54.3074 34.389C54.0112 34.9223 53.7 35.4519 53.3815 35.9742C53.1 36.4408 52.7926 36.926 52.4482 37.4482C48.8482 42.8705 44.7037 46.689 42.5519 48.4853C42.3149 48.6816 42.0186 48.7853 41.7223 48.7853L41.7186 48.7816ZM56.0445 5.92231C55.7371 6.20749 55.4334 6.49268 55.1297 6.78527C53.6186 8.24823 52.1852 9.8186 50.8667 11.4556C50.5778 11.8149 50.2371 12.2445 49.9037 12.7001C49.026 13.863 48.2149 15.0482 47.4889 16.2408C47.2 16.7112 46.926 17.1816 46.6704 17.6334C46.3926 18.1334 46.1482 18.589 45.9334 19.0149C45.1556 20.5445 44.4926 22.0964 43.9667 23.626C43.2926 25.5853 42.7741 27.6779 42.4334 29.8482C42.3371 30.463 42.2593 31.0223 42.2 31.5519C42.1371 32.089 42.0852 32.6408 42.0408 33.2001C41.6704 37.9408 42.1 42.1445 42.5704 45.0112C44.7149 43.0334 47.6519 39.9705 50.2852 36.0075C50.6074 35.5186 50.8963 35.0668 51.1667 34.6186C51.4704 34.1223 51.763 33.6223 52.0408 33.126C53.1074 31.2001 53.9852 29.2408 54.6519 27.3038C55.1815 25.7705 55.6149 24.1445 55.9408 22.463C56.0371 21.9853 56.126 21.4779 56.2112 20.9112C56.2889 20.4038 56.3593 19.8816 56.426 19.3112C56.5852 17.9186 56.6778 16.4779 56.7074 15.0297C56.7186 14.5001 56.7223 13.9668 56.7111 13.4445C56.6815 11.3927 56.526 9.30379 56.2408 7.22601C56.1778 6.78157 56.1149 6.34453 56.0445 5.9186V5.92231Z" fill="#272727"/>
<path d="M43.7038 48.6259H36.2186L31.7594 33.0074C29.2149 27.1629 29.7075 20.4444 33.0816 15.037L39.9594 4.00366L46.8371 15.037C50.2075 20.4444 50.7038 27.1666 48.1594 33.0074L43.7001 48.6259H43.7038Z" fill="#FFF194"/>
<path d="M43.7039 49.9221H36.2187C35.6409 49.9221 35.1298 49.5369 34.9705 48.9814L30.5372 33.4444C27.8594 27.2258 28.4002 20.0962 31.9817 14.3481L38.8594 3.31472C39.0965 2.93695 39.5113 2.70361 39.9594 2.70361C40.4076 2.70361 40.8224 2.93324 41.0594 3.31472L47.9372 14.3481C51.5224 20.0962 52.0594 27.2258 49.3817 33.4444L44.9483 48.9814C44.7891 49.5369 44.2817 49.9221 43.7002 49.9221H43.7039ZM37.1965 47.3295H42.7261L46.915 32.6518C46.9298 32.5962 46.9483 32.5444 46.9743 32.4888C49.3483 27.0369 48.8891 20.7666 45.7409 15.7221L39.9631 6.45547L34.1854 15.7221C31.0372 20.7703 30.578 27.0369 32.952 32.4888C32.9742 32.5406 32.9928 32.5962 33.0113 32.6518L37.2002 47.3295H37.1965Z" fill="#272727"/>
<path d="M45.2593 41.0184L42.9482 48.1369L26.7186 47.5517C20.3742 48.1665 14.1371 45.6184 10.0334 40.7406L1.66675 30.7887L14.2853 27.6554C20.4705 26.1184 27.0149 27.7258 31.7853 31.9517L45.2593 41.0184Z" fill="#FFF194"/>
<path d="M42.9483 49.4332C42.9483 49.4332 42.9186 49.4332 42.9001 49.4332L26.7557 48.8517C20.0149 49.4776 13.4001 46.7628 9.04085 41.5776L0.674185 31.6221C0.385297 31.2813 0.296408 30.811 0.433445 30.3887C0.570482 29.9628 0.91863 29.6406 1.35567 29.5295L13.9742 26.3961C20.5483 24.7628 27.4964 26.4554 32.5816 30.9221L45.9853 39.9406C46.4668 40.2628 46.6742 40.8665 46.4927 41.4184L44.1816 48.5369C44.0075 49.0739 43.5075 49.4332 42.9483 49.4332ZM26.7186 46.2554C26.7186 46.2554 26.7483 46.2554 26.7668 46.2554L42.0186 46.8073L43.726 41.548L31.0631 33.0295C31.0149 32.9962 30.9705 32.9628 30.926 32.9258C26.4742 28.9813 20.3705 27.4813 14.5964 28.9184L3.99641 31.5517L11.026 39.911C14.852 44.4628 20.6705 46.8406 26.5927 46.2665C26.6334 46.2628 26.6742 46.2591 26.7186 46.2591V46.2554Z" fill="#272727"/>
<path d="M38.637 38.2554L44.6926 42.6554L39.1185 57.9109C37.7444 64.1332 33.3926 69.2813 27.4852 71.6739L15.437 76.5554L16.3555 63.5887C16.8074 57.2332 20.3555 51.5035 25.8481 48.2739L38.6333 38.2591L38.637 38.2554Z" fill="#FFF194"/>
<path d="M15.4371 77.848C15.1667 77.848 14.9 77.7629 14.6741 77.5999C14.3111 77.3369 14.1111 76.9073 14.1445 76.4591L15.063 63.4925C15.5408 56.7369 19.2963 50.6517 25.1185 47.1962L37.8371 37.2332C38.2926 36.8777 38.9297 36.8629 39.4 37.2036L45.4556 41.6036C45.9222 41.9443 46.1111 42.5517 45.9111 43.0962L40.3667 58.274C38.8778 64.8777 34.2519 70.3295 27.9741 72.874L15.9259 77.7554C15.7704 77.8184 15.6037 77.8517 15.4408 77.8517L15.4371 77.848ZM38.6667 39.8777L26.6482 49.2888C26.6037 49.3258 26.5556 49.3554 26.5074 49.3851C21.3815 52.3999 18.0704 57.7443 17.6482 63.674L16.8778 74.5666L27 70.4666C32.5111 68.2332 36.5704 63.4332 37.8519 57.6258C37.863 57.5703 37.8815 57.5147 37.9 57.4591L43.1371 43.1221L38.6667 39.874V39.8777Z" fill="#272727"/>
<path d="M35.4334 42.5853L41.4889 38.1853L54.2741 48.2001C59.7667 51.4297 63.3186 57.1594 63.7667 63.5149L64.6852 76.4816L52.6371 71.6001C46.7297 69.2075 42.3815 64.0594 41.0038 57.8372L35.4297 42.5816L35.4334 42.5853Z" fill="#FFF194"/>
<path d="M64.6889 77.7815C64.526 77.7815 64.3593 77.7519 64.2037 77.6852L52.1556 72.8037C45.8778 70.2593 41.2519 64.8074 39.763 58.2037L34.2185 43.0297C34.0185 42.4852 34.2074 41.8778 34.6741 41.5371L40.7297 37.1371C41.1963 36.7963 41.8334 36.8074 42.2926 37.1667L55.0111 47.1297C60.8297 50.5852 64.5889 56.6704 65.0667 63.426L65.9852 76.3926C66.0186 76.8408 65.8148 77.2704 65.4556 77.5334C65.2297 77.6963 64.963 77.7815 64.6926 77.7815H64.6889ZM36.9852 43.0593L42.2223 57.3963C42.2408 57.4519 42.2593 57.5037 42.2704 57.563C43.5556 63.3704 47.6111 68.1704 53.1222 70.4037L63.2445 74.5037L62.4741 63.6074C62.0519 57.6741 58.7408 52.3334 53.6148 49.3186C53.5667 49.2889 53.5186 49.2556 53.4741 49.2223L41.4556 39.8111L36.9852 43.0593Z" fill="#272727"/>
<path d="M37.0521 48.0295L34.741 40.9109L48.215 31.8443C52.9854 27.6183 59.5299 26.0109 65.715 27.548L78.3336 30.6813L69.9669 40.6332C65.8669 45.5109 59.6262 48.0591 53.2817 47.4443L37.0521 48.0295Z" fill="#FFF194"/>
<path d="M37.0521 49.3258C36.4928 49.3258 35.9928 48.9665 35.8187 48.4295L33.5076 41.311C33.3298 40.7591 33.5372 40.1591 34.015 39.8332L47.4187 30.8147C52.5039 26.348 59.4521 24.6554 66.0261 26.2887L78.6446 29.4221C79.078 29.5295 79.4261 29.8554 79.5669 30.2813C79.7076 30.7072 79.615 31.1739 79.3261 31.5147L70.9595 41.4665C66.6002 46.6517 59.9854 49.3665 53.2446 48.7406L37.1002 49.3221C37.1002 49.3221 37.0706 49.3221 37.0521 49.3221V49.3258ZM36.2743 41.4406L37.9817 46.6998L53.2335 46.148C53.2928 46.148 53.3483 46.148 53.4039 46.1517C59.3224 46.7258 65.1446 44.3517 68.9706 39.7961L76.0002 31.4369L65.4002 28.8035C59.6261 27.3702 53.5224 28.8665 49.0706 32.8109C49.0261 32.848 48.9817 32.885 48.9335 32.9147L36.2706 41.4332L36.2743 41.4406Z" fill="#272727"/>
<path d="M40.2445 33.0853L43.1815 31.5408C46.7852 29.6482 50.9964 32.7075 50.3075 36.7186L49.7482 39.989C49.7186 40.1593 49.7741 40.3334 49.9001 40.4556L52.2741 42.7705C55.189 45.6112 53.5815 50.563 49.5519 51.1482L46.2667 51.626C46.0964 51.6519 45.9482 51.7593 45.8704 51.9149L44.4038 54.889C42.6038 58.5408 37.3964 58.5408 35.5964 54.889L34.1297 51.9149C34.0519 51.7593 33.9038 51.6519 33.7334 51.626L30.4482 51.1482C26.4186 50.563 24.8112 45.6112 27.726 42.7705L30.1001 40.4556C30.2223 40.3334 30.2815 40.1593 30.2519 39.989L29.6927 36.7186C29.0038 32.7075 33.2149 29.6482 36.8186 31.5408L39.7556 33.0853C39.9075 33.1667 40.0927 33.1667 40.2445 33.0853Z" fill="white"/>
<path d="M40.0001 58.9222C37.6186 58.9222 35.4853 57.5963 34.4334 55.463L33.1445 52.8518L30.2631 52.4333C27.9075 52.0926 25.989 50.4741 25.2519 48.2074C24.5149 45.9444 25.1186 43.5037 26.8223 41.8444L28.9075 39.8111L28.4149 36.9407C28.0112 34.5963 28.9593 32.2704 30.8853 30.8704C32.8112 29.4704 35.3149 29.2926 37.4223 30.3963L40.0001 31.7518L42.5779 30.3963C44.6853 29.2889 47.189 29.4704 49.1149 30.8704C51.0408 32.2704 51.9853 34.5963 51.5853 36.9407L51.0927 39.8111L53.1779 41.8444C54.8816 43.5074 55.4853 45.9444 54.7482 48.2074C54.0112 50.4704 52.0927 52.0889 49.7371 52.4333L46.8556 52.8518L45.5668 55.463C44.5149 57.5963 42.3816 58.9222 40.0001 58.9222ZM34.5223 32.263C33.7816 32.263 33.0519 32.5 32.4075 32.9667C31.2705 33.7926 30.7334 35.1148 30.9705 36.5037L31.5297 39.7741C31.6297 40.3667 31.4371 40.9667 31.0075 41.3852L28.6297 43.7C27.6223 44.6815 27.2816 46.0667 27.7149 47.4037C28.1482 48.7407 29.2408 49.663 30.6334 49.863L33.9186 50.3407C34.5112 50.4259 35.026 50.8 35.289 51.337L36.7556 54.3111C37.3779 55.5741 38.589 56.3259 39.9964 56.3259C41.4038 56.3259 42.6149 55.5741 43.2371 54.3111L44.7038 51.337C44.9705 50.8 45.4816 50.4259 46.0742 50.3407L49.3593 49.863C50.7519 49.6593 51.8408 48.7407 52.2779 47.4037C52.7112 46.0667 52.3705 44.6815 51.363 43.7L48.989 41.3852C48.5593 40.9667 48.3631 40.363 48.4668 39.7741L49.026 36.5037C49.263 35.1185 48.726 33.7963 47.589 32.9704C46.4519 32.1444 45.026 32.0407 43.7816 32.6963L40.8445 34.2407C40.3149 34.5185 39.6816 34.5185 39.1482 34.2407L36.2112 32.6963C35.6668 32.4111 35.089 32.2704 34.5186 32.2704L34.5223 32.263Z" fill="#272727"/>
<path d="M40.5188 39.2518L41.7077 38.8778C42.8151 38.5296 43.9448 39.3518 43.9559 40.5111L43.9707 41.7592C43.9744 42.1111 44.0855 42.4555 44.2892 42.7444L45.0114 43.763C45.6855 44.7111 45.2522 46.037 44.1522 46.4074L42.9707 46.8074C42.6374 46.9185 42.3448 47.1333 42.1337 47.4148L41.3892 48.4148C40.6966 49.3481 39.3003 49.3481 38.6077 48.4148L37.8633 47.4148C37.6522 47.1296 37.3596 46.9185 37.0262 46.8074L35.8448 46.4074C34.7448 46.037 34.3114 44.7111 34.9855 43.763L35.7077 42.7444C35.9114 42.4555 36.0225 42.1148 36.0262 41.7592L36.0411 40.5111C36.0522 39.3481 37.1818 38.5296 38.2892 38.8778L39.4781 39.2518C39.8151 39.3555 40.1744 39.3555 40.5114 39.2518H40.5188Z" fill="#FFF194"/>
<path d="M40.0002 50.4111C39.0335 50.4111 38.1484 49.9666 37.5706 49.1888L36.8261 48.1888C36.7743 48.1185 36.7002 48.0629 36.615 48.037L35.4335 47.637C34.515 47.3296 33.8187 46.6222 33.5187 45.7037C33.2187 44.7851 33.3706 43.8037 33.9298 43.0148L34.6521 41.9962C34.7039 41.9222 34.7298 41.837 34.7335 41.7481L34.7484 40.5C34.7595 39.5333 35.215 38.6518 35.9965 38.0814C36.778 37.5111 37.7595 37.3518 38.6817 37.6407L39.8743 38.0148C39.9595 38.0407 40.0484 38.0407 40.1335 38.0148L41.3224 37.6407C42.2447 37.3518 43.2261 37.5111 44.0076 38.0814C44.7891 38.6518 45.2447 39.5296 45.2558 40.5L45.2706 41.7481C45.2706 41.837 45.3002 41.9222 45.3521 41.9962L46.0743 43.0148C46.6335 43.8037 46.7854 44.7851 46.4854 45.7037C46.1854 46.6222 45.4891 47.3296 44.5706 47.637L43.3891 48.037C43.3039 48.0666 43.2298 48.1185 43.178 48.1888L42.4335 49.1888C41.8558 49.9666 40.9706 50.4111 40.0039 50.4111H40.0002ZM37.7706 40.0962C37.6558 40.0962 37.5669 40.1444 37.5187 40.1814C37.4521 40.2296 37.3409 40.337 37.3372 40.5296L37.3224 41.7777C37.315 42.4 37.1224 42.9925 36.7632 43.4999L36.0409 44.5185C35.9298 44.674 35.9558 44.8259 35.9817 44.9037C36.0076 44.9814 36.078 45.1222 36.2558 45.1814L37.4372 45.5814C38.0261 45.7777 38.5298 46.1481 38.9002 46.6444L39.6447 47.6444C39.7595 47.7962 39.9113 47.8185 39.9928 47.8185C40.0743 47.8185 40.2298 47.7962 40.3447 47.6407L41.0891 46.6407C41.4595 46.1444 41.9669 45.774 42.5521 45.5777L43.7335 45.1777C43.915 45.1185 43.9854 44.9777 44.0076 44.9C44.0335 44.8222 44.0595 44.6666 43.9484 44.5148L43.2261 43.4962C42.8669 42.9925 42.6743 42.3962 42.6669 41.774L42.6521 40.5259C42.6521 40.337 42.5372 40.2259 42.4706 40.1777C42.4039 40.1296 42.2669 40.0555 42.0854 40.1148L40.8965 40.4888C40.3039 40.674 39.678 40.674 39.0854 40.4888L37.8965 40.1148C37.8484 40.1 37.8039 40.0925 37.7632 40.0925L37.7706 40.0962Z" fill="#272727"/>
</svg>
