<svg width="80" height="80" viewBox="0 0 80 80" fill="none" xmlns="http://www.w3.org/2000/svg">
<path d="M34.2666 43.089C33.8443 43.089 33.448 42.8853 33.2036 42.5334C32.9332 42.1445 32.8962 41.6408 33.1073 41.2149C34.3147 38.7816 36.9814 33.9816 41.3036 29.1668C41.6962 28.7297 42.0962 28.3001 42.4851 27.8964C42.8777 27.489 43.2962 27.0668 43.7703 26.6112C45.4517 24.989 47.2295 23.526 49.048 22.2631C50.474 21.2742 52.0147 20.3408 53.6295 19.4964C54.0851 19.2557 54.574 19.0112 55.1221 18.7519C55.6221 18.5149 56.1406 18.2779 56.6703 18.0482C58.0221 17.4631 59.4295 16.9223 60.8629 16.4482C61.4221 16.2557 61.9703 16.0853 62.4332 15.9482C64.5258 15.3186 66.6666 14.8075 68.7999 14.4297C69.5295 14.3001 70.248 14.1853 70.9962 14.0816C71.2184 14.0482 71.4332 14.0223 71.6332 13.9964C71.7962 13.9742 71.9554 13.9594 72.111 13.9408C72.1851 13.9297 72.2592 13.9223 72.3295 13.9149H72.3703C72.8406 13.8594 73.2999 14.0668 73.574 14.4519C73.848 14.8371 73.8888 15.3408 73.6814 15.7668C73.6369 15.8594 73.5851 15.9594 73.5369 16.0594L73.2221 16.6668C73.1554 16.7927 73.0888 16.9223 73.0147 17.0594C72.6851 17.6779 72.3147 18.3371 71.9184 19.0075C70.8184 20.8668 69.611 22.6705 68.3295 24.3668C68.0036 24.8038 67.6591 25.2445 67.3073 25.6742C66.3629 26.8482 65.3629 27.989 64.3406 29.0557C63.9221 29.489 63.5295 29.8853 63.1406 30.2631C62.7036 30.689 62.3036 31.0594 61.9184 31.4038C60.5666 32.6223 59.1554 33.7445 57.7332 34.7371C55.9369 35.9853 53.9555 37.1371 51.848 38.1557C51.3036 38.4186 50.7443 38.6742 50.1888 38.9149C49.6888 39.1371 49.1629 39.3557 48.5888 39.5816C42.5777 41.952 37.1258 42.7927 34.411 43.0853C34.3666 43.089 34.3184 43.0927 34.274 43.0927L34.2666 43.089ZM70.1814 16.8223C69.874 16.8705 69.5666 16.9223 69.2555 16.9779C67.2221 17.3408 65.1777 17.8297 63.1814 18.426C62.7443 18.5594 62.2258 18.7186 61.6925 18.9001C60.3184 19.3557 58.9851 19.8631 57.7036 20.4186C57.2036 20.6371 56.7073 20.8631 56.2369 21.0853C55.7258 21.3297 55.2629 21.5594 54.8332 21.7853C53.311 22.5816 51.8629 23.4519 50.5295 24.3816C48.8221 25.5668 47.1554 26.9445 45.5703 28.4705C45.1221 28.9038 44.7221 29.3001 44.3554 29.6853C43.9814 30.0742 43.6036 30.4779 43.2295 30.8927C40.1703 34.2964 37.9851 37.6927 36.5925 40.1631C39.4073 39.7112 43.3703 38.8371 47.6295 37.1594C48.1703 36.9445 48.6666 36.7371 49.1443 36.5297C49.6777 36.2964 50.2036 36.0594 50.7147 35.8112C52.6962 34.8519 54.5592 33.7705 56.2443 32.6001C57.5777 31.6705 58.8999 30.6186 60.174 29.4705C60.5369 29.1445 60.911 28.7927 61.3258 28.3927C61.6962 28.0334 62.0666 27.6594 62.4629 27.2482C63.4332 26.2371 64.3814 25.1557 65.2814 24.0371C65.6147 23.626 65.9369 23.2112 66.248 22.8001C67.474 21.1779 68.6258 19.4594 69.674 17.6853C69.8443 17.3927 70.011 17.1038 70.174 16.8186L70.1814 16.8223Z" fill="#272727"/>
<path d="M55.8555 4.34824C56.0185 4.20009 56.1777 4.06306 56.3296 3.92972C56.4555 3.81861 56.5777 3.71491 56.7 3.61861C56.7703 3.55935 56.837 3.50009 56.9 3.44824C56.9222 3.54454 56.9444 3.65195 56.9666 3.75565C56.9962 3.9075 57.0296 4.06676 57.0629 4.23343C57.1 4.42972 57.1407 4.62972 57.174 4.84454C57.2925 5.48898 57.4148 6.23343 57.5296 7.05565C57.774 8.84083 57.9777 11.0112 58.0111 13.426C58.0185 13.9594 58.0185 14.5001 58.0074 15.0556C57.9814 16.4668 57.8925 17.9445 57.7185 19.4631C57.6555 20.0075 57.5814 20.5557 57.4963 21.1112C57.4148 21.6408 57.3222 22.1742 57.2148 22.7112C56.8925 24.3668 56.4555 26.0519 55.8777 27.726C55.137 29.8742 54.2074 31.889 53.174 33.7519C52.8851 34.2742 52.5851 34.789 52.2777 35.2853C51.9814 35.7779 51.674 36.2557 51.3666 36.7223C47.8185 42.0668 43.7037 45.826 41.7222 47.4779C41.174 44.9557 40.2518 39.4779 40.7481 33.0927C40.7925 32.5371 40.8444 31.9705 40.9111 31.4001C40.9777 30.8186 41.0592 30.2297 41.1518 29.6408C41.4851 27.526 41.9962 25.3594 42.7407 23.1964C43.3185 21.5186 44.0111 19.926 44.7777 18.4223C45.0259 17.9334 45.2814 17.4556 45.5444 16.989C45.8185 16.5038 46.1 16.026 46.3851 15.5556C47.1777 14.2594 48.0148 13.0445 48.8629 11.926C49.1925 11.4779 49.5296 11.0519 49.8592 10.6371C51.3962 8.72602 52.9185 7.11861 54.2296 5.84824C54.8222 5.27046 55.3703 4.77046 55.8555 4.33713V4.34824Z" fill="white"/>
<path d="M41.7186 48.7815C41.5778 48.7815 41.4334 48.7593 41.2963 48.7112C40.8667 48.563 40.5482 48.2038 40.4519 47.7593C39.863 45.0371 38.9482 39.5 39.4519 33C39.5 32.4075 39.5556 31.8223 39.6223 31.2593C39.6852 30.6926 39.7667 30.1 39.8704 29.4482C40.2371 27.1297 40.7889 24.8852 41.5149 22.7852C42.0815 21.1408 42.7926 19.4778 43.6223 17.8445C43.8556 17.3852 44.1149 16.9 44.4112 16.3667C44.6815 15.8852 44.9741 15.3926 45.2778 14.8926C46.0519 13.6297 46.9074 12.3704 47.8297 11.1556C48.1815 10.6778 48.5445 10.2223 48.8482 9.83708C50.2334 8.11486 51.7408 6.46301 53.326 4.92597C53.8704 4.40004 54.4149 3.89264 54.9889 3.38153C55.1593 3.22597 55.326 3.08153 55.4815 2.94819C55.6074 2.83708 55.7334 2.73338 55.8556 2.62967C55.9149 2.57782 55.9704 2.52967 56.026 2.48523L56.0593 2.4593C56.4037 2.16671 56.8778 2.07782 57.3074 2.22227C57.7371 2.36671 58.0593 2.72597 58.1593 3.16671C58.1815 3.27041 58.2074 3.38153 58.2297 3.49634L58.3667 4.18893C58.3926 4.32967 58.4223 4.47782 58.4482 4.62967C58.5778 5.33708 58.7 6.10004 58.8074 6.88153C59.1037 9.06671 59.2704 11.263 59.3 13.4149C59.3112 13.9667 59.3074 14.5334 59.2963 15.0926C59.2667 16.6149 59.1667 18.1408 59 19.6186C58.9297 20.2223 58.8556 20.7778 58.7704 21.3186C58.6741 21.926 58.5815 22.4667 58.4815 22.9741C58.1297 24.7704 57.6667 26.5149 57.1 28.1593C56.3852 30.2371 55.4445 32.3334 54.3074 34.3926C54.0112 34.9223 53.7 35.4556 53.3815 35.9778C53.1 36.4445 52.7926 36.9297 52.4482 37.4519C48.8482 42.8741 44.7037 46.6926 42.5519 48.4889C42.3149 48.6852 42.0186 48.7889 41.7223 48.7889L41.7186 48.7815ZM56.0445 5.92227C55.7371 6.20745 55.4334 6.49264 55.1297 6.78523C53.6186 8.24819 52.1852 9.81856 50.8667 11.4556C50.5778 11.8149 50.2371 12.2482 49.9037 12.7C49.026 13.863 48.2149 15.0482 47.4889 16.2408C47.2 16.7112 46.926 17.1815 46.6704 17.6334C46.3926 18.1297 46.1482 18.5852 45.9334 19.0149C45.1556 20.5445 44.4926 22.0963 43.9667 23.626C43.2926 25.5852 42.7741 27.6778 42.4334 29.8482C42.3371 30.463 42.2593 31.0223 42.2 31.5519C42.1371 32.0889 42.0852 32.6408 42.0408 33.2C41.6704 37.9408 42.1 42.1445 42.5704 45.0112C44.7149 43.0334 47.6519 39.9704 50.2852 36.0075C50.6074 35.5186 50.8963 35.0667 51.1667 34.6186C51.4704 34.1223 51.763 33.6223 52.0408 33.126C53.1074 31.2 53.9852 29.2408 54.6519 27.3037C55.1815 25.7704 55.6149 24.1445 55.9408 22.463C56.0371 21.9852 56.126 21.4778 56.2112 20.9112C56.2889 20.4037 56.3593 19.8815 56.426 19.3112C56.5852 17.9186 56.6778 16.4778 56.7074 15.0297C56.7186 14.5 56.7223 13.9667 56.7111 13.4445C56.6815 11.3926 56.526 9.30375 56.2408 7.22597C56.1778 6.78153 56.1149 6.34449 56.0445 5.91856V5.92227Z" fill="#272727"/>
<path d="M43.7038 48.3483H36.2186L31.7594 32.7298C29.2149 26.8853 29.7075 20.1668 33.0816 14.7594L39.9594 3.72607L46.8371 14.7594C50.2075 20.1668 50.7038 26.889 48.1594 32.7298L43.7001 48.3483H43.7038Z" fill="white"/>
<path d="M43.7039 49.6445H36.2187C35.6409 49.6445 35.1298 49.2594 34.9705 48.7038L30.5372 33.1668C27.8594 26.9482 28.4002 19.8186 31.9817 14.0705L38.8594 3.03714C39.0965 2.65936 39.5113 2.42603 39.9594 2.42603C40.4076 2.42603 40.8224 2.65565 41.0594 3.03714L47.9372 14.0705C51.5224 19.8186 52.0594 26.9482 49.3817 33.1668L44.9483 48.7038C44.7891 49.2594 44.2817 49.6445 43.7002 49.6445H43.7039ZM37.1965 47.0519H42.7261L46.915 32.3742C46.9298 32.3186 46.9483 32.2668 46.9743 32.2112C49.3483 26.7594 48.8891 20.489 45.7409 15.4445L39.9631 6.17788L34.1854 15.4445C31.0372 20.4927 30.578 26.7594 32.952 32.2112C32.9742 32.2631 32.9928 32.3186 33.0113 32.3742L37.2002 47.0519H37.1965Z" fill="#272727"/>
<path d="M45.2593 40.7408L42.9482 47.8593L26.7186 47.2741C20.3742 47.889 14.1371 45.3408 10.0334 40.463L1.66675 30.5075L14.2853 27.3741C20.4705 25.8371 27.0149 27.4445 31.7853 31.6704L45.2593 40.7371V40.7408Z" fill="white"/>
<path d="M42.9483 49.1519C42.9483 49.1519 42.9186 49.1519 42.9001 49.1519L26.7557 48.5704C20.0149 49.1963 13.4001 46.4778 9.04085 41.2963L0.674185 31.3445C0.385297 31.0037 0.296408 30.5334 0.433445 30.1112C0.570482 29.6852 0.91863 29.363 1.35567 29.2519L13.9742 26.1186C20.5483 24.4852 27.4964 26.1778 32.5816 30.6445L45.9853 39.663C46.4668 39.9852 46.6742 40.5889 46.4927 41.1408L44.1816 48.2593C44.0075 48.7963 43.5075 49.1556 42.9483 49.1556V49.1519ZM26.7186 45.9741C26.7186 45.9741 26.7483 45.9741 26.7668 45.9741L42.0186 46.526L43.726 41.2667L31.0631 32.7482C31.0149 32.7149 30.9705 32.6815 30.926 32.6445C26.4742 28.7 20.3705 27.2037 14.5964 28.6371L3.99641 31.2704L11.026 39.6297C14.852 44.1815 20.6742 46.5593 26.5927 45.9852C26.6334 45.9815 26.6779 45.9778 26.7186 45.9778V45.9741Z" fill="#272727"/>
<path d="M38.637 37.9741L44.6926 42.3741L39.1185 57.6297C37.7444 63.8519 33.3926 69 27.4852 71.3926L15.437 76.2741L16.3555 63.3075C16.8074 56.9519 20.3555 51.2223 25.8481 47.9926L38.6333 37.9778L38.637 37.9741Z" fill="white"/>
<path d="M15.4371 77.5705C15.1667 77.5705 14.9 77.4853 14.6741 77.3223C14.3111 77.0593 14.1111 76.6297 14.1445 76.1816L15.063 63.2149C15.5408 56.4593 19.2963 50.3742 25.1185 46.9186L37.8371 36.9556C38.2926 36.6001 38.9297 36.5853 39.4 36.926L45.4556 41.326C45.9222 41.6667 46.1111 42.2742 45.9111 42.8186L40.3667 57.9927C38.8778 64.5964 34.2519 70.0482 27.9741 72.5927L15.9259 77.4742C15.7704 77.5371 15.6037 77.5705 15.4408 77.5705H15.4371ZM38.6667 39.6001L26.6482 49.0112C26.6037 49.0482 26.5556 49.0779 26.5074 49.1075C21.3815 52.1223 18.0704 57.4667 17.6482 63.3964L16.8778 74.289L27 70.189C32.5111 67.9556 36.5704 63.1556 37.8519 57.3482C37.863 57.2927 37.8815 57.2371 37.9 57.1816L43.1371 42.8445L38.6667 39.5964V39.6001Z" fill="#272727"/>
<path d="M35.4334 42.3075L41.4889 37.9075L54.2741 47.9223C59.7667 51.1519 63.3186 56.8815 63.7667 63.2371L64.6852 76.2038L52.6371 71.3223C46.7297 68.9297 42.3815 63.7815 41.0038 57.5593L35.4297 42.3038L35.4334 42.3075Z" fill="white"/>
<path d="M64.6889 77.5037C64.526 77.5037 64.3593 77.4741 64.2037 77.4074L52.1556 72.5259C45.8778 69.9815 41.2519 64.5296 39.763 57.9259L34.2185 42.7482C34.0185 42.2037 34.2074 41.5963 34.6741 41.2556L40.7297 36.8556C41.1963 36.5148 41.8334 36.5259 42.2926 36.8852L55.0111 46.8482C60.8297 50.3037 64.5889 56.3889 65.0667 63.1445L65.9852 76.1111C66.0186 76.5593 65.8148 76.9889 65.4556 77.2519C65.2297 77.4148 64.963 77.5 64.6926 77.5L64.6889 77.5037ZM36.9852 42.7815L42.2223 57.1185C42.2408 57.1741 42.2593 57.2259 42.2704 57.2852C43.5556 63.0926 47.6111 67.8926 53.1222 70.1259L63.2445 74.2259L62.4741 63.3334C62.0519 57.4 58.7408 52.0593 53.6148 49.0445C53.5667 49.0148 53.5186 48.9815 53.4741 48.9482L41.4556 39.5371L36.9852 42.7852V42.7815Z" fill="#272727"/>
<path d="M37.0521 47.7482L34.741 40.6297L48.215 31.563C52.9854 27.3371 59.5299 25.7297 65.715 27.2667L78.3336 30.4001L69.9669 40.3519C65.8669 45.2297 59.6262 47.7778 53.2817 47.163L37.0521 47.7482Z" fill="white"/>
<path d="M37.0521 49.0445C36.4928 49.0445 35.9928 48.6853 35.8187 48.1482L33.5076 41.0297C33.3298 40.4778 33.5372 39.8778 34.015 39.5519L47.4187 30.5334C52.5039 26.0667 59.4521 24.3741 66.0261 26.0075L78.6446 29.1408C79.078 29.2482 79.4261 29.5741 79.5669 30.0001C79.7076 30.426 79.615 30.8927 79.3261 31.2334L70.9595 41.1853C66.6002 46.3704 59.9854 49.0853 53.2446 48.4593L37.1002 49.0408C37.1002 49.0408 37.0706 49.0408 37.0521 49.0408V49.0445ZM36.2743 41.1593L37.9817 46.4186L53.2335 45.8667C53.2928 45.8667 53.3483 45.8667 53.4039 45.8704C59.3224 46.4445 65.1446 44.0704 68.9706 39.5149L76.0002 31.1556L65.4002 28.5223C59.6261 27.089 53.5224 28.589 49.0706 32.5297C49.0261 32.5667 48.9817 32.6038 48.9335 32.6334L36.2706 41.1519L36.2743 41.1593Z" fill="#272727"/>
<path d="M40.2445 32.8074L43.1815 31.263C46.7852 29.3704 50.9964 32.4297 50.3075 36.4408L49.7482 39.7111C49.7186 39.8815 49.7741 40.0556 49.9001 40.1778L52.2741 42.4926C55.189 45.3334 53.5815 50.2852 49.5519 50.8704L46.2667 51.3482C46.0964 51.3741 45.9482 51.4815 45.8704 51.6371L44.4038 54.6111C42.6038 58.263 37.3964 58.263 35.5964 54.6111L34.1297 51.6371C34.0519 51.4815 33.9038 51.3741 33.7334 51.3482L30.4482 50.8704C26.4186 50.2852 24.8112 45.3334 27.726 42.4926L30.1001 40.1778C30.2223 40.0556 30.2815 39.8815 30.2519 39.7111L29.6927 36.4408C29.0038 32.4297 33.2149 29.3704 36.8186 31.263L39.7556 32.8074C39.9075 32.8889 40.0927 32.8889 40.2445 32.8074Z" fill="white"/>
<path d="M40.0001 58.6407C37.6186 58.6407 35.4853 57.3148 34.4334 55.1815L33.1445 52.5704L30.2631 52.1518C27.9075 51.8111 25.989 50.1889 25.2519 47.9259C24.5149 45.6629 25.1186 43.2259 26.8223 41.5629L28.9075 39.5296L28.4149 36.6592C28.0112 34.3148 28.9593 31.9852 30.8853 30.5889C32.8112 29.1889 35.3149 29.0074 37.4223 30.1148L40.0001 31.4704L42.5779 30.1148C44.6853 29.0074 47.189 29.1889 49.1149 30.5889C51.0408 31.9889 51.9853 34.3148 51.5853 36.6592L51.0927 39.5296L53.1779 41.5629C54.8816 43.2259 55.4853 45.6629 54.7482 47.9259C54.0112 50.1889 52.0927 51.8074 49.7371 52.1518L46.8556 52.5704L45.5668 55.1815C44.5149 57.3148 42.3816 58.6407 40.0001 58.6407ZM34.5223 31.9815C33.7816 31.9815 33.0519 32.2185 32.4075 32.6852C31.2705 33.5111 30.7334 34.8333 30.9705 36.2222L31.5297 39.4926C31.6297 40.0852 31.4371 40.6852 31.0075 41.1037L28.6297 43.4185C27.6223 44.4 27.2816 45.7852 27.7149 47.1222C28.1482 48.4592 29.2408 49.3815 30.6334 49.5815L33.9149 50.0592C34.5075 50.1444 35.0223 50.5185 35.2853 51.0555L36.7519 54.0296C37.3742 55.2926 38.5853 56.0444 39.9927 56.0444C41.4001 56.0444 42.6112 55.2926 43.2334 54.0296L44.7001 51.0555C44.9668 50.5185 45.4779 50.1444 46.0742 50.0592L49.3556 49.5815C50.7482 49.3778 51.8371 48.4592 52.2742 47.1222C52.7075 45.7852 52.3668 44.4 51.3593 43.4185L48.9816 41.1037C48.5519 40.6852 48.3556 40.0815 48.4593 39.4926L49.0186 36.2222C49.2556 34.837 48.7186 33.5148 47.5816 32.6852C46.4445 31.8592 45.0186 31.7555 43.7742 32.4111L40.8371 33.9555C40.3075 34.2333 39.6742 34.2333 39.1408 33.9555L36.2038 32.4111C35.6593 32.1259 35.0816 31.9852 34.5112 31.9852L34.5223 31.9815Z" fill="#272727"/>
<path d="M40.0002 50.1295C39.0335 50.1295 38.1484 49.6851 37.5706 48.9073L36.8261 47.9073C36.7743 47.8369 36.7002 47.7814 36.615 47.7555L35.4335 47.3592C34.515 47.0517 33.8187 46.3443 33.5187 45.4258C33.2187 44.5073 33.3706 43.5258 33.9298 42.7369L34.6521 41.7184C34.7039 41.6443 34.7298 41.5592 34.7335 41.4703L34.7484 40.2221C34.7595 39.2555 35.215 38.374 35.9965 37.8036C36.778 37.2332 37.7595 37.074 38.6817 37.3629L39.8706 37.7369C39.9558 37.7629 40.0447 37.7629 40.1298 37.7369L41.3187 37.3629C42.2409 37.074 43.2224 37.2332 44.0039 37.8036C44.7854 38.374 45.2409 39.2555 45.2521 40.2221L45.2669 41.4703C45.2669 41.5592 45.2965 41.6443 45.3484 41.7184L46.0706 42.7369C46.6298 43.5258 46.7817 44.5073 46.4817 45.4258C46.1817 46.3443 45.4854 47.0517 44.5669 47.3592L43.3854 47.7592C43.3002 47.7888 43.2298 47.8406 43.1743 47.911L42.4298 48.911C41.8521 49.6888 40.9669 50.1332 40.0002 50.1332V50.1295ZM37.7706 39.8147C37.6558 39.8147 37.5669 39.8629 37.5187 39.8999C37.4521 39.948 37.3409 40.0555 37.3372 40.248L37.3224 41.4962C37.315 42.1147 37.1224 42.711 36.7632 43.2184L36.0409 44.2369C35.9298 44.3925 35.9558 44.5443 35.9817 44.6221C36.0076 44.6999 36.078 44.8406 36.2558 44.8999L37.4372 45.2999C38.0261 45.4999 38.5335 45.8666 38.9002 46.3629L39.6447 47.3629C39.7595 47.5147 39.9113 47.5406 39.9928 47.5406C40.0743 47.5406 40.2298 47.5184 40.3409 47.3629L41.0854 46.3629C41.4558 45.8666 41.9595 45.4962 42.5484 45.2999L43.7298 44.8999C43.9113 44.8406 43.9817 44.6999 44.0039 44.6221C44.0298 44.5443 44.0558 44.3888 43.9447 44.2369L43.2224 43.2184C42.8632 42.711 42.6706 42.1184 42.6632 41.4962L42.6484 40.248C42.6484 40.0555 42.5335 39.948 42.4669 39.8999C42.4002 39.8517 42.2632 39.7814 42.0817 39.8369L40.8891 40.211C40.2965 40.3962 39.6706 40.3962 39.078 40.211L37.8854 39.8369C37.8372 39.8221 37.7928 39.8147 37.7521 39.8147H37.7706Z" fill="#272727"/>
</svg>
