<svg width="80" height="80" viewBox="0 0 80 80" fill="none" xmlns="http://www.w3.org/2000/svg">
<path d="M33.0185 56.263C27.8926 56.263 23.7185 52.0926 23.7185 46.963C23.7185 41.8333 27.8889 37.663 33.0185 37.663C38.1481 37.663 42.3185 41.8333 42.3185 46.963C42.3185 52.0926 38.1481 56.263 33.0185 56.263ZM33.0185 40.2593C29.3222 40.2593 26.3111 43.2667 26.3111 46.9667C26.3111 50.6667 29.3185 53.6741 33.0185 53.6741C36.7185 53.6741 39.7259 50.6667 39.7259 46.9667C39.7259 43.2667 36.7185 40.2593 33.0185 40.2593Z" fill="#272727"/>
<path d="M33.0185 79.6148C15.0185 79.6148 0.370361 64.9667 0.370361 46.963C0.370361 28.9593 15.0185 14.3148 33.0185 14.3148C51.0185 14.3148 65.6667 28.963 65.6667 46.963C65.6667 64.963 51.0185 79.6111 33.0185 79.6111V79.6148ZM33.0185 16.9074C16.4444 16.9074 2.96295 30.3889 2.96295 46.963C2.96295 63.537 16.4444 77.0185 33.0185 77.0185C49.5926 77.0185 63.0741 63.5333 63.0741 46.963C63.0741 30.3926 49.5926 16.9074 33.0185 16.9074V16.9074Z" fill="#272727"/>
<path d="M33.0184 67.6741C21.5999 67.6741 12.311 58.3852 12.311 46.9667C12.311 35.5482 21.5999 26.2593 33.0184 26.2593C44.437 26.2593 53.7258 35.5482 53.7258 46.9667C53.7258 58.3852 44.437 67.6741 33.0184 67.6741ZM33.0184 28.8482C23.0296 28.8482 14.9036 36.9741 14.9036 46.963C14.9036 56.9519 23.0296 65.0778 33.0184 65.0778C43.0073 65.0778 51.1333 56.9519 51.1333 46.963C51.1333 36.9741 43.0073 28.8482 33.0184 28.8482V28.8482Z" fill="#272727"/>
<path d="M61.1 20.1963C60.9333 20.1963 60.763 20.163 60.6037 20.0963C60.1185 19.8963 59.8037 19.4223 59.8037 18.9V9.97411C59.8037 9.63336 59.937 9.30744 60.1778 9.06299L68.337 0.774104C68.7074 0.40003 69.2667 0.285216 69.7519 0.485216C70.237 0.685216 70.5556 1.15929 70.5556 1.68522V10.7408C70.5556 11.0852 70.4185 11.4148 70.1741 11.6556L62.0111 19.8185C61.763 20.0667 61.4333 20.2 61.0926 20.2L61.1 20.1963ZM62.3963 10.5037V15.7704L67.9667 10.2V4.84818L62.3963 10.5074V10.5037Z" fill="#272727"/>
<path d="M70.0407 20.2149H61.0999C60.574 20.2149 60.1036 19.9001 59.9036 19.4149C59.7036 18.9297 59.8148 18.3742 60.1851 18.0001L68.3629 9.83713C68.6073 9.59639 68.937 9.45935 69.2777 9.45935H78.3333C78.8592 9.45935 79.3333 9.77787 79.5333 10.2631C79.7333 10.7482 79.6185 11.3075 79.2444 11.6779L70.9518 19.8408C70.7111 20.0779 70.3814 20.2149 70.0407 20.2149V20.2149ZM64.2333 17.6223H69.511L75.1703 12.0519H69.8148L64.237 17.6223H64.2333Z" fill="#272727"/>
<path d="M33.0593 48.2519C32.726 48.2519 32.3963 48.126 32.1445 47.8704C31.6371 47.363 31.6371 46.5445 32.1445 46.0371L63.2037 14.9815C63.7111 14.4741 64.5297 14.4741 65.0371 14.9815C65.5445 15.4889 65.5445 16.3074 65.0371 16.8148L33.9778 47.8741C33.726 48.126 33.3926 48.2556 33.063 48.2556L33.0593 48.2519Z" fill="#272727"/>
</svg>
