<svg width="80" height="80" viewBox="0 0 80 80" fill="none" xmlns="http://www.w3.org/2000/svg">
<path d="M78.3334 39.8778V40.2481C78.3334 44.6407 74.7742 48.2 70.3816 48.2H68.3927C66.5853 48.2 64.9408 48.8926 63.7038 50.0259C62.4704 51.1593 61.6519 52.737 61.4927 54.5037L61.1149 57.5185L60.4705 62.6889L59.4593 73.3889C59.4001 73.9889 59.1223 74.5148 58.7075 74.8963C58.289 75.2741 57.7408 75.5037 57.1371 75.5037C56.0593 75.5037 55.126 74.7667 54.8704 73.7222L52.1816 62.6889H50.7445L49.1927 73.5C49.0297 74.6482 48.0445 75.5037 46.8853 75.5037H46.7853C45.7112 75.5037 44.7742 74.7667 44.5186 73.7222L41.8297 62.6889H35.5964L34.0482 73.5C33.8816 74.6482 32.8964 75.5037 31.7371 75.5037H31.6371C30.5593 75.5037 29.6223 74.7667 29.3705 73.7222L26.6816 62.6889H25.2445L23.6964 73.5C23.5297 74.6482 22.5482 75.5037 21.3853 75.5037H21.3445C20.2408 75.5037 19.289 74.7296 19.063 73.6519L14.3705 51.4815C7.55193 50.3778 2.26304 44.7185 1.7149 37.7259C1.68527 37.3333 1.66675 36.937 1.66675 36.5333V4.5C1.66675 4.5 9.41119 9.11482 9.41119 18.7222C9.41119 28.3296 9.5149 31.4 10.5038 35.0963C11.0186 37.0074 12.4556 40.7333 15.1927 42.5889C17.4038 44.0889 18.4075 44.4519 22.1334 44.4519C24.5149 44.4519 29.5408 42.9704 36.9482 42.8593C41.6334 42.7889 46.8667 44.2148 50.7742 43.8963C54.1186 43.6259 57.2038 41.9889 59.3371 39.4037L65.5149 31.9259C67.7964 31.9259 70.0149 32.6778 71.826 34.063L78.289 39.0148C78.3186 39.3 78.3334 39.5852 78.3334 39.8778V39.8778Z" fill="#81A5B5"/>
<path d="M57.137 76.8001C55.4592 76.8001 54.0111 75.663 53.6111 74.0297L51.6074 65.8038L50.4778 73.6815C50.2259 75.4556 48.6815 76.7964 46.8889 76.7964H46.7889C45.1111 76.7964 43.663 75.6556 43.263 74.026L40.8148 63.9815H36.7222L35.3333 73.6815C35.0741 75.4593 33.5296 76.7964 31.7407 76.7964H31.6407C29.9592 76.7964 28.5074 75.6556 28.1148 74.0223L26.1111 65.8038L24.9815 73.6815C24.7222 75.4593 23.1778 76.7964 21.3889 76.7964H21.3481C19.6407 76.7964 18.1481 75.5852 17.7963 73.9149L13.2815 52.5926C6.22592 51.0593 0.992584 45.1038 0.422213 37.826C0.38888 37.3593 0.370361 36.9371 0.370361 36.5334V4.50005C0.370361 4.03339 0.622213 3.60376 1.02592 3.37413C1.42962 3.1445 1.92962 3.1482 2.32962 3.38894C2.67036 3.59265 10.7074 8.50005 10.7074 18.726C10.7074 28.4112 10.8296 31.3075 11.7555 34.7667C12.3815 37.0926 13.8037 40.0889 15.9185 41.5223C17.9074 42.8741 18.663 43.163 22.1333 43.163C22.9148 43.163 24.1333 42.963 25.6778 42.7112C28.4259 42.2593 32.1889 41.6445 36.9296 41.5704C39.2481 41.5371 41.6481 41.8482 43.9667 42.1482C46.4296 42.4667 48.7555 42.7667 50.6667 42.6112C53.6259 42.3704 56.4222 40.9038 58.3333 38.5852L64.5111 31.1075C64.7555 30.8075 65.1222 30.6371 65.5111 30.6371C68.063 30.6371 70.5815 31.4889 72.6111 33.0408L79.0741 37.9926C79.3555 38.2112 79.537 38.5334 79.5741 38.8889C79.6074 39.2223 79.6259 39.5482 79.6259 39.8852V40.2556C79.6259 45.3556 75.4778 49.5038 70.3778 49.5038H68.3889C66.9741 49.5038 65.6222 50.0297 64.5741 50.9889C63.5444 51.9371 62.9037 53.2297 62.7778 54.626C62.7778 54.6408 62.7778 54.6556 62.7741 54.6704L61.7555 62.8371L60.7444 73.5186C60.6555 74.4186 60.2407 75.2482 59.5815 75.8593C58.9 76.4741 58.0333 76.8075 57.1333 76.8075L57.137 76.8001ZM50.7444 61.3926H52.1815C52.7778 61.3926 53.3 61.8001 53.4407 62.3815L56.1296 73.4149C56.2444 73.8815 56.6592 74.2075 57.137 74.2075C57.4667 74.2075 57.7 74.0593 57.8407 73.9334C57.9667 73.8149 58.137 73.5964 58.1704 73.2593L59.1815 62.563C59.1815 62.563 59.1815 62.5371 59.1852 62.526L60.2037 54.363C60.3926 52.3297 61.3222 50.4519 62.8259 49.0704C64.3518 47.6704 66.3296 46.9038 68.3926 46.9038H70.3815C74.0518 46.9038 77.037 43.9186 77.037 40.2482V39.8778C77.037 39.8149 77.037 39.7519 77.037 39.6852L71.0407 35.0889C69.6222 34.0038 67.8926 33.3556 66.1111 33.2371L60.337 40.226C57.9815 43.0815 54.5333 44.8889 50.8778 45.1852C48.6926 45.363 46.2333 45.0445 43.6333 44.7075C41.4037 44.4186 39.1 44.1186 36.9667 44.1519C32.4185 44.2186 28.763 44.8186 26.0963 45.2556C24.437 45.5297 23.1259 45.7445 22.1333 45.7445C18.1111 45.7445 16.8852 45.3001 14.463 43.6593C11.063 41.3519 9.61481 36.7778 9.25184 35.4297C8.20369 31.5075 8.11481 28.1334 8.11481 18.7186C8.11481 12.9482 5.06666 9.11487 2.96295 7.15561V36.5334C2.96295 36.8704 2.97777 37.2297 3.0074 37.6297C3.5074 44.0075 8.26666 49.1815 14.5778 50.2038C15.1074 50.2889 15.5296 50.6926 15.637 51.2149L20.3296 73.3852C20.4296 73.863 20.8555 74.2075 21.3444 74.2075H21.3852C21.8963 74.2075 22.3407 73.8223 22.4148 73.3149L23.963 62.5075C24.0555 61.8704 24.6 61.3964 25.2444 61.3964H26.6815C27.2778 61.3964 27.8 61.8038 27.9407 62.3852L30.6296 73.4186C30.7407 73.8852 31.1555 74.2112 31.637 74.2112H31.737C32.2481 74.2112 32.6926 73.826 32.7667 73.3186L34.3148 62.5112C34.4074 61.8741 34.9518 61.4001 35.5963 61.4001H41.8296C42.4259 61.4001 42.9481 61.8075 43.0889 62.3889L45.7778 73.4223C45.8926 73.8889 46.3074 74.2149 46.7852 74.2149H46.8852C47.3963 74.2149 47.837 73.8334 47.9074 73.326L49.4592 62.5112C49.5518 61.8741 50.0963 61.4001 50.7407 61.4001L50.7444 61.3926Z" fill="#272727"/>
<path d="M67.2555 39.4296C66.5407 39.4296 65.9592 38.8481 65.9592 38.1333V37.8407C65.9592 37.1259 66.5407 36.5444 67.2555 36.5444C67.9703 36.5444 68.5518 37.1259 68.5518 37.8407V38.1333C68.5518 38.8481 67.9703 39.4296 67.2555 39.4296Z" fill="#272727"/>
<path d="M22.1333 45.7481C18.1111 45.7481 16.8852 45.3037 14.463 43.6629C11.063 41.3555 9.61481 36.7814 9.25184 35.4333C8.2037 31.5111 8.11481 28.137 8.11481 18.7222C8.11481 9.9518 1.07407 5.65551 0.999992 5.61106C0.499992 5.31106 0.259251 4.71477 0.414807 4.1518C0.570362 3.58884 1.08147 3.19995 1.66295 3.19995C6.05555 3.19995 10.1852 4.91106 13.2889 8.01847C16.3963 11.1259 18.1074 15.2518 18.1074 19.6407L18.3407 31.6296C18.3852 33.1814 19.2111 34.9592 20.3481 35.9444C20.7889 36.3259 21.4778 36.7629 22.263 36.674C23.7481 36.4703 25.0148 36.2888 26.1 36.137C32.3704 35.2555 32.4926 35.237 37.5185 35.237C37.537 35.237 37.5592 35.237 37.5778 35.237L51.1148 35.8703C51.3518 35.8629 52.1741 35.7481 53.063 35.4074C54 35.0444 54.6592 34.5629 54.9222 34.0555L57.8333 28.3592C58.1407 27.7629 58.6037 27.2629 59.1741 26.9148C59.7407 26.5666 60.3963 26.3814 61.0704 26.3814C62.1815 26.3814 63.2518 26.9074 63.937 27.7851L66.5333 31.1259C66.9074 31.6037 66.8963 32.2777 66.5074 32.7481L60.3296 40.2259C57.9741 43.0814 54.5259 44.8888 50.8704 45.1851C48.6852 45.3629 46.2259 45.0444 43.6259 44.7074C41.3963 44.4185 39.0926 44.1185 36.9592 44.1518C32.4111 44.2185 28.7555 44.8185 26.0889 45.2555C24.4296 45.5296 23.1185 45.7444 22.1259 45.7444L22.1333 45.7481ZM5.92962 6.45921C8.19999 8.95921 10.7074 13.0111 10.7074 18.7185C10.7074 28.4037 10.8296 31.2999 11.7555 34.7592C12.3815 37.0851 13.8037 40.0814 15.9185 41.5148C17.9074 42.8666 18.663 43.1555 22.1333 43.1555C22.9148 43.1555 24.1333 42.9555 25.6778 42.7037C28.4259 42.2518 32.1889 41.637 36.9296 41.5629C39.2518 41.5259 41.6481 41.8407 43.9667 42.1407C46.4296 42.4592 48.7555 42.7592 50.6667 42.6037C53.6259 42.3629 56.4222 40.8962 58.3333 38.5777L63.8518 31.8999L61.8926 29.3777C61.5778 28.974 60.9592 28.8629 60.5333 29.1259C60.363 29.2296 60.2296 29.374 60.1407 29.5444L57.2259 35.2407C56.663 36.3333 55.5481 37.2259 53.9963 37.8259C52.8555 38.2666 51.6889 38.4666 51.0889 38.4666C51.0704 38.4666 51.0481 38.4666 51.0296 38.4666L37.4852 37.8333C34.2728 37.8333 30.5963 38.1246 26.4555 38.7074C25.3704 38.8592 24.1 39.037 22.5852 39.2481C21.1926 39.4074 19.8407 38.9444 18.6444 37.9074C16.9481 36.437 15.8111 34 15.7444 31.6925L15.5111 19.6666C15.5111 15.9444 14.0704 12.4666 11.4518 9.8518C9.87407 8.27402 7.98518 7.12588 5.92221 6.45921H5.92962Z" fill="#272727"/>
</svg>
