<svg width="80" height="80" viewBox="0 0 80 80" fill="none" xmlns="http://www.w3.org/2000/svg">
<path d="M22.4112 37.963C19.5927 38.2852 17.1334 34.7593 17.0445 31.6593L16.8112 19.6444C16.8112 15.463 15.1186 11.6741 12.3779 8.93333C9.63712 6.19259 5.84823 4.5 1.66675 4.5V36.5333C1.66675 36.937 1.68156 37.3333 1.7149 37.7259C2.25934 44.7185 7.55193 50.3778 14.3705 51.4815L19.063 73.6519C19.2927 74.7296 20.2445 75.5037 21.3445 75.5037H21.3853C22.5445 75.5037 23.5297 74.6519 23.6964 73.5L25.2445 62.6889H26.6816L29.3705 73.7222C29.626 74.7667 30.563 75.5037 31.6371 75.5037H31.7371C32.8964 75.5037 33.8816 74.6519 34.0482 73.5L35.5964 62.6889H41.8297L44.5186 73.7222C44.7742 74.7667 45.7112 75.5037 46.7853 75.5037H46.8816C48.0408 75.5037 49.026 74.6519 49.1927 73.5L50.7408 62.6889H52.1816L54.8704 73.7222C55.126 74.7667 56.063 75.5037 57.1371 75.5037C58.3408 75.5037 59.3482 74.5889 59.4593 73.3889L60.4705 62.6889L61.1149 57.5185L61.4927 54.5037C61.8075 50.9704 64.7779 48.2 68.3927 48.2H70.3816C74.7742 48.2 78.3334 44.6407 78.3334 40.2481V39.8778C78.3334 39.5852 78.3186 39.3 78.2853 39.0148L71.8223 34.063C70.0112 32.6741 67.7927 31.9222 65.5112 31.9222L62.9149 28.5815C62.4704 28.0111 61.7927 27.6778 61.0704 27.6778C60.1927 27.6778 59.389 28.1704 58.989 28.9519L56.0742 34.6519C55.1001 36.537 51.926 37.1704 51.0927 37.1704L37.5186 36.537C31.7186 36.537 32.6001 36.5556 22.4075 37.963H22.4112Z" fill="white"/>
<path d="M57.1333 76.7962C55.4555 76.7962 54.0037 75.6555 53.6074 74.0258L51.6037 65.7999L50.4741 73.6814C50.2185 75.4555 48.6741 76.7962 46.8815 76.7962H46.7852C45.1074 76.7962 43.6555 75.6592 43.2593 74.0258L40.8111 63.9814H36.7222L35.3333 73.6814C35.0778 75.4555 33.5333 76.7962 31.7407 76.7962H31.6407C29.963 76.7962 28.5111 75.6555 28.1148 74.0258L26.1111 65.8073L24.9815 73.6814C24.7259 75.4555 23.1815 76.7962 21.3889 76.7962H21.3481C19.6444 76.7962 18.1518 75.5851 17.7963 73.9184L13.2852 52.5925C6.22221 51.0555 0.98888 45.1036 0.422213 37.8258C0.38888 37.4036 0.370361 36.9666 0.370361 36.5332V4.49991C0.370361 3.78509 0.951843 3.20361 1.66666 3.20361C6.05925 3.20361 10.1889 4.91472 13.2926 8.01843C16.3963 11.1221 18.1074 15.2518 18.1074 19.6444L18.3407 31.6332C18.3852 33.1851 19.2111 34.9629 20.3481 35.9481C20.7852 36.3258 21.4704 36.7592 22.2518 36.6777C23.7555 36.4703 25.0185 36.2925 26.0963 36.1407C32.3704 35.2592 32.4926 35.2407 37.5222 35.2407C37.5407 35.2407 37.563 35.2407 37.5815 35.2407L51.1185 35.874C51.8889 35.8592 54.3111 35.2369 54.9222 34.0555L57.8333 28.3592C58.4592 27.1369 59.6963 26.3814 61.0667 26.3814C62.1963 26.3814 63.2407 26.8925 63.9333 27.7851L66.1555 30.6444C68.4852 30.7777 70.7518 31.611 72.6074 33.0332L79.0704 37.9851C79.3518 38.1999 79.5296 38.5184 79.5704 38.8703C79.6074 39.2073 79.6259 39.5369 79.6259 39.8777V40.2481C79.6259 45.3481 75.4778 49.4962 70.3778 49.4962H68.3889C65.4518 49.4962 63.0407 51.6999 62.7815 54.6184C62.7815 54.6332 62.7815 54.6481 62.7778 54.6629L61.7555 62.8258L60.7481 73.5073C60.5704 75.3814 59.0185 76.7962 57.1333 76.7962ZM50.7407 61.3888H52.1815C52.7778 61.3888 53.3 61.7962 53.4407 62.3777L56.1296 73.411C56.2444 73.8777 56.6555 74.2036 57.137 74.2036C57.6741 74.2036 58.1185 73.7999 58.1704 73.2629L59.1815 62.5629C59.1815 62.5629 59.1815 62.537 59.1852 62.5258L60.2037 54.3629C60.5926 50.1073 64.1111 46.9036 68.3926 46.9036H70.3815C74.0518 46.9036 77.037 43.9184 77.037 40.2481V39.8777C77.037 39.8147 77.037 39.7518 77.037 39.6888L71.037 35.0925C69.463 33.8851 67.5 33.2184 65.5148 33.2184C65.1148 33.2184 64.737 33.0332 64.4926 32.7184L61.8963 29.3777C61.6963 29.1221 61.4 28.9777 61.0741 28.9777C60.6815 28.9777 60.3259 29.1962 60.1481 29.5444L57.2333 35.2444C55.9592 37.7073 52.2926 38.4703 51.1 38.4703C51.0815 38.4703 51.0592 38.4703 51.0407 38.4703L37.4963 37.8369C34.2839 37.8369 30.6062 38.1283 26.463 38.711C25.3778 38.8629 24.1074 39.0407 22.5926 39.2518C22.5815 39.2518 22.5741 39.2518 22.563 39.2518C21.2 39.4073 19.8518 38.9444 18.6555 37.9073C16.9592 36.4369 15.8185 33.9999 15.7518 31.6962L15.5185 19.6666C15.5185 15.9406 14.0778 12.4629 11.463 9.84806C9.15555 7.54065 6.17777 6.14806 2.96666 5.85176V36.5332C2.96666 36.8999 2.98147 37.2666 3.0111 37.6221C3.5111 44.0073 8.26666 49.1814 14.5815 50.2036C15.1111 50.2888 15.5333 50.6925 15.6407 51.2147L20.3333 73.3851C20.4333 73.8629 20.8592 74.2073 21.3481 74.2073H21.3889C21.9 74.2073 22.3407 73.8258 22.4148 73.3184L23.963 62.5073C24.0555 61.8703 24.6 61.3962 25.2444 61.3962H26.6815C27.2778 61.3962 27.8 61.8036 27.9407 62.3851L30.6296 73.4184C30.7444 73.8851 31.1555 74.211 31.637 74.211H31.737C32.2481 74.211 32.6889 73.8295 32.763 73.3221L34.3111 62.511C34.4037 61.874 34.9481 61.3999 35.5926 61.3999H41.8259C42.4222 61.3999 42.9444 61.8073 43.0852 62.3888L45.7741 73.4221C45.8889 73.8888 46.3037 74.2147 46.7815 74.2147H46.8778C47.3889 74.2147 47.8296 73.8332 47.9037 73.3258L49.4518 62.5147C49.5444 61.8777 50.0889 61.4036 50.7333 61.4036L50.7407 61.3888Z" fill="#272727"/>
<path d="M67.2555 39.4296C66.5407 39.4296 65.9592 38.8481 65.9592 38.1333V37.8407C65.9592 37.1259 66.5407 36.5444 67.2555 36.5444C67.9703 36.5444 68.5518 37.1259 68.5518 37.8407V38.1333C68.5518 38.8481 67.9703 39.4296 67.2555 39.4296Z" fill="#272727"/>
<path d="M22.1334 45.7481C18.1149 45.7481 16.8853 45.3036 14.4668 43.6592C11.0557 41.3444 9.61492 36.774 9.25566 35.4296C8.20381 31.5073 8.11492 28.1333 8.11492 18.7184C8.11122 9.99993 1.289 5.78511 1.00011 5.61104C0.388998 5.24067 0.188998 4.44807 0.555665 3.83326C0.922332 3.21844 1.71492 3.01844 2.32974 3.38511C2.67048 3.58881 10.7038 8.49252 10.7038 18.7184C10.7038 28.3999 10.826 31.2962 11.7557 34.7592C11.9705 35.5629 13.1816 39.6555 15.9186 41.5147C17.9075 42.8666 18.6631 43.1555 22.1297 43.1555C22.9112 43.1555 24.1297 42.9555 25.6742 42.7036C28.4223 42.2518 32.1816 41.637 36.9223 41.5629C39.2483 41.5296 41.6446 41.8407 43.9668 42.1407C46.426 42.4592 48.752 42.7592 50.6631 42.6036C53.6223 42.3629 56.4149 40.8962 58.3334 38.5777L64.5112 31.0999C64.9668 30.5481 65.7853 30.4703 66.3372 30.9259C66.889 31.3814 66.9668 32.1999 66.5112 32.7518L60.3334 40.2296C57.9742 43.0851 54.526 44.8925 50.8742 45.1888C48.689 45.3666 46.2334 45.0481 43.6334 44.711C41.4038 44.4221 39.0964 44.1222 36.9594 44.1555C32.4112 44.2259 28.7594 44.8221 26.089 45.2629C24.4297 45.537 23.1186 45.7518 22.126 45.7518L22.1334 45.7481Z" fill="#272727"/>
</svg>
