<svg width="80" height="80" viewBox="0 0 80 80" fill="none" xmlns="http://www.w3.org/2000/svg">
<path d="M24.6814 51.1259C24.2777 51.1259 23.9148 50.9408 23.6777 50.6519C19.8889 46.5408 17.8074 41.2037 17.8074 35.6148C17.8074 23.3778 27.7629 13.4222 40 13.4222C52.237 13.4222 62.1926 23.3778 62.1926 35.6148C62.1926 41.2297 60.0889 46.5889 56.274 50.7074C55.7889 51.2334 54.9666 51.263 54.4407 50.7778C53.9148 50.2926 53.8852 49.4704 54.3703 48.9445C57.7407 45.3037 59.6 40.5704 59.6 35.6111C59.6 24.8037 50.8074 16.0111 40 16.0111C29.1926 16.0111 20.4 24.8037 20.4 35.6111C20.4 40.5704 22.2592 45.3037 25.6333 48.9408C25.8555 49.1815 25.9777 49.4963 25.9777 49.8222C25.9777 50.5371 25.3963 51.1222 24.6814 51.1222V51.1259Z" fill="#272727"/>
<path d="M41.9999 79.6296H38.4814C33.3036 79.6296 29.0925 75.4185 29.0925 70.2407V68.3629C29.0925 67.6481 29.674 67.0667 30.3888 67.0667H50.0962C50.811 67.0667 51.3925 67.6481 51.3925 68.3629V70.2407C51.3925 75.4185 47.1814 79.6296 42.0036 79.6296H41.9999ZM31.6851 69.6555V70.237C31.6851 73.9852 34.7333 77.0333 38.4814 77.0333H41.9999C45.7481 77.0333 48.7962 73.9852 48.7962 70.237V69.6555H31.6814H31.6851Z" fill="#272727"/>
<path d="M36.7222 51.1222C36.0074 51.1222 35.4259 50.5407 35.4259 49.8259V41.8185H32.3333C27.3555 41.8185 26.6667 38.3815 26.5741 37.6074C26.5407 37.3852 26.3074 35.4963 27.637 33.9481C28.6518 32.7704 30.2296 32.1741 32.3333 32.1741C33.9148 32.1741 35.2667 32.7222 36.2444 33.7593C38.0333 35.6556 38.0444 38.5407 38.0222 39.2296H40.137C40.8518 39.2296 41.4333 39.8111 41.4333 40.5259C41.4333 41.2407 40.8518 41.8222 40.137 41.8222H38.0185V49.8296C38.0185 50.5444 37.437 51.1259 36.7222 51.1259V51.1222ZM32.3333 34.7667C31.4296 34.7667 30.2222 34.9185 29.6037 35.6407C29.0407 36.2963 29.137 37.2148 29.1407 37.2222C29.1481 37.2741 29.1518 37.3259 29.1555 37.3778C29.1778 37.663 29.437 39.2259 32.337 39.2259H35.4296C35.4296 39.2259 35.4296 39.2 35.4296 39.1889C35.4667 38.5259 35.3407 36.5704 34.3518 35.5296C33.863 35.0148 33.2037 34.7667 32.3333 34.7667Z" fill="#272727"/>
<path d="M43.2779 51.1223C42.563 51.1223 41.9816 50.5408 41.9816 49.826V41.8186H40.1371C39.4223 41.8186 38.8408 41.2371 38.8408 40.5223C38.8408 39.8074 39.4223 39.226 40.1371 39.226H41.9779C41.9519 38.5371 41.9667 35.6556 43.7556 33.7556C44.7334 32.7186 46.0853 32.1704 47.6667 32.1704C49.7704 32.1704 51.3482 32.7667 52.363 33.9445C53.6964 35.4926 53.4593 37.3815 53.426 37.6037C53.3334 38.3778 52.6445 41.8149 47.6667 41.8149H44.5742V49.8223C44.5742 50.5371 43.9927 51.1186 43.2779 51.1186V51.1223ZM44.5742 39.226H47.6667C50.5667 39.226 50.826 37.6667 50.8482 37.3519C50.8482 37.2889 50.8482 37.2852 50.8593 37.2223C50.8593 37.2223 50.9667 36.2852 50.3816 35.6223C49.7556 34.9149 48.5593 34.7667 47.663 34.7667C46.7667 34.7667 46.1334 35.0149 45.6445 35.5297C44.6556 36.5704 44.5334 38.5297 44.5667 39.1926C44.5667 39.2037 44.5667 39.2149 44.5667 39.226H44.5742Z" fill="#272727"/>
<path d="M51.6777 69.6555H28.7962C26.2407 69.6555 24.1592 67.574 24.1592 65.0185V50.6814C24.1592 49.9666 24.7407 49.3851 25.4555 49.3851H55.0184C55.7333 49.3851 56.3147 49.9666 56.3147 50.6814V65.0185C56.3147 67.574 54.2333 69.6555 51.6777 69.6555ZM26.7518 51.9777V65.0185C26.7518 66.1444 27.6703 67.0629 28.7962 67.0629H51.6777C52.8036 67.0629 53.7221 66.1444 53.7221 65.0185V51.9777H26.7518Z" fill="#272727"/>
<path d="M55.0221 58.8852H25.4555C24.7407 58.8852 24.1592 58.3037 24.1592 57.5889C24.1592 56.8741 24.7407 56.2926 25.4555 56.2926H55.0184C55.7333 56.2926 56.3147 56.8741 56.3147 57.5889C56.3147 58.3037 55.7333 58.8852 55.0184 58.8852H55.0221Z" fill="#272727"/>
<path d="M39.9999 8.31481C39.2851 8.31481 38.7036 7.73332 38.7036 7.01851V1.66666C38.7036 0.951843 39.2851 0.370361 39.9999 0.370361C40.7147 0.370361 41.2962 0.951843 41.2962 1.66666V7.01851C41.2962 7.73332 40.7147 8.31481 39.9999 8.31481Z" fill="#272727"/>
<path d="M54.3074 12.1482C54.0889 12.1482 53.863 12.0926 53.6593 11.9741C53.0408 11.6148 52.826 10.8222 53.1852 10.2037L55.8593 5.5741C56.2186 4.95558 57.0112 4.74076 57.6297 5.10002C58.2482 5.45928 58.463 6.25187 58.1037 6.87039L55.4297 11.5C55.1889 11.9148 54.7556 12.1482 54.3074 12.1482Z" fill="#272727"/>
<path d="M10.5853 53.9148C10.1371 53.9148 9.7001 53.6814 9.46306 53.2666C9.1038 52.6481 9.31862 51.8555 9.93713 51.4963L14.5668 48.8222C15.1853 48.4629 15.9779 48.6777 16.3371 49.2963C16.6964 49.9148 16.4816 50.7074 15.8631 51.0666L11.2334 53.7407C11.0297 53.8592 10.8075 53.9148 10.5853 53.9148Z" fill="#272727"/>
<path d="M64.7852 22.6222C64.3371 22.6222 63.9 22.3888 63.663 21.974C63.3038 21.3555 63.5186 20.5629 64.1371 20.2037L68.7667 17.5296C69.3852 17.1703 70.1778 17.3851 70.5371 18.0037C70.8963 18.6222 70.6815 19.4148 70.063 19.774L65.4334 22.4481C65.2297 22.5666 65.0075 22.6222 64.7852 22.6222Z" fill="#272727"/>
<path d="M11.3852 36.9333H6.03336C5.31854 36.9333 4.73706 36.3518 4.73706 35.637C4.73706 34.9222 5.31854 34.3407 6.03336 34.3407H11.3852C12.1 34.3407 12.6815 34.9222 12.6815 35.637C12.6815 36.3518 12.1 36.9333 11.3852 36.9333V36.9333Z" fill="#272727"/>
<path d="M73.9668 36.9333H68.6149C67.9001 36.9333 67.3186 36.3518 67.3186 35.637C67.3186 34.9222 67.9001 34.3407 68.6149 34.3407H73.9668C74.6816 34.3407 75.2631 34.9222 75.2631 35.637C75.2631 36.3518 74.6816 36.9333 73.9668 36.9333Z" fill="#272727"/>
<path d="M25.6927 12.1482C25.2446 12.1482 24.8075 11.9148 24.5705 11.5L21.8964 6.87039C21.5371 6.25187 21.752 5.45928 22.3705 5.10002C22.989 4.74076 23.7816 4.95558 24.1409 5.5741L26.8149 10.2037C27.1742 10.8222 26.9594 11.6148 26.3409 11.9741C26.1372 12.0926 25.9149 12.1482 25.6927 12.1482Z" fill="#272727"/>
<path d="M69.4149 53.9148C69.1963 53.9148 68.9704 53.8592 68.7667 53.7407L64.1371 51.0666C63.5186 50.7074 63.3038 49.9148 63.663 49.2963C64.0223 48.6777 64.8149 48.4629 65.4334 48.8222L70.063 51.4963C70.6815 51.8555 70.8963 52.6481 70.5371 53.2666C70.2963 53.6814 69.863 53.9148 69.4149 53.9148Z" fill="#272727"/>
<path d="M15.2149 22.6222C14.9964 22.6222 14.7705 22.5666 14.5668 22.4481L9.93713 19.774C9.31862 19.4148 9.1038 18.6222 9.46306 18.0037C9.82232 17.3851 10.6149 17.1703 11.2334 17.5296L15.8631 20.2037C16.4816 20.5629 16.6964 21.3555 16.3371 21.974C16.0964 22.3888 15.6631 22.6222 15.2149 22.6222Z" fill="#272727"/>
</svg>
