<svg width="80" height="80" viewBox="0 0 80 80" fill="none" xmlns="http://www.w3.org/2000/svg">
<path d="M17.274 30.4296C23.435 30.4296 28.4295 25.4351 28.4295 19.2741C28.4295 13.113 23.435 8.11853 17.274 8.11853C11.1129 8.11853 6.11841 13.113 6.11841 19.2741C6.11841 25.4351 11.1129 30.4296 17.274 30.4296Z" fill="#C3D65D"/>
<path d="M36.018 63.6371C29.0403 65.563 27.4773 67.126 25.5514 74.1037C23.6255 67.126 22.0625 65.563 15.0847 63.6371C22.0625 61.7112 23.6255 60.1482 25.5514 53.1704C27.4773 60.1482 29.0403 61.7112 36.018 63.6371Z" fill="#FF969C"/>
<path d="M25.5513 75.4C24.9698 75.4 24.4587 75.0111 24.3031 74.4481C22.5031 67.9333 21.255 66.6814 14.7402 64.8851C14.1772 64.7296 13.7883 64.2185 13.7883 63.637C13.7883 63.0555 14.1772 62.5444 14.7402 62.3888C21.255 60.5888 22.5068 59.337 24.3031 52.8259C24.4587 52.2629 24.9698 51.874 25.5513 51.874C26.1328 51.874 26.6439 52.2629 26.7994 52.8259C28.5994 59.3407 29.8513 60.5925 36.3624 62.3888C36.9254 62.5444 37.3143 63.0555 37.3143 63.637C37.3143 64.2185 36.9254 64.7296 36.3624 64.8851C29.8476 66.6851 28.5957 67.937 26.7994 74.4481C26.6439 75.0111 26.1328 75.4 25.5513 75.4ZM19.2402 63.637C22.5217 64.9703 24.2143 66.6666 25.5513 69.9481C26.8846 66.6666 28.5809 64.974 31.8624 63.637C28.5809 62.3037 26.8883 60.6074 25.5513 57.3259C24.218 60.6074 22.5217 62.3 19.2402 63.637Z" fill="#272727"/>
<path d="M74.059 39.637C54.6478 43.3741 52.7849 46.4 50.4886 77.9704C48.1923 46.4 46.3293 43.3741 26.9182 39.637C46.3293 35.9 48.1923 32.8741 50.4886 1.30371C52.7849 32.8741 54.6478 35.9 74.059 39.637Z" fill="#FFF194"/>
<path d="M50.4885 79.2667C49.8107 79.2667 49.2441 78.7407 49.1959 78.063C48.0441 62.2333 46.9737 53.8556 44.0181 49.0444C41.1552 44.3889 36.3552 42.7704 26.6737 40.9074C26.0626 40.7889 25.6218 40.2556 25.6218 39.6333C25.6218 39.0111 26.0626 38.4778 26.6737 38.3593C36.3552 36.4963 41.1552 34.8778 44.0181 30.2222C46.9774 25.4111 48.0441 17.0296 49.1959 1.2037C49.2441 0.525926 49.8107 0 50.4885 0C51.1663 0 51.7329 0.525926 51.7811 1.2037C52.9329 17.0333 54.0033 25.4111 56.9589 30.2222C59.8218 34.8778 64.6218 36.4963 74.3033 38.3593C74.9144 38.4778 75.3552 39.0111 75.3552 39.6333C75.3552 40.2556 74.9144 40.7889 74.3033 40.9074C64.6218 42.7704 59.8218 44.3889 56.9589 49.0444C53.9996 53.8556 52.9329 62.237 51.7811 78.063C51.7329 78.7407 51.1663 79.2667 50.4885 79.2667ZM33.0552 39.6333C35.2959 40.1926 37.2626 40.8148 38.9922 41.5778C42.2515 43.0222 44.5515 44.963 46.2255 47.6852C48.3663 51.1704 49.5737 55.9445 50.4885 63.5148C51.407 55.9445 52.6107 51.1667 54.7515 47.6852C57.3959 43.3852 61.3478 41.2963 67.9218 39.6407C65.6811 39.0815 63.7144 38.4593 61.9848 37.6963C58.7255 36.2519 56.4255 34.3111 54.7515 31.5852C52.6107 28.1 51.4033 23.3259 50.4885 15.7556C49.57 23.3259 48.3663 28.1037 46.2255 31.5852C43.5811 35.8852 39.6292 37.9741 33.0552 39.6296V39.6333Z" fill="#272727"/>
<path d="M22.4735 31.5222C21.9661 31.5222 21.4809 31.2222 21.2772 30.7222L19.9069 27.4185C19.6328 26.7556 19.9476 26 20.6069 25.7259C21.2698 25.4519 22.0254 25.7667 22.2994 26.4259L23.6698 29.7297C23.9439 30.3926 23.6291 31.1482 22.9698 31.4222C22.8069 31.4889 22.6402 31.5222 22.4735 31.5222Z" fill="#272727"/>
<path d="M14.3698 11.9518C13.8624 11.9518 13.3772 11.6518 13.1735 11.1518L11.8031 7.84811C11.529 7.18514 11.8438 6.42959 12.5031 6.15551C13.1661 5.88144 13.9216 6.19625 14.1957 6.85551L15.5661 10.1592C15.8401 10.8222 15.5253 11.5777 14.8661 11.8518C14.7031 11.9185 14.5364 11.9518 14.3698 11.9518Z" fill="#272727"/>
<path d="M6.29578 24.8222C5.78837 24.8222 5.30319 24.5222 5.09948 24.0222C4.82541 23.3592 5.14022 22.6037 5.79948 22.3296L9.10319 20.9592C9.76615 20.6852 10.5217 21 10.7958 21.6592C11.0699 22.3222 10.755 23.0777 10.0958 23.3518L6.79208 24.7222C6.62911 24.7889 6.46245 24.8222 6.29578 24.8222Z" fill="#272727"/>
<path d="M25.8698 16.7148C25.3623 16.7148 24.8772 16.4148 24.6735 15.9148C24.3994 15.2518 24.7142 14.4962 25.3735 14.2222L28.6772 12.8518C29.3401 12.5777 30.0957 12.8925 30.3698 13.5518C30.6438 14.2148 30.329 14.9703 29.6698 15.2444L26.3661 16.6148C26.2031 16.6814 26.0364 16.7148 25.8698 16.7148Z" fill="#272727"/>
<path d="M9.5995 16.7148C9.43283 16.7148 9.26617 16.6814 9.10321 16.6148L5.7995 15.2444C5.13654 14.9703 4.82543 14.2111 5.0995 13.5518C5.37358 12.8889 6.13283 12.5777 6.79209 12.8518L10.0958 14.2222C10.7588 14.4963 11.0699 15.2555 10.7958 15.9148C10.5884 16.4148 10.1069 16.7148 9.5995 16.7148Z" fill="#272727"/>
<path d="M29.1735 24.8222C29.0068 24.8222 28.8401 24.7889 28.6772 24.7222L25.3735 23.3518C24.7105 23.0778 24.3994 22.3185 24.6735 21.6592C24.9475 20.9963 25.7068 20.6852 26.3661 20.9592L29.6698 22.3296C30.3327 22.6037 30.6438 23.3629 30.3698 24.0222C30.1624 24.5222 29.6809 24.8222 29.1735 24.8222Z" fill="#272727"/>
<path d="M12.9994 31.5221C12.8327 31.5221 12.6661 31.4888 12.5031 31.4221C11.8402 31.1481 11.529 30.3888 11.8031 29.7295L13.1735 26.4258C13.4476 25.7629 14.2068 25.4518 14.8661 25.7258C15.529 25.9999 15.8402 26.7592 15.5661 27.4184L14.1957 30.7221C13.9883 31.2221 13.5068 31.5221 12.9994 31.5221Z" fill="#272727"/>
<path d="M21.1032 11.9518C20.9365 11.9518 20.7698 11.9185 20.6069 11.8518C19.9439 11.5778 19.6328 10.8185 19.9069 10.1592L21.2772 6.85553C21.5513 6.19257 22.3106 5.88146 22.9698 6.15553C23.6328 6.42961 23.9439 7.18886 23.6698 7.84812L22.2995 11.1518C22.0921 11.6518 21.6106 11.9518 21.1032 11.9518Z" fill="#272727"/>
</svg>
