<svg width="80" height="80" viewBox="0 0 80 80" fill="none" xmlns="http://www.w3.org/2000/svg">
<path d="M25.5476 75.4001C24.9661 75.4001 24.455 75.0112 24.2995 74.4482C22.4995 67.9334 21.2476 66.6816 14.7365 64.8853C14.1736 64.7297 13.7847 64.2186 13.7847 63.6371C13.7847 63.0556 14.1736 62.5445 14.7365 62.389C21.2513 60.589 22.5032 59.3371 24.2995 52.826C24.455 52.263 24.9661 51.8741 25.5476 51.8741C26.1291 51.8741 26.6402 52.263 26.7958 52.826C28.5958 59.3408 29.8476 60.5927 36.3587 62.389C36.9217 62.5445 37.3106 63.0556 37.3106 63.6371C37.3106 64.2186 36.9217 64.7297 36.3587 64.8853C29.8439 66.6853 28.5921 67.9334 26.7958 74.4482C26.6402 75.0112 26.1291 75.4001 25.5476 75.4001ZM19.2402 63.6371C22.5217 64.9704 24.2143 66.6667 25.5476 69.9482C26.881 66.6667 28.5773 64.9741 31.855 63.6371C28.5736 62.3038 26.881 60.6075 25.5476 57.326C24.2143 60.6075 22.518 62.3001 19.2402 63.6371Z" fill="#272727"/>
<path d="M50.4848 79.2667C49.8071 79.2667 49.2404 78.7407 49.1922 78.063C48.0404 62.2333 46.97 53.8556 44.0145 49.0444C41.1515 44.3889 36.3515 42.7704 26.67 40.9074C26.0589 40.7889 25.6182 40.2556 25.6182 39.6333C25.6182 39.0111 26.0589 38.4778 26.67 38.3593C36.3515 36.4963 41.1515 34.8778 44.0145 30.2222C46.9737 25.4111 48.0404 17.0296 49.1922 1.2037C49.2404 0.525926 49.8071 0 50.4848 0C51.1626 0 51.7293 0.525926 51.7774 1.2037C52.9293 17.0333 53.9996 25.4111 56.9552 30.2222C59.8182 34.8778 64.6182 36.4963 74.2996 38.3593C74.9108 38.4778 75.3515 39.0111 75.3515 39.6333C75.3515 40.2556 74.9108 40.7889 74.2996 40.9074C64.6182 42.7704 59.8182 44.3889 56.9552 49.0444C53.9959 53.8556 52.9293 62.237 51.7774 78.063C51.7293 78.7407 51.1626 79.2667 50.4848 79.2667ZM33.0515 39.6333C35.2922 40.1926 37.2589 40.8148 38.9885 41.5778C42.2478 43.0222 44.5478 44.963 46.2219 47.6889C48.3626 51.1741 49.57 55.9482 50.4848 63.5185C51.4034 55.9482 52.6071 51.1704 54.7478 47.6889C57.3922 43.3889 61.3441 41.3 67.9182 39.6444C65.6774 39.0852 63.7108 38.463 61.9811 37.7C58.7219 36.2556 56.4219 34.3148 54.7478 31.5889C52.6071 28.1037 51.3996 23.3296 50.4848 15.7593C49.5663 23.3296 48.3626 28.1074 46.2219 31.5889C43.5774 35.8889 39.6256 37.9778 33.0515 39.6333V39.6333Z" fill="#272727"/>
<path d="M22.4735 31.5224C21.9661 31.5224 21.4809 31.2224 21.2772 30.7224L19.9069 27.4187C19.6328 26.7557 19.9476 26.0001 20.6069 25.7261C21.2698 25.452 22.0254 25.7668 22.2994 26.4261L23.6698 29.7298C23.9439 30.3927 23.6291 31.1483 22.9698 31.4224C22.8069 31.489 22.6402 31.5224 22.4735 31.5224V31.5224Z" fill="#272727"/>
<path d="M14.3661 11.9519C13.8587 11.9519 13.3735 11.6519 13.1698 11.1519L11.7994 7.84823C11.5254 7.18527 11.8402 6.42971 12.4994 6.15564C13.1624 5.88156 13.918 6.19638 14.192 6.85564L15.5624 10.1593C15.8365 10.8223 15.5217 11.5779 14.8624 11.8519C14.6994 11.9186 14.5328 11.9519 14.3661 11.9519V11.9519Z" fill="#272727"/>
<path d="M6.29578 24.8223C5.78837 24.8223 5.30319 24.5223 5.09948 24.0223C4.82541 23.3593 5.14022 22.6038 5.79948 22.3297L9.10319 20.9593C9.76615 20.6853 10.5217 21.0001 10.7958 21.6593C11.0699 22.3223 10.755 23.0779 10.0958 23.3519L6.79208 24.7223C6.62911 24.789 6.46245 24.8223 6.29578 24.8223V24.8223Z" fill="#272727"/>
<path d="M25.8698 16.7149C25.3623 16.7149 24.8772 16.4149 24.6735 15.9149C24.3994 15.2519 24.7142 14.4964 25.3735 14.2223L28.6772 12.8519C29.3401 12.5779 30.0957 12.8927 30.3698 13.5519C30.6438 14.2149 30.329 14.9704 29.6698 15.2445L26.3661 16.6149C26.2031 16.6816 26.0364 16.7149 25.8698 16.7149V16.7149Z" fill="#272727"/>
<path d="M9.5995 16.7149C9.43283 16.7149 9.26617 16.6816 9.10321 16.6149L5.7995 15.2445C5.13654 14.9705 4.82543 14.2112 5.0995 13.5519C5.37358 12.889 6.13283 12.5779 6.79209 12.8519L10.0958 14.2223C10.7588 14.4964 11.0699 15.2556 10.7958 15.9149C10.5884 16.4149 10.1069 16.7149 9.5995 16.7149Z" fill="#272727"/>
<path d="M29.1735 24.8223C29.0068 24.8223 28.8401 24.789 28.6772 24.7223L25.3735 23.352C24.7105 23.0779 24.3994 22.3186 24.6735 21.6594C24.9475 20.9964 25.7068 20.6853 26.3661 20.9594L29.6698 22.3297C30.3327 22.6038 30.6438 23.3631 30.3698 24.0223C30.1624 24.5223 29.6809 24.8223 29.1735 24.8223Z" fill="#272727"/>
<path d="M12.9957 31.5223C12.8291 31.5223 12.6624 31.4889 12.4995 31.4223C11.8365 31.1482 11.5254 30.3889 11.7995 29.7297L13.1698 26.426C13.4439 25.763 14.2032 25.4519 14.8624 25.726C15.5254 26 15.8365 26.7593 15.5624 27.4186L14.192 30.7223C13.9846 31.2223 13.5032 31.5223 12.9957 31.5223V31.5223Z" fill="#272727"/>
<path d="M21.0995 11.9519C20.9328 11.9519 20.7662 11.9186 20.6032 11.8519C19.9402 11.5779 19.6291 10.8186 19.9032 10.1594L21.2736 6.85565C21.5477 6.19269 22.3069 5.88158 22.9662 6.15565C23.6291 6.42973 23.9402 7.18899 23.6662 7.84825L22.2958 11.1519C22.0884 11.6519 21.6069 11.9519 21.0995 11.9519Z" fill="#272727"/>
</svg>
