<svg width="80" height="80" viewBox="0 0 80 80" fill="none" xmlns="http://www.w3.org/2000/svg">
<path d="M14.9445 77.8667C14.2297 77.8667 13.6482 77.2852 13.6482 76.5704V34.5148C13.6482 33.8 14.2297 33.2185 14.9445 33.2185C15.6593 33.2185 16.2408 33.8 16.2408 34.5148V76.5704C16.2408 77.2852 15.6593 77.8667 14.9445 77.8667Z" fill="#272727"/>
<path d="M29.5519 78.7778C28.8371 78.7778 28.2556 78.1963 28.2556 77.4815V23.7333C28.2556 23.0185 28.8371 22.437 29.5519 22.437C30.2667 22.437 30.8482 23.0185 30.8482 23.7333V77.4815C30.8482 78.1963 30.2667 78.7778 29.5519 78.7778Z" fill="#272727"/>
<path d="M44.1554 67.9963C43.4406 67.9963 42.8591 67.4148 42.8591 66.7V24.6444C42.8591 23.9296 43.4406 23.3481 44.1554 23.3481C44.8702 23.3481 45.4517 23.9296 45.4517 24.6444V66.7C45.4517 67.4148 44.8702 67.9963 44.1554 67.9963Z" fill="#272727"/>
<path d="M44.1554 66.5111H3.58878C2.87396 66.5111 2.29248 65.9296 2.29248 65.2111C2.29248 64.4926 2.87396 63.9148 3.58878 63.9148H45.6443C46.3591 63.9148 46.9406 64.4926 46.9406 65.2074C46.9406 65.9222 46.3629 66.5037 45.648 66.5074H44.1591L44.1554 66.5111Z" fill="#272727"/>
<path d="M29.5518 51.9073H2.67032C1.9555 51.9073 1.37402 51.3221 1.37402 50.6073C1.37402 49.8925 1.9555 49.311 2.67032 49.311H56.4259C57.1407 49.311 57.7222 49.8925 57.7222 50.6073C57.7222 51.3221 57.1407 51.9036 56.4259 51.9036H29.5518V51.9073Z" fill="#272727"/>
<path d="M29.5517 37.3038H13.4555C12.7406 37.3001 12.1592 36.7186 12.1629 36.0038C12.1629 35.289 12.7443 34.7112 13.4592 34.7112H55.5147C56.2295 34.7112 56.811 35.2927 56.811 36.0075C56.811 36.7223 56.2295 37.3038 55.5147 37.3038H29.5517Z" fill="#272727"/>
<path d="M23.5295 79.6185C17.6407 79.6185 11.7481 77.3777 7.26287 72.8925C2.92213 68.5481 0.529541 62.7703 0.529541 56.6259C0.529541 50.4814 2.92213 44.7037 7.26658 40.3592L19.3036 28.3222C28.274 19.3555 42.8666 19.3555 51.8332 28.3222C56.1777 32.6666 58.5703 38.4444 58.5703 44.5888C58.5703 50.7333 56.1777 56.5111 51.8332 60.8555L39.7962 72.8925C35.311 77.3777 29.4221 79.6185 23.5295 79.6185ZM35.5666 24.1888C30.3407 24.1888 25.1147 26.1777 21.1332 30.1592L9.09991 42.1962C5.24436 46.0518 3.12213 51.1777 3.12213 56.6296C3.12213 62.0814 5.24436 67.2074 9.09991 71.0629C17.0592 79.0222 30.0073 79.0222 37.9629 71.0629L49.9999 59.0259C53.8555 55.1703 55.9777 50.0444 55.9777 44.5925C55.9777 39.1407 53.8555 34.0148 49.9999 30.1592C46.0221 26.1814 40.7925 24.1888 35.5666 24.1888Z" fill="#272727"/>
<path d="M68.9258 9.65925C69.0739 9.63333 69.2147 9.61111 69.3517 9.59259C69.4665 9.57777 69.5739 9.56296 69.6813 9.54814C69.7443 9.53703 69.8036 9.52962 69.8591 9.52222C69.8554 9.58888 69.848 9.66296 69.8406 9.73703C69.8295 9.84074 69.8221 9.95555 69.811 10.0704C69.7962 10.2037 69.7813 10.3444 69.7628 10.4926C69.711 10.937 69.6443 11.4444 69.5517 11.9963C69.3517 13.1963 69.0443 14.6148 68.5628 16.1148C68.4591 16.4444 68.3443 16.7778 68.2184 17.1185C67.9036 17.9778 67.5295 18.8518 67.0887 19.7185C66.9295 20.0259 66.7628 20.337 66.585 20.6444C66.4147 20.937 66.2369 21.2296 66.048 21.5185C65.4702 22.4074 64.8036 23.2704 64.0406 24.0704C63.0591 25.0963 61.9739 25.9593 60.8443 26.6926C60.5258 26.8963 60.2036 27.0926 59.8813 27.2778C59.5665 27.463 59.248 27.6333 58.9295 27.7963C55.2702 29.6556 51.5406 30.3148 49.7739 30.5333C49.911 28.7593 50.3998 25.0148 52.0924 21.2815C52.2406 20.9556 52.3961 20.6296 52.5628 20.3037C52.7332 19.9741 52.9147 19.6444 53.1036 19.3185C53.785 18.1518 54.6036 17.0222 55.5887 15.9889C56.3517 15.1889 57.185 14.4852 58.048 13.8704C58.3295 13.6667 58.611 13.4778 58.8962 13.2963C59.1924 13.1074 59.4961 12.9259 59.7961 12.7518C60.6369 12.2741 61.4887 11.863 62.3295 11.5148C62.6591 11.3704 62.9887 11.2444 63.3147 11.1222C64.8147 10.5667 66.2406 10.1852 67.4443 9.93333C67.9887 9.81851 68.4887 9.72962 68.9258 9.65925Z" fill="white"/>
<path d="M49.7739 31.8259C49.4443 31.8259 49.1221 31.7 48.8776 31.4667C48.5962 31.1963 48.4517 30.8185 48.4813 30.4296C48.6332 28.4815 49.148 24.6296 50.911 20.7445C51.0739 20.3889 51.2406 20.0408 51.411 19.7111C51.5813 19.3778 51.7702 19.0333 51.9851 18.663C52.7591 17.337 53.6591 16.1333 54.6517 15.0926C55.4332 14.2778 56.3184 13.5111 57.2925 12.8148C57.5628 12.6185 57.8591 12.4185 58.1962 12.2037C58.5147 12 58.8332 11.8111 59.1517 11.6259C59.9962 11.1445 60.8962 10.7037 61.8332 10.3148C62.1851 10.163 62.5517 10.0222 62.8591 9.90742C64.2406 9.3926 65.6925 8.97779 67.1776 8.66297C67.6813 8.55556 68.1851 8.46297 68.7147 8.37779C68.8739 8.35186 69.0258 8.32964 69.1702 8.30742C69.2888 8.2889 69.4073 8.27408 69.5221 8.25927L69.6888 8.23705C70.0739 8.18519 70.4628 8.31112 70.7443 8.57779C71.0295 8.84445 71.1776 9.22223 71.1517 9.61112C71.148 9.68519 71.1406 9.77038 71.1332 9.85186L71.085 10.3407C71.0739 10.4445 71.0628 10.5482 71.048 10.6593C70.9925 11.1482 70.9184 11.6741 70.8332 12.2111C70.5851 13.7037 70.2369 15.1519 69.7962 16.5148C69.685 16.8667 69.5628 17.2259 69.4295 17.5741C69.0813 18.5222 68.6813 19.4445 68.2406 20.3074C68.0591 20.663 67.885 20.9815 67.7073 21.2926C67.5036 21.6407 67.3184 21.9445 67.1332 22.2296C66.485 23.2296 65.7591 24.1482 64.9776 24.9667C63.9925 25.9963 62.8406 26.9445 61.5517 27.7815C61.2184 27.9963 60.8739 28.2074 60.5221 28.4037C60.2147 28.5815 59.885 28.763 59.5184 28.9482C55.7258 30.8778 51.8851 31.5741 49.9332 31.8185C49.8813 31.8259 49.8258 31.8296 49.7739 31.8296V31.8259ZM68.385 11.0667C68.1591 11.1074 67.9369 11.1519 67.7147 11.2C66.3554 11.4852 65.0258 11.8704 63.7665 12.337C63.4925 12.4408 63.1665 12.563 62.848 12.7037C61.9925 13.0593 61.1888 13.4519 60.4406 13.8778C60.1591 14.0408 59.8739 14.2111 59.5925 14.3889C59.3036 14.5741 59.0443 14.7482 58.8073 14.9185C57.9628 15.5222 57.1962 16.1815 56.5295 16.8815C55.6739 17.7778 54.8999 18.8148 54.2258 19.9667C54.0332 20.2963 53.8702 20.5963 53.7184 20.8889C53.5665 21.1852 53.4147 21.4963 53.2702 21.8148C52.0739 24.4519 51.511 27.0852 51.2443 28.9852C53.1443 28.6296 55.7591 27.9445 58.3406 26.6333C58.6628 26.4704 58.9517 26.3111 59.2295 26.1519C59.548 25.9704 59.8517 25.7889 60.1406 25.6C61.2591 24.8741 62.2591 24.0556 63.1036 23.1704C63.7739 22.4704 64.3962 21.6778 64.9591 20.8111C65.1221 20.563 65.2851 20.2963 65.4591 19.9926C65.6258 19.7074 65.7813 19.4148 65.9332 19.1222C66.3258 18.3556 66.685 17.5296 66.9999 16.6704C67.1184 16.3556 67.2258 16.037 67.3258 15.7222C67.7258 14.4704 68.0443 13.1482 68.2739 11.7815C68.3147 11.5407 68.3517 11.3 68.385 11.063V11.0667Z" fill="#272727"/>
<path d="M53.3444 2.29984C53.4629 2.19613 53.574 2.09984 53.6814 2.00724C53.774 1.92947 53.8592 1.85539 53.9481 1.78502C53.9963 1.74428 54.0481 1.70354 54.0926 1.6665C54.1333 1.72576 54.174 1.79243 54.2148 1.85539C54.274 1.94799 54.337 2.04799 54.4 2.15169C54.474 2.27021 54.5481 2.39613 54.6259 2.52947C54.8629 2.92576 55.1259 3.38873 55.3963 3.89984C55.9814 5.01095 56.6074 6.3628 57.1333 7.88132C57.2518 8.21465 57.3592 8.55539 57.4629 8.90724C57.7296 9.79984 57.9518 10.7332 58.1074 11.7035C58.1629 12.0517 58.2111 12.3998 58.2481 12.7554C58.2814 13.0924 58.3111 13.4369 58.3259 13.7813C58.3777 14.8443 58.3333 15.9332 58.1592 17.0258C57.937 18.4258 57.5185 19.7517 56.9777 20.9961C56.8259 21.3443 56.6629 21.685 56.4889 22.0184C56.3259 22.348 56.1481 22.6665 55.9703 22.9813C53.8889 26.5739 50.9814 29.2035 49.5444 30.3739C48.537 28.8221 46.5851 25.4295 45.7222 21.3776C45.6481 21.0258 45.5814 20.6665 45.5222 20.2998C45.4629 19.9295 45.4148 19.5554 45.3777 19.1776C45.2407 17.8221 45.2555 16.4258 45.4777 15.0184C45.6518 13.9258 45.9444 12.8776 46.3222 11.8813C46.4444 11.5554 46.574 11.2406 46.7148 10.9295C46.8592 10.6072 47.0148 10.2887 47.174 9.97391C47.6185 9.10724 48.1185 8.28873 48.6481 7.52947C48.8518 7.22576 49.0629 6.93687 49.2777 6.65539C50.2629 5.35169 51.2926 4.24428 52.2037 3.3591C52.6185 2.9591 53.0037 2.60724 53.3518 2.30354L53.3444 2.29984Z" fill="white"/>
<path d="M49.5444 31.6666C49.4778 31.6666 49.4111 31.6629 49.3444 31.6517C48.9815 31.5962 48.6592 31.3851 48.4592 31.0777C47.3518 29.3703 45.3592 25.8703 44.4555 21.648C44.374 21.2591 44.3 20.874 44.2444 20.5036C44.1852 20.1295 44.1333 19.7369 44.0889 19.3036C43.9333 17.7554 43.9703 16.2443 44.1963 14.8147C44.374 13.6925 44.6815 12.5517 45.1074 11.4221C45.2259 11.1073 45.3629 10.7703 45.5259 10.4036C45.6777 10.0666 45.8407 9.72582 46.0148 9.38508C46.4629 8.511 46.9889 7.63693 47.5778 6.78878C47.7963 6.45915 48.0333 6.14063 48.2333 5.87396C49.1407 4.67396 50.1703 3.5147 51.2963 2.42582C51.6777 2.05545 52.0666 1.69619 52.4852 1.32952C52.6111 1.21841 52.7296 1.1147 52.8481 1.0147C52.9407 0.936927 53.0296 0.862853 53.1222 0.788779C53.1629 0.751742 53.2037 0.718409 53.2444 0.685075C53.5296 0.451742 53.9111 0.336927 54.274 0.392483C54.637 0.448038 54.974 0.640631 55.174 0.948038C55.2185 1.0147 55.2629 1.08508 55.3111 1.15915L55.5852 1.59989C55.6407 1.68878 55.6963 1.78137 55.7518 1.87767C56.0148 2.3147 56.2852 2.79619 56.5444 3.28878C57.274 4.67026 57.8852 6.07026 58.3629 7.45174C58.4889 7.8073 58.6074 8.17396 58.7111 8.54063C59.0037 9.52582 59.237 10.5221 59.3926 11.4925C59.4555 11.8925 59.5037 12.2554 59.5407 12.6147C59.5815 13.0184 59.6111 13.3814 59.6259 13.7221C59.6815 14.9221 59.6222 16.1036 59.4444 17.2258C59.2185 18.6406 58.7926 20.0814 58.1703 21.5073C58.0074 21.8777 57.8333 22.2443 57.6481 22.6073C57.4889 22.9258 57.3074 23.2629 57.0963 23.6258C54.9333 27.3591 51.9518 30.0851 50.3666 31.374C50.1333 31.5629 49.8444 31.6666 49.5481 31.6666H49.5444ZM53.7777 3.64804C53.5444 3.85915 53.3222 4.07026 53.1 4.28507C52.0703 5.28507 51.1296 6.34433 50.3037 7.43322C50.1259 7.67026 49.9148 7.95545 49.7185 8.24804C49.1815 9.02211 48.7185 9.79248 48.3222 10.5629C48.1703 10.8666 48.0222 11.1666 47.8926 11.4591C47.7555 11.774 47.637 12.0591 47.5333 12.3332C47.1666 13.2999 46.9074 14.2703 46.7555 15.2184C46.5629 16.4332 46.5333 17.7184 46.6666 19.048C46.7037 19.4258 46.7481 19.7666 46.8 20.0925C46.8518 20.4258 46.9148 20.7629 46.9889 21.1073C47.6222 24.074 48.8629 26.6554 49.8555 28.3925C51.3444 27.0406 53.3259 24.9554 54.8481 22.3295C55.0296 22.0147 55.1889 21.7221 55.3296 21.4369C55.4963 21.111 55.6518 20.7888 55.7889 20.474C56.3222 19.2517 56.6889 18.0221 56.8778 16.8221C57.0296 15.874 57.0777 14.8703 57.0296 13.8406C57.0185 13.5443 56.9926 13.2332 56.9555 12.8851C56.9222 12.574 56.8777 12.2517 56.8259 11.8999C56.6889 11.0443 56.4815 10.1591 56.2185 9.27396C56.1222 8.94433 56.0185 8.62211 55.9074 8.30359C55.4703 7.04063 54.9111 5.75915 54.2444 4.49619C54.0889 4.2073 53.9333 3.92211 53.774 3.64063L53.7777 3.64804Z" fill="#272727"/>
<path d="M77.3442 25.2369C77.4813 25.3147 77.6072 25.3925 77.7257 25.4665C77.8294 25.5295 77.9257 25.5887 78.0183 25.6517C78.0739 25.685 78.1257 25.7184 78.1776 25.7517C78.1331 25.8073 78.085 25.8665 78.0331 25.9258C77.9628 26.011 77.8887 26.0999 77.8109 26.1925C77.7183 26.2999 77.6257 26.411 77.522 26.5221C77.2183 26.8702 76.8591 27.2628 76.4554 27.6776C75.5813 28.5776 74.4887 29.5925 73.2072 30.5628C72.9257 30.7776 72.6331 30.9887 72.3331 31.1925C71.5665 31.7221 70.748 32.2221 69.8739 32.6702C69.5628 32.8295 69.2405 32.985 68.9146 33.1295C68.6035 33.2665 68.2887 33.3999 67.9628 33.5221C66.9665 33.8999 65.9183 34.1925 64.8257 34.3665C63.4257 34.5887 62.0331 34.5999 60.685 34.4702C60.3072 34.4332 59.9294 34.3813 59.5628 34.3221C59.1998 34.2665 58.8405 34.1999 58.4887 34.1258C54.4294 33.2591 51.0294 31.3036 49.4739 30.2999C50.6405 28.8628 53.2628 25.9591 56.848 23.885C57.1591 23.7036 57.4813 23.5295 57.8109 23.3628C58.1442 23.1925 58.4887 23.0295 58.8331 22.8776C60.0776 22.3295 61.4109 21.911 62.8183 21.685C63.9109 21.511 64.9998 21.4665 66.0628 21.5184C66.4072 21.5332 66.7517 21.5628 67.0887 21.5962C67.4405 21.6332 67.7924 21.6813 68.1405 21.7369C69.1035 21.8925 70.0368 22.1147 70.922 22.3813C71.2739 22.4813 71.6146 22.5925 71.9479 22.7073C73.4924 23.2406 74.8665 23.8776 75.9887 24.4739C76.4961 24.7443 76.9517 25.0036 77.3479 25.2369H77.3442Z" fill="white"/>
<path d="M62.3962 35.8481C61.7962 35.8481 61.1814 35.8184 60.5629 35.7592C60.1629 35.7184 59.7555 35.6666 59.3555 35.5999C58.9999 35.5481 58.6258 35.4777 58.2184 35.3925C53.9999 34.4888 50.4888 32.4962 48.7703 31.3888C48.4592 31.1888 48.2517 30.8666 48.1925 30.5036C48.1332 30.1407 48.2332 29.7703 48.4666 29.4814C49.748 27.8999 52.4592 24.9221 56.1962 22.7592C56.5406 22.5629 56.8814 22.374 57.2184 22.2036C57.5555 22.0295 57.9147 21.8592 58.311 21.6851C59.7332 21.0592 61.1814 20.6295 62.6147 20.3999C63.7369 20.2221 64.9184 20.1592 66.1221 20.2184C66.4592 20.2332 66.8221 20.2592 67.2184 20.2999C67.5851 20.3407 67.9592 20.3888 68.3369 20.4481C69.3073 20.6036 70.2999 20.8332 71.2888 21.1332C71.6666 21.2407 72.0443 21.3666 72.3592 21.474C73.7814 21.9666 75.2036 22.5888 76.5851 23.3221C77.0555 23.5703 77.5147 23.8295 77.9925 24.1147C78.1369 24.1999 78.274 24.2814 78.3999 24.3629C78.5036 24.4258 78.6036 24.4888 78.6999 24.5518C78.7481 24.5814 78.7962 24.611 78.8369 24.6407C79.148 24.837 79.3703 25.1666 79.4295 25.5295C79.4888 25.8925 79.4073 26.2703 79.1777 26.5592C79.1295 26.6221 79.074 26.6851 79.0184 26.7518L78.6888 27.1407C78.6184 27.2221 78.548 27.3073 78.4703 27.3925C78.1369 27.7777 77.7629 28.1814 77.374 28.5851C76.2851 29.7036 75.1406 30.7184 73.974 31.5999C73.6777 31.8258 73.3629 32.0518 73.048 32.2666C72.2036 32.8518 71.3258 33.3777 70.4518 33.8258C70.0925 34.0073 69.7629 34.1666 69.4295 34.3147C69.0555 34.4814 68.7221 34.6184 68.4036 34.737C67.2777 35.1629 66.1369 35.4703 65.0147 35.6481C64.1666 35.7814 63.2851 35.8518 62.3814 35.8518L62.3962 35.8481ZM51.4517 29.9814C53.1962 30.9777 55.7962 32.2221 58.7592 32.8555C59.1147 32.9295 59.4406 32.9925 59.7592 33.0407C60.1221 33.0999 60.474 33.1444 60.8184 33.1814C62.1443 33.311 63.4295 33.2777 64.6258 33.0888C65.574 32.9369 66.5443 32.6777 67.5073 32.3147C67.7851 32.211 68.0703 32.0925 68.3925 31.9518C68.6777 31.8221 68.974 31.6814 69.2888 31.5221C70.0592 31.1258 70.8369 30.6592 71.5962 30.1332C71.8814 29.9407 72.1555 29.7407 72.4221 29.537C73.4888 28.7295 74.5332 27.8036 75.5295 26.7814C75.7592 26.5444 75.9814 26.3073 76.1962 26.0703C75.9221 25.9147 75.6555 25.7666 75.3814 25.6221C74.1147 24.9518 72.8147 24.3814 71.5221 23.9332C71.2443 23.837 70.9073 23.7258 70.5666 23.6295C69.6666 23.3592 68.7888 23.1555 67.9332 23.0184C67.5962 22.9666 67.2629 22.9221 66.948 22.8851C66.6073 22.8518 66.2962 22.8258 66.0036 22.8147C64.9703 22.7666 63.9666 22.8147 63.0184 22.9666C61.8036 23.1592 60.5703 23.5295 59.348 24.0629C59.0073 24.2147 58.6851 24.3629 58.3962 24.5147C58.0962 24.6666 57.7925 24.8332 57.4888 25.0073C54.8666 26.5258 52.7888 28.5036 51.4443 29.9851L51.4517 29.9814Z" fill="#272727"/>
<path d="M75.2925 42.6C75.3555 42.7444 75.4147 42.8814 75.4703 43.0111C75.5147 43.1222 75.5592 43.2259 75.5999 43.3296C75.6258 43.3888 75.6481 43.4481 75.6703 43.5037C75.6036 43.5222 75.5258 43.5444 75.4518 43.5629C75.3444 43.5888 75.2332 43.6185 75.1147 43.6481C74.9777 43.6814 74.837 43.7185 74.6888 43.7481C74.2369 43.8555 73.7184 43.9629 73.1481 44.0666C71.9147 44.2851 70.4332 44.474 68.8258 44.5148C68.4703 44.5259 68.1147 44.5259 67.7481 44.5148C66.8184 44.4963 65.8592 44.4259 64.8888 44.2814C64.5407 44.2296 64.1925 44.1666 63.8444 44.0963C63.511 44.0259 63.1777 43.9481 62.8444 43.8592C61.8147 43.5851 60.7925 43.2111 59.8036 42.7148C58.5369 42.0777 57.3999 41.274 56.3814 40.3851C56.0962 40.1333 55.8184 39.874 55.5555 39.6111C55.2925 39.3555 55.0407 39.0888 54.7962 38.8222C52.0036 35.7481 50.3814 32.1777 49.7036 30.4555C51.4888 29.9666 55.311 29.137 59.4369 29.5444C59.7962 29.5814 60.1592 29.6259 60.5221 29.6814C60.8925 29.737 61.2666 29.8074 61.6369 29.8851C62.9666 30.1666 64.2962 30.6037 65.5703 31.2444C66.5592 31.7407 67.4703 32.3407 68.3036 33C68.5777 33.2148 68.837 33.437 69.0925 33.6629C69.3555 33.9 69.6147 34.1444 69.8629 34.3888C70.5555 35.0777 71.1814 35.8 71.7444 36.5333C71.9703 36.8185 72.1814 37.1111 72.3888 37.3963C73.3295 38.7296 74.074 40.0481 74.6407 41.1851C74.8962 41.7 75.1147 42.1777 75.2999 42.5963L75.2925 42.6Z" fill="white"/>
<path d="M68.2406 45.8221C68.0665 45.8221 67.8888 45.8221 67.7184 45.8147C66.6925 45.7961 65.6739 45.7147 64.6999 45.5665C64.2999 45.5036 63.9369 45.4406 63.585 45.3665C63.1887 45.285 62.8369 45.1999 62.5036 45.111C61.3406 44.7999 60.2369 44.385 59.2221 43.8739C57.9406 43.2295 56.6999 42.385 55.5258 41.3591C55.2221 41.0924 54.9221 40.811 54.6369 40.5258C54.3813 40.2776 54.1184 40.0036 53.8369 39.6924C50.9369 36.4999 49.248 32.8295 48.4962 30.9295C48.3628 30.585 48.3776 30.2036 48.5443 29.8739C48.711 29.5443 49.0073 29.2999 49.3628 29.2036C51.3295 28.6665 55.2665 27.8295 59.5628 28.2517C59.9554 28.2924 60.3443 28.3406 60.7184 28.3961C61.0925 28.4517 61.4813 28.5221 61.9073 28.6147C63.4295 28.9369 64.8554 29.4295 66.1517 30.0813C67.1665 30.5924 68.1628 31.2295 69.1073 31.9813C69.3702 32.1887 69.648 32.4221 69.9517 32.6887C70.2258 32.9332 70.4999 33.1924 70.7739 33.4628C71.4702 34.1554 72.1443 34.9221 72.7739 35.7406C73.0221 36.0517 73.2517 36.3739 73.4443 36.6443C74.311 37.8739 75.1036 39.2073 75.7999 40.6073C76.0369 41.085 76.2591 41.5628 76.4813 42.0739C76.548 42.2258 76.611 42.3739 76.6702 42.511C76.7184 42.6221 76.7628 42.7332 76.8036 42.8406C76.8258 42.8924 76.848 42.9443 76.8665 42.9961C77.0036 43.3369 76.9925 43.7332 76.8295 44.0628C76.6665 44.3924 76.3776 44.648 76.0258 44.7517C75.9517 44.7739 75.8702 44.7961 75.7888 44.8147L75.285 44.9406C75.1813 44.9665 75.0776 44.9924 74.9702 45.0147C74.4739 45.1332 73.9332 45.2443 73.385 45.3443C71.848 45.6184 70.3258 45.7776 68.8665 45.811C68.6628 45.8184 68.4554 45.8184 68.248 45.8184L68.2406 45.8221ZM51.4925 31.3554C52.3295 33.185 53.7147 35.7073 55.7517 37.9517C55.9962 38.2221 56.2295 38.4628 56.4554 38.6813C56.7147 38.9406 56.9739 39.1813 57.2332 39.411C58.2369 40.2887 59.2962 41.011 60.3813 41.5554C61.2406 41.985 62.1776 42.3406 63.1739 42.6073C63.4591 42.685 63.7628 42.7554 64.1073 42.8295C64.411 42.8924 64.7332 42.948 65.085 43.0036C65.9406 43.1332 66.848 43.2036 67.7702 43.2221C68.111 43.2295 68.4517 43.2295 68.7887 43.2221C70.1258 43.1887 71.5147 43.0443 72.9221 42.7924C73.2443 42.7332 73.5628 42.6702 73.8776 42.6036C73.748 42.3184 73.6147 42.0406 73.4776 41.7628C72.8406 40.4776 72.1147 39.2591 71.3258 38.1443C71.1554 37.9036 70.948 37.6184 70.7258 37.3369C70.1517 36.5924 69.5591 35.9147 68.9443 35.3036C68.7036 35.0628 68.4591 34.8332 68.2221 34.6221C67.9665 34.3961 67.7258 34.1961 67.4999 34.0147C66.6888 33.3702 65.8443 32.8295 64.9851 32.3961C63.8888 31.8443 62.6702 31.4258 61.3665 31.148C60.9925 31.0702 60.6554 31.0073 60.3295 30.9591C59.9962 30.9073 59.6517 30.8665 59.3036 30.8295C56.2887 30.5332 53.448 30.9295 51.4925 31.348V31.3554Z" fill="#272727"/>
<path d="M36.4148 5.43692C36.4481 5.28507 36.4851 5.14062 36.5185 5.00358C36.5481 4.88877 36.5777 4.77766 36.6073 4.67025C36.6222 4.60729 36.6407 4.54433 36.6555 4.48877C36.7222 4.5147 36.7925 4.54433 36.8666 4.57025C36.9666 4.61099 37.0777 4.65544 37.1888 4.70358C37.3185 4.75914 37.4518 4.8147 37.5925 4.87766C38.0185 5.06284 38.4999 5.28507 39.0185 5.54062C40.1407 6.09988 41.4407 6.83321 42.7518 7.76284C43.0407 7.96655 43.3296 8.17766 43.6185 8.40358C44.3555 8.97396 45.0814 9.59988 45.774 10.2962C46.0222 10.5443 46.2629 10.8036 46.5036 11.0703C46.7296 11.3258 46.9518 11.5851 47.1666 11.8591C47.8296 12.6925 48.4259 13.6036 48.9222 14.5925C49.5592 15.8591 49.9925 17.1814 50.2777 18.5073C50.3555 18.8777 50.4222 19.2517 50.4777 19.6221C50.537 19.9851 50.5814 20.348 50.6148 20.7073C51.0185 24.8369 50.1888 28.674 49.7073 30.4591C47.9851 29.7851 44.4222 28.1665 41.3555 25.3814C41.0888 25.1369 40.8259 24.8851 40.5666 24.6221C40.3036 24.3554 40.0444 24.0777 39.7925 23.7925C38.8925 22.7703 38.0888 21.6295 37.4481 20.3554C36.9518 19.3665 36.5777 18.3443 36.3036 17.3147C36.2147 16.9814 36.137 16.6443 36.0666 16.3147C35.9962 15.9665 35.937 15.6184 35.8814 15.2703C35.737 14.3073 35.6666 13.3517 35.6518 12.4258C35.6407 12.0628 35.6444 11.6999 35.6518 11.348C35.6925 9.7147 35.8814 8.2147 36.1073 6.96284C36.2073 6.39618 36.3185 5.88507 36.4222 5.43692H36.4148Z" fill="white"/>
<path d="M49.7 31.7555C49.5407 31.7555 49.3815 31.7259 49.2259 31.6666C47.3296 30.9259 43.6703 29.2444 40.474 26.3407C40.1815 26.074 39.8963 25.8036 39.6333 25.537C39.3666 25.2703 39.0963 24.9777 38.8074 24.6518C37.7815 23.4851 36.9296 22.237 36.2777 20.9407C35.7666 19.9259 35.3518 18.8184 35.0407 17.6518C34.9518 17.3259 34.8703 16.974 34.7852 16.5814C34.7111 16.2222 34.6481 15.8481 34.5889 15.4703C34.4444 14.4999 34.3592 13.4814 34.3444 12.4481C34.3333 12.0518 34.337 11.6555 34.3444 11.3222C34.3815 9.81845 34.5407 8.27771 34.8222 6.73327C34.9148 6.21104 35.0222 5.69252 35.1481 5.14808C35.1852 4.98512 35.2222 4.82956 35.2592 4.68141C35.2889 4.5666 35.3185 4.45178 35.3481 4.33697C35.3629 4.28141 35.374 4.22956 35.3889 4.17771C35.4852 3.82215 35.7296 3.51104 36.0555 3.34438C36.3815 3.17771 36.7703 3.14067 37.1111 3.27401C37.1852 3.30364 37.2666 3.33327 37.3444 3.3666L37.8111 3.55919C37.9111 3.59993 38.0111 3.64438 38.1148 3.69253C38.5815 3.89623 39.0815 4.12956 39.5815 4.37771C40.9777 5.07401 42.2926 5.85549 43.4852 6.69993C43.7926 6.91475 44.1037 7.14438 44.4037 7.38141C45.2185 8.01104 45.9852 8.68512 46.6777 9.38141C46.9592 9.6666 47.2148 9.93697 47.4518 10.2073C47.7222 10.511 47.9555 10.7888 48.1666 11.0592C48.9148 11.9999 49.5518 12.9962 50.0629 14.011C50.7074 15.2925 51.2 16.711 51.5259 18.2333C51.6111 18.6259 51.6814 19.0296 51.7407 19.4296C51.7963 19.7814 51.8444 20.1629 51.8852 20.5777C52.3074 24.8703 51.474 28.8222 50.937 30.7962C50.8407 31.1518 50.5963 31.4481 50.2703 31.6147C50.0889 31.7073 49.8889 31.7518 49.6889 31.7518L49.7 31.7555ZM37.5555 6.28141C37.4889 6.58882 37.4296 6.88882 37.3777 7.19252C37.1222 8.60364 36.974 10.0147 36.9407 11.3814C36.9333 11.6777 36.9296 12.0296 36.9407 12.3851C36.9555 13.3259 37.0296 14.2259 37.1555 15.0777C37.2074 15.4147 37.2666 15.7444 37.3296 16.0555C37.4 16.3925 37.4703 16.6962 37.5481 16.974C37.8148 17.974 38.1703 18.9147 38.6 19.7703C39.1518 20.8666 39.8777 21.9333 40.7592 22.9333C41.0111 23.2185 41.2444 23.4703 41.4777 23.7036C41.7148 23.9407 41.9629 24.1814 42.2222 24.4185C44.4666 26.4555 46.9777 27.8333 48.8 28.6666C49.2185 26.6999 49.6148 23.8481 49.3185 20.8296C49.2815 20.4666 49.2407 20.137 49.1889 19.8222C49.1333 19.4592 49.0703 19.1073 49 18.7703C48.7185 17.4666 48.3 16.2555 47.7555 15.1703C47.3259 14.311 46.7815 13.4666 46.1407 12.6592C45.9592 12.4259 45.7555 12.1888 45.5259 11.9259C45.3185 11.6925 45.0926 11.4555 44.8444 11.2036C44.2333 10.5888 43.5518 9.98882 42.8185 9.42586C42.5481 9.21475 42.274 9.01104 42 8.82215C40.9074 8.05178 39.7074 7.33697 38.4296 6.69993C38.137 6.55549 37.8407 6.41475 37.5481 6.28141H37.5555Z" fill="#272727"/>
</svg>
