<svg width="80" height="80" viewBox="0 0 80 80" fill="none" xmlns="http://www.w3.org/2000/svg">
<g clip-path="url(#clip0_831_8160)">
<path d="M50.9198 59.9419C59.397 51.4647 59.397 37.7203 50.9198 29.243C42.4425 20.7657 28.6981 20.7657 20.2209 29.243L8.18433 41.2795C-0.292938 49.7568 -0.292935 63.5012 8.18433 71.9784C16.6616 80.4557 30.406 80.4557 38.8832 71.9784L50.9198 59.9419Z" fill="#FFF194"/>
<path d="M23.5295 79.6185C17.6407 79.6185 11.7481 77.3777 7.26287 72.8925C2.92213 68.5481 0.529541 62.7703 0.529541 56.6259C0.529541 50.4814 2.92213 44.7037 7.26658 40.3592L19.3036 28.3222C28.274 19.3555 42.8666 19.3555 51.8332 28.3222C60.8036 37.2925 60.8036 51.8851 51.8332 60.8518L39.7962 72.8888C35.311 77.374 29.4221 79.6148 23.5295 79.6148V79.6185ZM35.5666 24.1888C30.3407 24.1888 25.1147 26.1777 21.1332 30.1592L9.09991 42.1925C5.24436 46.0481 3.12213 51.174 3.12213 56.6259C3.12213 62.0777 5.24436 67.2037 9.09991 71.0592C17.0592 79.0185 30.0073 79.0185 37.9629 71.0592L49.9999 59.0222C57.9592 51.0629 57.9592 38.1148 49.9999 30.1592C46.0221 26.1814 40.7925 24.1888 35.5666 24.1888Z" fill="#272727"/>
<path d="M14.9445 77.8667C14.2297 77.8667 13.6482 77.2852 13.6482 76.5704V34.5148C13.6482 33.8 14.2297 33.2185 14.9445 33.2185C15.6593 33.2185 16.2408 33.8 16.2408 34.5148V76.5704C16.2408 77.2852 15.6593 77.8667 14.9445 77.8667Z" fill="#272727"/>
<path d="M29.5519 78.7778C28.8371 78.7778 28.2556 78.1963 28.2556 77.4815V23.7333C28.2556 23.0185 28.8371 22.437 29.5519 22.437C30.2667 22.437 30.8482 23.0185 30.8482 23.7333V77.4815C30.8482 78.1963 30.2667 78.7778 29.5519 78.7778Z" fill="#272727"/>
<path d="M44.1554 67.9963C43.4406 67.9963 42.8591 67.4148 42.8591 66.7V24.6444C42.8591 23.9296 43.4406 23.3481 44.1554 23.3481C44.8702 23.3481 45.4517 23.9296 45.4517 24.6444V66.7C45.4517 67.4148 44.8702 67.9963 44.1554 67.9963Z" fill="#272727"/>
<path d="M44.1554 66.5111H3.58878C2.87396 66.5111 2.29248 65.9296 2.29248 65.2111C2.29248 64.4926 2.87396 63.9148 3.58878 63.9148H45.6443C46.3591 63.9148 46.9406 64.4926 46.9406 65.2074C46.9406 65.9222 46.3629 66.5037 45.648 66.5074H44.1591L44.1554 66.5111Z" fill="#272727"/>
<path d="M29.5518 51.9073H2.67032C1.9555 51.9073 1.37402 51.3221 1.37402 50.6073C1.37402 49.8925 1.9555 49.311 2.67032 49.311H56.4259C57.1407 49.311 57.7222 49.8925 57.7222 50.6073C57.7222 51.3221 57.1407 51.9036 56.4259 51.9036H29.5518V51.9073Z" fill="#272727"/>
<path d="M29.5518 37.3036H13.4518C12.737 37.2999 12.1555 36.7184 12.1592 35.9999C12.1592 35.2851 12.7407 34.7073 13.4555 34.7073H55.5111C56.2259 34.7073 56.8073 35.2888 56.8073 36.0036C56.8073 36.7184 56.2259 37.2999 55.5111 37.2999H29.5518V37.3036Z" fill="#272727"/>
<path d="M68.9258 9.65925C69.0739 9.63333 69.2147 9.61111 69.3517 9.59259C69.4665 9.57777 69.5739 9.56296 69.6813 9.54814C69.7443 9.53703 69.8036 9.52962 69.8591 9.52222C69.8554 9.58888 69.848 9.66296 69.8406 9.73703C69.8295 9.84074 69.8221 9.95555 69.811 10.0704C69.7962 10.2037 69.7813 10.3444 69.7628 10.4926C69.711 10.937 69.6443 11.4444 69.5517 11.9963C69.3517 13.1963 69.0443 14.6148 68.5628 16.1148C68.4591 16.4444 68.3443 16.7778 68.2184 17.1185C67.9036 17.9778 67.5295 18.8518 67.0887 19.7185C66.9295 20.0259 66.7628 20.337 66.585 20.6444C66.4147 20.937 66.2369 21.2296 66.048 21.5185C65.4702 22.4074 64.8036 23.2704 64.0406 24.0704C63.0591 25.0963 61.9739 25.9593 60.8443 26.6926C60.5258 26.8963 60.2036 27.0926 59.8813 27.2778C59.5665 27.463 59.248 27.6333 58.9295 27.7963C55.2702 29.6556 51.5406 30.3148 49.7739 30.5333C49.911 28.7593 50.3998 25.0148 52.0924 21.2815C52.2406 20.9556 52.3961 20.6296 52.5628 20.3037C52.7332 19.9741 52.9147 19.6444 53.1036 19.3185C53.785 18.1518 54.6036 17.0222 55.5887 15.9889C56.3517 15.1889 57.185 14.4852 58.048 13.8704C58.3295 13.6667 58.611 13.4778 58.8962 13.2963C59.1924 13.1074 59.4961 12.9259 59.7961 12.7518C60.6369 12.2741 61.4887 11.863 62.3295 11.5148C62.6591 11.3704 62.9887 11.2444 63.3147 11.1222C64.8147 10.5667 66.2406 10.1852 67.4443 9.93333C67.9887 9.81851 68.4887 9.72962 68.9258 9.65925Z" fill="#C3D65D"/>
<path d="M49.7739 31.8259C49.4443 31.8259 49.1221 31.7 48.8776 31.4667C48.5962 31.1963 48.4517 30.8185 48.4813 30.4296C48.6332 28.4815 49.148 24.6296 50.911 20.7445C51.0739 20.3889 51.2406 20.0408 51.411 19.7111C51.5813 19.3778 51.7702 19.0333 51.9851 18.663C52.7591 17.337 53.6591 16.1333 54.6517 15.0926C55.4295 14.2778 56.3184 13.5111 57.2925 12.8148C57.5628 12.6185 57.8591 12.4185 58.1962 12.2037C58.5147 12 58.8332 11.8111 59.1517 11.6259C59.9962 11.1445 60.8962 10.7037 61.8332 10.3148C62.1851 10.163 62.5517 10.0222 62.8591 9.90742C64.2406 9.3926 65.6925 8.97779 67.1776 8.66297C67.6813 8.55556 68.1851 8.46297 68.7147 8.37779C68.8739 8.35186 69.0258 8.32964 69.1702 8.30742C69.2888 8.2889 69.4073 8.27408 69.5221 8.25927L69.6888 8.23705C70.0739 8.18519 70.4628 8.31112 70.7443 8.57779C71.0295 8.84445 71.1776 9.22223 71.1517 9.61112C71.148 9.6889 71.1406 9.77038 71.1332 9.85186L71.085 10.3407C71.0739 10.4445 71.0628 10.5482 71.048 10.6593C70.9925 11.1482 70.9184 11.6778 70.8332 12.2111C70.5851 13.7037 70.2369 15.1519 69.7962 16.5148C69.685 16.8667 69.5628 17.2259 69.4295 17.5741C69.0813 18.5222 68.6813 19.4445 68.2406 20.3074C68.0591 20.663 67.885 20.9815 67.7073 21.2926C67.5036 21.6407 67.3184 21.9482 67.1332 22.2296C66.485 23.2296 65.7591 24.1482 64.9776 24.9667C63.9925 25.9963 62.8406 26.9445 61.5517 27.7815C61.2184 27.9963 60.8739 28.2074 60.5221 28.4037C60.2147 28.5815 59.885 28.763 59.5184 28.9482C55.7258 30.8778 51.8851 31.5741 49.9332 31.8185C49.8813 31.8259 49.8258 31.8296 49.7739 31.8296V31.8259ZM68.385 11.0667C68.1591 11.1074 67.9369 11.1519 67.7147 11.2C66.3554 11.4852 65.0258 11.8704 63.7665 12.337C63.4925 12.4408 63.1665 12.563 62.848 12.7037C61.9925 13.0593 61.1888 13.4519 60.4406 13.8778C60.1591 14.0408 59.8739 14.2111 59.5925 14.3889C59.3036 14.5741 59.0443 14.7482 58.8073 14.9185C57.9628 15.5222 57.1962 16.1852 56.5295 16.8815C55.6739 17.7778 54.8999 18.8148 54.2258 19.9667C54.0332 20.2963 53.8702 20.5963 53.7184 20.8889C53.5665 21.1889 53.4147 21.4963 53.2702 21.8148C52.0739 24.4519 51.511 27.0852 51.2443 28.9852C53.1443 28.6296 55.7591 27.9445 58.3406 26.6333C58.6628 26.4704 58.9517 26.3111 59.2295 26.1519C59.548 25.9704 59.8517 25.7889 60.1406 25.6C61.2591 24.8741 62.2591 24.0556 63.1036 23.1704C63.7702 22.4704 64.3962 21.6778 64.9591 20.8111C65.1221 20.563 65.2851 20.2963 65.4591 19.9926C65.6258 19.7074 65.7813 19.4148 65.9332 19.1222C66.3258 18.3556 66.685 17.5296 66.9999 16.6704C67.1184 16.3556 67.2258 16.037 67.3258 15.7222C67.7258 14.4704 68.0443 13.1482 68.2739 11.7815C68.3147 11.5407 68.3517 11.3 68.385 11.063V11.0667Z" fill="#272727"/>
<path d="M53.3444 2.30008C53.4629 2.19638 53.574 2.10008 53.6814 2.00749C53.774 1.92971 53.8592 1.85564 53.9481 1.78527C53.9963 1.74453 54.0481 1.70379 54.0926 1.66675C54.1333 1.72601 54.174 1.79267 54.2148 1.85564C54.274 1.94823 54.337 2.04823 54.4 2.15193C54.474 2.27045 54.5481 2.39638 54.6259 2.52971C54.8629 2.92601 55.1259 3.38897 55.3963 3.90008C55.9814 5.01119 56.6074 6.36304 57.1333 7.88156C57.2518 8.2149 57.3592 8.55564 57.4629 8.90749C57.7296 9.80008 57.9518 10.7334 58.1074 11.7038C58.1629 12.0519 58.2111 12.4001 58.2481 12.7556C58.2814 13.0927 58.3111 13.4371 58.3259 13.7816C58.3777 14.8445 58.3333 15.9334 58.1592 17.026C57.937 18.426 57.5185 19.7519 56.9777 20.9964C56.8259 21.3445 56.6629 21.6853 56.4889 22.0186C56.3259 22.3482 56.1481 22.6667 55.9703 22.9816C53.8889 26.5742 50.9814 29.2038 49.5444 30.3742C48.537 28.8223 46.5851 25.4297 45.7222 21.3779C45.6481 21.026 45.5814 20.6667 45.5222 20.3001C45.4629 19.9297 45.4148 19.5556 45.3777 19.1779C45.2407 17.8223 45.2555 16.426 45.4777 15.0186C45.6518 13.926 45.9444 12.8779 46.3222 11.8816C46.4444 11.5556 46.574 11.2408 46.7148 10.9297C46.8592 10.6075 47.0148 10.289 47.174 9.97416C47.6185 9.10749 48.1185 8.28897 48.6481 7.52971C48.8518 7.22601 49.0629 6.93712 49.2777 6.65564C50.2629 5.35193 51.2926 4.24453 52.2037 3.35934C52.6185 2.95934 53.0037 2.60749 53.3518 2.30379L53.3444 2.30008Z" fill="#C3D65D"/>
<path d="M49.5445 31.6667C49.4778 31.6667 49.4111 31.663 49.3445 31.6519C48.9815 31.5964 48.6593 31.3853 48.4593 31.0779C47.3519 29.3705 45.3593 25.8704 44.4556 21.6482C44.3741 21.2593 44.3 20.8742 44.2408 20.5038C44.1815 20.1297 44.1296 19.7371 44.0852 19.3038C43.9296 17.7556 43.9667 16.2445 44.1926 14.8149C44.3704 13.6927 44.6778 12.5519 45.1037 11.4223C45.2222 11.1075 45.3593 10.7704 45.5222 10.4038C45.6741 10.0667 45.8371 9.726 46.0111 9.38526C46.4593 8.51119 46.9852 7.63711 47.5741 6.78897C47.7926 6.45934 48.0296 6.14082 48.2296 5.87415C49.1371 4.67415 50.1667 3.51489 51.2926 2.426C51.6741 2.05563 52.063 1.69637 52.4815 1.32971C52.6074 1.2186 52.7259 1.11489 52.8445 1.01489C52.937 0.937114 53.0259 0.86304 53.1185 0.788966C53.1593 0.751929 53.2 0.718596 53.2408 0.685262C53.5259 0.451929 53.9074 0.340818 54.2704 0.39267C54.6333 0.448225 54.9704 0.644522 55.1704 0.948225C55.2148 1.01489 55.2593 1.08526 55.3074 1.15934L55.5778 1.59267C55.6333 1.68526 55.6889 1.77786 55.7482 1.87415C56.0111 2.31119 56.2815 2.79267 56.5408 3.28526C57.2704 4.66674 57.8815 6.06674 58.3593 7.44823C58.4852 7.80378 58.6037 8.17045 58.7074 8.53711C59 9.5223 59.2333 10.5186 59.3889 11.489C59.4519 11.889 59.5 12.2519 59.5371 12.6112C59.5778 13.0149 59.6074 13.3779 59.6222 13.7186C59.6778 14.9186 59.6185 16.1001 59.4408 17.2223C59.2148 18.6371 58.7889 20.0779 58.1667 21.5038C58.0037 21.8742 57.8296 22.2408 57.6445 22.6038C57.4852 22.9223 57.3037 23.2593 57.0926 23.6223C54.9296 27.3556 51.9482 30.0816 50.363 31.3704C50.1296 31.5593 49.8408 31.663 49.5445 31.663V31.6667ZM53.7778 3.64823C53.5445 3.85934 53.3222 4.07045 53.1 4.28526C52.0704 5.28526 51.1296 6.34082 50.3037 7.43341C50.1259 7.67045 49.9148 7.95563 49.7185 8.24823C49.1815 9.0223 48.7185 9.79267 48.3222 10.563C48.1704 10.8667 48.0222 11.1667 47.8926 11.4593C47.7556 11.7742 47.637 12.0593 47.5333 12.3334C47.1667 13.3001 46.9074 14.2704 46.7556 15.2186C46.563 16.4334 46.5333 17.7186 46.6667 19.0482C46.7037 19.426 46.7482 19.7667 46.8 20.0927C46.8519 20.4223 46.9148 20.763 46.9889 21.1075C47.6222 24.0704 48.863 26.6556 49.8556 28.3927C51.3445 27.0408 53.3259 24.9556 54.8482 22.3297C55.0296 22.0149 55.1889 21.7223 55.3296 21.4371C55.4963 21.1112 55.6519 20.789 55.7889 20.4742C56.3222 19.2519 56.6889 18.0223 56.8778 16.8223C57.0296 15.8742 57.0778 14.8704 57.0296 13.8408C57.0185 13.5445 56.9926 13.2334 56.9556 12.8853C56.9222 12.5742 56.8778 12.2519 56.8259 11.9001C56.6889 11.0445 56.4815 10.1593 56.2185 9.27415C56.1222 8.94452 56.0185 8.6223 55.9074 8.30378C55.4704 7.04082 54.9111 5.75934 54.2445 4.49637C54.0889 4.20748 53.9333 3.9186 53.7741 3.64452L53.7778 3.64823Z" fill="#272727"/>
<path d="M77.3442 25.2371C77.4813 25.3149 77.6072 25.3927 77.7257 25.4668C77.8294 25.5297 77.9257 25.589 78.0183 25.652C78.0739 25.6853 78.1257 25.7186 78.1776 25.752C78.1331 25.8075 78.085 25.8668 78.0331 25.926C77.9628 26.0112 77.8887 26.1001 77.8109 26.1927C77.7183 26.3001 77.6257 26.4112 77.522 26.5223C77.2183 26.8705 76.8591 27.2631 76.4554 27.6779C75.5813 28.5779 74.4887 29.5927 73.2072 30.5631C72.9257 30.7779 72.6331 30.989 72.3331 31.1927C71.5665 31.7223 70.748 32.2223 69.8739 32.6705C69.5628 32.8297 69.2405 32.9853 68.9146 33.1297C68.6035 33.2668 68.2887 33.4001 67.9628 33.5223C66.9665 33.9001 65.9183 34.1927 64.8257 34.3668C63.4257 34.589 62.0331 34.6001 60.685 34.4705C60.3072 34.4334 59.9294 34.3816 59.5628 34.3223C59.1998 34.2668 58.8405 34.2001 58.4887 34.126C54.4294 33.2594 51.0294 31.3038 49.4739 30.3001C50.6405 28.8631 53.2628 25.9594 56.848 23.8853C57.1591 23.7038 57.4813 23.5297 57.8109 23.3631C58.1442 23.1927 58.4887 23.0297 58.8331 22.8779C60.0776 22.3297 61.4109 21.9112 62.8183 21.6853C63.9109 21.5112 64.9998 21.4668 66.0628 21.5186C66.4072 21.5334 66.7517 21.5631 67.0887 21.5964C67.4405 21.6334 67.7924 21.6816 68.1405 21.7371C69.1035 21.8927 70.0368 22.1149 70.922 22.3816C71.2739 22.4816 71.6146 22.5927 71.9479 22.7075C73.4924 23.2408 74.8665 23.8779 75.9887 24.4742C76.4961 24.7445 76.9517 25.0038 77.3479 25.2371H77.3442Z" fill="#C3D65D"/>
<path d="M62.3962 35.8482C61.7962 35.8482 61.1814 35.8186 60.5629 35.7593C60.1629 35.7186 59.7555 35.6667 59.3555 35.6001C59.0036 35.5482 58.6258 35.4779 58.2184 35.3927C53.9999 34.489 50.4888 32.4964 48.7703 31.389C48.4592 31.189 48.2517 30.8667 48.1925 30.5038C48.1332 30.1408 48.2332 29.7704 48.4666 29.4816C49.748 27.9001 52.4592 24.9223 56.1962 22.7593C56.5406 22.5593 56.8851 22.3742 57.2184 22.2038C57.5555 22.0297 57.9147 21.863 58.311 21.6853C59.7332 21.0593 61.1814 20.6297 62.6147 20.4001C63.7369 20.2223 64.9147 20.163 66.1221 20.2186C66.4592 20.2334 66.8221 20.2593 67.2184 20.3001C67.5851 20.3408 67.9592 20.389 68.3369 20.4482C69.3073 20.6038 70.2999 20.8334 71.2888 21.1334C71.6703 21.2408 72.048 21.3667 72.3629 21.4742C73.7851 21.9667 75.2036 22.5853 76.5888 23.3223C77.0592 23.5704 77.5184 23.8297 77.9962 24.1149C78.1406 24.2001 78.2777 24.2816 78.4036 24.363C78.5073 24.426 78.6073 24.489 78.7036 24.5519C78.7517 24.5816 78.7999 24.6112 78.8406 24.6408C79.148 24.8371 79.374 25.1667 79.4332 25.526C79.4925 25.8853 79.411 26.2667 79.1814 26.5519C79.1332 26.6149 79.0777 26.6816 79.0221 26.7482L78.6925 27.1371C78.6221 27.2186 78.5518 27.3038 78.474 27.389C78.1369 27.7742 77.7629 28.1816 77.3777 28.5816C76.2888 29.7001 75.1443 30.7149 73.9777 31.5964C73.6814 31.8223 73.3666 32.0482 73.0518 32.263C72.2073 32.8482 71.3295 33.3742 70.4555 33.8223C70.0999 34.0038 69.7666 34.163 69.4332 34.3112C69.0592 34.4779 68.7258 34.6149 68.4073 34.7334C67.2814 35.1593 66.1406 35.4667 65.0184 35.6445C64.1703 35.7779 63.2888 35.8482 62.3851 35.8482H62.3962ZM51.4517 29.9816C53.1962 30.9779 55.7962 32.2223 58.7592 32.8556C59.1147 32.9334 59.4443 32.9927 59.7555 33.0408C60.1184 33.1001 60.4703 33.1445 60.8147 33.1816C62.1406 33.3112 63.4258 33.2779 64.6221 33.089C65.5703 32.9371 66.5406 32.6779 67.5036 32.3149C67.7777 32.2112 68.0666 32.0927 68.3888 31.9519C68.674 31.8223 68.9703 31.6816 69.2851 31.5223C70.0555 31.126 70.8332 30.6593 71.5925 30.1334C71.8777 29.9408 72.1517 29.7408 72.4184 29.5371C73.4851 28.7297 74.5295 27.8038 75.5258 26.7816C75.7555 26.5445 75.9777 26.3075 76.1925 26.0704C75.9184 25.9149 75.6518 25.7667 75.3777 25.6223C74.111 24.9519 72.811 24.3816 71.5184 23.9371C71.2406 23.8408 70.9036 23.7297 70.5629 23.6334C69.6629 23.363 68.7814 23.1593 67.9295 23.0223C67.5962 22.9704 67.2629 22.926 66.9443 22.889C66.6036 22.8556 66.2925 22.8297 65.9999 22.8186C64.9666 22.7704 63.9629 22.8186 63.0147 22.9704C61.7999 23.163 60.5666 23.5334 59.348 24.0667C58.9999 24.2186 58.6888 24.3667 58.3962 24.5186C58.0962 24.6704 57.7925 24.8371 57.4888 25.0112C54.8666 26.5297 52.7888 28.5075 51.4443 29.989L51.4517 29.9816Z" fill="#272727"/>
<path d="M75.2925 42.6002C75.3555 42.7446 75.4147 42.8817 75.4703 43.0113C75.5147 43.1224 75.5592 43.2261 75.5999 43.3298C75.6258 43.3891 75.6481 43.4484 75.6703 43.5039C75.6036 43.5224 75.5258 43.5446 75.4518 43.5632C75.3444 43.5891 75.2332 43.6187 75.1147 43.6484C74.9777 43.6817 74.837 43.7187 74.6888 43.7484C74.2369 43.8558 73.7184 43.9632 73.1481 44.0669C71.9147 44.2854 70.4332 44.4743 68.8258 44.515C68.4703 44.5261 68.1147 44.5261 67.7481 44.515C66.8184 44.4965 65.8592 44.4261 64.8888 44.2817C64.5407 44.2298 64.1925 44.1669 63.8444 44.0965C63.511 44.0261 63.1777 43.9484 62.8444 43.8595C61.8147 43.5854 60.7925 43.2113 59.8036 42.715C58.5369 42.078 57.3999 41.2743 56.3814 40.3854C56.0962 40.1335 55.8184 39.8743 55.5555 39.6113C55.2925 39.3558 55.0407 39.0891 54.7962 38.8224C52.0036 35.7484 50.3814 32.178 49.7036 30.4558C51.4888 29.9669 55.311 29.1372 59.4369 29.5446C59.7962 29.5817 60.1592 29.6261 60.5221 29.6817C60.8925 29.7372 61.2666 29.8076 61.6369 29.8854C62.9666 30.1669 64.2962 30.6039 65.5703 31.2446C66.5592 31.7409 67.4703 32.3409 68.3036 33.0002C68.5777 33.215 68.837 33.4372 69.0925 33.6632C69.3555 33.9002 69.6147 34.1446 69.8629 34.3891C70.5555 35.078 71.1814 35.8002 71.7444 36.5335C71.9703 36.8187 72.1814 37.1113 72.3888 37.3965C73.3295 38.7298 74.074 40.0484 74.6407 41.1854C74.8962 41.7002 75.1147 42.178 75.2999 42.5965L75.2925 42.6002Z" fill="#C3D65D"/>
<path d="M68.2406 45.8223C68.0665 45.8223 67.8887 45.8223 67.7184 45.8149C66.6925 45.7964 65.6739 45.7149 64.6999 45.5668C64.2999 45.5038 63.9369 45.4408 63.585 45.3668C63.1887 45.2853 62.8369 45.2001 62.5036 45.1112C61.3406 44.8001 60.2369 44.3853 59.2221 43.8742C57.9406 43.2297 56.6999 42.3853 55.5258 41.3594C55.2221 41.0927 54.9221 40.8112 54.6369 40.526C54.3813 40.2779 54.1184 40.0038 53.8369 39.6927C50.9369 36.5001 49.248 32.8297 48.4962 30.9297C48.3628 30.5853 48.3776 30.2038 48.5443 29.8742C48.711 29.5445 49.0073 29.3001 49.3628 29.2038C51.3295 28.6668 55.2665 27.8297 59.5628 28.2519C59.9554 28.2927 60.3443 28.3408 60.7184 28.3964C61.0925 28.4519 61.485 28.5223 61.9073 28.6149C63.4295 28.9371 64.8554 29.4297 66.1517 30.0816C67.1665 30.5927 68.1628 31.2297 69.1073 31.9816C69.3702 32.189 69.648 32.4223 69.9517 32.689C70.2258 32.9371 70.4999 33.1927 70.7739 33.4631C71.4702 34.1557 72.1443 34.9223 72.7739 35.7408C73.0221 36.0519 73.2517 36.3742 73.4443 36.6445C74.311 37.8742 75.1036 39.2075 75.7999 40.6075C76.0369 41.0853 76.2591 41.5631 76.4813 42.0742C76.548 42.226 76.611 42.3742 76.6702 42.5149C76.7147 42.626 76.7591 42.7334 76.8036 42.8445C76.8258 42.9001 76.848 42.9519 76.8702 43.0038C77.0073 43.3445 76.9962 43.7371 76.8332 44.0668C76.6702 44.3964 76.3776 44.6519 76.0258 44.7519C75.9517 44.7742 75.8665 44.7964 75.785 44.8149L75.2962 44.9371C75.1925 44.9631 75.0813 44.989 74.9702 45.0149C74.4739 45.1334 73.9332 45.2445 73.385 45.3445C71.848 45.6186 70.3295 45.7742 68.8665 45.8112C68.6628 45.8186 68.4554 45.8186 68.248 45.8186L68.2406 45.8223ZM51.4925 31.3557C52.3295 33.1853 53.7147 35.7075 55.7517 37.9519C55.9962 38.2223 56.2295 38.4631 56.4554 38.6816C56.7147 38.9408 56.9739 39.1816 57.2332 39.4112C58.2369 40.289 59.2962 41.0112 60.3813 41.5556C61.2406 41.9853 62.1776 42.3408 63.1739 42.6075C63.4591 42.6853 63.7628 42.7556 64.1073 42.8297C64.411 42.8927 64.7332 42.9482 65.085 43.0038C65.9406 43.1297 66.848 43.2038 67.7702 43.2223C68.111 43.2297 68.4517 43.2297 68.7887 43.2223C70.1258 43.189 71.5147 43.0445 72.9184 42.7927C73.2406 42.7334 73.5628 42.6705 73.8739 42.6038C73.7443 42.3186 73.611 42.0408 73.4739 41.7631C72.8369 40.4779 72.111 39.2594 71.3221 38.1445C71.1517 37.9038 70.9443 37.6186 70.7221 37.3371C70.148 36.5927 69.5554 35.9149 68.9406 35.3038C68.6999 35.0668 68.4554 34.8334 68.2184 34.6223C67.9628 34.3964 67.7221 34.1964 67.4962 34.0149C66.685 33.3705 65.8406 32.8297 64.9813 32.3964C63.885 31.8445 62.6665 31.426 61.3628 31.1482C60.9925 31.0705 60.6517 31.0075 60.3258 30.9594C59.9925 30.9075 59.648 30.8668 59.2999 30.8297C56.2813 30.5334 53.4443 30.9297 51.4888 31.3482L51.4925 31.3557Z" fill="#272727"/>
<path d="M36.4148 5.43716C36.4481 5.28531 36.4851 5.14087 36.5185 5.00383C36.5481 4.88901 36.5777 4.7779 36.6073 4.6705C36.6222 4.60753 36.6407 4.54457 36.6555 4.48901C36.7222 4.51494 36.7925 4.54457 36.8666 4.5705C36.9666 4.61124 37.0777 4.65568 37.1888 4.70383C37.3185 4.75938 37.4518 4.81494 37.5925 4.8779C38.0185 5.06309 38.4999 5.28531 39.0185 5.54087C40.1407 6.10012 41.4407 6.83346 42.7518 7.76309C43.0407 7.96679 43.3296 8.1779 43.6185 8.40383C44.3555 8.9742 45.0814 9.60012 45.774 10.2964C46.0222 10.5446 46.2629 10.8038 46.5036 11.0705C46.7296 11.3261 46.9518 11.5853 47.1666 11.8594C47.8296 12.6927 48.4259 13.6038 48.9222 14.5927C49.5592 15.8594 49.9925 17.1816 50.2777 18.5075C50.3555 18.8779 50.4222 19.252 50.4777 19.6223C50.537 19.9853 50.5814 20.3483 50.6148 20.7075C51.0185 24.8372 50.1888 28.6742 49.7073 30.4594C47.9851 29.7853 44.4222 28.1668 41.3555 25.3816C41.0888 25.1372 40.8259 24.8853 40.5666 24.6223C40.3036 24.3557 40.0444 24.0779 39.7925 23.7927C38.8925 22.7705 38.0888 21.6298 37.4481 20.3557C36.9518 19.3668 36.5777 18.3446 36.3036 17.3149C36.2147 16.9816 36.137 16.6446 36.0666 16.3149C35.9962 15.9668 35.937 15.6186 35.8814 15.2705C35.737 14.3075 35.6666 13.352 35.6518 12.4261C35.6407 12.0631 35.6444 11.7001 35.6518 11.3483C35.6925 9.71494 35.8814 8.21494 36.1073 6.96309C36.2073 6.39642 36.3185 5.88531 36.4222 5.43716H36.4148Z" fill="#C3D65D"/>
<path d="M49.7 31.7557C49.5407 31.7557 49.3815 31.726 49.2259 31.6668C47.3296 30.926 43.6703 29.2445 40.474 26.3408C40.1815 26.0742 39.8963 25.8038 39.6333 25.5371C39.3666 25.2705 39.0963 24.9779 38.8074 24.652C37.7815 23.4853 36.9296 22.2371 36.2777 20.9408C35.7666 19.926 35.3518 18.8186 35.0407 17.652C34.9518 17.326 34.8703 16.9742 34.7852 16.5816C34.7111 16.2223 34.6481 15.8483 34.5889 15.4705C34.4444 14.5001 34.3592 13.4816 34.3444 12.4482C34.3333 12.052 34.337 11.6557 34.3444 11.3223C34.3815 9.81862 34.5407 8.27788 34.8222 6.73343C34.9148 6.21121 35.0222 5.69269 35.1481 5.14825C35.1852 4.98529 35.2222 4.82973 35.2592 4.68158C35.2889 4.56677 35.3185 4.45195 35.3481 4.33714C35.3629 4.28158 35.3777 4.22603 35.3889 4.17418C35.4852 3.81862 35.7259 3.51121 36.0518 3.34084C36.3777 3.17418 36.7629 3.14084 37.1074 3.27047C37.1777 3.2964 37.2518 3.32603 37.3296 3.35566L37.8148 3.55566C37.9148 3.5964 38.0148 3.64084 38.1185 3.68899C38.5852 3.89269 39.0852 4.12603 39.5852 4.37418C40.9814 5.07047 42.2963 5.85195 43.4889 6.6964C43.7963 6.91121 44.1074 7.14084 44.4074 7.37788C45.2222 8.00751 45.9889 8.68158 46.6814 9.37788C46.9629 9.66306 47.2185 9.93343 47.4555 10.2038C47.7259 10.5112 47.9592 10.7853 48.1703 11.0557C48.9185 11.9964 49.5555 12.9927 50.0666 14.0075C50.7111 15.289 51.2037 16.7075 51.5296 18.2297C51.6148 18.6223 51.6852 19.026 51.7444 19.426C51.8 19.7779 51.8481 20.1594 51.8889 20.5742C52.3111 24.8668 51.4777 28.8186 50.9407 30.7927C50.8444 31.1482 50.6 31.4445 50.274 31.6112C50.0926 31.7038 49.8926 31.7482 49.6926 31.7482L49.7 31.7557ZM37.5555 6.28158C37.4889 6.58899 37.4296 6.88899 37.3777 7.19269C37.1222 8.6038 36.974 10.0149 36.9407 11.3816C36.9333 11.6779 36.9296 12.0297 36.9407 12.3853C36.9555 13.326 37.0296 14.226 37.1555 15.0779C37.2074 15.4149 37.2666 15.7445 37.3296 16.0557C37.4 16.3927 37.4703 16.6964 37.5481 16.9742C37.8148 17.9742 38.1703 18.9149 38.6 19.7705C39.1518 20.8668 39.8777 21.9334 40.7592 22.9334C41.0111 23.2186 41.2444 23.4705 41.4777 23.7038C41.7148 23.9408 41.9629 24.1816 42.2222 24.4186C44.4666 26.4594 46.9814 27.8334 48.8 28.6668C49.2185 26.7001 49.6148 23.8483 49.3185 20.8297C49.2815 20.4668 49.2407 20.1371 49.1889 19.8223C49.1333 19.4594 49.0703 19.1075 49 18.7705C48.7185 17.4668 48.3 16.2557 47.7555 15.1705C47.3259 14.3112 46.7815 13.4668 46.1407 12.6594C45.9592 12.4297 45.7592 12.189 45.5259 11.926C45.3185 11.6927 45.0926 11.4557 44.8444 11.2038C44.2333 10.589 43.5518 9.98899 42.8185 9.42603C42.5481 9.21492 42.274 9.01121 42 8.82232C40.9074 8.05195 39.7074 7.33714 38.4296 6.7001C38.137 6.55566 37.8407 6.41492 37.5481 6.28158H37.5555Z" fill="#272727"/>
</g>
<defs>
<clipPath id="clip0_831_8160">
<rect width="80" height="80" fill="white"/>
</clipPath>
</defs>
</svg>
