<svg width="80" height="80" viewBox="0 0 80 80" fill="none" xmlns="http://www.w3.org/2000/svg">
<path d="M14.9335 4.55189C15.0002 4.38152 15.0631 4.22226 15.1298 4.06671C15.1817 3.93708 15.2372 3.81486 15.2891 3.69634C15.3187 3.62597 15.3483 3.5593 15.3743 3.49634C15.452 3.52597 15.5372 3.5593 15.6224 3.59263C15.7409 3.64078 15.8706 3.69263 16.0002 3.74449C16.152 3.80745 16.3113 3.87041 16.4706 3.94449C16.9669 4.1556 17.5298 4.41115 18.1335 4.70375C19.4335 5.34449 20.9298 6.18152 22.4113 7.23708C22.7409 7.46671 23.0631 7.71115 23.3854 7.96671C24.2076 8.61115 25.0113 9.32597 25.7594 10.1112C26.0261 10.3926 26.2891 10.6852 26.5409 10.9852C26.7817 11.2741 27.015 11.5667 27.2372 11.8741C27.9261 12.8149 28.5298 13.8408 28.9928 14.9519C29.5854 16.3741 29.9187 17.8593 30.0706 19.3408C30.1113 19.7556 30.1372 20.1741 30.1483 20.5889C30.1631 20.9963 30.1631 21.4 30.152 21.8037C30.0224 26.4223 28.4076 30.6963 27.5372 32.6852C25.5076 31.9074 21.352 30.0556 17.9854 26.9C17.6928 26.626 17.4039 26.3408 17.1224 26.0445C16.8372 25.7445 16.5594 25.4297 16.2928 25.1075C15.3372 23.9556 14.515 22.6667 13.9187 21.2371C13.4557 20.126 13.152 18.9778 12.9669 17.826C12.9076 17.4519 12.8631 17.0778 12.8261 16.7037C12.7928 16.3149 12.7706 15.9223 12.7557 15.5371C12.7224 14.4593 12.7817 13.3889 12.9076 12.3556C12.9483 11.9482 13.0076 11.5445 13.0706 11.1519C13.3706 9.32967 13.8335 7.65189 14.3039 6.2593C14.515 5.62597 14.7298 5.0593 14.9261 4.5593L14.9335 4.55189Z" fill="#FF969C"/>
<path d="M27.5334 33.9777C27.3779 33.9777 27.2223 33.9481 27.0704 33.8925C24.8482 33.0407 20.5964 31.1222 17.0964 27.8407C16.7741 27.537 16.4667 27.2333 16.1816 26.9296C15.8927 26.6259 15.6001 26.2962 15.2964 25.9296C14.2001 24.6073 13.3334 23.1925 12.7223 21.7296C12.2445 20.5814 11.8964 19.3333 11.689 18.0222C11.6297 17.6592 11.5816 17.2629 11.5371 16.8184C11.5001 16.4147 11.4779 15.9962 11.463 15.5703C11.4297 14.4814 11.4853 13.3481 11.6223 12.1925C11.6667 11.7481 11.7334 11.3073 11.7927 10.937C12.0667 9.2629 12.5001 7.54808 13.0779 5.83697C13.2741 5.25549 13.4853 4.67771 13.7223 4.08141C13.7927 3.89993 13.8593 3.72956 13.9297 3.5666C13.9816 3.43697 14.0371 3.31104 14.0927 3.18512C14.1186 3.12586 14.1408 3.0666 14.1667 3.01475C14.4408 2.38141 15.1779 2.03697 15.826 2.28141C15.9112 2.31475 16.0001 2.34808 16.0927 2.38512L16.6445 2.61104C16.7593 2.65919 16.8741 2.70734 16.9927 2.75919C17.5371 2.99252 18.1186 3.25549 18.6964 3.54067C20.3112 4.33697 21.8112 5.22215 23.1556 6.18141C23.5038 6.42586 23.8519 6.68512 24.1853 6.95178C25.0964 7.6629 25.9408 8.42956 26.6927 9.21475C27.0001 9.54067 27.2741 9.84438 27.5297 10.1481C27.8186 10.4925 28.063 10.8073 28.2853 11.111C29.0667 12.1777 29.7075 13.3036 30.1853 14.4518C30.789 15.8999 31.1816 17.4999 31.3556 19.211C31.4001 19.6518 31.426 20.1036 31.4408 20.5555C31.4556 20.9481 31.4593 21.374 31.4445 21.8407C31.3075 26.6333 29.6816 31.0185 28.7223 33.2073C28.5112 33.6925 28.0334 33.9851 27.5334 33.9851V33.9777ZM16.0779 5.18512C15.8816 5.68882 15.7038 6.17401 15.5371 6.6666C15.0038 8.24808 14.6038 9.82215 14.3519 11.3555C14.3001 11.6851 14.2371 12.0814 14.1964 12.4777C14.0704 13.5296 14.0223 14.5333 14.0519 15.4888C14.063 15.8629 14.0853 16.2333 14.1149 16.5814C14.1519 16.9555 14.1927 17.2962 14.2445 17.6073C14.4223 18.7222 14.7112 19.7703 15.1112 20.7296C15.6223 21.9555 16.3556 23.1481 17.2853 24.2703C17.5519 24.5925 17.8038 24.874 18.0519 25.137C18.3075 25.4073 18.5816 25.6777 18.863 25.9444C21.5075 28.4259 24.663 30.0592 26.8223 30.9888C27.6853 28.7888 28.7445 25.3851 28.8445 21.7592C28.8556 21.3555 28.8556 20.9851 28.8408 20.6333C28.8297 20.2259 28.8038 19.837 28.7667 19.4592C28.6186 18.0073 28.289 16.6518 27.7853 15.4407C27.3853 14.4814 26.8482 13.537 26.1816 12.6333C25.9927 12.374 25.7816 12.1036 25.5334 11.8073C25.3149 11.5481 25.0741 11.2777 24.8038 10.9925C24.1445 10.2999 23.389 9.61845 22.5704 8.97771C22.2704 8.73697 21.963 8.50734 21.6519 8.28882C20.4149 7.40734 19.0334 6.59252 17.5482 5.85919C17.0519 5.61475 16.5556 5.38882 16.0667 5.17771L16.0779 5.18512Z" fill="#272727"/>
<path d="M5.2778 20.7184C5.23706 20.5406 5.20373 20.3702 5.1741 20.2073C5.14817 20.0702 5.12225 19.9369 5.10373 19.8073C5.08891 19.7332 5.0778 19.6591 5.06299 19.5925C5.14447 19.5739 5.23336 19.5554 5.32225 19.5369C5.44817 19.511 5.58151 19.4814 5.72225 19.4554C5.88151 19.4258 6.05188 19.3925 6.22595 19.3628C6.75928 19.2665 7.36669 19.1702 8.03336 19.0851C9.4741 18.9036 11.1815 18.7814 13 18.848C13.4 18.8591 13.8037 18.8851 14.2148 18.9221C15.2556 19.0073 16.3185 19.1628 17.3778 19.4073C17.7556 19.4962 18.1334 19.5962 18.5111 19.7073C18.8704 19.8147 19.2259 19.9332 19.5815 20.0665C20.6741 20.4739 21.7408 20.9999 22.7371 21.6739C24.0148 22.5369 25.1111 23.5925 26.0482 24.748C26.3111 25.0739 26.563 25.4073 26.8 25.748C27.0371 26.0777 27.2593 26.4184 27.4704 26.7591C29.9 30.6888 30.9037 35.1443 31.2667 37.2851C29.1445 37.7517 24.6519 38.4888 20.1074 37.7036C19.7111 37.6332 19.3148 37.5554 18.9148 37.4628C18.5111 37.3702 18.1074 37.2591 17.7074 37.1369C16.2741 36.6999 14.8815 36.0777 13.5963 35.2073C12.6 34.5332 11.7148 33.7443 10.926 32.8814C10.6704 32.6036 10.426 32.3147 10.1926 32.0221C9.95188 31.7147 9.71854 31.3999 9.49262 31.0851C8.8741 30.1999 8.33336 29.2777 7.8704 28.3443C7.68151 27.9814 7.51114 27.611 7.34817 27.248C6.59632 25.5628 6.06299 23.9073 5.68891 22.4851C5.51854 21.8406 5.38521 21.248 5.2741 20.7221L5.2778 20.7184Z" fill="#FF969C"/>
<path d="M24.3555 39.3443C22.9296 39.3443 21.4148 39.2443 19.8889 38.9777C19.4518 38.8999 19.0259 38.8147 18.6222 38.7184C18.2148 38.6258 17.7926 38.511 17.3333 38.3703C15.6889 37.8703 14.1889 37.1629 12.8741 36.2777C11.8444 35.5814 10.8667 34.7295 9.97406 33.748C9.72221 33.474 9.46295 33.174 9.18517 32.8258C8.93332 32.5073 8.68146 32.1703 8.43702 31.8258C7.81109 30.9332 7.23332 29.9592 6.7148 28.9184C6.50739 28.5258 6.32221 28.1184 6.16665 27.774C5.47776 26.2258 4.89628 24.5554 4.43702 22.8073C4.28146 22.2147 4.14072 21.6184 4.01109 20.9851C3.97035 20.7962 3.93332 20.6147 3.89998 20.4443C3.87406 20.3073 3.84813 20.1703 3.82591 20.0369C3.8148 19.9703 3.80369 19.9073 3.79258 19.848C3.67406 19.1703 4.10369 18.4814 4.77406 18.3295C4.86295 18.311 4.95554 18.2888 5.05184 18.2703L5.63702 18.1554C5.75924 18.1332 5.88517 18.1073 6.0148 18.0851C6.59628 17.9777 7.22961 17.8814 7.87035 17.7999C9.65554 17.5777 11.3963 17.4925 13.0481 17.5517C13.4741 17.5666 13.9074 17.5925 14.3333 17.6295C15.4852 17.7258 16.6111 17.8999 17.6704 18.1443C18.1074 18.248 18.5 18.3517 18.8815 18.4629C19.3111 18.5925 19.6889 18.7184 20.0407 18.8517C21.2815 19.311 22.4333 19.8999 23.4667 20.5962C24.7666 21.474 25.9741 22.5925 27.0592 23.9258C27.337 24.2703 27.6074 24.6295 27.8666 25.0036C28.0963 25.3258 28.3333 25.6814 28.5778 26.074C31.0963 30.1517 32.1481 34.711 32.5518 37.0629C32.6666 37.7443 32.2296 38.3999 31.5518 38.548C29.9778 38.8925 27.3555 39.3443 24.3592 39.3443H24.3555ZM6.58146 20.6147C6.69258 21.1443 6.8148 21.648 6.94443 22.148C7.36665 23.7629 7.89998 25.2962 8.53332 26.7147C8.67035 27.0184 8.83702 27.3814 9.02221 27.7369C9.49628 28.6851 10.0074 29.5517 10.5555 30.3332C10.7704 30.6406 10.9926 30.9369 11.2111 31.211C11.4481 31.5036 11.6667 31.7629 11.8815 31.9962C12.6407 32.8295 13.4629 33.5443 14.3222 34.1258C15.4222 34.8703 16.6889 35.4629 18.0889 35.8888C18.4889 36.011 18.8555 36.111 19.2074 36.1925C19.5704 36.2777 19.9444 36.3554 20.3296 36.4221C23.9037 37.0406 27.437 36.6703 29.7518 36.2592C29.2629 33.948 28.2741 30.5221 26.3666 27.4369C26.1555 27.0925 25.9481 26.7851 25.7444 26.4999C25.5111 26.1666 25.2778 25.8517 25.037 25.5592C24.1148 24.4258 23.0963 23.4777 22.0074 22.7443C21.1481 22.1629 20.1778 21.6703 19.1259 21.2777C18.8222 21.1629 18.5 21.0554 18.1296 20.9443C17.8037 20.848 17.4555 20.7554 17.0704 20.6666C16.137 20.4517 15.137 20.2962 14.1 20.211C13.7185 20.1777 13.3333 20.1517 12.9518 20.1406C11.4333 20.0851 9.83332 20.1629 8.18887 20.3666C7.64072 20.4369 7.09628 20.5184 6.57776 20.611L6.58146 20.6147Z" fill="#272727"/>
<path d="M32.3295 6.48139C32.4628 6.35546 32.5925 6.24064 32.7184 6.13324C32.8221 6.04064 32.9258 5.95176 33.0258 5.87027C33.0814 5.81842 33.1406 5.77027 33.1925 5.72583C33.248 5.78509 33.311 5.85176 33.3702 5.91842C33.4554 6.01472 33.548 6.11472 33.6443 6.22213C33.7517 6.34435 33.8665 6.47398 33.9814 6.61102C34.3369 7.02213 34.7258 7.4962 35.1369 8.02583C36.0221 9.17398 36.9962 10.5851 37.8628 12.1814C38.0554 12.5332 38.2406 12.8925 38.4184 13.2629C38.8739 14.2036 39.2814 15.1962 39.6073 16.2332C39.7221 16.6036 39.8295 16.9814 39.9258 17.3629C40.0147 17.7258 40.0962 18.0962 40.1591 18.4703C40.3628 19.6184 40.4517 20.8036 40.3814 22.0036C40.2888 23.5443 39.9332 25.0221 39.4147 26.4184C39.2665 26.811 39.1073 27.1962 38.9332 27.574C38.7702 27.9443 38.5888 28.311 38.4036 28.6666C36.2517 32.7555 32.9258 35.8814 31.2665 37.2851C29.7888 35.6962 26.8702 32.1999 25.2369 27.8851C25.0962 27.511 24.9628 27.1258 24.8406 26.7369C24.7147 26.3406 24.6073 25.9369 24.5073 25.5332C24.1554 24.0777 23.9851 22.5592 24.0777 21.011C24.1517 19.811 24.3814 18.6444 24.7258 17.5295C24.8369 17.1666 24.9591 16.811 25.0925 16.4592C25.2332 16.0962 25.3851 15.7332 25.5443 15.3814C25.9888 14.3999 26.5147 13.4666 27.0814 12.5925C27.2962 12.2443 27.5295 11.911 27.7591 11.5851C28.8295 10.0814 29.9851 8.78139 31.0184 7.73694C31.4888 7.26287 31.9295 6.84435 32.3258 6.48509L32.3295 6.48139Z" fill="#FF969C"/>
<path d="M31.2704 38.5814C30.9222 38.5814 30.5741 38.4407 30.3222 38.1666C28.7 36.4222 25.7296 32.8296 24.0296 28.3444C23.8741 27.9296 23.7333 27.5222 23.6074 27.1222C23.4815 26.7222 23.3629 26.3 23.2518 25.8333C22.8481 24.1629 22.6926 22.5148 22.7889 20.9296C22.8629 19.6888 23.1 18.4148 23.4926 17.1444C23.6 16.7888 23.7296 16.4111 23.8852 15.9963C24.0333 15.6148 24.1926 15.2333 24.3666 14.8444C24.8148 13.8518 25.3629 12.8592 25.9963 11.8814C26.2296 11.5037 26.4852 11.137 26.7037 10.8296C27.6889 9.44811 28.8296 8.09996 30.1037 6.81477C30.5333 6.37774 30.9778 5.95552 31.4555 5.52218C31.5963 5.38885 31.7333 5.26663 31.8666 5.15181C31.9704 5.05922 32.0741 4.97033 32.1815 4.88144C32.2333 4.837 32.2852 4.79255 32.3333 4.75181C32.8592 4.30366 33.6629 4.32959 34.137 4.82959C34.2 4.89626 34.2666 4.97033 34.3333 5.0444L34.7259 5.48515C34.8074 5.57774 34.8926 5.67403 34.9778 5.77403C35.3667 6.22218 35.7704 6.71848 36.1666 7.22589C37.2667 8.65181 38.2222 10.1074 39.0074 11.5592C39.2111 11.9333 39.4111 12.3185 39.5926 12.7037C40.0963 13.7444 40.5185 14.8037 40.8444 15.8407C40.9778 16.2666 41.0889 16.6592 41.1852 17.0444C41.2926 17.4814 41.3741 17.8703 41.4407 18.2407C41.6741 19.5444 41.7555 20.837 41.6778 22.0777C41.5815 23.6407 41.2296 25.2518 40.6333 26.8629C40.4778 27.2777 40.3037 27.6963 40.1185 28.1074C39.9592 28.4666 39.7741 28.8518 39.5592 29.2629C37.3296 33.5037 33.937 36.7259 32.1111 38.2703C31.8666 38.474 31.5704 38.5777 31.2741 38.5777L31.2704 38.5814ZM33.0815 7.55181C32.6815 7.91848 32.3074 8.27774 31.9444 8.6444C30.7704 9.82959 29.7185 11.0703 28.8185 12.3333C28.6259 12.6074 28.3963 12.937 28.1852 13.274C27.6111 14.1629 27.1259 15.0444 26.7296 15.9148C26.5741 16.2555 26.4333 16.5963 26.3074 16.9259C26.1741 17.2777 26.0629 17.6 25.9704 17.9037C25.637 18.9814 25.437 20.0518 25.3741 21.0888C25.2926 22.4148 25.4259 23.8074 25.7704 25.2259C25.8666 25.6333 25.9704 25.9963 26.0778 26.3444C26.1889 26.7 26.3148 27.0629 26.4518 27.4259C27.737 30.8185 29.8481 33.674 31.3778 35.4592C33.1185 33.8629 35.5704 31.274 37.2555 28.0629C37.4444 27.7037 37.6037 27.374 37.7481 27.0518C37.9185 26.6814 38.0666 26.3222 38.2 25.9666C38.7074 24.5963 39.0074 23.237 39.0852 21.9259C39.1481 20.8888 39.0815 19.8037 38.8815 18.7C38.8259 18.3814 38.7555 18.0481 38.6629 17.674C38.5815 17.3407 38.4815 16.9963 38.3666 16.6222C38.0778 15.7074 37.7 14.7666 37.2481 13.8296C37.0815 13.4814 36.9074 13.1407 36.7259 12.8074C36.0037 11.474 35.1222 10.1333 34.1111 8.81848C33.7741 8.38144 33.4259 7.95552 33.0815 7.55552V7.55181Z" fill="#272727"/>
<path d="M59.8109 67.9076C54.3516 64.2039 52.4516 58.8484 54.5183 55.8039C56.5849 52.7595 62.2627 52.5447 67.722 56.2484C70.959 58.4447 74.8109 61.7706 75.0924 64.4743C75.2998 66.4891 73.8553 67.1151 73.0146 68.3521C72.1257 69.6595 72.1035 71.3002 70.0738 71.8669C67.5109 72.5854 62.922 70.0188 59.8109 67.9076Z" fill="#81A5B5"/>
<path d="M69.1221 73.2817C66.111 73.2817 62.1036 71.0298 59.085 68.9817C56.3073 67.0965 54.1962 64.652 53.1443 62.1039C52.0702 59.5002 52.1813 56.9409 53.4443 55.078C56.0702 51.2076 62.6591 51.252 68.448 55.178C71.2517 57.0817 76.011 60.8002 76.3813 64.3409C76.5924 66.3743 75.5406 67.4817 74.7702 68.2891C74.511 68.5594 74.2702 68.815 74.0887 69.0817C73.8924 69.3706 73.7369 69.7113 73.5739 70.0743C73.0998 71.1187 72.448 72.552 70.4258 73.1187C70.0184 73.2335 69.5813 73.2854 69.1221 73.2854V73.2817ZM59.748 54.7817C57.8332 54.7817 56.3369 55.4335 55.5924 56.5335C54.8258 57.6631 54.8073 59.3335 55.5443 61.1187C56.4036 63.2039 58.1776 65.2335 60.5406 66.8372C64.6295 69.6113 68.1517 71.0631 69.7258 70.6187C70.5517 70.3891 70.7776 69.9557 71.211 69.0002C71.4036 68.5743 71.6221 68.0928 71.9406 67.6224C72.2406 67.1817 72.585 66.8187 72.8887 66.5002C73.5813 65.7706 73.885 65.415 73.7999 64.6076C73.6184 62.8631 70.948 60.0039 66.9924 57.3224C64.3702 55.5446 61.8147 54.7817 59.748 54.7817Z" fill="#272727"/>
<path d="M44.6444 64.5777C46.4777 58.2406 50.9851 54.7777 54.5185 55.8036C58.0518 56.8258 60.0111 62.1628 58.1777 68.4962C57.0889 72.2517 55.1148 76.9443 52.6333 78.048C50.7814 78.8703 49.7407 77.6888 48.3037 77.2703C46.7851 76.8295 45.2185 77.3147 44.0518 75.5591C42.5777 73.3406 43.6 68.1888 44.6444 64.574V64.5777Z" fill="#81A5B5"/>
<path d="M51.3926 79.6296C50.3814 79.6296 49.5629 79.237 48.9037 78.9222C48.5666 78.7593 48.2481 78.6074 47.9407 78.5185C47.6074 78.4222 47.2333 78.3815 46.837 78.3333C45.6963 78.2037 44.1333 78.0296 42.9703 76.2815C41.2037 73.6296 42.2296 68.2555 43.3963 64.2185C44.3296 60.9926 46 58.2296 48.1037 56.4444C50.2481 54.6185 52.7185 53.9333 54.8777 54.5592C57.0407 55.1852 58.7592 57.0852 59.5963 59.7741C60.4185 62.4074 60.3555 65.6333 59.4185 68.8593C58.4777 72.1148 56.4074 77.7889 53.1555 79.2333C52.5111 79.5185 51.9259 79.6296 51.3926 79.6296ZM45.8852 64.9407C44.5111 69.6889 44.2185 73.4852 45.1259 74.8481C45.6 75.563 46.0814 75.6444 47.1259 75.7593C47.5889 75.8111 48.1148 75.8704 48.6592 76.0296C49.174 76.1778 49.6222 76.3926 50.0222 76.5852C50.9296 77.0185 51.3592 77.1963 52.1037 76.8667C53.7074 76.1555 55.6 72.7296 56.9296 68.1407C57.7259 65.3963 57.7926 62.7 57.1222 60.5481C56.5481 58.7074 55.4666 57.4333 54.1555 57.0518C52.8444 56.6741 51.2518 57.1704 49.7815 58.4222C48.0629 59.8852 46.6814 62.2 45.8852 64.9444V64.9407Z" fill="#272727"/>
<path d="M43.1222 49.1224C49.7148 48.9113 54.3999 52.1261 54.5185 55.8039C54.637 59.4817 50.1703 62.9928 43.5777 63.2076C39.6666 63.3335 34.5962 62.9076 32.7814 60.8854C31.4296 59.3779 32.2296 58.0224 32.1814 56.5261C32.1296 54.9446 31.1851 53.6039 32.4925 51.9557C34.1444 49.8668 39.3629 49.2483 43.1222 49.1261V49.1224Z" fill="#81A5B5"/>
<path d="M42.2777 64.5261C38.8185 64.5261 33.9037 64.078 31.8148 61.7521C30.4481 60.2298 30.6518 58.715 30.7963 57.6076C30.8444 57.2372 30.8926 56.8854 30.8814 56.5669C30.8703 56.2187 30.7963 55.8521 30.7148 55.4595C30.4852 54.3335 30.1703 52.7928 31.474 51.1484C33.4518 48.6484 38.8777 47.9632 43.0777 47.8261C46.4333 47.715 49.5777 48.4521 51.9259 49.9002C54.3222 51.3743 55.7407 53.5113 55.8111 55.7632C55.9629 60.4373 50.6037 64.278 43.6148 64.5039C43.2037 64.5187 42.7518 64.5261 42.274 64.5261H42.2777ZM43.1629 50.4224C38.2222 50.5817 34.5222 51.478 33.5074 52.7632C32.974 53.4335 33.0481 53.9187 33.2555 54.9447C33.3481 55.4002 33.4555 55.9187 33.474 56.4854C33.4926 57.0187 33.4259 57.515 33.3666 57.9521C33.2333 58.9484 33.2 59.415 33.7444 60.0187C34.9148 61.3224 38.7592 62.0632 43.5333 61.9113C49.6333 61.715 53.3111 58.6113 53.2222 55.8447C53.1777 54.4817 52.2111 53.1187 50.5666 52.1076C48.6444 50.9261 46.0148 50.3261 43.1629 50.4187V50.4224Z" fill="#272727"/>
<path d="M67.6665 54.5111C62.4591 58.5593 56.7776 58.7111 54.5183 55.8037C52.2591 52.8963 53.8109 47.4296 59.0183 43.3852C62.1072 40.9852 66.4628 38.3482 69.1183 38.9185C71.0961 39.3408 71.248 40.9111 72.1665 42.0926C73.1369 43.3408 74.6887 43.8704 74.5998 45.9741C74.4887 48.6333 70.6332 52.2037 67.6628 54.5111H67.6665Z" fill="#81A5B5"/>
<path d="M59.2703 59.0889C56.8147 59.0889 54.7407 58.2038 53.4925 56.6C50.6221 52.9075 52.6999 46.6519 58.2221 42.3593C60.8962 40.2815 65.9073 36.9038 69.3888 37.6482C71.3888 38.0741 72.1147 39.4186 72.6481 40.4C72.8258 40.7297 72.9925 41.0408 73.1888 41.2926C73.3999 41.5667 73.6814 41.8223 73.974 42.0889C74.8221 42.863 75.9814 43.926 75.8962 46.0223C75.7666 49.2075 71.7814 52.9519 68.4592 55.5297C65.8073 57.5889 62.8332 58.8408 60.0814 59.0519C59.8073 59.0741 59.537 59.0852 59.2703 59.0852V59.0889ZM68.3295 40.1334C66.4814 40.1334 63.2407 41.7445 59.8147 44.4075C54.9962 48.1519 53.8444 52.826 55.5407 55.0075C56.3777 56.0852 57.9629 56.6186 59.8851 56.4704C62.1332 56.2963 64.6147 55.2371 66.8703 53.4852C70.774 50.4519 73.2407 47.5519 73.3073 45.9186C73.3444 45.063 72.9999 44.7149 72.2258 44.0038C71.8814 43.6889 71.4925 43.3334 71.1444 42.8852C70.8147 42.463 70.5777 42.0223 70.3703 41.6371C69.8925 40.7519 69.6481 40.3556 68.8518 40.1852C68.6925 40.1519 68.5221 40.1334 68.3332 40.1334H68.3295Z" fill="#272727"/>
<path d="M57.3518 42.9002C59.5925 49.1039 57.9814 54.5557 54.5185 55.8039C51.0592 57.052 46.337 53.8891 44.0962 47.6854C42.7666 44.0076 41.6073 39.0483 42.9666 36.7002C43.9814 34.9483 45.5185 35.2891 46.9259 34.7817C48.411 34.2446 49.3962 32.9335 51.3703 33.6668C53.8666 34.5928 56.0703 39.3631 57.3481 42.9039L57.3518 42.9002Z" fill="#81A5B5"/>
<path d="M52.9592 57.3668C51.3555 57.3668 49.6555 56.7557 48.074 55.5779C45.8629 53.9297 44.0184 51.2816 42.8777 48.1223C41.7258 44.9334 40.0629 39.126 41.8481 36.0483C42.874 34.2779 44.3777 34.0038 45.474 33.8001C45.8406 33.7334 46.1888 33.6705 46.4888 33.5594C46.8147 33.4408 47.1444 33.2557 47.4888 33.0594C48.4888 32.4927 49.8555 31.7186 51.8258 32.4482C54.8147 33.5557 57.1444 38.5038 58.5703 42.4594C60.9444 49.0371 59.3592 55.4334 54.9592 57.0223C54.3221 57.252 53.6518 57.3668 52.9592 57.3668ZM50.2555 34.7445C49.7999 34.7445 49.3962 34.9594 48.7666 35.3149C48.3592 35.5445 47.8999 35.8075 47.3666 36.0001C46.8629 36.1816 46.374 36.2705 45.9406 36.352C44.9518 36.5334 44.4999 36.6445 44.0888 37.3482C43.211 38.8631 43.6925 42.7482 45.3147 47.2445C46.2851 49.9297 47.8147 52.152 49.6221 53.5001C51.1703 54.652 52.7925 55.0483 54.074 54.5853C56.674 53.6483 58.1999 49.0816 56.1258 43.3408C54.4481 38.6927 52.4518 35.4483 50.9184 34.8816C50.6703 34.789 50.4555 34.7445 50.2518 34.7445H50.2555Z" fill="#272727"/>
<path d="M54.4593 62.0555C58.0041 62.0555 60.8778 59.1819 60.8778 55.637C60.8778 52.0922 58.0041 49.2185 54.4593 49.2185C50.9144 49.2185 48.0408 52.0922 48.0408 55.637C48.0408 59.1819 50.9144 62.0555 54.4593 62.0555Z" fill="#FFF194"/>
<path d="M54.4519 63.3556C53.3334 63.3556 52.2186 63.1075 51.1779 62.6186C49.3112 61.7445 47.9001 60.1926 47.2001 58.2556C46.5001 56.3186 46.5964 54.2223 47.4742 52.3556C48.3482 50.4889 49.9001 49.0778 51.8371 48.3778C53.7742 47.6778 55.8705 47.7741 57.7371 48.6519C59.6038 49.526 61.0149 51.0778 61.7149 53.0149C63.1593 57.0149 61.0779 61.4482 57.0779 62.8926C56.2223 63.2 55.3371 63.3556 54.4519 63.3556ZM54.4593 50.5112C53.8742 50.5112 53.2853 50.6149 52.7149 50.8186C51.426 51.2815 50.4001 52.2223 49.8186 53.4593C49.2371 54.6963 49.1742 56.0889 49.6371 57.3778C50.1001 58.6667 51.0408 59.6926 52.2779 60.2741C53.5149 60.8556 54.9075 60.9186 56.1964 60.4556C58.8519 59.4963 60.2334 56.5556 59.2742 53.8963C58.8112 52.6074 57.8705 51.5815 56.6334 51C55.9408 50.6741 55.2001 50.5112 54.4593 50.5112Z" fill="#272727"/>
<path d="M57.1371 2.08156C57.2556 2.01119 57.3704 1.94823 57.4815 1.88897C57.5741 1.83712 57.663 1.79267 57.7519 1.74453C57.8038 1.7186 57.8519 1.69267 57.9001 1.66675C57.9334 1.7223 57.9667 1.78156 58.0001 1.84082C58.0482 1.92601 58.1001 2.0186 58.1482 2.11119C58.2075 2.2223 58.2704 2.33341 58.3297 2.45564C58.5223 2.8186 58.7297 3.23341 58.9445 3.69638C59.4038 4.69638 59.8852 5.90008 60.2556 7.22601C60.3371 7.5186 60.4149 7.8149 60.4815 8.1186C60.6593 8.89267 60.7889 9.69267 60.8556 10.5149C60.8778 10.8075 60.8926 11.1038 60.9001 11.4038C60.9038 11.6853 60.9001 11.9742 60.8852 12.2593C60.8445 13.1445 60.7075 14.0334 60.4519 14.9075C60.1223 16.0297 59.6112 17.063 58.9926 18.0038C58.8186 18.2667 58.6334 18.526 58.4445 18.7779C58.2593 19.026 58.0667 19.263 57.8704 19.4964C55.5889 22.1556 52.6038 23.9001 51.1408 24.6556C50.3186 23.2297 48.7556 20.1556 48.2778 16.6927C48.2371 16.3927 48.2038 16.0853 48.1778 15.7779C48.1519 15.463 48.1408 15.1482 48.1371 14.8334C48.1223 13.7001 48.2556 12.5482 48.5852 11.4223C48.8408 10.5482 49.2112 9.72601 49.6519 8.95934C49.7963 8.71119 49.9482 8.46675 50.1038 8.23341C50.2704 7.98897 50.4408 7.74823 50.6186 7.51119C51.1149 6.85934 51.6593 6.25934 52.226 5.71119C52.4445 5.49267 52.6704 5.28156 52.8964 5.08156C53.9408 4.15193 55.0149 3.38527 55.9556 2.78897C56.3815 2.5186 56.7778 2.28527 57.1334 2.08527L57.1371 2.08156Z" fill="#C3D65D"/>
<path d="M51.1408 25.9481C50.6926 25.9481 50.2556 25.7148 50.0185 25.3C49.1037 23.7185 47.4963 20.5185 46.9926 16.8666C46.9482 16.5259 46.9111 16.1926 46.8852 15.8741C46.8593 15.5518 46.8445 15.2111 46.8408 14.8407C46.8259 13.5074 46.9926 12.2333 47.3408 11.0481C47.6148 10.1222 48.0148 9.19628 48.5296 8.30368C48.6704 8.05554 48.8333 7.79257 49.0259 7.50739C49.2037 7.24442 49.3926 6.98146 49.5889 6.7222C50.1 6.05183 50.6815 5.39998 51.3259 4.77405C51.563 4.53331 51.8185 4.29998 52.0333 4.10739C53.0074 3.24072 54.0926 2.42591 55.2667 1.68517C55.6593 1.43331 56.063 1.19628 56.4963 0.951832C56.6259 0.877758 56.7519 0.807387 56.8704 0.744424C56.963 0.692573 57.0556 0.644424 57.1482 0.596276C57.1926 0.574054 57.2333 0.551832 57.2741 0.52961C57.8852 0.211091 58.6667 0.414795 59.0148 1.00739C59.0519 1.06665 59.0889 1.13331 59.1259 1.19998L59.3482 1.59998C59.3926 1.68517 59.4408 1.77035 59.4852 1.85924C59.6963 2.25924 59.9148 2.69628 60.1222 3.14442C60.7 4.39998 61.1667 5.65183 61.5074 6.87405C61.5963 7.18887 61.6778 7.51479 61.7519 7.83702C61.9519 8.70368 62.0852 9.57035 62.1519 10.4074C62.1778 10.7518 62.1926 11.0666 62.2 11.3741C62.2037 11.7222 62.2 12.0333 62.1852 12.3222C62.137 13.3481 61.9741 14.3407 61.7 15.2666C61.3556 16.4333 60.8111 17.5926 60.0815 18.7074C59.8926 18.9963 59.6889 19.2815 59.4778 19.5555C59.3 19.7963 59.0926 20.0518 58.8593 20.3259C56.4593 23.1222 53.3704 24.9518 51.7407 25.7926C51.5519 25.8926 51.3482 25.937 51.1482 25.937L51.1408 25.9481ZM57.3815 3.43331C57.1296 3.58146 56.8926 3.72591 56.6519 3.87776C55.5963 4.54442 54.6259 5.27405 53.7593 6.04442C53.5741 6.21109 53.3556 6.41109 53.1482 6.6185C52.5815 7.17035 52.0815 7.72591 51.6519 8.29257C51.4889 8.50368 51.3296 8.72591 51.1778 8.95183C51.0259 9.18146 50.8926 9.39257 50.7778 9.59628C50.363 10.3185 50.0445 11.0518 49.8296 11.7815C49.5556 12.7185 49.4222 13.737 49.4333 14.8111C49.4333 15.1222 49.4482 15.4 49.4704 15.6666C49.4926 15.9407 49.5222 16.2259 49.563 16.5111C49.9111 19.0481 50.9148 21.4 51.663 22.8815C53.1778 21.9926 55.2333 20.5741 56.8889 18.6444C57.0852 18.4148 57.2556 18.2037 57.4111 17.9963C57.5963 17.7555 57.763 17.5185 57.9185 17.2852C58.5074 16.3852 58.9445 15.4592 59.2148 14.537C59.4296 13.8074 59.5593 13.0185 59.6 12.1926C59.6111 11.9555 59.6148 11.7037 59.6111 11.4185C59.6074 11.1666 59.5926 10.9 59.5704 10.6111C59.5148 9.90368 59.3963 9.15924 59.2222 8.40739C59.1593 8.12591 59.0889 7.85183 59.0148 7.57776C58.7111 6.48516 58.2926 5.36294 57.7741 4.23702C57.6482 3.96665 57.5185 3.69628 57.3852 3.43331H57.3815Z" fill="#272727"/>
<path d="M76.0815 27.5741C76.1592 27.6482 76.2296 27.7185 76.3 27.7889C76.3592 27.8482 76.4111 27.9037 76.4667 27.9593C76.5 27.9889 76.5296 28.0222 76.5555 28.0519C76.5222 28.0889 76.4852 28.1259 76.4481 28.163C76.3963 28.2148 76.3407 28.2741 76.2815 28.3333C76.2148 28.4 76.1444 28.4704 76.0667 28.5445C75.8407 28.7667 75.5778 29.0111 75.2815 29.2704C74.6444 29.8296 73.8555 30.4482 72.9518 31.0111C72.7518 31.1371 72.5518 31.2556 72.3407 31.3741C71.8074 31.6741 71.2407 31.9445 70.6481 32.1741C70.437 32.2556 70.2185 32.3296 70 32.4C69.7926 32.463 69.5778 32.5259 69.3629 32.5778C68.7 32.737 68.0111 32.8333 67.3074 32.8333C66.4074 32.8333 65.5296 32.6778 64.6963 32.4259C64.4629 32.3556 64.2296 32.2741 64.0037 32.1852C63.7815 32.1037 63.5629 32.0111 63.3481 31.9148C60.8852 30.8037 58.9407 28.9741 58.0667 28.0556C58.9407 27.137 60.8778 25.3111 63.337 24.2037C63.5518 24.1074 63.7704 24.0148 63.9926 23.9296C64.2185 23.8408 64.4518 23.763 64.6852 23.6926C65.5222 23.437 66.4 23.2815 67.3074 23.2815C68.0111 23.2815 68.7 23.3741 69.3629 23.537C69.5778 23.5889 69.7926 23.6482 70 23.7148C70.2185 23.7852 70.4333 23.8593 70.6444 23.9408C71.2333 24.1667 71.7963 24.437 72.3259 24.737C72.537 24.8519 72.7407 24.9741 72.937 25.0963C73.8518 25.6667 74.6518 26.2963 75.3 26.863C75.5926 27.1185 75.8518 27.363 76.0778 27.5815L76.0815 27.5741Z" fill="#C3D65D"/>
<path d="M67.311 34.1185C66.3406 34.1185 65.3369 33.9629 64.3258 33.6555C64.0629 33.574 63.7999 33.4851 63.5444 33.3851C63.3258 33.3036 63.0851 33.2036 62.8221 33.0888C60.1814 31.8999 58.1258 29.9814 57.1332 28.9444C56.6555 28.4444 56.6555 27.6555 57.1332 27.1555C58.1184 26.1185 60.1703 24.2036 62.811 23.0147C63.0481 22.9073 63.2925 22.8073 63.5369 22.7148C63.7777 22.6222 64.0295 22.537 64.311 22.4518C66.1147 21.8999 67.8592 21.837 69.674 22.274C69.8925 22.3259 70.1295 22.3925 70.3888 22.474C70.6369 22.5518 70.874 22.637 71.111 22.7259C71.7295 22.9629 72.3555 23.2592 72.9703 23.6073C73.1814 23.7222 73.4073 23.8592 73.6295 23.9925C74.4962 24.5333 75.3481 25.1703 76.1629 25.8851C76.4369 26.1259 76.7073 26.374 76.9851 26.6444C77.0703 26.7259 77.1481 26.8036 77.2258 26.8814C77.2851 26.9444 77.3481 27.0036 77.4073 27.0666L77.474 27.1333C77.9518 27.6296 77.9777 28.4333 77.5073 28.937C77.4666 28.9777 77.4258 29.0222 77.3814 29.0666L77.1332 29.3185C77.0777 29.374 77.0221 29.4296 76.9629 29.4851C76.7147 29.7296 76.4332 29.9888 76.1443 30.2444C75.3295 30.9555 74.4888 31.5851 73.6481 32.111C73.4332 32.2444 73.2073 32.3777 72.974 32.5073C72.3666 32.8481 71.7406 33.1444 71.1221 33.3814C70.8814 33.474 70.6406 33.5555 70.3999 33.6333C70.1369 33.7147 69.8999 33.7814 69.674 33.8333C68.8814 34.0259 68.0888 34.1222 67.3184 34.1222L67.311 34.1185ZM59.9258 28.0481C60.8925 28.9259 62.2666 29.9962 63.8851 30.7222C64.0703 30.8073 64.2629 30.8851 64.4592 30.9592C64.6777 31.0444 64.8814 31.1147 65.0814 31.174C65.8481 31.4036 66.5999 31.5222 67.311 31.5222C67.874 31.5222 68.4629 31.4481 69.0592 31.3036C69.2518 31.2592 69.4369 31.2036 69.6184 31.1481C69.8073 31.0888 69.9999 31.0185 70.1888 30.9481C70.6851 30.7555 71.1962 30.5148 71.7073 30.2296C71.9036 30.1222 72.0851 30.0147 72.2629 29.9036C72.9925 29.4481 73.7221 28.9036 74.4295 28.2851C74.5184 28.2073 74.611 28.1259 74.6962 28.0444C74.6147 27.9703 74.5332 27.8962 74.4518 27.8259C73.7406 27.1999 73.0036 26.6481 72.2592 26.1851C72.0851 26.0777 71.9036 25.9666 71.7184 25.8666C71.1925 25.5703 70.6851 25.3296 70.1888 25.1407C70.0036 25.0703 69.8073 24.9999 69.6147 24.9407C69.4406 24.8888 69.2592 24.8333 69.0703 24.7888C68.4666 24.6444 67.8814 24.5703 67.3147 24.5703C66.5925 24.5703 65.8369 24.6888 65.0703 24.9259C64.8481 24.9925 64.6481 25.0629 64.4629 25.1333C64.2592 25.211 64.0629 25.2925 63.8703 25.3777C62.2481 26.1073 60.8518 27.2073 59.9258 28.0481Z" fill="#272727"/>
<path d="M4.36652 63.2369C4.21837 63.2221 4.08133 63.2072 3.948 63.1887C3.83689 63.1739 3.72948 63.1591 3.62207 63.1443C3.56281 63.1369 3.50355 63.1295 3.448 63.122C3.45541 63.0554 3.46281 62.9813 3.47022 62.9109C3.48133 62.8072 3.49244 62.6961 3.50726 62.585C3.52578 62.4554 3.54059 62.3146 3.56281 62.1739C3.62207 61.7406 3.69985 61.248 3.79985 60.7146C4.02207 59.5628 4.3517 58.2184 4.85541 56.8369C4.96652 56.5332 5.08503 56.2258 5.21466 55.9221C5.54059 55.1406 5.92578 54.3628 6.37763 53.6109C6.54059 53.3443 6.71096 53.0776 6.89244 52.8146C7.06652 52.5665 7.24429 52.3183 7.43689 52.0813C8.02207 51.3406 8.69244 50.6554 9.45911 50.0554C10.4406 49.2887 11.5258 48.7109 12.648 48.2739C12.9628 48.1517 13.285 48.0443 13.6036 47.9443C13.9184 47.8443 14.2332 47.7591 14.548 47.6813C18.1776 46.7924 21.8517 47.1332 23.5887 47.385C23.4184 49.1332 22.8628 52.7702 21.1258 56.0702C20.9739 56.3554 20.8147 56.6443 20.6443 56.9258C20.4702 57.2146 20.285 57.4961 20.0924 57.7739C19.3998 58.7665 18.5739 59.6813 17.585 60.4554C16.8184 61.0554 15.9887 61.5369 15.1295 61.9258C14.8517 62.0554 14.5665 62.1702 14.285 62.2776C13.9887 62.3887 13.6887 62.4887 13.3887 62.5813C12.5554 62.8369 11.7073 63.0221 10.8776 63.1443C10.5517 63.1998 10.2258 63.2406 9.90355 63.2739C8.41837 63.4295 7.01466 63.4295 5.82578 63.3591C5.28874 63.3295 4.79615 63.285 4.36652 63.2369Z" fill="#C3D65D"/>
<path d="M7.35544 64.6999C6.82581 64.6999 6.28877 64.6851 5.75173 64.6517C5.25914 64.6258 4.74433 64.5814 4.23321 64.5258C4.07766 64.511 3.92581 64.4925 3.78507 64.474C3.66655 64.4592 3.55173 64.4443 3.43692 64.4258L3.30729 64.4073C2.6221 64.3147 2.09618 63.6925 2.15544 63.0036C2.16284 62.9295 2.17025 62.848 2.17766 62.7666L2.23321 62.2814C2.24433 62.1814 2.25914 62.0777 2.27395 61.974C2.33692 61.4962 2.4221 60.9851 2.5184 60.4666C2.79618 59.0221 3.17025 57.6517 3.62951 56.3851C3.74803 56.0592 3.87766 55.7258 4.0147 55.4036C4.37766 54.5332 4.79988 53.6999 5.25914 52.9332C5.45173 52.6184 5.62951 52.3369 5.8147 52.0703C6.02581 51.7666 6.2221 51.5036 6.4147 51.2629C7.08877 50.411 7.84433 49.6554 8.65173 49.0221C9.67025 48.2258 10.8517 47.5666 12.174 47.0554C12.5147 46.9258 12.8665 46.8036 13.2221 46.6962C13.5295 46.5999 13.8628 46.5036 14.2369 46.4147C18.0406 45.4851 21.8443 45.8147 23.774 46.0962C24.4591 46.1962 24.9443 46.8147 24.8777 47.5036C24.6888 49.4369 24.0999 53.1962 22.274 56.6666C22.1036 56.9888 21.9295 57.2962 21.7517 57.5888C21.574 57.8814 21.3777 58.1851 21.1517 58.5073C20.3406 59.6666 19.411 60.6629 18.3777 61.4666C17.5703 62.0962 16.6554 62.648 15.6591 63.0962C15.3851 63.2221 15.0814 63.348 14.7406 63.4777C14.4258 63.5962 14.1036 63.7036 13.7703 63.8073C12.9147 64.0703 12.0073 64.274 11.0665 64.4147C10.711 64.474 10.3443 64.5184 10.0406 64.5517C9.16655 64.6443 8.27025 64.6888 7.35544 64.6888V64.6999ZM4.89618 61.9888C5.23321 62.0221 5.56655 62.0443 5.89988 62.0666C7.23321 62.1443 8.53321 62.1147 9.76655 61.9851C10.0295 61.9554 10.3443 61.9184 10.6591 61.8666C11.4962 61.7406 12.2777 61.5666 13.0073 61.3406C13.2925 61.2517 13.5703 61.1592 13.8332 61.0592C14.111 60.9554 14.3591 60.8517 14.5888 60.7443C15.4036 60.374 16.1406 59.9332 16.7851 59.4295C17.611 58.7851 18.3665 57.974 19.0295 57.0295C19.2221 56.7554 19.3851 56.5036 19.5332 56.2591C19.6851 56.0073 19.8369 55.7406 19.9814 55.4629C21.2703 53.0147 21.8665 50.3703 22.1443 48.5147C20.2665 48.3369 17.5443 48.2777 14.8591 48.9369C14.548 49.0147 14.2665 49.0925 13.9999 49.1777C13.6888 49.274 13.3925 49.374 13.1147 49.4814C12.0369 49.8999 11.074 50.4332 10.2591 51.074C9.6147 51.5777 9.00729 52.1888 8.45544 52.8851C8.29618 53.0851 8.13321 53.3036 7.95914 53.5554C7.80729 53.7777 7.65173 54.0184 7.48877 54.2851C7.09618 54.9369 6.73321 55.6591 6.4147 56.4221C6.29247 56.7073 6.18136 56.9888 6.08136 57.274C5.66655 58.4147 5.32951 59.6517 5.07766 60.9554C5.01099 61.3036 4.95173 61.648 4.90358 61.9888H4.89618Z" fill="#272727"/>
<path d="M21.963 77.0778C21.8926 77.1222 21.8259 77.1667 21.7593 77.2074C21.7037 77.2407 21.6519 77.2741 21.6 77.3037C21.5704 77.3222 21.5408 77.3407 21.5148 77.3555C21.4926 77.3222 21.4704 77.2889 21.4482 77.2555C21.4148 77.2074 21.3815 77.1518 21.3482 77.0963C21.3074 77.0333 21.2667 76.9667 21.2259 76.8963C21.0963 76.6852 20.9556 76.437 20.8111 76.1667C20.5 75.5778 20.1667 74.8667 19.8963 74.0741C19.8371 73.9 19.7815 73.7222 19.7296 73.5407C19.5963 73.0778 19.4889 72.6 19.4185 72.1037C19.3963 71.9259 19.3741 71.7481 19.363 71.5667C19.3519 71.3963 19.3408 71.2222 19.3408 71.0481C19.3371 70.5111 19.3889 69.9704 19.5111 69.4333C19.6704 68.7444 19.9445 68.1 20.2889 67.5074C20.3852 67.3407 20.4889 67.1778 20.5963 67.0222C20.7 66.8667 20.8074 66.7148 20.9185 66.5704C22.2074 64.8852 23.9519 63.7259 24.8111 63.2185C25.3593 64.0518 26.4111 65.8592 26.8185 67.937C26.8519 68.1185 26.8852 68.3037 26.9111 68.4889C26.9371 68.6778 26.9556 68.8704 26.9704 69.0592C27.0185 69.7444 26.9778 70.4444 26.8148 71.137C26.6889 71.6741 26.4963 72.1852 26.2556 72.6629C26.1778 72.8185 26.0926 72.9704 26.0074 73.1185C25.9148 73.2741 25.8185 73.4222 25.7185 73.5704C25.4408 73.9815 25.1334 74.3629 24.8074 74.7148C24.6815 74.8555 24.5519 74.9889 24.4222 75.1185C23.8222 75.7185 23.2 76.2185 22.6519 76.6111C22.4037 76.7889 22.1704 76.9444 21.963 77.0778Z" fill="#C3D65D"/>
<path d="M21.5185 78.6445C21.0963 78.6445 20.6852 78.4445 20.4371 78.0741L20.2074 77.7112C20.1741 77.6593 20.1408 77.6038 20.1111 77.5482C19.9815 77.3334 19.8297 77.0704 19.6704 76.7741C19.263 76.0112 18.9297 75.2408 18.6704 74.4889C18.6037 74.2963 18.5408 74.0964 18.4815 73.8889C18.326 73.3519 18.2074 72.8075 18.1371 72.2778C18.1111 72.0704 18.0889 71.8667 18.0704 71.663C18.0556 71.4556 18.0445 71.2556 18.0445 71.0519C18.0371 70.3926 18.1074 69.7445 18.2519 69.1371C18.4297 68.3704 18.7408 67.6038 19.1667 66.8593C19.2815 66.663 19.4 66.4741 19.5223 66.2927C19.6334 66.126 19.7593 65.9519 19.8889 65.7815C21.2963 63.9371 23.1667 62.6815 24.1519 62.1001C24.7482 61.7482 25.5148 61.926 25.8963 62.5038C26.5223 63.4593 27.6445 65.4038 28.0926 67.6852C28.1334 67.8926 28.1667 68.1001 28.1963 68.3112C28.226 68.526 28.2482 68.7482 28.263 68.9667C28.3223 69.8223 28.263 70.6519 28.0778 71.4297C27.9371 72.0408 27.7111 72.6482 27.4111 73.2445C27.3223 73.4223 27.226 73.6001 27.1223 73.7704C27.0148 73.9519 26.9037 74.1223 26.7926 74.2926C26.4926 74.7371 26.1445 75.1741 25.763 75.5927C25.6371 75.7371 25.4889 75.8889 25.3408 76.0334C24.763 76.6112 24.1111 77.1593 23.4037 77.663C23.1371 77.8519 22.8889 78.0186 22.6667 78.163C22.5889 78.2149 22.5111 78.263 22.4371 78.3075C22.3778 78.3445 22.3185 78.3815 22.2593 78.4149L22.1926 78.4556C21.9815 78.5815 21.7482 78.6408 21.5185 78.6408V78.6445ZM24.3889 65.0482C23.6297 65.5964 22.6926 66.3852 21.9519 67.3556C21.8593 67.4778 21.7667 67.6038 21.6778 67.7371C21.5778 67.8815 21.4926 68.0186 21.4111 68.1593C21.1111 68.6778 20.8963 69.2075 20.7778 69.726C20.6815 70.1371 20.6371 70.5778 20.6408 71.0371C20.6408 71.1889 20.6482 71.3334 20.6593 71.4741C20.6704 71.6223 20.6889 71.7778 20.7074 71.9297C20.763 72.3297 20.8519 72.7482 20.9778 73.1778C21.026 73.3445 21.0741 73.4964 21.126 73.6482C21.3371 74.2667 21.6111 74.8964 21.9445 75.526C22.5185 75.1112 23.0482 74.6667 23.5111 74.2038C23.6185 74.0964 23.7334 73.9778 23.8408 73.8556C24.1519 73.5149 24.4185 73.1815 24.6445 72.8445C24.7297 72.7186 24.8111 72.5889 24.8926 72.4556C24.9593 72.3408 25.0297 72.2149 25.0963 72.0852C25.3074 71.6704 25.4593 71.2519 25.5556 70.8445C25.6778 70.3186 25.7185 69.7482 25.6778 69.1482C25.6667 68.9852 25.6519 68.826 25.6297 68.6667C25.6074 68.5001 25.5815 68.3408 25.5482 68.1852C25.3148 66.9889 24.826 65.8741 24.3889 65.0482Z" fill="#272727"/>
</svg>
