<svg width="80" height="80" viewBox="0 0 80 80" fill="none" xmlns="http://www.w3.org/2000/svg">
<path d="M14.9335 4.55165C15.0002 4.38128 15.0631 4.22202 15.1298 4.06646C15.1817 3.93683 15.2372 3.81461 15.2891 3.69609C15.3187 3.62572 15.3483 3.55906 15.3743 3.49609C15.452 3.52572 15.5372 3.55906 15.6224 3.59239C15.7409 3.64054 15.8706 3.69239 16.0002 3.74424C16.152 3.8072 16.3113 3.87017 16.4706 3.94424C16.9669 4.15535 17.5298 4.41091 18.1335 4.7035C19.4335 5.34424 20.9298 6.18128 22.4113 7.23684C22.7409 7.46646 23.0631 7.71091 23.3854 7.96646C24.2076 8.61091 25.0113 9.32572 25.7594 10.1109C26.0261 10.3924 26.2891 10.685 26.5409 10.985C26.7817 11.2739 27.015 11.5665 27.2372 11.8739C27.9261 12.8146 28.5298 13.8405 28.9928 14.9516C29.5854 16.3739 29.9187 17.8591 30.0706 19.3405C30.1113 19.7554 30.1372 20.1739 30.1483 20.5887C30.1631 20.9961 30.1631 21.3998 30.152 21.8035C30.0224 26.422 28.4076 30.6961 27.5372 32.685C25.5076 31.9072 21.352 30.0554 17.9854 26.8998C17.6928 26.6257 17.4039 26.3405 17.1224 26.0442C16.8372 25.7442 16.5594 25.4294 16.2928 25.1072C15.3372 23.9554 14.515 22.6665 13.9187 21.2368C13.4557 20.1257 13.152 18.9776 12.9669 17.8257C12.9076 17.4517 12.8631 17.0776 12.8261 16.7035C12.7928 16.3146 12.7706 15.922 12.7557 15.5368C12.7224 14.4591 12.7817 13.3887 12.9076 12.3554C12.9483 11.9479 13.0076 11.5442 13.0706 11.1517C13.3706 9.32943 13.8335 7.65165 14.3039 6.25906C14.515 5.62572 14.7298 5.05906 14.9261 4.55906L14.9335 4.55165Z" fill="white"/>
<path d="M27.5334 33.9777C27.3779 33.9777 27.2223 33.9481 27.0704 33.8925C24.8482 33.0407 20.5964 31.1221 17.0964 27.8407C16.7741 27.5369 16.4667 27.2332 16.1816 26.9295C15.8927 26.6258 15.6001 26.2962 15.2964 25.9295C14.2001 24.6073 13.3334 23.1962 12.7223 21.7295C12.2445 20.5814 11.8964 19.3332 11.689 18.0221C11.6297 17.6555 11.5816 17.2629 11.5371 16.8184C11.5001 16.4147 11.4779 15.9962 11.463 15.5703C11.4297 14.4814 11.4853 13.3481 11.6223 12.1925C11.6667 11.7481 11.7334 11.3073 11.7927 10.9369C12.0667 9.26288 12.5001 7.54806 13.0779 5.83695C13.2741 5.25547 13.4853 4.67769 13.7223 4.08139C13.7927 3.89991 13.8593 3.72954 13.9297 3.56658C13.9816 3.43695 14.0371 3.31102 14.0927 3.1851C14.1186 3.12584 14.1408 3.06658 14.1667 3.01473C14.4408 2.38139 15.1779 2.04065 15.8223 2.28139C15.9001 2.31102 15.9853 2.34436 16.0704 2.37769L16.6334 2.60732C16.7482 2.65547 16.8667 2.70362 16.989 2.75917C17.5371 2.9925 18.1186 3.25917 18.6964 3.54065C20.3112 4.33695 21.8112 5.22213 23.1556 6.18139C23.5001 6.42584 23.8482 6.6851 24.1853 6.95176C25.0964 7.66658 25.9408 8.42954 26.6927 9.21473C27.0001 9.54065 27.2704 9.84436 27.526 10.1481C27.8149 10.4962 28.0593 10.8073 28.2816 11.111C29.063 12.1777 29.7038 13.3036 30.1816 14.4518C30.7853 15.8962 31.1779 17.4999 31.3519 19.2073C31.3964 19.6481 31.4223 20.0999 31.4371 20.5518C31.4519 20.9444 31.4556 21.3703 31.4408 21.837C31.3038 26.6295 29.6779 31.0147 28.7186 33.2036C28.5075 33.6888 28.0297 33.9814 27.5297 33.9814L27.5334 33.9777ZM16.0779 5.1851C15.8816 5.6888 15.7038 6.17399 15.5371 6.66658C15.0038 8.24806 14.6038 9.82213 14.3519 11.3555C14.3001 11.6851 14.2371 12.0814 14.1964 12.4814C14.0704 13.5332 14.0223 14.537 14.0519 15.4925C14.063 15.8666 14.0853 16.2369 14.1149 16.5851C14.1519 16.9592 14.1927 17.2999 14.2445 17.611C14.4223 18.7258 14.7112 19.774 15.1112 20.7332C15.6223 21.9592 16.3556 23.1518 17.2853 24.274C17.5519 24.5962 17.8038 24.8777 18.0519 25.1407C18.3075 25.411 18.5816 25.6814 18.863 25.9481C21.5075 28.4295 24.663 30.0629 26.8223 30.9925C27.6853 28.7925 28.7445 25.3888 28.8445 21.7629C28.8556 21.3592 28.8556 20.9888 28.8408 20.6369C28.8297 20.2295 28.8038 19.8407 28.7667 19.4629C28.6186 18.011 28.289 16.6555 27.7853 15.4444C27.3853 14.4851 26.8482 13.5407 26.1816 12.6369C25.9927 12.3777 25.7816 12.1073 25.5334 11.811C25.3112 11.5481 25.0742 11.2814 24.8038 10.9962C24.1445 10.3036 23.389 9.62213 22.5704 8.98139C22.2667 8.74065 21.9593 8.51102 21.6519 8.2925C20.4149 7.41102 19.0334 6.59621 17.5482 5.86287C17.0519 5.62213 16.5556 5.3925 16.0667 5.18139L16.0779 5.1851Z" fill="#272727"/>
<path d="M5.2778 20.7184C5.23706 20.5406 5.20373 20.3702 5.1741 20.2073C5.14817 20.0702 5.12225 19.9369 5.10373 19.8073C5.08891 19.7332 5.0778 19.6591 5.06299 19.5925C5.14447 19.5739 5.23336 19.5554 5.32225 19.5369C5.44817 19.511 5.58151 19.4814 5.72225 19.4554C5.88151 19.4258 6.05188 19.3925 6.22595 19.3628C6.75928 19.2665 7.36669 19.1702 8.03336 19.0851C9.4741 18.9036 11.1815 18.7814 13 18.848C13.4 18.8591 13.8037 18.8851 14.2148 18.9221C15.2556 19.0073 16.3185 19.1628 17.3778 19.4073C17.7556 19.4962 18.1334 19.5962 18.5111 19.7073C18.8704 19.8147 19.2259 19.9332 19.5815 20.0665C20.6741 20.4739 21.7408 20.9999 22.7371 21.6739C24.0148 22.5369 25.1111 23.5925 26.0482 24.748C26.3111 25.0739 26.563 25.4073 26.8 25.748C27.0371 26.0777 27.2593 26.4184 27.4704 26.7591C29.9 30.6888 30.9037 35.1443 31.2667 37.2851C29.1445 37.7517 24.6519 38.4888 20.1074 37.7036C19.7111 37.6332 19.3148 37.5554 18.9148 37.4628C18.5111 37.3702 18.1074 37.2591 17.7074 37.1369C16.2741 36.6999 14.8815 36.0777 13.5963 35.2073C12.6 34.5332 11.7148 33.7443 10.926 32.8814C10.6704 32.6036 10.426 32.3147 10.1926 32.0221C9.95188 31.7147 9.71854 31.3999 9.49262 31.0851C8.8741 30.1999 8.33336 29.2777 7.8704 28.3443C7.68151 27.9814 7.51114 27.611 7.34817 27.248C6.59632 25.5628 6.06299 23.9073 5.68891 22.4851C5.51854 21.8406 5.38521 21.248 5.2741 20.7221L5.2778 20.7184Z" fill="white"/>
<path d="M24.3555 39.3443C22.9296 39.3443 21.4148 39.2443 19.8889 38.9777C19.4518 38.8999 19.0259 38.8147 18.6222 38.7184C18.2148 38.6258 17.7926 38.511 17.3333 38.3703C15.6889 37.8703 14.1889 37.1629 12.8741 36.2777C11.8444 35.5814 10.8667 34.7332 9.97406 33.748C9.72221 33.474 9.46295 33.174 9.18517 32.8258C8.93332 32.5073 8.68146 32.1703 8.43702 31.8258C7.81109 30.9332 7.23332 29.9555 6.7148 28.9184C6.51109 28.5258 6.32221 28.1184 6.16665 27.774C5.47776 26.2221 4.89628 24.5554 4.43702 22.8073C4.28146 22.2147 4.14072 21.6184 4.01109 20.9851C3.97035 20.7962 3.93332 20.6147 3.89998 20.4443C3.87406 20.3073 3.84813 20.1703 3.82591 20.0369C3.8148 19.9703 3.80369 19.9073 3.79258 19.848C3.67406 19.1703 4.10369 18.4814 4.77406 18.3295C4.86295 18.3073 4.95924 18.2888 5.05924 18.2666L5.64072 18.1517C5.76295 18.1295 5.88517 18.1036 6.0148 18.0851C6.59998 17.9777 7.22961 17.8814 7.87035 17.7999C9.65554 17.5777 11.3963 17.4925 13.0481 17.5517C13.4741 17.5666 13.9074 17.5925 14.3333 17.6295C15.4852 17.7258 16.6111 17.8999 17.6704 18.1443C18.1037 18.248 18.4963 18.3517 18.8815 18.4629C19.3111 18.5925 19.6889 18.7184 20.0407 18.8517C21.2815 19.3147 22.4333 19.8999 23.4667 20.5962C24.7666 21.474 25.9741 22.5925 27.0592 23.9258C27.3407 24.2703 27.6111 24.6332 27.8666 25.0036C28.0963 25.3221 28.3296 25.6777 28.5778 26.074C31.1 30.1517 32.1481 34.711 32.5518 37.0629C32.6666 37.7443 32.2296 38.3999 31.5518 38.548C29.9778 38.8925 27.3555 39.3443 24.3592 39.3443H24.3555ZM6.58146 20.6147C6.69258 21.1443 6.8148 21.648 6.94443 22.1517C7.36665 23.7666 7.89998 25.2999 8.53332 26.7184C8.67035 27.0258 8.83702 27.3888 9.02221 27.7406C9.49628 28.6888 10.0074 29.5517 10.5555 30.3369C10.7704 30.6443 10.9926 30.9406 11.2111 31.2147C11.4481 31.5073 11.6667 31.7666 11.8815 31.9999C12.6407 32.8332 13.4629 33.548 14.3222 34.1295C15.4222 34.874 16.6889 35.4666 18.0889 35.8925C18.4889 36.0147 18.8555 36.1147 19.2074 36.1962C19.5704 36.2814 19.9444 36.3592 20.3296 36.4258C23.9037 37.0443 27.437 36.674 29.7518 36.2629C29.2629 33.9517 28.2741 30.5258 26.3666 27.4406C26.1518 27.0962 25.9481 26.7888 25.7444 26.5036C25.5111 26.1703 25.2778 25.8592 25.037 25.5629C24.1148 24.4295 23.0963 23.4814 22.0074 22.748C21.1481 22.1666 20.1778 21.674 19.1259 21.2814C18.8222 21.1666 18.5 21.0592 18.1333 20.948C17.8037 20.8517 17.4555 20.7592 17.0778 20.6703C16.1444 20.4554 15.1407 20.2999 14.1037 20.2147C13.7222 20.1814 13.337 20.1554 12.9555 20.1443C11.437 20.0888 9.83702 20.1666 8.19258 20.3703C7.64443 20.4406 7.10369 20.5221 6.58146 20.6147Z" fill="#272727"/>
<path d="M32.3295 6.48139C32.4628 6.35546 32.5925 6.24064 32.7184 6.13324C32.8221 6.04064 32.9258 5.95176 33.0258 5.87027C33.0814 5.81842 33.1406 5.77027 33.1925 5.72583C33.248 5.78509 33.311 5.85176 33.3702 5.91842C33.4554 6.01472 33.548 6.11472 33.6443 6.22213C33.7517 6.34435 33.8665 6.47398 33.9814 6.61102C34.3369 7.02213 34.7258 7.4962 35.1369 8.02583C36.0221 9.17398 36.9962 10.5851 37.8628 12.1814C38.0554 12.5332 38.2406 12.8925 38.4184 13.2629C38.8739 14.2036 39.2814 15.1962 39.6073 16.2332C39.7221 16.6036 39.8295 16.9814 39.9258 17.3629C40.0147 17.7258 40.0962 18.0962 40.1591 18.4703C40.3628 19.6184 40.4517 20.8036 40.3814 22.0036C40.2888 23.5443 39.9332 25.0221 39.4147 26.4184C39.2665 26.811 39.1073 27.1962 38.9332 27.574C38.7702 27.9443 38.5888 28.311 38.4036 28.6666C36.2517 32.7555 32.9258 35.8814 31.2665 37.2851C29.7888 35.6962 26.8702 32.1999 25.2369 27.8851C25.0962 27.511 24.9628 27.1258 24.8406 26.7369C24.7147 26.3406 24.6073 25.9369 24.5073 25.5332C24.1554 24.0777 23.9851 22.5592 24.0777 21.011C24.1517 19.811 24.3814 18.6444 24.7258 17.5295C24.8369 17.1666 24.9591 16.811 25.0925 16.4592C25.2332 16.0962 25.3851 15.7332 25.5443 15.3814C25.9888 14.3999 26.5147 13.4666 27.0814 12.5925C27.2962 12.2443 27.5295 11.911 27.7591 11.5851C28.8295 10.0814 29.9851 8.78139 31.0184 7.73694C31.4888 7.26287 31.9295 6.84435 32.3258 6.48509L32.3295 6.48139Z" fill="white"/>
<path d="M31.2704 38.5813C30.9222 38.5813 30.5741 38.4405 30.3222 38.1665C28.7 36.422 25.7296 32.8294 24.0296 28.3442C23.8741 27.9331 23.7333 27.522 23.6074 27.122C23.4815 26.722 23.3629 26.2998 23.2518 25.8331C22.8481 24.1628 22.6926 22.5146 22.7889 20.9294C22.8629 19.6887 23.1 18.4146 23.4926 17.1442C23.6 16.7887 23.7296 16.4109 23.8852 15.9961C24.0333 15.6146 24.1926 15.2294 24.3666 14.8442C24.8148 13.8517 25.3629 12.8591 25.9963 11.8813C26.2296 11.5035 26.4852 11.1368 26.7037 10.8294C27.6889 9.44795 28.8296 8.0961 30.1037 6.81462C30.537 6.37758 30.9815 5.95165 31.4555 5.52202C31.5963 5.38869 31.7333 5.26647 31.8666 5.15165C31.9704 5.05906 32.0778 4.97017 32.1815 4.88128C32.2296 4.84054 32.2778 4.7998 32.3222 4.75906L32.3518 4.73313C32.8778 4.28499 33.6629 4.32573 34.137 4.82573C34.2 4.89239 34.2666 4.96647 34.3333 5.03684L34.7259 5.47758C34.8074 5.57017 34.8926 5.66647 34.9778 5.76647C35.3667 6.21462 35.7704 6.71091 36.1666 7.21832C37.2667 8.64425 38.2222 10.0998 39.0074 11.5517C39.2111 11.922 39.4111 12.3109 39.5926 12.6961C40.0963 13.7368 40.5185 14.7961 40.8444 15.8331C40.9778 16.2591 41.0889 16.6517 41.1852 17.0368C41.2926 17.4739 41.3741 17.8628 41.4407 18.2331C41.6741 19.5368 41.7555 20.8294 41.6778 22.0702C41.5815 23.6331 41.2296 25.2442 40.6333 26.8554C40.4778 27.2702 40.3037 27.6887 40.1185 28.0998C39.9592 28.4591 39.7741 28.8442 39.5592 29.2554C37.3296 33.4961 33.937 36.7183 32.1111 38.2628C31.8666 38.4665 31.5704 38.5702 31.2741 38.5702L31.2704 38.5813ZM33.0815 7.55165C32.6852 7.91462 32.3111 8.27388 31.9444 8.64425C30.7704 9.82943 29.7185 11.0665 28.8185 12.3331C28.6259 12.6072 28.3963 12.9331 28.1852 13.2739C27.6111 14.1628 27.1259 15.0442 26.7296 15.9146C26.5778 16.2554 26.4333 16.5961 26.3074 16.9257C26.1741 17.2776 26.0629 17.5998 25.9704 17.9035C25.637 18.9813 25.437 20.0517 25.3741 21.0887C25.2926 22.4146 25.4259 23.8072 25.7704 25.2257C25.8666 25.6331 25.9704 25.9998 26.0778 26.3442C26.1889 26.6998 26.3148 27.0628 26.4518 27.4257C27.737 30.8183 29.8481 33.6739 31.3778 35.4591C33.1185 33.8628 35.5704 31.2739 37.2555 28.0628C37.4444 27.7035 37.6037 27.3739 37.7481 27.0517C37.9185 26.6813 38.0666 26.3183 38.2 25.9665C38.7074 24.5961 39.0074 23.2368 39.0852 21.9257C39.1481 20.8887 39.0815 19.8035 38.8815 18.6998C38.8259 18.3813 38.7555 18.0479 38.6629 17.6739C38.5815 17.3405 38.4815 16.9961 38.3666 16.622C38.0778 15.7072 37.7 14.7665 37.2481 13.8294C37.0815 13.4813 36.9074 13.1405 36.7259 12.8072C36.0037 11.4739 35.1222 10.1331 34.1111 8.81832C33.7741 8.38128 33.4259 7.95536 33.0815 7.55536V7.55165Z" fill="#272727"/>
<path d="M59.8109 67.9076C54.3516 64.2039 52.4516 58.8484 54.5183 55.8039C56.5849 52.7595 62.2627 52.5447 67.722 56.2484C70.959 58.4447 74.8109 61.7706 75.0924 64.4743C75.2998 66.4891 73.8553 67.1151 73.0146 68.3521C72.1257 69.6595 72.1035 71.3002 70.0738 71.8669C67.5109 72.5854 62.922 70.0188 59.8109 67.9076Z" fill="white"/>
<path d="M69.1221 73.2817C66.111 73.2817 62.1036 71.0298 59.085 68.9817C56.3073 67.0965 54.1962 64.652 53.1443 62.1039C52.0702 59.5002 52.1813 56.9409 53.4443 55.078C56.0702 51.2076 62.6591 51.252 68.448 55.178C71.2517 57.0817 76.011 60.8002 76.3813 64.3409C76.5924 66.3743 75.5406 67.4817 74.7702 68.2891C74.511 68.5594 74.2702 68.815 74.0887 69.0817C73.8924 69.3706 73.7369 69.7113 73.5739 70.0743C73.0998 71.1187 72.448 72.552 70.4258 73.1187C70.0184 73.2335 69.5813 73.2854 69.1221 73.2854V73.2817ZM59.748 54.7817C57.8332 54.7817 56.3369 55.4335 55.5924 56.5335C54.8258 57.6631 54.8073 59.3335 55.5443 61.1187C56.4036 63.2039 58.1776 65.2335 60.5406 66.8372C64.6295 69.6113 68.1517 71.0631 69.7258 70.6187C70.5517 70.3891 70.7776 69.9557 71.211 69.0002C71.4036 68.5743 71.6221 68.0928 71.9406 67.6224C72.2406 67.1817 72.585 66.8187 72.8887 66.5002C73.5813 65.7706 73.885 65.415 73.7999 64.6076C73.6184 62.8631 70.948 60.0039 66.9924 57.3224C64.3702 55.5446 61.8147 54.7817 59.748 54.7817Z" fill="#272727"/>
<path d="M44.6444 64.5777C46.4777 58.2406 50.9851 54.7777 54.5185 55.8036C58.0518 56.8258 60.0111 62.1628 58.1777 68.4962C57.0889 72.2517 55.1148 76.9443 52.6333 78.048C50.7814 78.8703 49.7407 77.6888 48.3037 77.2703C46.7851 76.8295 45.2185 77.3147 44.0518 75.5591C42.5777 73.3406 43.6 68.1888 44.6444 64.574V64.5777Z" fill="white"/>
<path d="M51.3926 79.6296C50.3814 79.6296 49.5629 79.237 48.9037 78.9222C48.5666 78.7593 48.2481 78.6074 47.9407 78.5185C47.6074 78.4222 47.2333 78.3815 46.837 78.3333C45.6963 78.2037 44.1333 78.0296 42.9703 76.2815C41.2037 73.6296 42.2296 68.2555 43.3963 64.2185C44.3296 60.9926 46 58.2296 48.1037 56.4444C50.2481 54.6185 52.7185 53.9333 54.8777 54.5592C57.037 55.1852 58.7592 57.0852 59.5963 59.7741C60.4185 62.4074 60.3555 65.6333 59.4185 68.8593C58.4777 72.1148 56.4074 77.7889 53.1555 79.2333C52.5111 79.5185 51.9259 79.6296 51.3926 79.6296ZM45.8852 64.9407C44.5111 69.6889 44.2185 73.4852 45.1259 74.8481C45.6 75.563 46.0814 75.6444 47.1259 75.7593C47.5889 75.8111 48.1148 75.8704 48.6592 76.0296C49.174 76.1778 49.6222 76.3926 50.0222 76.5852C50.9296 77.0185 51.3592 77.1963 52.1037 76.8667C53.7037 76.1555 55.6 72.7296 56.9296 68.1407C57.7259 65.3963 57.7926 62.7 57.1222 60.5481C56.5481 58.7074 55.4666 57.4333 54.1555 57.0518C52.8444 56.6741 51.2518 57.1704 49.7815 58.4222C48.0629 59.8852 46.6814 62.2 45.8852 64.9444V64.9407Z" fill="#272727"/>
<path d="M43.1222 49.1221C49.7148 48.911 54.3999 52.1259 54.5185 55.8036C54.637 59.4814 50.1703 62.9925 43.5777 63.2073C39.6666 63.3333 34.5962 62.9073 32.7814 60.8851C31.4296 59.3777 32.2296 58.0221 32.1814 56.5258C32.1296 54.9444 31.1851 53.6036 32.4925 51.9555C34.1444 49.8666 39.3629 49.2481 43.1222 49.1259V49.1221Z" fill="white"/>
<path d="M42.2777 64.526C38.8185 64.526 33.9037 64.0778 31.8148 61.7519C30.4481 60.2297 30.6518 58.7148 30.7963 57.6074C30.8444 57.2371 30.8926 56.8852 30.8814 56.5667C30.8703 56.2185 30.7963 55.8519 30.7148 55.4593C30.4852 54.3334 30.1703 52.7926 31.474 51.1482C33.4518 48.6482 38.8777 47.963 43.0777 47.826C46.4333 47.7185 49.5777 48.4556 51.9259 49.9C54.3222 51.3741 55.7407 53.5111 55.8111 55.763C55.9629 60.4371 50.6037 64.2778 43.6148 64.5037C43.2037 64.5185 42.7518 64.526 42.274 64.526H42.2777ZM43.1629 50.4222C38.2222 50.5815 34.5222 51.4778 33.5074 52.763C32.974 53.4334 33.0444 53.9185 33.2555 54.9445C33.3481 55.4 33.4555 55.9185 33.474 56.4889C33.4926 57.0223 33.4259 57.5185 33.3666 57.9556C33.2333 58.9519 33.2 59.4185 33.7444 60.0222C34.9148 61.326 38.7592 62.0667 43.5333 61.9148C49.6333 61.7185 53.3111 58.6148 53.2222 55.8482C53.1777 54.4852 52.2111 53.1222 50.5666 52.1111C48.6444 50.9297 46.0148 50.3297 43.1629 50.4222Z" fill="#272727"/>
<path d="M67.6665 54.5114C62.4591 58.5595 56.7776 58.7114 54.5183 55.804C52.2591 52.8965 53.8109 47.4299 59.0183 43.3854C62.1072 40.9854 66.4628 38.3484 69.1183 38.9188C71.0961 39.341 71.248 40.9114 72.1665 42.0928C73.1369 43.341 74.6887 43.8706 74.5998 45.9743C74.4887 48.6336 70.6332 52.204 67.6628 54.5114H67.6665Z" fill="white"/>
<path d="M59.2184 59.0891C56.848 59.0891 54.7925 58.2706 53.4962 56.6002C50.6258 52.9076 52.7036 46.652 58.2258 42.3595C60.9036 40.2817 65.911 36.9002 69.3925 37.6483C71.3925 38.0743 72.1184 39.4187 72.6517 40.4002C72.8295 40.7298 72.9962 41.0409 73.1925 41.2928C73.4036 41.5669 73.6851 41.8224 73.9776 42.0891C74.8258 42.8632 75.9851 43.9261 75.8999 46.0224C75.7702 49.2076 71.7851 52.952 68.4628 55.5298C65.4369 57.8817 62.0962 59.0854 59.2184 59.0854V59.0891ZM68.3295 40.1335C66.4814 40.1335 63.2406 41.7446 59.8147 44.4076C54.9962 48.152 53.8443 52.8261 55.5406 55.0076C57.2369 57.1891 62.0517 57.2298 66.8702 53.4854C70.7739 50.452 73.2406 47.552 73.3073 45.9187C73.3443 45.0632 72.9999 44.715 72.2258 44.0039C71.8813 43.6891 71.4925 43.3335 71.1443 42.8854C70.8147 42.4632 70.5776 42.0224 70.3702 41.6372C69.8925 40.752 69.648 40.3557 68.8517 40.1854C68.6925 40.152 68.5221 40.1335 68.3332 40.1335H68.3295Z" fill="#272727"/>
<path d="M57.3518 42.9002C59.5925 49.1039 57.9814 54.5557 54.5185 55.8039C51.0592 57.052 46.337 53.8891 44.0962 47.6854C42.7666 44.0076 41.6073 39.0483 42.9666 36.7002C43.9814 34.9483 45.5185 35.2891 46.9259 34.7817C48.411 34.2446 49.3962 32.9335 51.3703 33.6668C53.8666 34.5928 56.0703 39.3631 57.3481 42.9039L57.3518 42.9002Z" fill="white"/>
<path d="M52.9592 57.3668C51.3555 57.3668 49.6555 56.7557 48.074 55.5779C45.8629 53.9297 44.0184 51.2816 42.8777 48.1223C41.7258 44.9334 40.0629 39.126 41.8481 36.0483C42.874 34.2779 44.374 34.0038 45.474 33.8001C45.8406 33.7334 46.1888 33.6705 46.4888 33.5594C46.8147 33.4408 47.1444 33.2557 47.4888 33.0594C48.4888 32.4927 49.8555 31.7186 51.8258 32.4482C54.8147 33.5557 57.1444 38.5038 58.5703 42.4594C60.9444 49.0371 59.3592 55.4334 54.9592 57.0223C54.3221 57.252 53.6518 57.3668 52.9592 57.3668ZM50.2555 34.7445C49.7999 34.7445 49.3962 34.9594 48.7666 35.3149C48.3592 35.5445 47.8999 35.8075 47.3666 36.0001C46.8629 36.1816 46.374 36.2705 45.9406 36.352C44.9518 36.5334 44.4999 36.6445 44.0888 37.3482C43.211 38.8631 43.6925 42.7482 45.3147 47.2445C46.2851 49.9297 47.8147 52.152 49.6221 53.5001C51.1703 54.652 52.7925 55.0483 54.074 54.5853C56.674 53.6483 58.1999 49.0816 56.1258 43.3408C54.4481 38.6927 52.4518 35.4483 50.9184 34.8816C50.6703 34.789 50.4555 34.7445 50.2518 34.7445H50.2555Z" fill="#272727"/>
<path d="M54.459 62.0555C58.0039 62.0555 60.8776 59.1819 60.8776 55.637C60.8776 52.0922 58.0039 49.2185 54.459 49.2185C50.9142 49.2185 48.0405 52.0922 48.0405 55.637C48.0405 59.1819 50.9142 62.0555 54.459 62.0555Z" fill="white"/>
<path d="M54.4666 63.352C51.3073 63.352 48.3332 61.3964 47.1999 58.2557C45.7555 54.2557 47.8369 49.8223 51.8369 48.3779C55.8369 46.9334 60.2703 49.0149 61.7147 53.0149C62.4147 54.952 62.3184 57.0483 61.4406 58.9149C60.5666 60.7816 59.0147 62.1927 57.0777 62.8927C56.2147 63.2038 55.3332 63.352 54.4666 63.352ZM54.4555 50.5112C53.8777 50.5112 53.2925 50.6075 52.7221 50.8149C50.0666 51.7742 48.6851 54.7149 49.6443 57.3742C50.6036 60.0297 53.5443 61.4112 56.2036 60.452C57.4925 59.989 58.5184 59.0482 59.0999 57.8112C59.6814 56.5742 59.7443 55.1816 59.2814 53.8927C58.5295 51.8075 56.5554 50.5075 54.4592 50.5075L54.4555 50.5112Z" fill="#272727"/>
<path d="M57.1371 2.08156C57.2556 2.01119 57.3704 1.94823 57.4815 1.88897C57.5741 1.83712 57.663 1.79267 57.7519 1.74453C57.8038 1.7186 57.8519 1.69267 57.9001 1.66675C57.9334 1.7223 57.9667 1.78156 58.0001 1.84082C58.0482 1.92601 58.1001 2.0186 58.1482 2.11119C58.2075 2.2223 58.2704 2.33341 58.3297 2.45564C58.5223 2.8186 58.7297 3.23341 58.9445 3.69638C59.4038 4.69638 59.8852 5.90008 60.2556 7.22601C60.3371 7.5186 60.4149 7.8149 60.4815 8.1186C60.6593 8.89267 60.7889 9.69267 60.8556 10.5149C60.8778 10.8075 60.8926 11.1038 60.9001 11.4038C60.9038 11.6853 60.9001 11.9742 60.8852 12.2593C60.8445 13.1445 60.7075 14.0334 60.4519 14.9075C60.1223 16.0297 59.6112 17.063 58.9926 18.0038C58.8186 18.2667 58.6334 18.526 58.4445 18.7779C58.2593 19.026 58.0667 19.263 57.8704 19.4964C55.5889 22.1556 52.6038 23.9001 51.1408 24.6556C50.3186 23.2297 48.7556 20.1556 48.2778 16.6927C48.2371 16.3927 48.2038 16.0853 48.1778 15.7779C48.1519 15.463 48.1408 15.1482 48.1371 14.8334C48.1223 13.7001 48.2556 12.5482 48.5852 11.4223C48.8408 10.5482 49.2112 9.72601 49.6519 8.95934C49.7963 8.71119 49.9482 8.46675 50.1038 8.23341C50.2704 7.98897 50.4408 7.74823 50.6186 7.51119C51.1149 6.85934 51.6593 6.25934 52.226 5.71119C52.4445 5.49267 52.6704 5.28156 52.8964 5.08156C53.9408 4.15193 55.0149 3.38527 55.9556 2.78897C56.3815 2.5186 56.7778 2.28527 57.1334 2.08527L57.1371 2.08156Z" fill="white"/>
<path d="M51.1408 25.9482C50.6926 25.9482 50.2556 25.7148 50.0185 25.3C49.1037 23.7185 47.4963 20.5185 46.9926 16.8667C46.9482 16.5259 46.9111 16.1926 46.8852 15.8741C46.8593 15.5519 46.8445 15.2111 46.8408 14.8408C46.8259 13.5074 46.9926 12.2333 47.3408 11.0482C47.6148 10.1222 48.0148 9.19631 48.5296 8.30372C48.6704 8.05557 48.8333 7.79261 49.0259 7.50742C49.2037 7.24446 49.3926 6.9815 49.5889 6.72224C50.1 6.05187 50.6815 5.40002 51.3259 4.77409C51.563 4.53335 51.8185 4.30002 52.0333 4.10742C53.0074 3.24076 54.0926 2.42594 55.263 1.6852C55.6593 1.43335 56.063 1.19261 56.4926 0.951868C56.6222 0.877793 56.7445 0.807423 56.8667 0.74446C56.9667 0.692608 57.063 0.640756 57.1593 0.588905L57.2704 0.529645C57.8815 0.211127 58.663 0.411127 59.0148 1.00742C59.0519 1.06668 59.0889 1.13335 59.1259 1.20002L59.3445 1.60002C59.3889 1.6852 59.437 1.77039 59.4815 1.86298C59.6926 2.25928 59.9111 2.70002 60.1185 3.14816C60.6963 4.40372 61.163 5.65557 61.5037 6.87779C61.5926 7.19261 61.6741 7.51853 61.7482 7.84076C61.9482 8.70742 62.0815 9.57409 62.1482 10.4111C62.1741 10.7556 62.1889 11.0704 62.1963 11.3778C62.2 11.7296 62.1963 12.0371 62.1815 12.3259C62.1333 13.3519 61.9704 14.3445 61.6963 15.2704C61.3519 16.4371 60.8074 17.5963 60.0778 18.7111C59.8889 19 59.6852 19.2852 59.4741 19.5593C59.2926 19.8 59.0889 20.0593 58.8519 20.3296C56.4519 23.1259 53.363 24.9556 51.7333 25.7963C51.5445 25.8963 51.3408 25.9408 51.1408 25.9408V25.9482ZM57.3815 3.43335C57.1333 3.57779 56.8926 3.72594 56.6519 3.87779C55.5963 4.54446 54.6259 5.27409 53.7593 6.04446C53.5741 6.21113 53.3556 6.41113 53.1482 6.61853C52.5815 7.17039 52.0815 7.72594 51.6519 8.29261C51.4889 8.50742 51.3296 8.72594 51.1778 8.95187C51.0259 9.1815 50.8926 9.39261 50.7778 9.59631C50.363 10.3185 50.0445 11.0519 49.8296 11.7815C49.5556 12.7185 49.4222 13.7371 49.4333 14.8111C49.4333 15.1222 49.4482 15.4 49.4704 15.6667C49.4926 15.9408 49.5222 16.2222 49.563 16.5111C49.9111 19.0482 50.9148 21.4 51.663 22.8815C53.1778 21.9926 55.2333 20.5741 56.8889 18.6445C57.0852 18.4148 57.2556 18.2037 57.4111 17.9963C57.5963 17.7556 57.763 17.5185 57.9185 17.2852C58.5074 16.3852 58.9445 15.4593 59.2185 14.5371C59.4333 13.8074 59.563 13.0185 59.6037 12.1926C59.6148 11.9556 59.6185 11.7037 59.6148 11.4185C59.6111 11.1667 59.5963 10.9 59.5741 10.6111C59.5185 9.90372 59.4 9.15928 59.2259 8.40742C59.163 8.12594 59.0926 7.85187 59.0185 7.57779C58.7148 6.4852 58.2963 5.36298 57.7778 4.23705C57.6519 3.96298 57.5222 3.69631 57.3889 3.43335H57.3815Z" fill="#272727"/>
<path d="M76.0815 27.5741C76.1592 27.6482 76.2296 27.7185 76.3 27.7889C76.3592 27.8482 76.4111 27.9037 76.4667 27.9593C76.5 27.9889 76.5296 28.0222 76.5555 28.0519C76.5222 28.0889 76.4852 28.1259 76.4481 28.163C76.3963 28.2148 76.3407 28.2741 76.2815 28.3333C76.2148 28.4 76.1444 28.4704 76.0667 28.5445C75.8407 28.7667 75.5778 29.0111 75.2815 29.2704C74.6444 29.8296 73.8555 30.4482 72.9518 31.0111C72.7518 31.1371 72.5518 31.2556 72.3407 31.3741C71.8074 31.6741 71.2407 31.9445 70.6481 32.1741C70.437 32.2556 70.2185 32.3296 70 32.4C69.7926 32.463 69.5778 32.5259 69.3629 32.5778C68.7 32.737 68.0111 32.8333 67.3074 32.8333C66.4074 32.8333 65.5296 32.6778 64.6963 32.4259C64.4629 32.3556 64.2296 32.2741 64.0037 32.1852C63.7815 32.1037 63.5629 32.0111 63.3481 31.9148C60.8852 30.8037 58.9407 28.9741 58.0667 28.0556C58.9407 27.137 60.8778 25.3111 63.337 24.2037C63.5518 24.1074 63.7704 24.0148 63.9926 23.9296C64.2185 23.8408 64.4518 23.763 64.6852 23.6926C65.5222 23.437 66.4 23.2815 67.3074 23.2815C68.0111 23.2815 68.7 23.3741 69.3629 23.537C69.5778 23.5889 69.7926 23.6482 70 23.7148C70.2185 23.7852 70.4333 23.8593 70.6444 23.9408C71.2333 24.1667 71.7963 24.437 72.3259 24.737C72.537 24.8519 72.7407 24.9741 72.937 25.0963C73.8518 25.6667 74.6518 26.2963 75.3 26.863C75.5926 27.1185 75.8518 27.363 76.0778 27.5815L76.0815 27.5741Z" fill="white"/>
<path d="M67.311 34.1185C66.3406 34.1185 65.3369 33.9629 64.3258 33.6555C64.0666 33.5777 63.8036 33.4851 63.5444 33.3851C63.3258 33.3036 63.0851 33.2036 62.8221 33.0888C60.1851 31.8999 58.1258 29.9814 57.1332 28.9444C56.6555 28.4444 56.6555 27.6555 57.1332 27.1555C58.1184 26.1185 60.1703 24.2036 62.811 23.0147C63.0481 22.9073 63.2925 22.8073 63.5369 22.7148C63.774 22.6222 64.0369 22.5333 64.311 22.4518C66.1147 21.8999 67.8592 21.837 69.674 22.274C69.8925 22.3259 70.1295 22.3925 70.3888 22.474C70.6369 22.5518 70.874 22.637 71.111 22.7259C71.7332 22.9629 72.3555 23.2592 72.9703 23.6073C73.1814 23.7222 73.4073 23.8592 73.6295 23.9925C74.4962 24.5333 75.3481 25.1703 76.1629 25.8851C76.4369 26.1259 76.7073 26.374 76.9851 26.6444C77.0703 26.7259 77.1481 26.8036 77.2258 26.8814C77.2851 26.9407 77.3481 27.0036 77.4073 27.0666L77.474 27.1333C77.9518 27.6296 77.9777 28.4333 77.5073 28.937L77.1332 29.3185C77.0777 29.374 77.0221 29.4296 76.9629 29.4851C76.7147 29.7259 76.4332 29.9888 76.1443 30.2444C75.3295 30.9555 74.4888 31.5814 73.6481 32.111C73.4332 32.2444 73.2073 32.3777 72.974 32.5073C72.3666 32.8481 71.7406 33.1444 71.1221 33.3814C70.8814 33.474 70.6406 33.5555 70.3999 33.6333C70.1369 33.7147 69.8999 33.7814 69.674 33.8333C68.8814 34.0259 68.0888 34.1222 67.3184 34.1222L67.311 34.1185ZM59.9258 28.0481C60.8925 28.9259 62.2703 29.9962 63.8851 30.7222C64.0703 30.8073 64.2629 30.8851 64.4592 30.9592C64.6777 31.0444 64.8814 31.1147 65.0814 31.174C65.8481 31.4036 66.5999 31.5222 67.311 31.5222C67.874 31.5222 68.4629 31.4481 69.0592 31.3036C69.2518 31.2592 69.4369 31.2036 69.6184 31.1481C69.8073 31.0888 69.9999 31.0185 70.1888 30.9481C70.6851 30.7555 71.1962 30.5148 71.7073 30.2296C71.9036 30.1222 72.0851 30.0147 72.2629 29.9036C72.9925 29.4481 73.7221 28.9036 74.4295 28.2851C74.5184 28.2073 74.611 28.1259 74.6962 28.0444C74.6147 27.9703 74.5332 27.8962 74.448 27.8259C73.7369 27.1999 72.9999 26.6481 72.2555 26.1851C72.0814 26.0777 71.8999 25.9666 71.711 25.8666C71.1888 25.5703 70.6814 25.3296 70.1814 25.1407C69.9962 25.0703 69.7999 24.9999 69.6073 24.9407C69.4332 24.8888 69.2518 24.8333 69.0629 24.7888C68.4592 24.6444 67.8703 24.5703 67.3073 24.5703C66.5851 24.5703 65.8295 24.6888 65.0629 24.9259C64.8443 24.9925 64.6406 25.0629 64.4555 25.1333C64.2518 25.211 64.0555 25.2925 63.8629 25.3777C62.2406 26.1073 60.8443 27.2073 59.9184 28.0481H59.9258Z" fill="#272727"/>
<path d="M4.36652 63.2369C4.21837 63.2221 4.08133 63.2072 3.948 63.1887C3.83689 63.1739 3.72948 63.1591 3.62207 63.1443C3.56281 63.1369 3.50355 63.1295 3.448 63.122C3.45541 63.0554 3.46281 62.9813 3.47022 62.9109C3.48133 62.8072 3.49244 62.6961 3.50726 62.585C3.52578 62.4554 3.54059 62.3146 3.56281 62.1739C3.62207 61.7406 3.69985 61.248 3.79985 60.7146C4.02207 59.5628 4.3517 58.2184 4.85541 56.8369C4.96652 56.5332 5.08503 56.2258 5.21466 55.9221C5.54059 55.1406 5.92578 54.3628 6.37763 53.6109C6.54059 53.3443 6.71096 53.0776 6.89244 52.8146C7.06652 52.5665 7.24429 52.3183 7.43689 52.0813C8.02207 51.3406 8.69244 50.6554 9.45911 50.0554C10.4406 49.2887 11.5258 48.7109 12.648 48.2739C12.9628 48.1517 13.285 48.0443 13.6036 47.9443C13.9184 47.8443 14.2332 47.7591 14.548 47.6813C18.1776 46.7924 21.8517 47.1332 23.5887 47.385C23.4184 49.1332 22.8628 52.7702 21.1258 56.0702C20.9739 56.3554 20.8147 56.6443 20.6443 56.9258C20.4702 57.2146 20.285 57.4961 20.0924 57.7739C19.3998 58.7665 18.5739 59.6813 17.585 60.4554C16.8184 61.0554 15.9887 61.5369 15.1295 61.9258C14.8517 62.0554 14.5665 62.1702 14.285 62.2776C13.9887 62.3887 13.6887 62.4887 13.3887 62.5813C12.5554 62.8369 11.7073 63.0221 10.8776 63.1443C10.5517 63.1998 10.2258 63.2406 9.90355 63.2739C8.41837 63.4295 7.01466 63.4295 5.82578 63.3591C5.28874 63.3295 4.79615 63.285 4.36652 63.2369Z" fill="white"/>
<path d="M7.35552 64.6999C6.82589 64.6999 6.28886 64.6851 5.75182 64.6517C5.25923 64.6258 4.74441 64.5814 4.2333 64.5258C4.07404 64.511 3.92589 64.4925 3.78145 64.474C3.67034 64.4592 3.55923 64.4443 3.44812 64.4295C3.39627 64.4221 3.34071 64.4147 3.29256 64.4073C2.61108 64.311 2.09627 63.6925 2.15552 63.0036C2.16293 62.9295 2.17034 62.848 2.17775 62.7666L2.2333 62.2814C2.24441 62.1814 2.25923 62.0777 2.27404 61.974C2.33701 61.4962 2.42219 60.9814 2.51849 60.4666C2.79627 59.0221 3.17034 57.6517 3.6296 56.3851C3.74812 56.0592 3.87775 55.7295 4.01478 55.4036C4.37775 54.5332 4.79997 53.6999 5.25923 52.9332C5.45182 52.6184 5.6296 52.3369 5.81478 52.0703C6.02589 51.7666 6.22219 51.5036 6.41478 51.2629C7.09256 50.4073 7.84441 49.6554 8.65182 49.0221C9.67034 48.2258 10.8518 47.5666 12.174 47.0554C12.5148 46.9258 12.8666 46.8036 13.2222 46.6962C13.5296 46.5999 13.8629 46.5036 14.237 46.4147C18.0407 45.4851 21.8444 45.8147 23.774 46.0962C24.4592 46.1962 24.9444 46.8147 24.8777 47.5036C24.6889 49.4369 24.1 53.1962 22.274 56.6666C22.1037 56.9888 21.9296 57.2962 21.7518 57.5888C21.574 57.8814 21.3777 58.1851 21.1518 58.5073C20.3407 59.6666 19.4111 60.6629 18.3777 61.4666C17.5703 62.0962 16.6555 62.648 15.6592 63.0962C15.3852 63.2221 15.0815 63.348 14.7407 63.4777C14.4259 63.5962 14.1037 63.7036 13.7703 63.8073C12.9148 64.0703 12.0074 64.274 11.0666 64.4147C10.7148 64.474 10.3481 64.5184 10.0407 64.5517C9.16664 64.6443 8.27034 64.6888 7.35182 64.6888L7.35552 64.6999ZM4.89627 61.9888C5.2333 62.0221 5.56664 62.0443 5.89997 62.0666C7.2333 62.1443 8.5333 62.1147 9.76664 61.9851C10.0333 61.9554 10.3518 61.9184 10.6592 61.8666C11.4963 61.7406 12.2777 61.5666 13.0074 61.3406C13.2926 61.2517 13.5703 61.1592 13.8333 61.0592C14.1111 60.9554 14.3592 60.8517 14.5889 60.7443C15.4037 60.374 16.1407 59.9332 16.7852 59.4295C17.6111 58.7851 18.3666 57.974 19.0296 57.0295C19.2222 56.7554 19.3852 56.5036 19.5333 56.2591C19.6852 56.0073 19.837 55.7406 19.9815 55.4629C21.2703 53.0147 21.8666 50.3703 22.1444 48.5147C20.2666 48.3369 17.5444 48.2777 14.8592 48.9369C14.5481 49.0147 14.2666 49.0925 14 49.1777C13.6889 49.274 13.3926 49.374 13.1148 49.4814C12.037 49.8999 11.074 50.4332 10.2592 51.074C9.61478 51.5777 9.00738 52.1851 8.45552 52.8851C8.29627 53.0851 8.1333 53.3036 7.95923 53.5554C7.80738 53.7777 7.65182 54.0184 7.48886 54.2851C7.09626 54.9369 6.7333 55.6591 6.41478 56.4221C6.29256 56.7073 6.18145 56.9925 6.08145 57.274C5.66664 58.4147 5.3296 59.6517 5.07775 60.9554C5.01108 61.2999 4.95182 61.648 4.90367 61.9888H4.89627Z" fill="#272727"/>
<path d="M21.963 77.0778C21.8926 77.1222 21.8259 77.1667 21.7593 77.2074C21.7037 77.2407 21.6519 77.2741 21.6 77.3037C21.5704 77.3222 21.5408 77.3407 21.5148 77.3555C21.4926 77.3222 21.4704 77.2889 21.4482 77.2555C21.4148 77.2074 21.3815 77.1518 21.3482 77.0963C21.3074 77.0333 21.2667 76.9667 21.2259 76.8963C21.0963 76.6852 20.9556 76.437 20.8111 76.1667C20.5 75.5778 20.1667 74.8667 19.8963 74.0741C19.8371 73.9 19.7815 73.7222 19.7296 73.5407C19.5963 73.0778 19.4889 72.6 19.4185 72.1037C19.3963 71.9259 19.3741 71.7481 19.363 71.5667C19.3519 71.3963 19.3408 71.2222 19.3408 71.0481C19.3371 70.5111 19.3889 69.9704 19.5111 69.4333C19.6704 68.7444 19.9445 68.1 20.2889 67.5074C20.3852 67.3407 20.4889 67.1778 20.5963 67.0222C20.7 66.8667 20.8074 66.7148 20.9185 66.5704C22.2074 64.8852 23.9519 63.7259 24.8111 63.2185C25.3593 64.0518 26.4111 65.8592 26.8185 67.937C26.8519 68.1185 26.8852 68.3037 26.9111 68.4889C26.9371 68.6778 26.9556 68.8704 26.9704 69.0592C27.0185 69.7444 26.9778 70.4444 26.8148 71.137C26.6889 71.6741 26.4963 72.1852 26.2556 72.6629C26.1778 72.8185 26.0926 72.9704 26.0074 73.1185C25.9148 73.2741 25.8185 73.4222 25.7185 73.5704C25.4408 73.9815 25.1334 74.3629 24.8074 74.7148C24.6815 74.8555 24.5519 74.9889 24.4222 75.1185C23.8222 75.7185 23.2 76.2185 22.6519 76.6111C22.4037 76.7889 22.1704 76.9444 21.963 77.0778Z" fill="white"/>
<path d="M21.5185 78.6445C21.0963 78.6445 20.6852 78.4445 20.4371 78.0741L20.2074 77.7112C20.1741 77.6593 20.1408 77.6038 20.1111 77.5482C19.9815 77.3334 19.8297 77.0704 19.6704 76.7741C19.263 76.0112 18.9297 75.2408 18.6704 74.4889C18.6037 74.2963 18.5408 74.0964 18.4815 73.8889C18.326 73.3519 18.2074 72.8075 18.1371 72.2778C18.1111 72.0704 18.0889 71.8667 18.0704 71.663C18.0556 71.4556 18.0445 71.2556 18.0445 71.0519C18.0371 70.3926 18.1074 69.7445 18.2519 69.1371C18.4297 68.3704 18.7408 67.6038 19.1667 66.8593C19.2815 66.663 19.4 66.4741 19.5223 66.2927C19.6334 66.126 19.7593 65.9519 19.8889 65.7815C21.2963 63.9371 23.1667 62.6815 24.1519 62.1001C24.7482 61.7482 25.5148 61.926 25.8963 62.5038C26.5223 63.4593 27.6445 65.4038 28.0926 67.6852C28.1334 67.8926 28.1667 68.1001 28.1963 68.3112C28.226 68.526 28.2482 68.7445 28.263 68.9667C28.3223 69.8223 28.263 70.6519 28.0778 71.426C27.9371 72.0371 27.7111 72.6482 27.4111 73.2408C27.3223 73.4186 27.226 73.5964 27.1223 73.7667C27.0148 73.9482 26.9037 74.1186 26.7926 74.2889C26.4926 74.7334 26.1445 75.1704 25.7593 75.5889C25.6334 75.7297 25.4852 75.8852 25.3408 76.0297C24.763 76.6075 24.1111 77.1556 23.4037 77.6593C23.1371 77.8482 22.8889 78.0149 22.6667 78.1593C22.5889 78.2112 22.5111 78.2593 22.4371 78.3038C22.3778 78.3408 22.3185 78.3778 22.2593 78.4112L22.1926 78.4519C21.9815 78.5778 21.7482 78.6371 21.5185 78.6371V78.6445ZM24.3889 65.0482C23.6297 65.5964 22.6926 66.3852 21.9519 67.3556C21.8593 67.4778 21.7667 67.6038 21.6778 67.7371C21.5778 67.8815 21.4926 68.0186 21.4111 68.1593C21.1111 68.6778 20.8963 69.2075 20.7778 69.726C20.6815 70.1371 20.6371 70.5778 20.6408 71.0371C20.6408 71.1889 20.6482 71.3334 20.6593 71.4741C20.6704 71.626 20.6889 71.7778 20.7074 71.9334C20.763 72.3334 20.8519 72.7519 20.9778 73.1778C21.026 73.3445 21.0741 73.4964 21.126 73.6482C21.3371 74.2667 21.6111 74.8964 21.9445 75.526C22.5185 75.1112 23.0482 74.6667 23.5111 74.2038C23.6185 74.0964 23.7334 73.9778 23.8408 73.8593C24.1556 73.5186 24.4186 73.1852 24.6482 72.8482C24.7334 72.7223 24.8148 72.5926 24.8963 72.4593C24.963 72.3445 25.0334 72.2186 25.1 72.0889C25.3111 71.6741 25.463 71.2556 25.5593 70.8482C25.6815 70.3223 25.7223 69.7519 25.6815 69.1519C25.6704 68.9889 25.6556 68.8297 25.6334 68.6704C25.6111 68.5038 25.5852 68.3445 25.5519 68.1889C25.3185 66.9926 24.8297 65.8778 24.3926 65.0519L24.3889 65.0482Z" fill="#272727"/>
</svg>
