<svg width="80" height="80" viewBox="0 0 80 80" fill="none" xmlns="http://www.w3.org/2000/svg">
<path d="M78.3334 29.6037V50.8074H72.4075V56.1926C72.4075 58.8185 70.2779 60.9482 67.6519 60.9482H6.4186C3.79638 60.9482 1.66675 58.8185 1.66675 56.1926V23.8074C1.66675 21.1815 3.79638 19.0519 6.4186 19.0519H67.6519C70.2779 19.0519 72.4075 21.1815 72.4075 23.8074V29.6074H78.3334V29.6037Z" fill="#C3D65D"/>
<path d="M67.6518 62.2445H6.41851C3.08518 62.2445 0.370361 59.5297 0.370361 56.1927V23.8075C0.370361 20.4704 3.08147 17.7556 6.41851 17.7556H67.6518C70.9889 17.7556 73.7037 20.4704 73.7037 23.8075V28.3112H78.3333C79.0481 28.3112 79.6296 28.8927 79.6296 29.6075V50.8112C79.6296 51.526 79.0481 52.1075 78.3333 52.1075H73.7037V56.1964C73.7037 59.5334 70.9889 62.2482 67.6518 62.2482V62.2445ZM6.41851 20.3482C4.51481 20.3482 2.96295 21.9001 2.96295 23.8075V56.1964C2.96295 58.1038 4.5111 59.6556 6.41851 59.6556H67.6518C69.5593 59.6556 71.1111 58.1038 71.1111 56.1964V50.8112C71.1111 50.0964 71.6926 49.5149 72.4074 49.5149H77.037V30.9038H72.4074C71.6926 30.9038 71.1111 30.3223 71.1111 29.6075V23.8075C71.1111 21.9001 69.5593 20.3482 67.6518 20.3482H6.41851Z" fill="#272727"/>
<path d="M59.3591 34.3704H41.3777L46.2517 3.57776L20.6406 44.1222H38.0851L33.2332 76.4222L59.3591 34.3704Z" fill="#FFF194"/>
<path d="M33.2333 77.7185C33.0851 77.7185 32.9333 77.6925 32.7851 77.637C32.2073 77.4259 31.8592 76.837 31.9518 76.2296L36.5814 45.4185H20.6407C20.1666 45.4185 19.7333 45.1629 19.5036 44.7481C19.274 44.3333 19.2925 43.8296 19.5444 43.4296L45.1555 2.88513C45.4851 2.36661 46.1333 2.14809 46.7073 2.36291C47.2814 2.58143 47.6259 3.17031 47.5296 3.77772L42.8925 33.074H59.3555C59.8259 33.074 60.2592 33.3296 60.4888 33.7407C60.7185 34.1518 60.7036 34.6555 60.4555 35.0555L34.3296 77.1111C34.0888 77.4999 33.6666 77.7222 33.2296 77.7222L33.2333 77.7185ZM22.9925 42.8259H38.0851C38.4629 42.8259 38.8222 42.9888 39.0666 43.2777C39.3111 43.5629 39.4222 43.9444 39.3666 44.3148L35.4481 70.3999L57.0259 35.6666H41.374C40.9962 35.6666 40.6333 35.4999 40.3888 35.2111C40.1444 34.9222 40.0333 34.5407 40.0925 34.1666L43.9851 9.58883L22.9925 42.8259Z" fill="#272727"/>
</svg>
