<svg width="80" height="80" viewBox="0 0 80 80" fill="none" xmlns="http://www.w3.org/2000/svg">
<path d="M18.3814 18.3558C18.3184 18.1632 18.2666 17.978 18.2147 17.7965C18.1703 17.6484 18.1332 17.5039 18.0962 17.3632C18.074 17.2817 18.0518 17.2039 18.0295 17.1299C18.1184 17.1002 18.2147 17.0706 18.311 17.041C18.4481 17.0002 18.5962 16.9558 18.7444 16.9113C18.9184 16.8632 19.1036 16.8076 19.2925 16.7595C19.874 16.6002 20.5369 16.4299 21.2666 16.2706C22.8444 15.9261 24.7295 15.6187 26.7481 15.5076C27.1925 15.4817 27.6444 15.4669 28.1036 15.4669C29.2703 15.4595 30.4629 15.5224 31.6592 15.6891C32.0888 15.7484 32.5184 15.8224 32.9481 15.9076C33.3555 15.9928 33.7666 16.0854 34.174 16.2002C35.4295 16.541 36.6629 17.015 37.837 17.6632C39.3407 18.4928 40.6629 19.5521 41.8184 20.741C42.1407 21.0743 42.4555 21.4224 42.7518 21.7743C43.0481 22.115 43.3295 22.4706 43.5999 22.8261C46.6925 26.941 48.2481 31.7817 48.8703 34.1187C46.5629 34.8484 41.6555 36.1187 36.5332 35.7039C36.0888 35.6669 35.6369 35.6187 35.1888 35.5558C34.7295 35.4928 34.274 35.4113 33.8184 35.315C32.1851 34.9743 30.5777 34.4224 29.0629 33.5891C27.8888 32.941 26.8258 32.1558 25.8666 31.278C25.5518 30.9928 25.2555 30.6965 24.9666 30.4002C24.6666 30.0854 24.3777 29.7595 24.0962 29.4299C23.3184 28.5113 22.6295 27.541 22.0221 26.5558C21.774 26.1706 21.5481 25.7817 21.3295 25.3928C20.3258 23.5965 19.5666 21.815 19.011 20.278C18.7592 19.5817 18.5481 18.9373 18.374 18.3632L18.3814 18.3558Z" fill="white"/>
<path d="M38.6036 37.0743C37.8888 37.0743 37.1666 37.0483 36.4332 36.9891C35.9443 36.9483 35.4666 36.8965 35.011 36.8335C34.5517 36.7706 34.074 36.6854 33.5554 36.578C31.6962 36.1891 29.9777 35.5631 28.4406 34.7187C27.2369 34.0557 26.0814 33.2187 24.9962 32.2261C24.6925 31.952 24.3777 31.6446 24.0369 31.2891C23.7258 30.9632 23.4184 30.6187 23.1147 30.2594C22.3369 29.3409 21.5999 28.3187 20.9221 27.2261C20.6554 26.8113 20.4073 26.3817 20.2036 26.0187C19.2851 24.378 18.4777 22.5891 17.7962 20.7076C17.5629 20.0669 17.348 19.4224 17.1406 18.7372C17.0777 18.5335 17.0184 18.3372 16.9666 18.1483C16.9221 18.0002 16.8814 17.852 16.8443 17.7039C16.8258 17.6335 16.8073 17.5669 16.7888 17.5002L16.7777 17.4632C16.5962 16.7965 16.9703 16.1076 17.6258 15.8928C17.7221 15.8594 17.8295 15.8298 17.9332 15.7965L18.5666 15.6113C18.6962 15.5743 18.8295 15.5372 18.9666 15.5002C19.6036 15.3224 20.2888 15.152 20.9888 15.0002C22.9406 14.5743 24.8517 14.3076 26.6814 14.2076C27.1517 14.178 27.6332 14.1632 28.1036 14.1632C29.3851 14.152 30.6443 14.2298 31.8369 14.3965C32.3295 14.4669 32.774 14.5409 33.2036 14.6298C33.6888 14.7298 34.1184 14.8298 34.5184 14.9409C35.9295 15.3261 37.2592 15.8557 38.4592 16.5187C39.974 17.352 41.4184 18.4669 42.7443 19.8261C43.0851 20.178 43.4221 20.5483 43.7406 20.9298C44.0258 21.2594 44.3221 21.6261 44.6332 22.0372C47.8221 26.2854 49.4406 31.215 50.1221 33.7743C50.2999 34.4446 49.9221 35.1335 49.2592 35.3446C47.0888 36.0298 43.0629 37.0743 38.5962 37.0743H38.6036ZM19.6295 18.0076C19.8221 18.6372 20.0184 19.2335 20.2332 19.8261C20.8666 21.5817 21.6184 23.2372 22.4629 24.752C22.648 25.078 22.8703 25.4669 23.1147 25.8446C23.7369 26.852 24.3962 27.7669 25.0888 28.5854C25.3592 28.9039 25.6369 29.215 25.911 29.5002C26.2036 29.8039 26.4777 30.0743 26.7443 30.3113C27.6814 31.1669 28.6703 31.8854 29.6925 32.4483C30.9999 33.1706 32.4777 33.7039 34.0851 34.0409C34.5443 34.1372 34.9629 34.2113 35.3666 34.2669C35.7777 34.3261 36.2036 34.3706 36.6443 34.4076C40.7703 34.7409 44.7406 33.9372 47.274 33.2335C46.5073 30.7076 45.0517 26.9076 42.5666 23.6002C42.2925 23.2372 42.0332 22.915 41.774 22.615C41.4814 22.2669 41.1888 21.9409 40.8888 21.6372C39.7443 20.4631 38.5036 19.5076 37.211 18.7928C36.1888 18.2298 35.0517 17.7743 33.8332 17.4446C33.4814 17.3483 33.111 17.2594 32.6888 17.1743C32.3147 17.1002 31.9147 17.0298 31.4777 16.9706C30.4147 16.8224 29.2814 16.7557 28.1147 16.7631C27.6851 16.7631 27.2554 16.778 26.8295 16.8002C25.1332 16.8928 23.3592 17.1409 21.5443 17.5335C20.8925 17.678 20.2517 17.8372 19.6369 18.0076H19.6258H19.6295Z" fill="#272727"/>
<path d="M34.8962 2.90008C34.9407 2.70379 34.9888 2.5149 35.037 2.33712C35.0777 2.18527 35.1147 2.04453 35.1555 1.90379C35.1777 1.8223 35.1999 1.74082 35.2184 1.66675C35.311 1.68527 35.4073 1.71119 35.5036 1.73341C35.6407 1.76675 35.7925 1.80379 35.9444 1.84082C36.1222 1.88897 36.3073 1.93341 36.4962 1.98897C37.0777 2.14453 37.737 2.33712 38.4481 2.57045C39.9814 3.07416 41.7629 3.76675 43.5592 4.69638C43.9555 4.90008 44.3518 5.1149 44.7481 5.34823C45.7555 5.93341 46.7518 6.59267 47.6999 7.34453C48.037 7.6149 48.3703 7.89267 48.6962 8.18527C49.0036 8.46304 49.311 8.75564 49.6036 9.05934C50.511 9.98897 51.3333 11.026 52.0147 12.1779C52.8888 13.6556 53.4888 15.2408 53.8851 16.8519C53.9962 17.3038 54.0888 17.763 54.1629 18.2186C54.2444 18.663 54.3073 19.1112 54.3555 19.5556C54.9296 24.6705 53.8147 29.6297 53.1629 31.9593C50.8036 31.4186 45.9333 30.0186 41.7296 27.063C41.3629 26.8038 40.9999 26.5334 40.6444 26.2519C40.2814 25.9667 39.9296 25.663 39.5851 25.3482C38.3518 24.226 37.2444 22.9334 36.3666 21.4482C35.6851 20.2964 35.1703 19.0779 34.7888 17.8334C34.6629 17.4297 34.5555 17.0223 34.4592 16.6186C34.3629 16.1964 34.2777 15.7667 34.2036 15.3408C33.9999 14.1556 33.8999 12.9667 33.8777 11.8112C33.8592 11.3556 33.8629 10.9038 33.874 10.4593C33.9222 8.40378 34.174 6.48156 34.474 4.87416C34.611 4.14453 34.7555 3.48156 34.8962 2.90379V2.90008Z" fill="white"/>
<path d="M53.1629 33.2593C53.0666 33.2593 52.9703 33.2482 52.8703 33.226C50.2962 32.6334 45.3333 31.1853 40.9814 28.126C40.5814 27.8445 40.1962 27.5556 39.837 27.2667C39.474 26.9778 39.1036 26.663 38.711 26.3075C37.3073 25.0297 36.1407 23.6186 35.2481 22.1112C34.5481 20.9297 33.9777 19.6186 33.5481 18.2149C33.4259 17.826 33.311 17.4001 33.1962 16.9223C33.0962 16.4853 33.0036 16.0297 32.9221 15.5667C32.7184 14.3778 32.6036 13.126 32.574 11.8408C32.5555 11.3482 32.5592 10.8519 32.5703 10.4371C32.6147 8.55562 32.8221 6.60747 33.1925 4.6371C33.3184 3.96673 33.4592 3.30007 33.6296 2.60747C33.6777 2.40007 33.7258 2.20007 33.7777 2.01118C33.8147 1.85933 33.8555 1.71118 33.8962 1.56673C33.9147 1.49266 33.9333 1.42229 33.9518 1.35562C34.1333 0.692659 34.8147 0.251919 35.4888 0.400067C35.5888 0.422289 35.6925 0.448215 35.7999 0.474141L36.4407 0.6334C36.574 0.666733 36.7073 0.70377 36.8444 0.740807C37.4814 0.911178 38.1629 1.11488 38.8407 1.3371C40.737 1.96303 42.5221 2.70377 44.1444 3.54451C44.5629 3.75933 44.9851 3.98896 45.3925 4.2297C46.4999 4.87044 47.5481 5.57784 48.4925 6.32599C48.8777 6.6334 49.2221 6.92599 49.5518 7.21859C49.9184 7.55192 50.237 7.85562 50.5258 8.15562C51.5481 9.20377 52.4221 10.3334 53.1221 11.5149C54.0036 13.0038 54.6814 14.6927 55.1333 16.5408C55.2481 17.0186 55.3481 17.5075 55.4333 18.0001C55.511 18.4297 55.5777 18.8964 55.637 19.4075C56.2296 24.6853 55.1184 29.7556 54.4036 32.3075C54.2444 32.8778 53.7259 33.2556 53.1555 33.2556L53.1629 33.2593ZM36.1518 3.2371C35.9962 3.87784 35.8666 4.49266 35.7518 5.11118C35.4073 6.94451 35.211 8.75192 35.1703 10.489C35.1629 10.863 35.1592 11.3149 35.174 11.7593C35.1999 12.9408 35.3036 14.0667 35.4851 15.1223C35.5555 15.5371 35.6407 15.9408 35.7296 16.326C35.8296 16.7371 35.9296 17.1075 36.0333 17.4482C36.4036 18.663 36.8925 19.7815 37.4888 20.7853C38.2518 22.0704 39.2518 23.2815 40.4666 24.389C40.8147 24.7038 41.137 24.9815 41.4555 25.2334C41.7814 25.4927 42.1258 25.7519 42.4814 26.0038C45.8666 28.3853 49.6962 29.7112 52.2333 30.3927C52.8555 27.826 53.5296 23.8149 53.0703 19.7001C53.0184 19.2482 52.9592 18.8371 52.8888 18.4519C52.811 18.0038 52.7258 17.5741 52.6258 17.1593C52.2333 15.5667 51.6555 14.1112 50.8999 12.8408C50.3036 11.8371 49.5555 10.8704 48.674 9.96303C48.4221 9.70007 48.1444 9.4371 47.8259 9.14822C47.537 8.88896 47.2296 8.6297 46.8888 8.35562C46.0444 7.68896 45.1036 7.05192 44.0962 6.46673C43.7258 6.24821 43.3481 6.04081 42.9666 5.84822C41.4592 5.06673 39.8036 4.37784 38.0407 3.79636C37.4073 3.58896 36.774 3.40007 36.1592 3.2371H36.1481H36.1518Z" fill="#272727"/>
<path d="M16.1111 75.7926C16.0222 75.8889 15.9371 75.9815 15.8445 76.0741C13.1408 78.7778 8.76668 78.7778 6.06668 76.0778C3.36298 73.3741 3.36298 69.0001 6.06668 66.2963C6.15928 66.2038 6.25557 66.1149 6.35557 66.0297C1.36668 56.1852 3.77409 42.926 13.0593 33.6408C22.3482 24.3519 35.6148 21.9445 45.4593 26.9408C45.5815 26.7926 45.7148 26.6445 45.8556 26.5075C48.5556 23.8075 52.9297 23.8075 55.6334 26.5112C58.3334 29.2112 58.3334 33.5852 55.6334 36.2852C55.4926 36.426 55.3556 36.5556 55.2037 36.6778C60.1963 46.526 57.8 59.7926 48.5037 69.0889C39.2185 78.3741 25.9556 80.7778 16.1111 75.7963V75.7926Z" fill="white"/>
<path d="M27.0259 79.6113C23.3259 79.6113 19.6963 78.8742 16.3703 77.3557C14.8703 78.6779 12.9666 79.4001 10.9518 79.4001C8.75923 79.4001 6.69997 78.5483 5.14812 76.9964C2.07034 73.9187 1.95182 68.9853 4.78886 65.7631C0.0184886 55.3409 2.96664 41.8964 12.1407 32.7224C21.3111 23.552 34.7518 20.6001 45.174 25.3631C48.3889 22.389 53.4259 22.4668 56.5518 25.5927C59.674 28.715 59.7518 33.7483 56.7814 36.9631C61.5444 47.389 58.5926 60.8335 49.4222 70.0038C43.174 76.252 34.9407 79.6113 27.0259 79.6113ZM16.1259 74.5001C16.3222 74.5001 16.5148 74.5446 16.6963 74.6335C26.2444 79.4631 38.9481 76.8038 47.5889 68.1668C56.2333 59.5224 58.8889 46.8113 54.0481 37.2594C53.7703 36.7113 53.9148 36.0409 54.3963 35.6594C54.4889 35.589 54.5852 35.4964 54.7185 35.3668C56.9074 33.1779 56.9074 29.615 54.7185 27.4261C52.5259 25.2335 48.9629 25.2335 46.774 27.4224C46.6703 27.5261 46.5666 27.6409 46.4555 27.7742C46.0666 28.2335 45.4148 28.3705 44.8777 28.0964C35.3333 23.252 22.6259 25.9075 13.9777 34.5557C5.33701 43.1964 2.67775 55.9001 7.51478 65.4446C7.78516 65.9816 7.65553 66.6335 7.19627 67.0187C7.12219 67.0816 7.05182 67.1446 6.98516 67.215C4.79256 69.4075 4.79256 72.9742 6.98516 75.1631C8.04441 76.2224 9.45553 76.8076 10.9555 76.8076C12.4555 76.8076 13.8666 76.2224 14.9296 75.1594C15.0037 75.0853 15.0703 75.0113 15.1444 74.9335C15.4 74.6557 15.7666 74.5001 16.1296 74.5001H16.1259ZM16.1111 75.7927L17.0629 76.6705L16.1111 75.7927Z" fill="#272727"/>
<path d="M76.1889 55.6409C76.1889 68.1742 66.0296 78.3335 53.4963 78.3335C40.963 78.3335 30.8037 68.1742 30.8037 55.6409H76.1889V55.6409Z" fill="white"/>
<path d="M53.4962 79.6297C40.2703 79.6297 29.5073 68.8667 29.5073 55.6408C29.5073 54.926 30.0888 54.3445 30.8036 54.3445H76.1888C76.9036 54.3445 77.4851 54.926 77.4851 55.6408C77.4851 68.8667 66.7221 79.6297 53.4962 79.6297ZM32.1407 56.9371C32.811 68.1334 42.1333 77.0371 53.4962 77.0371C64.8592 77.0371 74.1814 68.1334 74.8518 56.9371H32.1407Z" fill="#272727"/>
<path d="M69.5667 55.6409C69.5667 64.5149 62.3741 71.7075 53.5 71.7075C44.6259 71.7075 37.4333 64.5149 37.4333 55.6409H69.5667V55.6409Z" fill="white"/>
<path d="M53.4963 73.0037C43.9222 73.0037 36.1333 65.2149 36.1333 55.6408C36.1333 54.926 36.7148 54.3445 37.4296 54.3445H69.5629C70.2777 54.3445 70.8592 54.926 70.8592 55.6408C70.8592 65.2149 63.0703 73.0037 53.4963 73.0037ZM38.7814 56.9371C39.4407 64.4778 45.7889 70.4112 53.4963 70.4112C61.2037 70.4112 67.5518 64.4778 68.2111 56.9371H38.7814V56.9371Z" fill="#272727"/>
<path d="M64.8741 68.2852C64.5444 68.2852 64.2111 68.1593 63.9593 67.9075L52.5815 56.563C52.0741 56.0593 52.0741 55.2371 52.5815 54.7297C53.0889 54.2223 53.9074 54.2223 54.4148 54.7297L65.7926 66.0741C66.3 66.5778 66.3 67.4 65.7926 67.9075C65.5407 68.163 65.2074 68.2889 64.8741 68.2889V68.2852Z" fill="#272727"/>
<path d="M53.4963 73.0038C52.7815 73.0038 52.2 72.4223 52.2 71.7075V58.7631L43.037 67.9038C42.5296 68.4112 41.7111 68.4075 41.2037 67.9038C40.7 67.3964 40.7 66.5779 41.2037 66.0705L52.5778 54.726C52.9482 54.3556 53.5074 54.2445 53.9889 54.4482C54.4741 54.6482 54.7889 55.1223 54.7889 55.6445V71.7112C54.7889 72.426 54.2074 73.0075 53.4926 73.0075L53.4963 73.0038Z" fill="#272727"/>
</svg>
