<svg width="80" height="80" viewBox="0 0 80 80" fill="none" xmlns="http://www.w3.org/2000/svg">
<path d="M18.3814 18.3555C18.3184 18.1629 18.2666 17.9778 18.2147 17.7963C18.1703 17.6481 18.1332 17.5037 18.0962 17.3629C18.074 17.2815 18.0518 17.2037 18.0295 17.1296C18.1184 17.1 18.2147 17.0703 18.311 17.0407C18.4481 17 18.5962 16.9555 18.7444 16.9111C18.9184 16.8629 19.1036 16.8074 19.2925 16.7592C19.874 16.6 20.5369 16.4296 21.2666 16.2703C22.8444 15.9259 24.7295 15.6185 26.7481 15.5074C27.1925 15.4815 27.6444 15.4666 28.1036 15.4666C29.2703 15.4592 30.4629 15.5222 31.6592 15.6889C32.0888 15.7481 32.5184 15.8222 32.9481 15.9074C33.3555 15.9926 33.7666 16.0852 34.174 16.2C35.4295 16.5407 36.6629 17.0148 37.837 17.6629C39.3407 18.4926 40.6629 19.5518 41.8184 20.7407C42.1407 21.0741 42.4555 21.4222 42.7518 21.7741C43.0481 22.1148 43.3295 22.4703 43.5999 22.8259C46.6925 26.9407 48.2481 31.7815 48.8703 34.1185C46.5629 34.8481 41.6555 36.1185 36.5332 35.7037C36.0888 35.6666 35.6369 35.6185 35.1888 35.5555C34.7295 35.4926 34.274 35.4111 33.8184 35.3148C32.1851 34.9741 30.5777 34.4222 29.0629 33.5889C27.8888 32.9407 26.8258 32.1555 25.8666 31.2778C25.5518 30.9926 25.2555 30.6963 24.9666 30.4C24.6666 30.0852 24.3777 29.7592 24.0962 29.4296C23.3184 28.5111 22.6295 27.5407 22.0221 26.5555C21.774 26.1703 21.5481 25.7815 21.3295 25.3926C20.3258 23.5963 19.5666 21.8148 19.011 20.2778C18.7592 19.5815 18.5481 18.937 18.374 18.3629L18.3814 18.3555Z" fill="#C3D65D"/>
<path d="M38.6036 37.0741C37.8888 37.0741 37.1666 37.0481 36.4332 36.9889C35.9443 36.9481 35.4666 36.8963 35.011 36.8333C34.5517 36.7704 34.074 36.6852 33.5554 36.5778C31.6962 36.1889 29.9777 35.5667 28.4406 34.7185C27.2406 34.0555 26.0814 33.2185 24.9962 32.2259C24.6925 31.9481 24.3777 31.6407 24.0369 31.2889C23.7295 30.9629 23.4184 30.6185 23.1147 30.2592C22.3369 29.3407 21.5999 28.3185 20.9221 27.2259C20.6554 26.8111 20.4073 26.3815 20.2036 26.0185C19.2851 24.3778 18.4777 22.5889 17.7962 20.7074C17.5629 20.0667 17.348 19.4185 17.1406 18.737C17.0777 18.5333 17.0184 18.337 16.9666 18.1481C16.9221 18 16.8814 17.8518 16.8443 17.7037C16.8258 17.6333 16.8073 17.5667 16.7888 17.5L16.7777 17.4629C16.5962 16.7963 16.9703 16.1074 17.6258 15.8926C17.7221 15.8629 17.8258 15.8296 17.9295 15.7963L18.5666 15.6074C18.6962 15.5704 18.8295 15.5333 18.9666 15.4963C19.6073 15.3185 20.2925 15.1481 20.9888 14.9963C22.9406 14.5704 24.8517 14.3037 26.6814 14.2037C27.1554 14.1741 27.6369 14.1592 28.1036 14.1592C29.3851 14.1481 30.6443 14.2259 31.8369 14.3926C32.3295 14.4629 32.774 14.537 33.2036 14.6259C33.6888 14.7259 34.1184 14.8259 34.5184 14.937C35.9295 15.3222 37.2592 15.8518 38.4592 16.5148C39.974 17.3481 41.4184 18.4629 42.7443 19.8222C43.0851 20.1741 43.4221 20.5444 43.7406 20.9259C44.0258 21.2592 44.3221 21.6259 44.6332 22.037C47.8221 26.2852 49.4406 31.2148 50.1221 33.7741C50.2999 34.4444 49.9221 35.1333 49.2592 35.3444C47.0888 36.0296 43.0629 37.0741 38.5962 37.0741H38.6036ZM19.6295 18.0074C19.8221 18.637 20.0184 19.2333 20.2332 19.8259C20.8666 21.5815 21.6184 23.237 22.4629 24.7518C22.648 25.0778 22.8703 25.4667 23.1147 25.8444C23.7369 26.8518 24.3962 27.7667 25.0888 28.5852C25.3629 28.9074 25.6406 29.2148 25.911 29.5C26.2036 29.8037 26.4777 30.0704 26.7443 30.3111C27.6814 31.1667 28.6703 31.8852 29.6925 32.4481C30.9999 33.1704 32.4777 33.7037 34.0851 34.0407C34.5443 34.137 34.9629 34.2111 35.3666 34.2667C35.7777 34.3259 36.2036 34.3704 36.6443 34.4074C40.7703 34.7407 44.7406 33.937 47.274 33.2333C46.5073 30.7074 45.0517 26.9074 42.5666 23.6C42.2925 23.237 42.0332 22.9148 41.774 22.6148C41.4814 22.2667 41.1888 21.9407 40.8888 21.637C39.7406 20.4629 38.5036 19.5037 37.211 18.7926C36.1888 18.2296 35.0517 17.7741 33.8332 17.4444C33.4814 17.3481 33.111 17.2592 32.6888 17.1741C32.3147 17.1 31.9147 17.0296 31.4777 16.9704C30.4147 16.8222 29.2814 16.7555 28.1147 16.7629C27.6851 16.7629 27.2554 16.7778 26.8258 16.8C25.1295 16.8926 23.3554 17.1407 21.5443 17.5333C20.8962 17.6778 20.2517 17.837 19.6369 18.0074H19.6258H19.6295Z" fill="#272727"/>
<path d="M34.8962 2.89984C34.9407 2.70354 34.9888 2.51465 35.037 2.33687C35.0777 2.18502 35.1147 2.04428 35.1555 1.90354C35.1777 1.82206 35.1999 1.74058 35.2184 1.6665C35.311 1.68502 35.4073 1.71095 35.5036 1.73317C35.6407 1.7665 35.7925 1.80354 35.9444 1.84058C36.1222 1.88873 36.3073 1.93317 36.4962 1.98873C37.0777 2.14428 37.737 2.33687 38.4481 2.57021C39.9814 3.07391 41.7629 3.7665 43.5592 4.69613C43.9555 4.89984 44.3518 5.11465 44.7481 5.34799C45.7555 5.93317 46.7518 6.59243 47.6999 7.34428C48.037 7.61465 48.3703 7.89243 48.6962 8.18502C49.0036 8.4628 49.311 8.75539 49.6036 9.0591C50.511 9.98873 51.3333 11.0258 52.0147 12.1776C52.8888 13.6554 53.4888 15.2406 53.8851 16.8517C53.9962 17.3035 54.0888 17.7628 54.1629 18.2184C54.2444 18.6628 54.3073 19.1109 54.3555 19.5554C54.9296 24.6702 53.8147 29.6295 53.1629 31.9591C50.8036 31.4184 45.9333 30.0184 41.7296 27.0628C41.3629 26.8035 40.9999 26.5332 40.6444 26.2517C40.2814 25.9665 39.9296 25.6628 39.5851 25.348C38.3518 24.2258 37.2444 22.9332 36.3666 21.448C35.6851 20.2961 35.1703 19.0776 34.7888 17.8332C34.6629 17.4295 34.5555 17.0221 34.4592 16.6184C34.3629 16.1961 34.2777 15.7665 34.2036 15.3406C33.9999 14.1554 33.8999 12.9665 33.8777 11.8109C33.8592 11.3554 33.8629 10.9035 33.874 10.4591C33.9222 8.40354 34.174 6.48132 34.474 4.87391C34.611 4.14428 34.7555 3.48132 34.8962 2.90354V2.89984Z" fill="#C3D65D"/>
<path d="M53.1628 33.2592C53.0665 33.2592 52.9703 33.2481 52.8703 33.2258C50.2962 32.6332 45.3332 31.1851 40.9814 28.1258C40.5814 27.8444 40.1962 27.5555 39.8369 27.2703C39.4703 26.9814 39.1036 26.6666 38.711 26.311C37.3073 25.0332 36.1406 23.6221 35.248 22.1147C34.548 20.9332 33.9777 19.6221 33.548 18.2184C33.4258 17.8295 33.311 17.4036 33.1962 16.9258C33.0962 16.4888 33.0036 16.0332 32.9221 15.5703C32.7184 14.3814 32.6036 13.1295 32.5777 11.8444C32.5591 11.3518 32.5628 10.8555 32.574 10.4406C32.6184 8.55917 32.8258 6.61102 33.1962 4.64065C33.3221 3.97028 33.4628 3.30731 33.6332 2.61102C33.6814 2.40361 33.7295 2.20361 33.7814 2.01472C33.8184 1.86287 33.8591 1.71472 33.8999 1.57028C33.9184 1.4962 33.9369 1.42583 33.9554 1.35917C34.1369 0.696203 34.8184 0.259166 35.4925 0.403611C35.5925 0.425833 35.6962 0.451759 35.8036 0.477685L36.4369 0.636944C36.5703 0.670277 36.7073 0.707314 36.848 0.748055C37.4851 0.918425 38.1665 1.12213 38.8443 1.34435C40.7406 1.96657 42.5258 2.71102 44.148 3.55176C44.5665 3.76657 44.9888 3.9962 45.3962 4.23694C46.5036 4.87768 47.5517 5.58509 48.4962 6.33324C48.8814 6.64065 49.2258 6.93324 49.5554 7.22583C49.9258 7.55917 50.2406 7.86657 50.5295 8.16287C51.5517 9.21102 52.4258 10.3406 53.1258 11.5221C54.0073 13.011 54.6851 14.6999 55.1369 16.5481C55.2517 17.0258 55.3517 17.5147 55.4369 18.0073C55.5147 18.4369 55.5814 18.9036 55.6406 19.4147C56.2332 24.6925 55.1221 29.7629 54.4073 32.3147C54.248 32.8851 53.7295 33.2629 53.1591 33.2629L53.1628 33.2592ZM36.1517 3.23694C35.9962 3.87768 35.8665 4.4925 35.7517 5.11102C35.4073 6.94435 35.211 8.75176 35.1703 10.4888C35.1628 10.8629 35.1591 11.3147 35.174 11.7592C35.1999 12.9406 35.3036 14.0666 35.4851 15.1221C35.5554 15.5369 35.6406 15.9406 35.7295 16.3258C35.8295 16.7369 35.9295 17.1073 36.0332 17.4481C36.4036 18.6629 36.8925 19.7814 37.4888 20.7851C38.2517 22.0703 39.2517 23.2814 40.4666 24.3888C40.811 24.7036 41.1369 24.9814 41.4554 25.2332C41.7814 25.4925 42.1258 25.7518 42.4814 26.0036C45.8665 28.3851 49.6962 29.711 52.2332 30.3925C52.8554 27.8258 53.5295 23.8147 53.0703 19.6999C53.0184 19.2481 52.9591 18.8369 52.8888 18.4481C52.8147 17.9999 52.7258 17.5703 52.6258 17.1555C52.2332 15.5629 51.6554 14.1073 50.8999 12.8369C50.3036 11.8332 49.5554 10.8666 48.674 9.95917C48.4221 9.69991 48.148 9.43324 47.8258 9.14435C47.5406 8.8888 47.2295 8.62583 46.8888 8.35546C46.0443 7.6888 45.1036 7.05176 44.0962 6.46657C43.7258 6.24805 43.348 6.04065 42.9666 5.84806C41.4591 5.06657 39.8036 4.37768 38.0406 3.7962C37.4073 3.5888 36.774 3.39991 36.1591 3.23694H36.148H36.1517Z" fill="#272727"/>
<path d="M16.1111 75.7924C16.0222 75.8887 15.9371 75.9813 15.8445 76.0739C13.1408 78.7776 8.76668 78.7776 6.06668 76.0776C3.36298 73.3739 3.36298 68.9998 6.06668 66.2961C6.15928 66.2035 6.25557 66.1146 6.35557 66.0294C1.36668 56.185 3.77409 42.9257 13.0593 33.6406C22.3482 24.3517 35.6148 21.9443 45.4593 26.9406C45.5815 26.7924 45.7148 26.6443 45.8556 26.5072C48.5556 23.8072 52.9297 23.8072 55.6334 26.5109C58.3371 29.2146 58.3334 33.585 55.6334 36.285C55.4926 36.4257 55.3556 36.5554 55.2037 36.6776C60.1963 46.5257 57.8 59.7924 48.5037 69.0887C39.2185 78.3739 25.9556 80.7776 16.1111 75.7961V75.7924Z" fill="#FFF194"/>
<path d="M27.0259 79.611C23.3259 79.611 19.6963 78.874 16.3703 77.3555C14.8703 78.6777 12.9666 79.3999 10.9518 79.3999C8.75923 79.3999 6.69997 78.5443 5.14812 76.9962C3.59627 75.4443 2.74071 73.3814 2.74071 71.1888C2.74071 69.1703 3.46293 67.2629 4.78886 65.7629C0.0184884 55.3406 2.96664 41.8962 12.1407 32.7221C21.3111 23.5517 34.7518 20.5999 45.174 25.3629C46.6963 23.9555 48.6592 23.1851 50.7407 23.1851C52.9333 23.1851 54.9963 24.0406 56.5481 25.5925C58.1 27.1443 58.9518 29.2036 58.9518 31.3962C58.9518 33.5888 58.1815 35.4406 56.7778 36.9629C61.5407 47.3888 58.5889 60.8332 49.4185 70.0036C43.1703 76.2517 34.937 79.611 27.0222 79.611H27.0259ZM16.1296 74.5036C16.3222 74.5036 16.5185 74.548 16.6963 74.6369C26.2444 79.4666 38.9481 76.8073 47.5889 68.1703C56.2333 59.5258 58.8889 46.8147 54.0481 37.2629C53.7703 36.7147 53.9148 36.0443 54.3963 35.6629C54.4889 35.5888 54.5852 35.4999 54.7148 35.3703C55.774 34.311 56.3592 32.8999 56.3592 31.3999C56.3592 29.8999 55.774 28.4888 54.7148 27.4295C53.6518 26.3666 52.2407 25.7814 50.7407 25.7814C49.2407 25.7814 47.8333 26.3666 46.7703 27.4258C46.6666 27.5295 46.5629 27.6443 46.4518 27.7777C46.0629 28.2369 45.4111 28.374 44.874 28.0999C35.3296 23.2555 22.6222 25.911 13.974 34.5592C5.3333 43.1999 2.67404 55.8999 7.51108 65.448C7.78145 65.9851 7.65182 66.6369 7.19256 67.0221C7.11849 67.0851 7.04812 67.148 6.98145 67.2147C5.91849 68.2777 5.3333 69.6888 5.3333 71.1888C5.3333 72.6888 5.91849 74.0999 6.98145 75.1629C8.04071 76.2221 9.45182 76.8073 10.9518 76.8073C12.4518 76.8073 13.8629 76.2221 14.9259 75.1592C15 75.0851 15.0666 75.0147 15.137 74.9369C15.3963 74.6592 15.7629 74.5036 16.1296 74.5036V74.5036ZM16.1111 75.7925L17.0629 76.6703L16.1111 75.7925Z" fill="#272727"/>
<path d="M76.1889 55.6409C76.1889 68.1742 66.0296 78.3335 53.4963 78.3335C40.963 78.3335 30.8037 68.1742 30.8037 55.6409H76.1889V55.6409Z" fill="#FFF194"/>
<path d="M53.4962 79.6297C40.2703 79.6297 29.5073 68.8667 29.5073 55.6408C29.5073 54.926 30.0888 54.3445 30.8036 54.3445H76.1888C76.9036 54.3445 77.4851 54.926 77.4851 55.6408C77.4851 68.8667 66.7221 79.6297 53.4962 79.6297ZM32.1407 56.9371C32.811 68.1334 42.1333 77.0371 53.4962 77.0371C64.8592 77.0371 74.1814 68.1334 74.8518 56.9371H32.1407Z" fill="#272727"/>
<path d="M69.5667 55.6409C69.5667 64.5149 62.3741 71.7075 53.5 71.7075C44.6259 71.7075 37.4333 64.5149 37.4333 55.6409H69.5667V55.6409Z" fill="#FF969C"/>
<path d="M53.4963 73.0037C43.9222 73.0037 36.1333 65.2149 36.1333 55.6408C36.1333 54.926 36.7148 54.3445 37.4296 54.3445H69.5629C70.2777 54.3445 70.8592 54.926 70.8592 55.6408C70.8592 65.2149 63.0703 73.0037 53.4963 73.0037ZM38.7814 56.9371C39.4407 64.4778 45.7889 70.4112 53.4963 70.4112C61.2037 70.4112 67.5518 64.4778 68.2111 56.9371H38.7814V56.9371Z" fill="#272727"/>
<path d="M64.8741 68.2852C64.5444 68.2852 64.2111 68.1593 63.9593 67.9075L52.5815 56.563C52.0741 56.0593 52.0741 55.2371 52.5815 54.7297C53.0889 54.2223 53.9074 54.2223 54.4148 54.7297L65.7926 66.0741C66.3 66.5778 66.3 67.4 65.7926 67.9075C65.5407 68.163 65.2074 68.2889 64.8741 68.2889V68.2852Z" fill="#272727"/>
<path d="M53.4963 73.0038C52.7815 73.0038 52.2 72.4223 52.2 71.7075V58.7631L43.037 67.9038C42.5296 68.4112 41.7111 68.4075 41.2037 67.9038C40.7 67.3964 40.7 66.5779 41.2037 66.0705L52.5778 54.726C52.9482 54.3556 53.5074 54.2445 53.9889 54.4482C54.4741 54.6482 54.7889 55.1223 54.7889 55.6445V71.7112C54.7889 72.426 54.2074 73.0075 53.4926 73.0075L53.4963 73.0038Z" fill="#272727"/>
</svg>
