<svg width="80" height="80" viewBox="0 0 80 80" fill="none" xmlns="http://www.w3.org/2000/svg">
<path d="M69.1109 52.2852C72.9443 54.4407 74.6739 56.7555 74.6739 59.5703C74.6739 64.3518 68.1998 68.5481 58.4554 70.9222L43.1257 63.9481L40.5517 72.974C40.3665 72.974 40.1813 72.974 39.9961 72.974C20.8442 72.974 5.32202 66.9703 5.32202 59.5666C5.32202 56.8852 7.35535 54.3926 10.8554 52.2963" fill="#C3D65D"/>
<path d="M39.9999 74.2778C30.5814 74.2778 21.7073 72.8518 15.0147 70.2629C7.92954 67.5222 4.02954 63.7259 4.02954 59.5741C4.02954 56.5037 6.16287 53.6037 10.1962 51.1926C10.811 50.8259 11.6073 51.0259 11.974 51.6407C12.3407 52.2555 12.1407 53.0518 11.5258 53.4185C9.2888 54.7555 6.62213 56.9111 6.62213 59.5778C6.62213 65.3852 19.8444 71.6 39.5777 71.6889L41.8814 63.6037C41.9851 63.2407 42.2407 62.9407 42.5851 62.7815C42.9258 62.6222 43.3221 62.6222 43.6666 62.7815L58.5851 69.5666C67.7258 67.2666 73.3814 63.4555 73.3814 59.5815C73.3814 56.5703 70.7629 54.7111 68.4777 53.4259C67.8555 53.0741 67.6332 52.2852 67.9851 51.6592C68.3369 51.037 69.1258 50.8148 69.7518 51.1666C73.9962 53.5555 75.974 56.2296 75.974 59.5815C75.974 64.8555 69.5406 69.5703 58.7666 72.1926C58.4851 72.2629 58.1888 72.2333 57.9221 72.1148L43.9629 65.7666L41.8036 73.3444C41.6444 73.9 41.1407 74.2815 40.5629 74.2852H40.0036L39.9999 74.2778Z" fill="#272727"/>
<path d="M40.0259 53.3112C42.6333 54.7186 46.137 55.7816 50.7704 55.7816C64.3963 55.7816 75.4407 46.5667 75.4407 46.5667C75.4407 46.5667 64.3963 37.3519 50.7704 37.3519C40.7704 37.3519 36.0296 42.3186 34.2185 44.9593L40.0259 53.3112Z" fill="#FF969C"/>
<path d="M39.9556 53.326C37.3445 54.726 33.8445 55.7816 29.2297 55.7816C15.6038 55.7816 4.55933 46.5667 4.55933 46.5667C4.55933 46.5667 15.6038 37.3519 29.2297 37.3519C38.9001 37.3519 43.6741 41.9964 45.626 44.689L39.9556 53.3223V53.326Z" fill="#FF969C"/>
<path d="M58.7075 39.3816C52.7741 49.6593 39.9852 53.3816 39.9852 53.3816C39.9852 53.3816 36.8149 40.4445 42.7482 30.1667C48.6815 19.889 61.4704 16.1667 61.4704 16.1667C61.4704 16.1667 64.6408 29.1038 58.7075 39.3816Z" fill="#FF969C"/>
<path d="M37.2187 30.1667C43.152 40.4445 39.9817 53.3816 39.9817 53.3816C39.9817 53.3816 27.1928 49.6593 21.2594 39.3816C15.3261 29.1038 18.4965 16.1667 18.4965 16.1667C18.4965 16.1667 31.2854 19.889 37.2187 30.1667Z" fill="#FF969C"/>
<path d="M49.2148 31.8963C49.2148 43.763 40 53.3815 40 53.3815C40 53.3815 30.7852 43.763 30.7852 31.8963C30.7852 20.0297 40 10.4111 40 10.4111C40 10.4111 49.2148 20.0297 49.2148 31.8963Z" fill="#FF969C"/>
<path d="M78.5778 45.7778C78.2111 45.4741 71.7111 40.1297 62.3889 37.3334C67.1333 26.6186 64.3074 14.7223 64.1778 14.1778C64.0889 13.8149 63.8519 13.5001 63.5296 13.3149C63.2037 13.126 62.8148 13.0778 62.4556 13.1853C62.0482 13.3001 55.2926 15.3186 49.0333 20.3667C46.1333 12.8667 41.2852 7.7334 40.9963 7.4297C40.4778 6.88525 39.5222 6.88525 39.0037 7.4297C38.7148 7.7334 33.863 12.8741 30.9593 20.3815C24.6926 15.3223 17.9148 13.3001 17.5148 13.1853C17.1519 13.0778 16.7667 13.126 16.4408 13.3149C16.1148 13.5001 15.8815 13.8149 15.7926 14.1778C15.663 14.7223 12.8333 26.626 17.5852 37.3408C8.2815 40.1408 1.79261 45.4778 1.42594 45.7778C1.11483 46.0408 0.93335 46.426 0.93335 46.8371C0.93335 47.2482 1.11483 47.6334 1.42594 47.8964C1.92224 48.3112 13.7296 58.0186 28.5482 58.0186C32.8519 58.0186 36.7 57.1927 40.0037 55.5519C43.3074 57.189 47.1556 58.0186 51.4593 58.0186C66.2815 58.0186 78.0852 48.3112 78.5815 47.8964C78.8963 47.6334 79.0778 47.2482 79.0778 46.8371C79.0778 46.426 78.8963 46.0408 78.5815 45.7778H78.5778ZM61.7889 16.326C62.3667 19.8038 63.3222 28.7519 59.6889 36.6186C59.4889 37.0482 59.2741 37.4741 59.0482 37.8964C58.9408 38.1001 58.8259 38.3075 58.7111 38.5112C58.5852 38.7297 58.4556 38.9445 58.3222 39.1556C54.6111 45.1297 48.5408 48.8519 44.3259 50.863C46.3852 47.9038 48.8889 43.563 50.2222 38.4408C50.3445 37.9853 50.4556 37.5186 50.5556 37.0519C50.6519 36.5964 50.737 36.1334 50.8111 35.6667C51.0482 34.2334 51.1815 32.7519 51.1815 31.2334C51.1815 28.3964 50.7185 25.6853 49.9889 23.1778C54.4445 19.3778 59.4037 17.2223 61.7926 16.326H61.7889ZM18.1778 16.326C19.963 16.9964 23.1889 18.3667 26.563 20.6075C27.7111 21.3667 28.8741 22.2297 30.0074 23.2001C29.2815 25.7001 28.8222 28.4038 28.8222 31.2334C28.8222 32.7519 28.9556 34.2297 29.1926 35.6667C29.2667 36.1371 29.3556 36.5964 29.4519 37.0519C29.5519 37.5223 29.6593 37.9853 29.7815 38.4408C31.1222 43.5741 33.6296 47.926 35.6963 50.8853C31.4778 48.8815 25.3778 45.1482 21.6556 39.1556C21.5185 38.9445 21.3889 38.726 21.263 38.5075C21.1482 38.3075 21.0333 38.1075 20.9296 37.9001C20.7 37.4778 20.4889 37.0519 20.2889 36.6223C16.6482 28.7556 17.6074 19.8038 18.1852 16.3223L18.1778 16.326ZM28.5445 55.2593C17.563 55.2593 8.06668 49.3112 4.59631 46.8371C6.9889 45.1297 12.2333 41.7816 18.8556 39.8556C18.8593 39.8667 18.863 39.8741 18.8704 39.889C23.4519 47.8223 31.5556 52.1927 36.1556 54.1408C33.8593 54.8853 31.3111 55.2593 28.5408 55.2593H28.5445ZM40.8408 50.926C40.7111 51.1001 40.5852 51.2593 40.463 51.4149C40.3593 51.5445 40.263 51.6667 40.163 51.7853C40.1074 51.8556 40.0519 51.9223 40 51.9853C39.9371 51.9112 39.8704 51.826 39.8037 51.7445C39.7074 51.626 39.6074 51.5001 39.5037 51.3704C39.3852 51.2186 39.2593 51.0593 39.1334 50.889C38.7445 50.3815 38.3111 49.789 37.8519 49.1297C36.8667 47.6964 35.7741 45.926 34.7815 43.9038C34.5593 43.4593 34.3482 43.0001 34.1445 42.5297C33.6148 41.3334 33.1371 40.063 32.7333 38.7334C32.5926 38.2556 32.4593 37.7704 32.3371 37.2816C32.2222 36.8112 32.1148 36.3371 32.0259 35.8519C31.7408 34.363 31.5778 32.8186 31.5778 31.2371C31.5778 29.2112 31.8482 27.2482 32.2963 25.3741C32.4222 24.8519 32.563 24.3297 32.7185 23.8223C32.863 23.3223 33.0259 22.8297 33.1963 22.3482C35.1556 16.8186 38.3852 12.4556 40.0037 10.4853C41.6259 12.4519 44.8482 16.7964 46.8037 22.3186C46.9741 22.8001 47.1334 23.2927 47.2852 23.7927C47.4371 24.3001 47.5778 24.8223 47.7037 25.3445C48.1556 27.2223 48.4296 29.1964 48.4296 31.2334C48.4296 32.8149 48.263 34.3593 47.9815 35.8482C47.8926 36.3334 47.7852 36.8112 47.6704 37.2778C47.5482 37.7667 47.4148 38.2519 47.2741 38.726C46.8778 40.0482 46.3963 41.3149 45.8667 42.5038C45.6667 42.9778 45.4482 43.4334 45.2333 43.8778C44.2259 45.9334 43.1185 47.7297 42.1185 49.1815C41.6667 49.8408 41.2371 50.4223 40.8482 50.926H40.8408ZM51.4593 55.2593C48.6815 55.2593 46.1259 54.8815 43.8296 54.1371C45.1556 53.5741 46.7741 52.8112 48.5148 51.8149C52.8074 49.363 57.8482 45.5223 61.1 39.8853C61.1074 39.8741 61.1148 39.8593 61.1185 39.8445C67.7556 41.7667 73.0111 45.126 75.4074 46.8334C71.937 49.3075 62.4482 55.2556 51.4593 55.2556V55.2593Z" fill="#272727"/>
<path d="M51.4555 58.2037C47.1629 58.2037 43.3073 57.3815 39.9999 55.7593C36.6925 57.3815 32.837 58.2037 28.5444 58.2037C13.674 58.2037 1.79994 48.4556 1.30364 48.0408C0.948088 47.7408 0.744385 47.3 0.744385 46.8371C0.744385 46.3741 0.948088 45.9371 1.30364 45.6371C1.99624 45.063 8.29253 39.9889 17.3296 37.2223C12.7888 26.7778 15.3073 15.4 15.6111 14.1334C15.7148 13.7149 15.9851 13.3593 16.3481 13.1519C16.7222 12.9371 17.1555 12.8852 17.5666 13.0037C17.6333 13.0223 24.5222 15.0223 30.8777 20.0778C33.7333 12.8408 38.3481 7.84819 38.8703 7.30004C39.1518 7.00374 39.5666 6.83337 39.9999 6.83337C40.437 6.83337 40.8481 7.00374 41.1296 7.30004C41.6518 7.85189 46.2629 12.8371 49.1148 20.063C55.4999 14.9889 62.337 13.026 62.4073 13.0037C62.8185 12.8815 63.2518 12.9371 63.6259 13.1519C63.9925 13.363 64.2592 13.7186 64.3629 14.1297C64.6666 15.4 67.1814 26.7667 62.6481 37.2149C71.6999 39.9778 78.0073 45.0593 78.6999 45.6371C79.0592 45.9371 79.2629 46.3741 79.2629 46.8408C79.2629 47.3074 79.0592 47.7445 78.6999 48.0408C78.1999 48.4556 66.3296 58.2037 51.4592 58.2037H51.4555ZM39.9999 55.3445L40.0814 55.3852C43.3555 57.0074 47.1814 57.8334 51.4555 57.8334C66.1962 57.8334 77.9666 48.1667 78.4592 47.7556C78.7333 47.526 78.8888 47.1926 78.8888 46.8371C78.8888 46.4815 78.7333 46.1482 78.4592 45.9186C77.7666 45.3445 71.4222 40.2334 62.337 37.5074L62.137 37.4482L62.2222 37.2556C66.8222 26.8667 64.3036 15.4815 63.9999 14.2186C63.9222 13.9037 63.7185 13.6334 63.437 13.4741C63.1518 13.3074 62.8222 13.2704 62.5074 13.3593C62.437 13.3778 55.5296 15.363 49.1481 20.5074L48.9518 20.6667L48.8592 20.4297C46.0444 13.1445 41.3814 8.10374 40.8592 7.55189C40.6481 7.32967 40.3333 7.20004 39.9962 7.20374C39.6592 7.20374 39.3481 7.32967 39.1333 7.5556C38.611 8.10745 33.9481 13.1482 31.1296 20.4482L31.037 20.6852L30.8407 20.526C24.4888 15.4 17.5296 13.3815 17.4592 13.363C17.1444 13.2704 16.8111 13.3112 16.5259 13.4741C16.2481 13.6334 16.0407 13.9037 15.9629 14.2223C15.6592 15.4852 13.1407 26.8815 17.7444 37.2667L17.8296 37.4593L17.6296 37.5186C8.5555 40.2519 2.22587 45.3482 1.53327 45.9223C1.2629 46.1519 1.10735 46.4852 1.10735 46.8408C1.10735 47.1963 1.2629 47.5297 1.53327 47.7593C2.02587 48.1704 13.7999 57.8371 28.537 57.8371C32.8111 57.8371 36.637 57.0149 39.911 55.3889L39.9925 55.3482L39.9999 55.3445ZM51.4555 55.4445C48.6703 55.4445 46.0851 55.063 43.7666 54.3111L43.2962 54.1593L43.7518 53.9667C45.3407 53.2926 46.9111 52.5149 48.4148 51.6556C52.274 49.4556 57.5777 45.6074 60.9333 39.7963L60.9888 39.626L61.1666 39.6704C67.7555 41.5778 72.9814 44.8852 75.5111 46.6852L75.7222 46.8371L75.5111 46.9889C71.9444 49.5334 62.4592 55.4445 51.4555 55.4445ZM44.3592 54.1074C46.5148 54.7482 48.8999 55.0741 51.4555 55.0741C62.1407 55.0741 71.3925 49.4334 75.0851 46.8371C72.5222 45.0334 67.4962 41.9149 61.2073 40.0667C57.8148 45.9 52.4851 49.763 48.6036 51.9778C47.2296 52.7593 45.8036 53.4778 44.3592 54.1074ZM28.5444 55.4445C17.5407 55.4445 8.0555 49.5297 4.48883 46.9889L4.27772 46.8371L4.48883 46.6852C7.00364 44.8926 12.2036 41.5963 18.8073 39.6778L18.9777 39.6297L19.0333 39.7963C23.6148 47.7297 31.7777 52.0815 36.2333 53.9704L36.6888 54.163L36.2185 54.3149C33.911 55.063 31.3296 55.4408 28.5481 55.4408L28.5444 55.4445ZM4.91475 46.8371C8.60735 49.4334 17.8592 55.0741 28.5444 55.0741C31.0962 55.0741 33.4777 54.7519 35.6259 54.1112C31.0629 52.1149 23.2592 47.7741 18.7666 40.0741C12.4666 41.9297 7.4629 45.0408 4.91475 46.8371ZM40.0222 52.2519L39.8592 52.1074C39.7962 52.0334 39.7296 51.9482 39.6592 51.863L39.2407 51.3334C39.1555 51.226 39.0703 51.1186 38.9851 51C38.5592 50.4445 38.1259 49.8482 37.6999 49.2334C36.5222 47.5186 35.4851 45.7519 34.6185 43.9815C34.3925 43.526 34.1777 43.063 33.9777 42.6C33.4185 41.3334 32.9407 40.0482 32.5592 38.7815C32.4073 38.2667 32.274 37.7889 32.1592 37.3186C32.0296 36.7926 31.9296 36.3223 31.8444 35.8778C31.5444 34.3037 31.3925 32.7408 31.3925 31.2297C31.3925 29.326 31.637 27.3371 32.1148 25.326C32.2407 24.8074 32.3814 24.2815 32.5407 23.763C32.6777 23.2926 32.8333 22.8074 33.0185 22.2815C34.9629 16.7852 38.137 12.4556 39.8592 10.363L40.0036 10.1889L40.1481 10.363C41.8629 12.4408 45.0333 16.7482 46.9814 22.2519C47.1592 22.7519 47.3222 23.2519 47.4629 23.7334C47.611 24.2186 47.7481 24.7297 47.8814 25.2963C48.3666 27.3037 48.6111 29.3 48.6111 31.2297C48.6111 32.7371 48.4592 34.3 48.1592 35.8778C48.0777 36.3223 47.974 36.7926 47.8444 37.3186C47.7259 37.7926 47.5925 38.2815 47.4444 38.7778C47.0666 40.0371 46.5888 41.3149 46.0296 42.5778C45.8185 43.0778 45.5888 43.5556 45.3925 43.9593C44.5036 45.7741 43.4481 47.5667 42.2629 49.2852C41.8555 49.8741 41.4407 50.4482 40.9888 51.0371C40.8592 51.2112 40.7296 51.3741 40.6073 51.5297C40.5036 51.6593 40.4036 51.7852 40.3036 51.9037C40.2592 51.963 40.2111 52.0223 40.1629 52.0778L40.0222 52.2519ZM39.9999 10.7778C38.2666 12.9112 35.2407 17.1149 33.3666 22.4111C33.1851 22.9297 33.0296 23.4111 32.8925 23.8741C32.737 24.3889 32.5962 24.9074 32.474 25.4186C31.9999 27.4037 31.7629 29.363 31.7629 31.2371C31.7629 32.7223 31.9148 34.263 32.2073 35.8149C32.2888 36.2519 32.3888 36.7186 32.5148 37.2371C32.6296 37.7 32.7592 38.1741 32.911 38.6815C33.2888 39.9334 33.7592 41.2037 34.3148 42.4556C34.5148 42.9149 34.7259 43.3741 34.9481 43.8223C35.8073 45.5741 36.837 47.326 38.0036 49.026C38.4259 49.6371 38.8518 50.226 39.2777 50.7778C39.3629 50.8926 39.4481 51 39.5296 51.1037L39.9444 51.6297C39.9629 51.6519 39.9777 51.6704 39.9962 51.6926L40.0148 51.6704C40.1148 51.5482 40.2148 51.4297 40.3148 51.3C40.437 51.1482 40.5629 50.9852 40.6888 50.8149C41.137 50.2297 41.5481 49.663 41.9518 49.0741C43.1296 47.3704 44.174 45.5926 45.0555 43.7963C45.2481 43.4 45.474 42.926 45.6851 42.4297C46.2407 41.1778 46.711 39.9149 47.0851 38.6704C47.2296 38.1815 47.3629 37.6963 47.4814 37.2297C47.6073 36.7149 47.7073 36.2482 47.7888 35.8112C48.0851 34.2593 48.2333 32.7186 48.2333 31.2334C48.2333 29.3334 47.9925 27.3667 47.5148 25.3889C47.3814 24.8297 47.2444 24.326 47.0999 23.8482C46.9555 23.3704 46.7962 22.8778 46.6222 22.3815C44.7481 17.0815 41.7259 12.8963 39.9962 10.7778H39.9999ZM36.2444 51.3556L35.6148 51.0556C31.2222 48.9667 25.2036 45.226 21.4962 39.2593C21.3592 39.0482 21.2259 38.826 21.0999 38.6037C20.9814 38.3926 20.8666 38.1926 20.7629 37.9889C20.5407 37.5815 20.3296 37.1593 20.1185 36.7074C16.4592 28.7963 17.4185 19.8 17.9999 16.3L18.037 16.0778L18.2481 16.1556C19.9185 16.7815 23.237 18.1778 26.6703 20.4556C27.9036 21.2741 29.0703 22.1519 30.1296 23.063L30.2185 23.1408L30.1851 23.2556C29.4036 25.9556 29.0073 28.6408 29.0073 31.2371C29.0073 32.6778 29.1296 34.1593 29.374 35.6408C29.4481 36.0963 29.5333 36.5593 29.6333 37.0186C29.7333 37.4889 29.8444 37.9556 29.9629 38.4C31.3222 43.6149 33.9148 48.0149 35.8481 50.7852L36.2481 51.3593L36.2444 51.3556ZM18.3222 16.5815C17.7444 20.1963 16.9073 28.8963 20.4481 36.5519C20.6555 37 20.8666 37.4149 21.0851 37.8186C21.1888 38.0223 21.2999 38.2149 21.4111 38.4111C21.5407 38.6408 21.6703 38.8519 21.8073 39.063C25.2962 44.6778 30.8629 48.3037 35.1444 50.4186C33.2481 47.6074 30.8851 43.4111 29.5999 38.4926C29.4777 38.0408 29.3666 37.5704 29.2666 37.0926C29.1666 36.6297 29.0777 36.1593 29.0036 35.6963C28.7555 34.1963 28.6296 32.6963 28.6296 31.2334C28.6296 28.6371 29.0185 25.9593 29.7888 23.263C28.7629 22.3889 27.6407 21.5482 26.4555 20.763C23.1925 18.5963 20.037 17.2371 18.3222 16.5815ZM43.7666 51.3334L44.1666 50.7593C46.0962 47.9889 48.6814 43.5926 50.037 38.3963C50.1518 37.9704 50.2592 37.5149 50.3703 37.0149C50.4703 36.5297 50.5555 36.0778 50.6259 35.6371C50.8703 34.1556 50.9925 32.6741 50.9925 31.2334C50.9925 28.6334 50.5925 25.9408 49.8073 23.2297L49.774 23.1149L49.8666 23.0371C54.3036 19.2519 59.1999 17.1 61.7259 16.1519L61.937 16.0741L61.974 16.2963C62.5555 19.7926 63.5148 28.7778 59.8592 36.6963C59.6481 37.1519 59.4333 37.5741 59.211 37.9815C59.1036 38.1852 58.9888 38.3926 58.8703 38.6C58.7444 38.8186 58.611 39.0371 58.4777 39.2519C54.7851 45.1926 48.7851 48.9334 44.4036 51.0297L43.7703 51.3334H43.7666ZM50.1962 23.2408C50.9703 25.9445 51.3629 28.6334 51.3629 31.2334C51.3629 32.6926 51.237 34.1963 50.9888 35.6963C50.9185 36.1408 50.8333 36.5963 50.7296 37.0889C50.6185 37.6 50.5073 38.0593 50.3925 38.4889C49.1148 43.3889 46.7555 47.5778 44.8666 50.3889C49.1333 48.2667 54.6851 44.6445 58.1592 39.0556C58.2925 38.8445 58.4222 38.6297 58.5481 38.4149C58.6629 38.2112 58.7777 38.0112 58.8814 37.8074C59.1036 37.4 59.3111 36.9852 59.5185 36.5371C63.0555 28.8778 62.2185 20.1852 61.6407 16.5778C59.1036 17.5445 54.4444 19.6408 50.1962 23.2408Z" fill="#272727"/>
</svg>
