<svg width="80" height="80" viewBox="0 0 80 80" fill="none" xmlns="http://www.w3.org/2000/svg">
<path d="M77.5259 79.6296H2.47403C1.75922 79.6296 1.17773 79.0482 1.17773 78.3333C1.17773 77.4704 1.27033 74.9704 1.50366 73.9148C2.78144 68.1222 9.00736 61.6741 15.9259 61.6296C17.3777 55.4556 22.9925 50.9333 29.437 50.9333C33.5518 50.9333 37.3851 52.7296 40.0037 55.8148C42.6185 52.7296 46.4481 50.9333 50.5703 50.9333C57.0111 50.9333 62.6222 55.4556 64.0777 61.6296C70.9925 61.6741 77.2222 68.1222 78.4963 73.9148C78.7296 74.9704 78.8222 77.4704 78.8222 78.3333C78.8222 79.0482 78.2407 79.6296 77.5259 79.6296ZM3.80736 77.0371H76.1963C76.1518 76.0408 76.0666 74.9333 75.9629 74.4741C74.8963 69.6371 69.5555 64.2259 64.0037 64.2259C63.7037 64.2259 63.4148 64.237 63.1222 64.263C62.4407 64.3222 61.8296 63.8371 61.7296 63.1593C60.9259 57.6704 56.1296 53.5296 50.5703 53.5296C46.7185 53.5296 43.1777 55.4593 41.0963 58.6926C40.8592 59.063 40.4481 59.2852 40.0074 59.2852C39.5666 59.2852 39.1592 59.063 38.9185 58.6926C36.8259 55.4593 33.2814 53.5259 29.437 53.5259C23.8777 53.5259 19.0777 57.6667 18.274 63.1556C18.174 63.8333 17.5629 64.3185 16.8814 64.2593C16.5851 64.2333 16.2963 64.2222 16 64.2222C10.4481 64.2222 5.10736 69.6334 4.0407 74.4704C3.9407 74.9333 3.85551 76.0408 3.80736 77.0333V77.0371Z" fill="#272727"/>
<path d="M40.0037 59.2186C39.3519 59.2186 38.7889 58.726 38.7149 58.0631C38.6963 57.9001 36.7667 41.5408 24.3778 34.7186C23.7519 34.3742 23.5223 33.5853 23.8667 32.9594C24.2112 32.3334 25 32.1038 25.626 32.4483C39.2149 39.926 41.2149 57.0594 41.2926 57.7853C41.3704 58.4964 40.8556 59.1371 40.1445 59.2149C40.0963 59.2186 40.0519 59.2223 40.0037 59.2223V59.2186Z" fill="#272727"/>
<path d="M40.0037 59.2851C39.2963 59.2851 38.7185 58.7147 38.7074 58.0073C38.7037 57.7147 38.6259 50.7629 40.0555 42.474C42.0037 31.1888 45.6777 23.2851 50.9777 18.9888C51.5333 18.5369 52.3518 18.6221 52.8 19.1777C53.2518 19.7332 53.1666 20.5518 52.6111 20.9999C41.0555 30.3666 41.2963 57.6962 41.3 57.9703C41.3111 58.6851 40.737 59.274 40.0222 59.2851H40.0037Z" fill="#272727"/>
<path d="M60.5665 2.00008C60.7665 1.94082 60.9591 1.88897 61.1406 1.84082C61.2962 1.80008 61.4443 1.76304 61.5887 1.72971C61.6739 1.70749 61.7554 1.68897 61.8295 1.66675C61.8554 1.75934 61.885 1.85934 61.9147 1.95564C61.9554 2.09638 61.9962 2.24823 62.0369 2.40378C62.085 2.58527 62.1369 2.77416 62.1813 2.97045C62.3332 3.57045 62.4925 4.25564 62.6406 5.00749C62.9591 6.63341 63.2332 8.57045 63.2999 10.6445C63.3184 11.1038 63.3221 11.563 63.311 12.0334C63.2925 13.2297 63.1999 14.4482 63.0073 15.6742C62.9369 16.1112 62.8517 16.5519 62.7554 16.989C62.6591 17.4038 62.5554 17.8223 62.4295 18.2371C62.0517 19.5149 61.5369 20.7705 60.848 21.9593C59.9665 23.4853 58.848 24.8112 57.6036 25.9742C57.2554 26.3001 56.8925 26.6112 56.5221 26.9075C56.1628 27.2038 55.7962 27.4853 55.4221 27.7519C51.1332 30.8297 46.1369 32.3186 43.7295 32.9038C43.0332 30.5223 41.8406 25.463 42.3776 20.2223C42.4258 19.7667 42.485 19.3075 42.5591 18.8482C42.6332 18.3816 42.7295 17.9112 42.8369 17.4482C43.2221 15.7816 43.8221 14.1445 44.711 12.6112C45.3999 11.4223 46.2332 10.3519 47.1517 9.38897C47.4517 9.07416 47.7591 8.77416 48.0739 8.48527C48.4036 8.18527 48.7443 7.89638 49.0887 7.6149C50.048 6.84082 51.0591 6.15564 52.085 5.55193C52.485 5.30749 52.8888 5.08527 53.2925 4.87045C55.1554 3.88156 56.9999 3.14453 58.5888 2.60749C59.311 2.36304 59.9739 2.16304 60.5665 1.99638V2.00008Z" fill="white"/>
<path d="M43.7296 34.2074C43.1666 34.2074 42.6518 33.8371 42.4851 33.2741C41.7259 30.6778 40.5333 25.5148 41.0889 20.0963C41.1407 19.5963 41.2037 19.1074 41.2814 18.6445C41.3555 18.1741 41.4518 17.6852 41.574 17.1593C42.0111 15.2667 42.6889 13.5185 43.5889 11.9667C44.2926 10.7519 45.1777 9.5852 46.2148 8.49631C46.5037 8.19261 46.8259 7.87779 47.1963 7.53335C47.5333 7.22594 47.8926 6.91853 48.2703 6.61112C49.2296 5.83335 50.2889 5.10372 51.4259 4.43335C51.8555 4.17038 52.3037 3.92594 52.6777 3.72594C54.3814 2.82223 56.2259 2.03335 58.174 1.37779C58.8333 1.15557 59.5 0.94816 60.2074 0.751864C60.4185 0.688901 60.6185 0.637049 60.8148 0.585197C60.9703 0.544456 61.1222 0.507419 61.274 0.470382C61.3444 0.451864 61.4148 0.433345 61.4814 0.41853L61.5185 0.407419C62.1889 0.240753 62.8703 0.629641 63.0703 1.2889C63.1 1.3889 63.1296 1.49631 63.1592 1.60372L63.337 2.25557C63.374 2.3889 63.4074 2.52964 63.4444 2.67038C63.6111 3.32964 63.7703 4.03705 63.9148 4.75557C64.3074 6.76298 64.537 8.72964 64.6 10.6037C64.6185 11.0889 64.6222 11.5815 64.6111 12.063C64.5926 13.3741 64.4851 14.663 64.2889 15.8815C64.2074 16.3815 64.1185 16.837 64.0222 17.2741C63.9074 17.7704 63.7963 18.2074 63.674 18.6148C63.2518 20.0519 62.6777 21.3963 61.974 22.6148C61.0851 24.1482 59.9148 25.6 58.4963 26.9259C58.1259 27.2704 57.7407 27.6037 57.3444 27.9222C57 28.2074 56.6185 28.5 56.1889 28.8111C51.7666 31.9852 46.6814 33.5333 44.0444 34.1704C43.9407 34.1963 43.8407 34.2074 43.737 34.2074H43.7296ZM60.9148 3.24816C60.2518 3.43335 59.6259 3.62594 59.0037 3.83705C57.1889 4.44816 55.474 5.18149 53.9 6.01853C53.5592 6.20001 53.1555 6.42223 52.7629 6.66297C51.7185 7.27779 50.7629 7.93705 49.9074 8.62964C49.5703 8.90372 49.2481 9.18149 48.9518 9.45186C48.6333 9.74816 48.3518 10.0222 48.1 10.2889C47.2 11.2296 46.4407 12.2333 45.8407 13.2704C45.0703 14.6 44.4889 16.1074 44.1074 17.7482C44 18.2185 43.9148 18.6445 43.8481 19.0593C43.7777 19.4815 43.7222 19.9185 43.674 20.3667C43.2407 24.6111 43.9814 28.7222 44.6481 31.3371C47.2592 30.6074 51.2074 29.1963 54.674 26.7074C55.0518 26.4333 55.3888 26.1741 55.7037 25.9185C56.0666 25.6259 56.4074 25.3333 56.7296 25.0333C57.9629 23.8815 58.974 22.6296 59.7333 21.3185C60.3333 20.2815 60.8259 19.1222 61.1926 17.8778C61.3 17.5222 61.4 17.1408 61.4963 16.7074C61.5814 16.3222 61.6592 15.9148 61.7333 15.4704C61.9074 14.3815 62.0037 13.2185 62.0222 12.0222C62.0333 11.5815 62.0296 11.1408 62.0111 10.7C61.9555 8.95927 61.7407 7.12964 61.374 5.26297C61.2407 4.5926 61.0926 3.92964 60.9296 3.29631L60.9185 3.25186L60.9148 3.24816Z" fill="#272727"/>
<path d="M7.45181 14C7.45181 13.7926 7.46292 13.5926 7.47033 13.4037C7.47774 13.2445 7.48514 13.0926 7.49625 12.9408C7.49625 12.8556 7.50366 12.7704 7.50737 12.6926C7.60366 12.6926 7.70737 12.6926 7.81107 12.6963C7.95922 12.7 8.11477 12.7037 8.27403 12.7111C8.45922 12.7186 8.65551 12.726 8.85922 12.7408C9.47774 12.7741 10.1777 12.826 10.9407 12.9037C12.5888 13.0815 14.5185 13.3889 16.5222 13.9371C16.9629 14.0556 17.4074 14.1889 17.8518 14.3371C18.9888 14.7037 20.1296 15.1556 21.2407 15.7037C21.637 15.9 22.0333 16.1111 22.4222 16.3334C22.7926 16.5482 23.1592 16.7704 23.5185 17.0148C24.6296 17.7519 25.674 18.6148 26.6074 19.626C27.8037 20.9186 28.7444 22.3778 29.4851 23.9111C29.6926 24.3408 29.8851 24.7778 30.0592 25.2186C30.237 25.6482 30.3963 26.0852 30.5407 26.5186C32.2148 31.5223 32.1666 36.7371 32.0148 39.2111C29.5333 39.1741 24.3481 38.8223 19.5 36.7593C19.0777 36.5778 18.6555 36.3852 18.2407 36.1778C17.8148 35.9704 17.3963 35.7408 16.9851 35.5C15.5074 34.6408 14.1222 33.5852 12.9185 32.2815C11.9851 31.2704 11.2074 30.163 10.5592 28.9963C10.3481 28.6186 10.1518 28.2334 9.96663 27.8482C9.77774 27.4445 9.59996 27.0334 9.43329 26.6223C8.97403 25.4778 8.61848 24.3074 8.3444 23.1519C8.22959 22.7 8.13329 22.2445 8.04811 21.7963C7.65181 19.726 7.49255 17.7445 7.44811 16.0667C7.42588 15.3074 7.43329 14.6111 7.44811 14H7.45181Z" fill="white"/>
<path d="M32.0222 40.5H32.0036C29.2999 40.4593 24.0147 40.0778 18.9999 37.9482C18.537 37.7519 18.0888 37.5445 17.6703 37.3371C17.2444 37.1297 16.8073 36.8926 16.337 36.6185C14.6555 35.6408 13.1888 34.4778 11.9703 33.1593C11.0185 32.126 10.1629 30.9371 9.42956 29.626C9.22586 29.263 9.01845 28.8593 8.79993 28.4074C8.60364 27.9889 8.41475 27.5556 8.23327 27.1074C7.77401 25.963 7.38882 24.7334 7.08512 23.4482C6.95919 22.9593 6.85919 22.463 6.77771 22.0408C6.41845 20.1482 6.20734 18.1482 6.15549 16.0963C6.13697 15.3963 6.13697 14.7 6.15549 13.9667C6.15549 13.7482 6.1666 13.5408 6.17401 13.3408C6.18142 13.1815 6.18882 13.026 6.19993 12.8704C6.19993 12.7963 6.20734 12.7185 6.21105 12.6482C6.25179 11.963 6.82216 11.3889 7.50734 11.3889H7.51475C7.61845 11.3889 7.72956 11.3889 7.84068 11.3963L8.51845 11.4185C8.65549 11.426 8.79993 11.4297 8.94438 11.4408C9.62216 11.4741 10.3444 11.5334 11.074 11.6074C13.1073 11.826 15.0555 12.1852 16.8629 12.6815C17.3333 12.8074 17.8036 12.9482 18.2592 13.1C19.5073 13.5037 20.7036 13.9889 21.811 14.5334C22.2666 14.7593 22.674 14.9778 23.0629 15.2C23.5036 15.4556 23.8851 15.6926 24.2407 15.9297C25.4888 16.7593 26.6073 17.7037 27.5592 18.7371C28.7629 20.0371 29.8036 21.5852 30.6518 23.3334C30.8703 23.7852 31.074 24.2556 31.2629 24.7297C31.4333 25.1445 31.5999 25.5963 31.7703 26.0963C33.4962 31.2556 33.474 36.5741 33.3073 39.2815C33.2666 39.9667 32.6962 40.4963 32.0147 40.4963L32.0222 40.5ZM8.74808 14.0334C8.72956 14.7222 8.72956 15.3778 8.74808 16.0334C8.79623 17.9482 8.99253 19.8037 9.32586 21.5556C9.39994 21.9334 9.49253 22.3852 9.60364 22.8334C9.88512 24.0148 10.2296 25.1222 10.6407 26.1408C10.8036 26.5408 10.9703 26.9297 11.1444 27.3C11.3333 27.6926 11.511 28.0445 11.6925 28.363C12.3259 29.5 13.0592 30.5222 13.874 31.4037C14.9147 32.5297 16.1851 33.5334 17.6407 34.3815C18.0592 34.626 18.4444 34.8334 18.8185 35.0148C19.1999 35.2037 19.5999 35.3889 20.0148 35.5667C23.9444 37.2334 28.0888 37.7371 30.7851 37.8741C30.8592 35.1667 30.6777 30.9741 29.3222 26.9297C29.174 26.4852 29.0259 26.0889 28.8703 25.7148C28.6962 25.2815 28.5185 24.8704 28.3259 24.4741C27.5888 22.9593 26.6925 21.6222 25.6629 20.5074C24.8481 19.626 23.8888 18.8148 22.8073 18.0963C22.4962 17.8889 22.1629 17.6815 21.7777 17.4593C21.437 17.263 21.0703 17.0704 20.6666 16.8667C19.6777 16.3778 18.5925 15.9408 17.4555 15.5741C17.037 15.4371 16.6147 15.3074 16.1888 15.1926C14.5073 14.7334 12.6962 14.4 10.8036 14.1963C10.1222 14.126 9.44438 14.0741 8.79623 14.0408C8.78142 14.0408 8.7666 14.0408 8.75179 14.0408L8.74808 14.0334Z" fill="#272727"/>
<path d="M17.1555 72.2705C16.8629 72.2705 16.5666 72.1705 16.3222 71.9668C15.774 71.5075 15.6889 70.6779 16.1518 70.1297C16.6148 69.5816 17.4185 69.5001 17.9666 69.9594L17.9926 69.9816C18.5407 70.4408 18.6111 71.2594 18.1518 71.8075C17.8963 72.1112 17.5296 72.2705 17.1592 72.2705H17.1555Z" fill="#272727"/>
<path d="M30.8631 63.9406C30.2853 63.9406 29.7557 63.548 29.6075 62.9629C29.4335 62.2703 29.852 61.5629 30.5483 61.3888L30.6297 61.3666C31.3223 61.1925 32.0297 61.611 32.2038 62.3073C32.3779 62.9999 31.9594 63.7073 31.2631 63.8814L31.1816 63.9036C31.0742 63.9295 30.9668 63.9443 30.8631 63.9443V63.9406Z" fill="#272727"/>
<path d="M49.1038 68.5259C48.5223 68.5259 47.9964 68.1333 47.8483 67.5444C47.6742 66.8481 48.0964 66.1444 48.7927 65.9703L48.8742 65.9481C49.5705 65.774 50.2742 66.1963 50.4483 66.8926C50.6223 67.5889 50.2001 68.2926 49.5038 68.4666L49.4223 68.4889C49.3149 68.5148 49.2112 68.5296 49.1075 68.5296L49.1038 68.5259Z" fill="#272727"/>
<path d="M51.9073 61.0445C51.3258 61.0445 50.7999 60.6519 50.6517 60.063C50.4777 59.3667 50.8999 58.663 51.5925 58.4889L51.674 58.4667C52.3666 58.2926 53.074 58.7148 53.248 59.4074C53.4221 60.1 52.9999 60.8074 52.3073 60.9815L52.2258 61.0037C52.1184 61.0296 52.0147 61.0445 51.911 61.0445H51.9073Z" fill="#272727"/>
<path d="M63.8001 73.7334C63.2223 73.7334 62.6927 73.3408 62.5445 72.7556C62.3705 72.063 62.789 71.3556 63.4853 71.1815L63.5668 71.1593C64.2594 70.9815 64.9668 71.4037 65.1408 72.1C65.3149 72.7926 64.8964 73.5 64.2001 73.6741L64.1186 73.6963C64.0112 73.7222 63.9038 73.7371 63.8001 73.7371V73.7334Z" fill="#272727"/>
<path d="M28.1443 73.8889C27.5666 73.8889 27.0369 73.4963 26.8888 72.9111C26.7147 72.2185 27.1332 71.5111 27.8295 71.337L27.911 71.3148C28.6036 71.1407 29.311 71.5592 29.4851 72.2555C29.6591 72.9518 29.2406 73.6555 28.5443 73.8296L28.4629 73.8518C28.3554 73.8778 28.248 73.8926 28.1443 73.8926V73.8889Z" fill="#272727"/>
</svg>
