<svg width="80" height="80" viewBox="0 0 80 80" fill="none" xmlns="http://www.w3.org/2000/svg">
<path d="M29.4 21.9222C28.7 21.9222 28.1222 21.363 28.1037 20.6593C28.0926 20.3334 27.7667 12.5889 20.0482 11.2296C12.3185 9.86669 9.26667 17.0296 9.14074 17.3334C8.86667 17.9926 8.11111 18.3111 7.45185 18.0408C6.78889 17.7704 6.47408 17.0185 6.74074 16.3556C8.06297 13.0926 12.6444 7.28891 20.4963 8.67409C28.3593 10.0593 30.6037 17.0778 30.6926 20.5926C30.7111 21.3074 30.1444 21.9037 29.4296 21.9222C29.4185 21.9222 29.4074 21.9222 29.3963 21.9222H29.4Z" fill="#272727"/>
<path d="M50.074 22.0444C50.074 22.0444 50.0407 22.0444 50.0259 22.0444C49.3111 22.0185 48.7518 21.4185 48.7777 20.7C48.9074 17.1815 51.2259 10.163 59.0777 8.77778C66.9407 7.39259 71.4481 13.2148 72.737 16.4889C72.9999 17.1556 72.6703 17.9074 72.0036 18.1704C71.337 18.4333 70.5851 18.1037 70.3222 17.437C70.1999 17.1333 67.2444 9.97037 59.5259 11.3296C51.7518 12.7 51.3777 20.463 51.3666 20.7926C51.3407 21.4926 50.7666 22.0407 50.0703 22.0407L50.074 22.0444Z" fill="#272727"/>
<path d="M40.0001 43.2074C16.8149 43.2074 4.80377 35.2074 4.30377 34.8667C3.99266 34.6556 3.78895 34.3185 3.74451 33.9482C3.70006 33.5778 3.81858 33.2037 4.07414 32.9259C10.1186 26.2778 22.7371 26.2963 37.3519 26.3222C39.1038 26.3222 40.9001 26.3222 42.6519 26.3222C57.2667 26.3 69.889 26.2815 75.9334 32.9259C76.1852 33.2037 76.3038 33.5778 76.263 33.9482C76.2223 34.3185 76.0149 34.6556 75.7038 34.8667C75.2038 35.2074 63.1927 43.2074 40.0038 43.2074H40.0001ZM7.17414 33.5556C8.57414 34.3148 11.0001 35.5 14.4149 36.6704C19.6482 38.4704 28.3371 40.6148 40.0001 40.6148C51.663 40.6148 60.3556 38.4704 65.5889 36.6704C69.0001 35.4963 71.4297 34.3148 72.8297 33.5556C67.0704 28.8778 55.6889 28.8926 42.6556 28.9148C40.9038 28.9148 39.1038 28.9148 37.3482 28.9148C24.3149 28.8926 12.9334 28.8778 7.17414 33.5556Z" fill="#272727"/>
<path d="M78.3334 43.9964C78.3334 61.1519 61.1742 75.0594 40.0001 75.0594C18.826 75.0594 1.66675 61.1519 1.66675 43.9964C1.66675 39.4556 2.87045 36.1705 5.03341 33.7964C5.03341 33.7964 16.9482 41.9112 40.0001 41.9112C63.0519 41.9112 74.9705 33.7964 74.9705 33.7964C77.1297 36.1705 78.3334 39.4556 78.3334 43.9964Z" fill="#81A5B5"/>
<path d="M40 76.3556C18.1481 76.3556 0.370361 61.8408 0.370361 43.9964C0.370361 39.2815 1.58147 35.6593 4.07406 32.9223C4.5074 32.4445 5.22962 32.3593 5.76295 32.7223C5.87777 32.8001 17.6815 40.6112 40 40.6112C62.3185 40.6112 74.1259 32.8001 74.2407 32.7186C74.7741 32.3556 75.4926 32.4408 75.9259 32.9186C78.4148 35.6556 79.6259 39.2778 79.6259 43.9927C79.6259 61.8371 61.8481 76.3519 39.9963 76.3519L40 76.3556ZM5.31481 35.4927C3.73332 37.6371 2.96295 40.4334 2.96295 43.9964C2.96295 60.4112 19.5778 73.763 40 73.763C60.4222 73.763 77.037 60.4112 77.037 43.9964C77.037 40.4334 76.2667 37.6371 74.6852 35.4927C71.3148 37.4445 59.6852 43.2075 40 43.2075C20.3148 43.2075 8.68518 37.4445 5.31481 35.4927Z" fill="#272727"/>
<path d="M65.2852 67.3409C58.5371 72.1446 49.6926 75.0631 40 75.0631C30.3074 75.0631 21.463 72.1446 14.7148 67.3409C16.0371 62.8631 19.9963 56.7483 31.7852 56.7483C35.1074 56.7483 37.8037 57.2335 40 58.0335C42.1889 57.2372 44.8852 56.7483 48.2074 56.7483C59.9926 56.7483 63.9593 62.8668 65.2852 67.3409Z" fill="#FF969C"/>
<path d="M40 76.3556C30.426 76.3556 21.1778 73.5297 13.963 68.3927C13.5111 68.0705 13.3148 67.5001 13.4704 66.9705C16.4334 56.9445 26.2148 55.4482 31.7815 55.4482C34.8482 55.4482 37.6074 55.8556 39.9963 56.6556C42.3778 55.8556 45.1371 55.4482 48.2037 55.4482C53.7741 55.4482 63.5593 56.9445 66.5222 66.9705C66.6778 67.5001 66.4815 68.0742 66.0297 68.3927C58.8148 73.526 49.5704 76.3556 39.9926 76.3556H40ZM16.2519 66.8223C22.9111 71.3038 31.3037 73.7631 40 73.7631C48.6963 73.7631 57.0889 71.3038 63.7482 66.8223C62.2037 62.626 58.226 58.0371 48.2074 58.0371C45.2519 58.0371 42.6371 58.4445 40.4445 59.2445C40.1593 59.3482 39.8445 59.3482 39.5593 59.2445C37.3556 58.4445 34.7408 58.0371 31.7852 58.0371C21.7704 58.0371 17.7926 62.6223 16.2519 66.8223Z" fill="#272727"/>
<path d="M39.9999 65.4408C39.2851 65.4408 38.7036 64.8593 38.7036 64.1445V58.0297C38.7036 57.3149 39.2851 56.7334 39.9999 56.7334C40.7147 56.7334 41.2962 57.3149 41.2962 58.0297V64.1445C41.2962 64.8593 40.7147 65.4408 39.9999 65.4408Z" fill="#272727"/>
</svg>
