<svg width="80" height="80" viewBox="0 0 80 80" fill="none" xmlns="http://www.w3.org/2000/svg">
<path d="M29.4 21.9222C28.7 21.9222 28.1222 21.3629 28.1037 20.6592C28.0926 20.3333 27.7667 12.5888 20.0482 11.2296C12.3185 9.86662 9.26667 17.0296 9.14074 17.3333C8.86667 17.9925 8.11111 18.3111 7.45185 18.0407C6.78889 17.7703 6.47408 17.0185 6.74074 16.3555C8.06667 13.0925 12.6444 7.29254 20.4963 8.67402C28.3593 10.0592 30.6037 17.0777 30.6926 20.5925C30.7111 21.3074 30.1444 21.9037 29.4296 21.9222C29.4185 21.9222 29.4074 21.9222 29.3963 21.9222H29.4Z" fill="#272727"/>
<path d="M50.074 22.0444C50.074 22.0444 50.0407 22.0444 50.0259 22.0444C49.3111 22.0185 48.7518 21.4185 48.7777 20.7C48.9074 17.1815 51.2259 10.163 59.0777 8.77778C66.9407 7.39259 71.4481 13.2148 72.737 16.4889C72.9999 17.1556 72.6703 17.9074 72.0036 18.1704C71.337 18.4333 70.5851 18.1037 70.3222 17.437C70.1999 17.1333 67.2444 9.97037 59.5259 11.3296C51.7518 12.7 51.3777 20.463 51.3666 20.7926C51.3407 21.4926 50.7666 22.0407 50.0703 22.0407L50.074 22.0444Z" fill="#272727"/>
<path d="M40 76.3555C18.1481 76.3555 0.370361 61.8407 0.370361 43.9963C0.370361 39.0185 1.72221 35.2481 4.50369 32.4703C10.7037 26.2815 23.0518 26.3 37.3518 26.3222C39.1 26.3222 40.8963 26.3222 42.6444 26.3222C56.9444 26.3 69.2926 26.2815 75.4926 32.4703C78.2741 35.2481 79.6259 39.0185 79.6259 43.9963C79.6259 61.8407 61.8481 76.3555 39.9963 76.3555H40ZM34.8111 28.9111C22.1778 28.9111 11.437 29.2111 6.33703 34.3037C4.06666 36.5703 2.96295 39.7407 2.96295 43.9963C2.96295 60.4111 19.5778 73.7629 40 73.7629C60.4222 73.7629 77.037 60.4074 77.037 43.9963C77.037 39.7407 75.9333 36.5703 73.6629 34.3037C68.2259 28.8741 56.3741 28.8926 42.6518 28.9148C40.9 28.9148 39.1037 28.9148 37.3518 28.9148C36.5 28.9148 35.6518 28.9148 34.8148 28.9148L34.8111 28.9111Z" fill="#272727"/>
<path d="M40 43.2111C16.8111 43.2111 4.8 35.2111 4.3 34.8704C3.70741 34.4667 3.55556 33.6593 3.95926 33.0704C4.36296 32.4778 5.16667 32.3259 5.75926 32.7296C5.78889 32.7482 8.74074 34.7259 14.4111 36.6778C19.6444 38.4778 28.3333 40.6259 40 40.6259C51.6667 40.6259 60.3556 38.4815 65.5889 36.6778C71.2593 34.7259 74.2111 32.7519 74.2407 32.7296C74.8333 32.3296 75.637 32.4815 76.0407 33.0741C76.4444 33.6667 76.2889 34.4704 75.7 34.8741C75.2 35.2148 63.1889 43.2148 40 43.2148V43.2111Z" fill="#272727"/>
<path d="M40 76.3555C30.426 76.3555 21.1778 73.5296 13.963 68.3926C13.5111 68.0703 13.3148 67.5 13.4704 66.9703C16.4334 56.9444 26.2148 55.4481 31.7815 55.4481C34.8482 55.4481 37.6074 55.8555 39.9963 56.6555C42.3778 55.8555 45.1371 55.4481 48.2037 55.4481C53.7741 55.4481 63.5593 56.9444 66.5222 66.9703C66.6778 67.5 66.4815 68.074 66.0297 68.3926C58.8148 73.5259 49.5704 76.3555 39.9926 76.3555H40ZM16.2519 66.8222C22.9111 71.3037 31.3037 73.7629 40 73.7629C48.6963 73.7629 57.0889 71.3037 63.7482 66.8222C62.2037 62.6259 58.226 58.037 48.2074 58.037C45.2519 58.037 42.6371 58.4444 40.4445 59.2444C40.1593 59.3481 39.8445 59.3481 39.5593 59.2444C37.3556 58.4444 34.7408 58.037 31.7852 58.037C21.7704 58.037 17.7926 62.6222 16.2519 66.8185V66.8222Z" fill="#272727"/>
<path d="M39.9999 65.4407C39.2851 65.4407 38.7036 64.8592 38.7036 64.1444V58.0296C38.7036 57.3148 39.2851 56.7333 39.9999 56.7333C40.7147 56.7333 41.2962 57.3148 41.2962 58.0296V64.1444C41.2962 64.8592 40.7147 65.4407 39.9999 65.4407Z" fill="#272727"/>
</svg>
