<svg width="80" height="80" viewBox="0 0 80 80" fill="none" xmlns="http://www.w3.org/2000/svg">
<path d="M19.8814 78.3295C29.6098 78.3295 37.4962 70.4431 37.4962 60.7147C37.4962 50.9863 29.6098 43.0999 19.8814 43.0999C10.153 43.0999 2.2666 50.9863 2.2666 60.7147C2.2666 70.4431 10.153 78.3295 19.8814 78.3295Z" fill="#FF969C"/>
<path d="M19.9185 79.6333C18.5074 79.6333 17.0852 79.474 15.674 79.1518C10.7481 78.0259 6.55553 75.0518 3.87034 70.774C1.18146 66.4962 0.322197 61.4296 1.44812 56.5036C2.57405 51.5777 5.54812 47.3851 9.8259 44.6999C14.1037 42.011 19.1703 41.1518 24.0963 42.2777C29.0222 43.4036 33.2148 46.3777 35.9 50.6555C38.5889 54.9333 39.4481 59.9999 38.3222 64.9259C37.1963 69.8518 34.2222 74.0444 29.9444 76.7296C26.8926 78.6481 23.437 79.6333 19.9185 79.6333ZM19.8518 44.3888C16.8148 44.3888 13.837 45.2407 11.2037 46.8962C7.51109 49.2147 4.94442 52.8333 3.97405 57.0814C3.00368 61.3296 3.74812 65.7036 6.06664 69.3962C8.38516 73.0888 12.0037 75.6555 16.2518 76.6259C20.5 77.5962 24.874 76.8518 28.5666 74.5333C32.2592 72.2148 34.8259 68.5962 35.7963 64.3481C36.7666 60.0999 36.0222 55.7259 33.7037 52.0333C31.3852 48.3407 27.7666 45.774 23.5185 44.8036C22.3 44.5259 21.074 44.3888 19.8555 44.3888H19.8518Z" fill="#272727"/>
<path d="M55.5407 3.64435C55.6518 3.57398 55.7592 3.51102 55.8629 3.44805C55.9518 3.3962 56.0333 3.34805 56.1148 3.30361C56.1629 3.27398 56.2074 3.24805 56.2518 3.22583C56.2852 3.27768 56.3185 3.33324 56.3518 3.38879C56.4 3.46657 56.4518 3.55176 56.5037 3.64064C56.5629 3.74435 56.6259 3.84805 56.6889 3.96287C56.8852 4.2999 57.0963 4.6925 57.3185 5.12213C57.7926 6.05916 58.2889 7.18879 58.6852 8.44065C58.7741 8.71472 58.8555 8.9962 58.9296 9.28509C59.1259 10.0147 59.2778 10.774 59.3666 11.5555C59.3963 11.8332 59.4222 12.1147 59.437 12.3999C59.4518 12.6703 59.4592 12.9406 59.4518 13.2147C59.4407 14.0592 59.3407 14.911 59.1259 15.7518C58.8481 16.8295 58.3963 17.8332 57.8407 18.7518C57.6852 19.0073 57.5148 19.2629 57.3444 19.5073C57.1778 19.7481 57 19.9814 56.8185 20.211C54.737 22.8184 51.9481 24.5814 50.5815 25.3518C49.7481 24.0221 48.1555 21.1481 47.5852 17.8629C47.537 17.5777 47.4926 17.2851 47.4592 16.9925C47.4259 16.6962 47.4 16.3925 47.3889 16.0925C47.337 15.011 47.4222 13.9147 47.7 12.8258C47.9148 11.9851 48.237 11.1888 48.6333 10.4443C48.7592 10.1999 48.8963 9.96657 49.0407 9.73694C49.1889 9.4962 49.3481 9.26287 49.5074 9.03324C49.9592 8.3962 50.4555 7.80731 50.9778 7.26287C51.1778 7.04435 51.3889 6.84064 51.5963 6.64064C52.5592 5.71842 53.5555 4.95546 54.4333 4.35546C54.8296 4.08509 55.2 3.84805 55.5333 3.64435H55.5407Z" fill="#C3D65D"/>
<path d="M50.5889 26.6444C50.1556 26.6444 49.7334 26.4259 49.4889 26.037C48.563 24.5592 46.9186 21.5555 46.3149 18.0814C46.2593 17.7629 46.2149 17.4444 46.1778 17.137C46.1408 16.8296 46.1149 16.5036 46.1 16.1518C46.0408 14.8777 46.1593 13.6518 46.4519 12.5036C46.6815 11.6073 47.0334 10.7073 47.4963 9.83697C47.626 9.59252 47.7704 9.33697 47.9445 9.05919C48.1074 8.79993 48.2778 8.54437 48.4556 8.28882C48.9186 7.63326 49.4556 6.98511 50.0482 6.3666C50.2667 6.12956 50.5037 5.89993 50.7037 5.70734C51.6037 4.84808 52.6148 4.03326 53.7074 3.28511C54.0741 3.03326 54.463 2.78511 54.8556 2.54067C54.9778 2.4666 55.0926 2.39623 55.2037 2.32956C55.2963 2.274 55.3889 2.22215 55.4778 2.1703L55.5852 2.10734C56.1852 1.7666 56.9667 1.94067 57.3408 2.52215C57.3778 2.58141 57.4186 2.64437 57.4556 2.70734L57.6778 3.07771C57.726 3.15919 57.7741 3.24067 57.8186 3.32585C58.0334 3.69993 58.2556 4.11104 58.4704 4.52956C59.0667 5.70734 59.5519 6.88882 59.9186 8.04437C60.0149 8.34067 60.1037 8.64808 60.1815 8.95548C60.4 9.77771 60.5593 10.6036 60.6519 11.3999C60.6889 11.7296 60.7149 12.0296 60.7297 12.3222C60.7482 12.6555 60.7519 12.9518 60.7482 13.2333C60.7371 14.2147 60.6111 15.1703 60.3815 16.0703C60.0926 17.1999 59.6111 18.3296 58.9482 19.4222C58.7778 19.7036 58.5926 19.9851 58.3963 20.2555C58.2334 20.4925 58.0445 20.7444 57.8297 21.0147C55.6297 23.7666 52.7408 25.6184 51.2149 26.4777C51.0149 26.5888 50.7963 26.6444 50.5815 26.6444H50.5889ZM55.7963 5.01104C55.5852 5.14808 55.3778 5.28141 55.1741 5.42215C54.1963 6.09252 53.2963 6.81474 52.5 7.574C52.3297 7.73697 52.126 7.93697 51.9371 8.14067C51.4148 8.68511 50.963 9.22956 50.5741 9.77771C50.4297 9.98511 50.2852 10.1999 50.1482 10.4184C50.0111 10.6407 49.8926 10.8481 49.7889 11.0444C49.4186 11.7407 49.1408 12.4444 48.963 13.1444C48.7334 14.0407 48.6408 15.0073 48.6889 16.0259C48.7037 16.3184 48.7223 16.5851 48.7519 16.837C48.7815 17.0999 48.8186 17.3666 48.8667 17.637C49.2778 20.0036 50.2852 22.174 51.0445 23.5592C52.4482 22.6629 54.3223 21.2592 55.8111 19.3962C55.9889 19.174 56.1408 18.9666 56.2815 18.7666C56.4482 18.5296 56.6 18.2999 56.7371 18.074C57.263 17.2036 57.6482 16.311 57.8741 15.4259C58.0519 14.7259 58.1482 13.9777 58.1593 13.1925C58.163 12.9666 58.1593 12.7259 58.1445 12.4592C58.1297 12.2073 58.1074 11.9481 58.0778 11.6925C58 11.0259 57.863 10.3222 57.6741 9.61474C57.6037 9.34808 57.5297 9.08882 57.4482 8.83697C57.1223 7.80734 56.6889 6.75548 56.1556 5.70363C56.0371 5.4703 55.9149 5.23697 55.7889 5.01104H55.7963Z" fill="#272727"/>
<path d="M47.7407 78.3333C51.7397 78.3333 54.9815 75.0915 54.9815 71.0925C54.9815 67.0936 51.7397 63.8518 47.7407 63.8518C43.7418 63.8518 40.5 67.0936 40.5 71.0925C40.5 75.0915 43.7418 78.3333 47.7407 78.3333Z" fill="#81A5B5"/>
<path d="M47.7406 79.6295C43.0332 79.6295 39.2036 75.7999 39.2036 71.0925C39.2036 66.3851 43.0332 62.5554 47.7406 62.5554C52.4481 62.5554 56.2777 66.3851 56.2777 71.0925C56.2777 75.7999 52.4481 79.6295 47.7406 79.6295ZM47.7406 65.148C44.4629 65.148 41.7962 67.8147 41.7962 71.0925C41.7962 74.3702 44.4629 77.0369 47.7406 77.0369C51.0184 77.0369 53.6851 74.3702 53.6851 71.0925C53.6851 67.8147 51.0184 65.148 47.7406 65.148Z" fill="#272727"/>
<path d="M52.8221 68.6482C57.2936 68.6482 60.9184 64.8957 60.9184 60.2667C60.9184 55.6378 57.2936 51.8853 52.8221 51.8853C48.3507 51.8853 44.7258 55.6378 44.7258 60.2667C44.7258 64.8957 48.3507 68.6482 52.8221 68.6482Z" fill="#81A5B5"/>
<path d="M52.822 69.9444C47.6443 69.9444 43.4294 65.6037 43.4294 60.2666C43.4294 54.9296 47.6406 50.5889 52.822 50.5889C58.0035 50.5889 62.2146 54.9296 62.2146 60.2666C62.2146 65.6037 58.0035 69.9444 52.822 69.9444ZM52.822 53.1778C49.0739 53.1778 46.022 56.3555 46.022 60.2629C46.022 64.1704 49.0702 67.3481 52.822 67.3481C56.5739 67.3481 59.622 64.1704 59.622 60.2629C59.622 56.3555 56.5739 53.1778 52.822 53.1778Z" fill="#272727"/>
<path d="M42.2853 68.6482C46.7567 68.6482 50.3816 64.8957 50.3816 60.2667C50.3816 55.6378 46.7567 51.8853 42.2853 51.8853C37.8138 51.8853 34.189 55.6378 34.189 60.2667C34.189 64.8957 37.8138 68.6482 42.2853 68.6482Z" fill="#81A5B5"/>
<path d="M42.2852 69.9444C37.1074 69.9444 32.8926 65.6037 32.8926 60.2666C32.8926 54.9296 37.1037 50.5889 42.2852 50.5889C47.4667 50.5889 51.6778 54.9296 51.6778 60.2666C51.6778 65.6037 47.4667 69.9444 42.2852 69.9444ZM42.2852 53.1778C38.537 53.1778 35.4852 56.3555 35.4852 60.2629C35.4852 64.1704 38.5333 67.3481 42.2852 67.3481C46.037 67.3481 49.0852 64.1704 49.0852 60.2629C49.0852 56.3555 46.037 53.1778 42.2852 53.1778Z" fill="#272727"/>
<path d="M36.2556 59.7666C40.6472 59.7666 44.2074 56.0141 44.2074 51.3851C44.2074 46.7562 40.6472 43.0037 36.2556 43.0037C31.8639 43.0037 28.3037 46.7562 28.3037 51.3851C28.3037 56.0141 31.8639 59.7666 36.2556 59.7666Z" fill="#81A5B5"/>
<path d="M36.2555 61.0667C31.1555 61.0667 27.0073 56.726 27.0073 51.389C27.0073 46.0519 31.1555 41.7112 36.2555 41.7112C41.3555 41.7112 45.5036 46.0519 45.5036 51.389C45.5036 56.726 41.3555 61.0667 36.2555 61.0667ZM36.2555 44.3001C32.5851 44.3001 29.5999 47.4778 29.5999 51.3853C29.5999 55.2927 32.5851 58.4704 36.2555 58.4704C39.9258 58.4704 42.911 55.2927 42.911 51.3853C42.911 47.4778 39.9258 44.3001 36.2555 44.3001Z" fill="#272727"/>
<path d="M58.2668 59.7666C62.6585 59.7666 66.2186 56.0141 66.2186 51.3851C66.2186 46.7562 62.6585 43.0037 58.2668 43.0037C53.8751 43.0037 50.3149 46.7562 50.3149 51.3851C50.3149 56.0141 53.8751 59.7666 58.2668 59.7666Z" fill="#81A5B5"/>
<path d="M58.2667 61.0667C53.1667 61.0667 49.0186 56.726 49.0186 51.389C49.0186 46.0519 53.1667 41.7112 58.2667 41.7112C63.3667 41.7112 67.5148 46.0519 67.5148 51.389C67.5148 56.726 63.3667 61.0667 58.2667 61.0667ZM58.2667 44.3001C54.5963 44.3001 51.6111 47.4778 51.6111 51.3853C51.6111 55.2927 54.5963 58.4704 58.2667 58.4704C61.9371 58.4704 64.9223 55.2927 64.9223 51.3853C64.9223 47.4778 61.9371 44.3001 58.2667 44.3001Z" fill="#272727"/>
<path d="M47.7409 59.7666C52.3698 59.7666 56.1223 56.0141 56.1223 51.3851C56.1223 46.7562 52.3698 43.0037 47.7409 43.0037C43.1119 43.0037 39.3594 46.7562 39.3594 51.3851C39.3594 56.0141 43.1119 59.7666 47.7409 59.7666Z" fill="#81A5B5"/>
<path d="M47.7408 61.0667C42.4037 61.0667 38.063 56.726 38.063 51.389C38.063 46.0519 42.4037 41.7112 47.7408 41.7112C53.0778 41.7112 57.4185 46.0519 57.4185 51.389C57.4185 56.726 53.0778 61.0667 47.7408 61.0667ZM47.7408 44.3001C43.8334 44.3001 40.6556 47.4778 40.6556 51.3853C40.6556 55.2927 43.8334 58.4704 47.7408 58.4704C51.6482 58.4704 54.826 55.2927 54.826 51.3853C54.826 47.4778 51.6482 44.3001 47.7408 44.3001Z" fill="#272727"/>
<path d="M30.9482 49.0481C35.3276 49.0481 38.8778 45.2956 38.8778 40.6666C38.8778 36.0377 35.3276 32.2852 30.9482 32.2852C26.5688 32.2852 23.0186 36.0377 23.0186 40.6666C23.0186 45.2956 26.5688 49.0481 30.9482 49.0481Z" fill="#81A5B5"/>
<path d="M30.9481 50.3482C25.8629 50.3482 21.7222 46.0075 21.7222 40.6705C21.7222 35.3334 25.8592 30.9927 30.9481 30.9927C36.037 30.9927 40.174 35.3334 40.174 40.6705C40.174 46.0075 36.037 50.3482 30.9481 50.3482ZM30.9481 33.5816C27.2925 33.5816 24.3148 36.7593 24.3148 40.6668C24.3148 44.5742 27.2888 47.7519 30.9481 47.7519C34.6074 47.7519 37.5814 44.5742 37.5814 40.6668C37.5814 36.7593 34.6074 33.5816 30.9481 33.5816Z" fill="#272727"/>
<path d="M41.5111 48.4258C46.1401 48.4258 49.8926 44.6733 49.8926 40.0443C49.8926 35.4154 46.1401 31.6628 41.5111 31.6628C36.8822 31.6628 33.1296 35.4154 33.1296 40.0443C33.1296 44.6733 36.8822 48.4258 41.5111 48.4258Z" fill="#81A5B5"/>
<path d="M41.511 49.7259C36.174 49.7259 31.8333 45.3852 31.8333 40.0481C31.8333 34.7111 36.174 30.3704 41.511 30.3704C46.8481 30.3704 51.1888 34.7111 51.1888 40.0481C51.1888 45.3852 46.8481 49.7259 41.511 49.7259ZM41.511 32.9592C37.6036 32.9592 34.4258 36.137 34.4258 40.0444C34.4258 43.9518 37.6036 47.1296 41.511 47.1296C45.4184 47.1296 48.5962 43.9518 48.5962 40.0444C48.5962 36.137 45.4184 32.9592 41.511 32.9592Z" fill="#272727"/>
<path d="M63.5705 49.0481C67.9499 49.0481 71.5001 45.2956 71.5001 40.6666C71.5001 36.0377 67.9499 32.2852 63.5705 32.2852C59.1911 32.2852 55.6409 36.0377 55.6409 40.6666C55.6409 45.2956 59.1911 49.0481 63.5705 49.0481Z" fill="#81A5B5"/>
<path d="M63.5704 50.3482C58.4852 50.3482 54.3445 46.0075 54.3445 40.6705C54.3445 35.3334 58.4815 30.9927 63.5704 30.9927C68.6593 30.9927 72.7963 35.3334 72.7963 40.6705C72.7963 46.0075 68.6593 50.3482 63.5704 50.3482ZM63.5704 33.5816C59.9149 33.5816 56.9371 36.7593 56.9371 40.6668C56.9371 44.5742 59.9112 47.7519 63.5704 47.7519C67.2297 47.7519 70.2037 44.5742 70.2037 40.6668C70.2037 36.7593 67.2297 33.5816 63.5704 33.5816Z" fill="#272727"/>
<path d="M53.0075 48.4258C57.6364 48.4258 61.3889 44.6733 61.3889 40.0443C61.3889 35.4154 57.6364 31.6628 53.0075 31.6628C48.3785 31.6628 44.626 35.4154 44.626 40.0443C44.626 44.6733 48.3785 48.4258 53.0075 48.4258Z" fill="#81A5B5"/>
<path d="M53.0074 49.7259C47.6703 49.7259 43.3296 45.3852 43.3296 40.0481C43.3296 34.7111 47.6703 30.3704 53.0074 30.3704C58.3444 30.3704 62.6851 34.7111 62.6851 40.0481C62.6851 45.3852 58.3444 49.7259 53.0074 49.7259ZM53.0074 32.9592C49.1 32.9592 45.9222 36.137 45.9222 40.0444C45.9222 43.9518 49.1 47.1296 53.0074 47.1296C56.9148 47.1296 60.0926 43.9518 60.0926 40.0444C60.0926 36.137 56.9148 32.9592 53.0074 32.9592Z" fill="#272727"/>
<path d="M24.2408 39.5999C28.3604 39.5999 31.7 35.8474 31.7 31.2184C31.7 26.5894 28.3604 22.8369 24.2408 22.8369C20.1211 22.8369 16.7815 26.5894 16.7815 31.2184C16.7815 35.8474 20.1211 39.5999 24.2408 39.5999Z" fill="#81A5B5"/>
<path d="M24.2407 40.9C19.4147 40.9 15.4851 36.5592 15.4851 31.2222C15.4851 25.8852 19.411 21.5444 24.2407 21.5444C29.0703 21.5444 32.9962 25.8852 32.9962 31.2222C32.9962 36.5592 29.0703 40.9 24.2407 40.9ZM24.2407 24.1333C20.8444 24.1333 18.0777 27.3111 18.0777 31.2185C18.0777 35.1259 20.8407 38.3037 24.2407 38.3037C27.6407 38.3037 30.4036 35.1259 30.4036 31.2185C30.4036 27.3111 27.6407 24.1333 24.2407 24.1333Z" fill="#272727"/>
<path d="M70.2815 39.5999C74.4012 39.5999 77.7408 35.8474 77.7408 31.2184C77.7408 26.5894 74.4012 22.8369 70.2815 22.8369C66.1619 22.8369 62.8223 26.5894 62.8223 31.2184C62.8223 35.8474 66.1619 39.5999 70.2815 39.5999Z" fill="#81A5B5"/>
<path d="M70.2814 40.9C65.4555 40.9 61.5259 36.5592 61.5259 31.2222C61.5259 25.8852 65.4518 21.5444 70.2814 21.5444C75.1111 21.5444 79.037 25.8852 79.037 31.2222C79.037 36.5592 75.1111 40.9 70.2814 40.9ZM70.2814 24.1333C66.8851 24.1333 64.1185 27.3111 64.1185 31.2185C64.1185 35.1259 66.8814 38.3037 70.2814 38.3037C73.6814 38.3037 76.4444 35.1259 76.4444 31.2185C76.4444 27.3111 73.6814 24.1333 70.2814 24.1333Z" fill="#272727"/>
<path d="M59.2482 38.3001C63.7831 38.3001 67.4593 34.5476 67.4593 29.9186C67.4593 25.2896 63.7831 21.5371 59.2482 21.5371C54.7133 21.5371 51.0371 25.2896 51.0371 29.9186C51.0371 34.5476 54.7133 38.3001 59.2482 38.3001Z" fill="#81A5B5"/>
<path d="M59.2481 39.5963C54.0037 39.5963 49.7407 35.2555 49.7407 29.9185C49.7407 24.5815 54.0074 20.2407 59.2481 20.2407C64.4889 20.2407 68.7555 24.5815 68.7555 29.9185C68.7555 35.2555 64.4889 39.5963 59.2481 39.5963ZM59.2481 22.8296C55.4333 22.8296 52.3333 26.0074 52.3333 29.9148C52.3333 33.8222 55.437 37 59.2481 37C63.0592 37 66.1629 33.8222 66.1629 29.9148C66.1629 26.0074 63.0592 22.8296 59.2481 22.8296Z" fill="#272727"/>
<path d="M35.2704 38.3001C39.8053 38.3001 43.4816 34.5476 43.4816 29.9186C43.4816 25.2896 39.8053 21.5371 35.2704 21.5371C30.7356 21.5371 27.0593 25.2896 27.0593 29.9186C27.0593 34.5476 30.7356 38.3001 35.2704 38.3001Z" fill="#81A5B5"/>
<path d="M35.2703 39.5963C30.0259 39.5963 25.7629 35.2555 25.7629 29.9185C25.7629 24.5815 30.0296 20.2407 35.2703 20.2407C40.5111 20.2407 44.7778 24.5815 44.7778 29.9185C44.7778 35.2555 40.5111 39.5963 35.2703 39.5963ZM35.2703 22.8296C31.4555 22.8296 28.3555 26.0074 28.3555 29.9148C28.3555 33.8222 31.4592 37 35.2703 37C39.0815 37 42.1852 33.8222 42.1852 29.9148C42.1852 26.0074 39.0815 22.8296 35.2703 22.8296Z" fill="#272727"/>
<path d="M30.8443 2.7186C30.874 2.55193 30.9036 2.39267 30.9332 2.23712C30.9592 2.10749 30.9814 1.98527 31.0073 1.86675C31.0221 1.79638 31.0332 1.72971 31.048 1.66675C31.1258 1.67786 31.2073 1.69267 31.2925 1.70749C31.411 1.72971 31.5369 1.75193 31.6666 1.77416C31.8184 1.80379 31.974 1.83341 32.1369 1.86675C32.6332 1.96675 33.1925 2.09267 33.7999 2.25193C35.111 2.59267 36.6369 3.07786 38.1925 3.76675C38.5369 3.9149 38.8777 4.07786 39.2221 4.25193C40.0962 4.68897 40.9666 5.18897 41.7999 5.77045C42.0962 5.97786 42.3925 6.19638 42.6814 6.4223C42.9554 6.64082 43.2258 6.86675 43.4888 7.10379C44.2962 7.83712 45.0406 8.65934 45.674 9.58897C46.4851 10.7816 47.0666 12.0779 47.4851 13.4038C47.5999 13.7779 47.7036 14.1556 47.7925 14.5334C47.8851 14.9038 47.9592 15.2742 48.0258 15.6445C48.774 19.8964 48.0999 24.1112 47.6777 26.0927C45.674 25.763 41.5221 24.8482 37.848 22.5927C37.5295 22.3964 37.211 22.189 36.8999 21.9705C36.5814 21.7482 36.2703 21.5149 35.9666 21.2705C34.874 20.3964 33.8814 19.3705 33.0666 18.1742C32.4332 17.2445 31.9406 16.2519 31.5554 15.2297C31.4295 14.9001 31.3184 14.563 31.2147 14.2297C31.111 13.8816 31.0184 13.526 30.9332 13.1742C30.6999 12.1927 30.5554 11.2038 30.474 10.2334C30.4369 9.85193 30.4147 9.47415 30.3999 9.10008C30.3332 7.37416 30.4406 5.75564 30.611 4.39267C30.6851 3.77416 30.774 3.21119 30.8629 2.7186H30.8443Z" fill="#C3D65D"/>
<path d="M47.6667 27.3926C47.5963 27.3926 47.5259 27.3852 47.4555 27.3741C45.2555 27.0111 40.9926 26.0518 37.1593 23.6963C36.8037 23.4778 36.463 23.2555 36.1444 23.0333C35.8222 22.8111 35.4926 22.5629 35.1407 22.2815C33.8815 21.2703 32.8185 20.1333 31.9778 18.9037C31.3222 17.937 30.7667 16.8555 30.3259 15.6852C30.2037 15.3592 30.0815 15.0037 29.9593 14.6074C29.8518 14.2407 29.7481 13.8629 29.6555 13.4741C29.4222 12.4815 29.2555 11.4259 29.1667 10.3407C29.1259 9.92961 29.1037 9.50739 29.0889 9.15553C29.0259 7.56664 29.1 5.91109 29.3074 4.23331C29.3778 3.65924 29.463 3.09257 29.5667 2.49998C29.5963 2.3222 29.6296 2.15183 29.6593 1.98887C29.6852 1.86294 29.7111 1.73331 29.737 1.60739C29.7481 1.54813 29.7592 1.49257 29.7704 1.43702C29.9111 0.762941 30.563 0.28146 31.2444 0.385163C31.3296 0.399978 31.4222 0.414793 31.5148 0.429608L32.0592 0.529608C32.1741 0.55183 32.2926 0.574052 32.4111 0.599978C32.9555 0.711089 33.537 0.844423 34.1222 0.996274C35.7555 1.4222 37.3 1.95553 38.7148 2.57776C39.0815 2.73702 39.4481 2.91109 39.8074 3.09257C40.7778 3.57405 41.6963 4.1185 42.537 4.69998C42.8815 4.94072 43.1889 5.17035 43.4815 5.39998C43.8148 5.66294 44.1 5.90739 44.3592 6.14442C45.2815 6.97776 46.0815 7.89257 46.7407 8.85924C47.5704 10.0778 48.2333 11.4741 48.7148 13.0148C48.837 13.4148 48.9481 13.8222 49.0444 14.2333C49.1333 14.5889 49.2148 14.9815 49.2926 15.4111C50.0704 19.837 49.4037 24.1703 48.9333 26.3592C48.8037 26.9666 48.2667 27.3852 47.6667 27.3852V27.3926ZM32.0815 3.18146C32.0037 3.64442 31.937 4.09627 31.8815 4.54813C31.6889 6.08887 31.6222 7.60368 31.6778 9.04813C31.6926 9.35924 31.7111 9.72961 31.7481 10.1C31.8296 11.0815 31.9741 12.0074 32.1778 12.8741C32.2592 13.2148 32.3481 13.5444 32.4407 13.8592C32.5407 14.1926 32.6444 14.4926 32.7481 14.7666C33.1185 15.7481 33.5778 16.6481 34.1185 17.4444C34.8111 18.4629 35.7 19.4111 36.7593 20.2592C37.063 20.5037 37.3444 20.7148 37.6222 20.9074C37.9037 21.1037 38.2037 21.3 38.5148 21.4926C41.3555 23.237 44.4889 24.137 46.6333 24.5852C47 22.4148 47.3148 19.1555 46.737 15.8703C46.6704 15.5 46.6 15.1629 46.5222 14.8481C46.437 14.4778 46.3407 14.1296 46.237 13.7926C45.8333 12.5 45.2778 11.3296 44.5926 10.3222C44.0518 9.5259 43.3852 8.76665 42.6111 8.06665C42.3889 7.86665 42.1481 7.65924 41.8667 7.43702C41.6185 7.24072 41.3481 7.04072 41.0518 6.82961C40.3185 6.3222 39.5074 5.84442 38.6407 5.41109C38.3222 5.24813 37.9963 5.09627 37.6741 4.95553C36.3815 4.38516 34.9667 3.89627 33.4741 3.50739C33.0037 3.38516 32.537 3.27776 32.0815 3.18146Z" fill="#272727"/>
<path d="M47.2592 37.0557C51.8881 37.0557 55.6406 33.3032 55.6406 28.6742C55.6406 24.0452 51.8881 20.2927 47.2592 20.2927C42.6302 20.2927 38.8777 24.0452 38.8777 28.6742C38.8777 33.3032 42.6302 37.0557 47.2592 37.0557Z" fill="#81A5B5"/>
<path d="M47.2591 38.3519C41.922 38.3519 37.5813 34.0112 37.5813 28.6741C37.5813 23.3371 41.922 18.9963 47.2591 18.9963C52.5961 18.9963 56.9369 23.3371 56.9369 28.6741C56.9369 34.0112 52.5961 38.3519 47.2591 38.3519ZM47.2591 21.5852C43.3517 21.5852 40.1739 24.763 40.1739 28.6704C40.1739 32.5778 43.3517 35.7556 47.2591 35.7556C51.1665 35.7556 54.3443 32.5778 54.3443 28.6704C54.3443 24.763 51.1665 21.5852 47.2591 21.5852Z" fill="#272727"/>
<path d="M15.3569 55.4136C17.2177 54.2535 18.0999 52.3084 17.3272 51.0691C16.5546 49.8297 14.4198 49.7654 12.559 50.9254C10.6982 52.0855 9.81605 54.0306 10.5887 55.27C11.3613 56.5093 13.4962 56.5736 15.3569 55.4136Z" fill="#FF969C"/>
<path d="M12.6778 57.537C12.6259 57.537 12.5778 57.537 12.5259 57.537C11.1963 57.4963 10.0889 56.9222 9.48889 55.9555C8.88889 54.9889 8.85556 53.7444 9.40741 52.5333C9.88519 51.4815 10.7593 50.5222 11.8741 49.8259C14.3815 48.2629 17.2593 48.5074 18.4296 50.3815C19.0296 51.3481 19.063 52.5926 18.5111 53.8037C18.0333 54.8555 17.1593 55.8148 16.0444 56.5111C14.9778 57.174 13.7889 57.537 12.6778 57.537ZM15.237 51.3852C14.6889 51.3852 13.9778 51.5666 13.2482 52.0222C12.5741 52.4444 12.0333 53.0185 11.7704 53.6C11.5852 54.0074 11.5556 54.3629 11.6926 54.5815C11.8296 54.8 12.1593 54.9296 12.6074 54.9444C13.2445 54.9592 14 54.7333 14.6741 54.3111C15.3482 53.8889 15.8889 53.3148 16.1519 52.7333C16.337 52.3259 16.3667 51.9703 16.2296 51.7518C16.0926 51.5333 15.7296 51.3889 15.237 51.3889V51.3852Z" fill="#272727"/>
</svg>
