<svg width="80" height="80" viewBox="0 0 80 80" fill="none" xmlns="http://www.w3.org/2000/svg">
<path d="M1.6665 30.4111L55.7776 12.6296L78.3332 30.4111H1.6665Z" fill="#FFF194"/>
<path d="M78.3333 31.7075H1.66662C1.02958 31.7075 0.488842 31.2446 0.385138 30.6149C0.285138 29.9853 0.655509 29.3779 1.25921 29.1779L55.374 11.4001C55.7851 11.2631 56.2407 11.3446 56.5814 11.6149L79.137 29.3964C79.5703 29.7372 79.7407 30.3186 79.5592 30.8409C79.3777 31.3631 78.8851 31.7112 78.3333 31.7112V31.7075ZM9.76292 29.1149H74.5962L55.5222 14.0779L9.76292 29.1149Z" fill="#272727"/>
<path d="M78.3334 30.4112V67.3704H23.963C23.963 64.2964 21.4742 61.8038 18.3964 61.8038C15.3186 61.8038 12.826 64.2964 12.826 67.3704H1.66675V49.0408C4.74453 49.0408 7.23712 46.5482 7.23712 43.4741C7.23712 40.4001 4.74453 37.9038 1.66675 37.9038V30.4075H78.3334V30.4112Z" fill="#FFF194"/>
<path d="M78.3333 68.6666H23.963C23.2481 68.6666 22.6667 68.0852 22.6667 67.3703C22.6667 65.0148 20.7518 63.1 18.3963 63.1C16.0407 63.1 14.1222 65.0148 14.1222 67.3703C14.1222 68.0852 13.5407 68.6666 12.8259 68.6666H1.66666C0.951843 68.6666 0.370361 68.0852 0.370361 67.3703V49.0407C0.370361 48.3259 0.951843 47.7444 1.66666 47.7444C4.02221 47.7444 5.94073 45.8296 5.94073 43.474C5.94073 41.1185 4.02221 39.2 1.66666 39.2C0.951843 39.2 0.370361 38.6185 0.370361 37.9037V30.4074C0.370361 29.6926 0.951843 29.1111 1.66666 29.1111H78.3333C79.0481 29.1111 79.6296 29.6926 79.6296 30.4074V67.3666C79.6296 68.0815 79.0481 68.6629 78.3333 68.6629V68.6666ZM25.137 66.074H77.037V31.7074H2.96295V36.7333C6.12962 37.3407 8.53333 40.1333 8.53333 43.4778C8.53333 46.8222 6.13332 49.6111 2.96295 50.2185V66.0778H11.6555C12.263 62.9111 15.0555 60.5111 18.4 60.5111C21.7444 60.5111 24.5296 62.9111 25.1407 66.0778L25.137 66.074Z" fill="#272727"/>
<path d="M26.189 56.3333C23.6927 56.3333 21.6631 54.3037 21.6631 51.8074C21.6631 49.3111 23.6927 47.2815 26.189 47.2815C28.6853 47.2815 30.7149 49.3111 30.7149 51.8074C30.7149 54.3037 28.6853 56.3333 26.189 56.3333ZM26.189 49.8741C25.1223 49.8741 24.2557 50.7408 24.2557 51.8074C24.2557 52.8741 25.1223 53.7408 26.189 53.7408C27.2557 53.7408 28.1223 52.8741 28.1223 51.8074C28.1223 50.7408 27.2557 49.8741 26.189 49.8741Z" fill="#272727"/>
<path d="M48.326 44.7704C45.8297 44.7704 43.8 42.7407 43.8 40.2444C43.8 37.7481 45.8297 35.7185 48.326 35.7185C50.8223 35.7185 52.8519 37.7481 52.8519 40.2444C52.8519 42.7407 50.8223 44.7704 48.326 44.7704ZM48.326 38.3111C47.2593 38.3111 46.3926 39.1778 46.3926 40.2444C46.3926 41.3111 47.2593 42.1778 48.326 42.1778C49.3926 42.1778 50.2593 41.3111 50.2593 40.2444C50.2593 39.1778 49.3926 38.3111 48.326 38.3111Z" fill="#272727"/>
<path d="M61.0112 63.2592C56.589 63.2592 52.9927 59.6629 52.9927 55.2407C52.9927 50.8185 56.589 47.2222 61.0112 47.2222C65.4334 47.2222 69.0297 50.8185 69.0297 55.2407C69.0297 59.6629 65.4334 63.2592 61.0112 63.2592ZM61.0112 49.8111C58.0186 49.8111 55.5853 52.2444 55.5853 55.237C55.5853 58.2296 58.0186 60.6629 61.0112 60.6629C64.0038 60.6629 66.4371 58.2296 66.4371 55.237C66.4371 52.2444 64.0038 49.8111 61.0112 49.8111Z" fill="#272727"/>
<path d="M12.7852 56.3557C12.2074 56.3557 11.6778 55.9631 11.5296 55.3779C11.3556 54.6853 11.7741 53.9779 12.4704 53.8038L12.5556 53.7816C13.2482 53.6075 13.9556 54.026 14.1296 54.7223C14.3037 55.4149 13.8852 56.1223 13.1889 56.2964L13.1037 56.3186C12.9963 56.3446 12.8889 56.3594 12.7852 56.3594V56.3557Z" fill="#272727"/>
<path d="M31.0816 39.2111C30.5038 39.2111 29.9742 38.8186 29.826 38.2334C29.652 37.5408 30.0705 36.8334 30.7668 36.6593L30.852 36.6371C31.5483 36.463 32.252 36.8815 32.426 37.5778C32.6001 38.2704 32.1816 38.9778 31.4853 39.1519L31.4001 39.1741C31.2927 39.2 31.1853 39.2148 31.0816 39.2148V39.2111Z" fill="#272727"/>
<path d="M53.2408 21.611C52.663 21.611 52.1334 21.2185 51.9852 20.6333C51.8111 19.9407 52.2297 19.2333 52.926 19.0592L53.0111 19.037C53.7074 18.8629 54.4111 19.2814 54.5852 19.9777C54.7593 20.674 54.3408 21.3777 53.6445 21.5518L53.5593 21.574C53.4519 21.5999 53.3445 21.6147 53.2408 21.6147V21.611Z" fill="#272727"/>
<path d="M45.0518 26.4074C44.474 26.4074 43.9444 26.0148 43.7962 25.4297C43.6222 24.7371 44.0407 24.0297 44.737 23.8556L44.8222 23.8334C45.5148 23.6593 46.2222 24.0778 46.3962 24.7741C46.5703 25.4667 46.1518 26.1741 45.4555 26.3482L45.3703 26.3704C45.2629 26.3963 45.1555 26.4111 45.0518 26.4111V26.4074Z" fill="#272727"/>
<path d="M43.2444 60.1296C42.6667 60.1296 42.137 59.737 41.9889 59.1518C41.8148 58.4592 42.2333 57.7518 42.9296 57.5778L43.0148 57.5555C43.7074 57.3815 44.4148 57.8 44.5889 58.4963C44.7629 59.1889 44.3444 59.8963 43.6481 60.0703L43.5629 60.0926C43.4555 60.1185 43.3481 60.1333 43.2444 60.1333V60.1296Z" fill="#272727"/>
<path d="M70.9852 43.8444C70.4074 43.8444 69.8777 43.4518 69.7296 42.8667C69.5555 42.1741 69.974 41.4667 70.6703 41.2926L70.7555 41.2704C71.4518 41.0963 72.1555 41.5148 72.3296 42.2111C72.5037 42.9037 72.0852 43.6111 71.3889 43.7852L71.3037 43.8074C71.1963 43.8333 71.0889 43.8481 70.9852 43.8481V43.8444Z" fill="#272727"/>
</svg>
