<svg width="80" height="80" viewBox="0 0 80 80" fill="none" xmlns="http://www.w3.org/2000/svg">
<path d="M40.026 31.0926C42.2556 31.0926 44.1186 33.1444 43.8075 35.4148L39.9964 65.9296L36.1853 35.4148C35.9223 33.3111 37.4149 31.3926 39.5186 31.1296C39.689 31.1074 39.8556 31.0963 40.0223 31.0963L40.026 31.0926ZM40.0223 28.5037C39.7408 28.5037 39.4556 28.5222 39.1779 28.5593C37.4816 28.7778 35.9667 29.637 34.9186 30.9889C33.863 32.3444 33.4001 34.0296 33.6112 35.737L37.4223 66.2519C37.5853 67.5481 38.689 68.5222 39.9964 68.5222C41.3038 68.5222 42.4075 67.5481 42.5704 66.2519L46.3779 35.7519C46.6186 33.9519 46.0593 32.1185 44.8408 30.7222C43.6112 29.3111 41.8556 28.5 40.026 28.5L40.0223 28.5037Z" fill="#272727"/>
<path d="M40.0001 25.2518C39.4186 25.2518 38.9075 24.863 38.7519 24.3C36.826 17.3259 35.4853 15.9852 28.5112 14.0592C27.9482 13.9037 27.5593 13.3926 27.5593 12.8111C27.5593 12.2296 27.9482 11.7185 28.5112 11.563C35.4853 9.63703 36.826 8.29629 38.7519 1.32221C38.9075 0.75925 39.4186 0.370361 40.0001 0.370361C40.5815 0.370361 41.0927 0.75925 41.2482 1.32221C43.1741 8.29629 44.5149 9.63703 51.489 11.563C52.0519 11.7185 52.4408 12.2296 52.4408 12.8111C52.4408 13.3926 52.0519 13.9037 51.489 14.0592C44.5149 15.9852 43.1741 17.3259 41.2482 24.3C41.0927 24.863 40.5815 25.2518 40.0001 25.2518ZM33.0556 12.8111C36.7186 14.263 38.5482 16.0963 40.0001 19.7555C41.4519 16.0926 43.2853 14.263 46.9445 12.8111C43.2815 11.3593 41.4519 9.52592 40.0001 5.86666C38.5482 9.52962 36.7149 11.3593 33.0556 12.8111Z" fill="#272727"/>
<path d="M73.0298 41.5778C72.5224 41.5778 72.0372 41.2778 71.8335 40.7778L71.1039 39.0185C70.8298 38.3556 71.1446 37.6 71.8039 37.3259C72.4668 37.0518 73.2224 37.3667 73.4965 38.0259L74.2261 39.7852C74.5002 40.4481 74.1854 41.2037 73.5261 41.4778C73.3631 41.5444 73.1965 41.5778 73.0298 41.5778Z" fill="#272727"/>
<path d="M68.7149 31.1592C68.2075 31.1592 67.7223 30.8592 67.5186 30.3592L66.7889 28.5999C66.5149 27.937 66.8297 27.1814 67.4889 26.9073C68.1519 26.6333 68.9075 26.9481 69.1815 27.6073L69.9112 29.3666C70.1852 30.0296 69.8704 30.7851 69.2112 31.0592C69.0482 31.1259 68.8815 31.1592 68.7149 31.1592Z" fill="#272727"/>
<path d="M64.4186 38.011C63.9112 38.011 63.426 37.711 63.2223 37.211C62.9482 36.5481 63.263 35.7925 63.9223 35.5184L65.6815 34.7888C66.3445 34.5147 67.1001 34.8296 67.3741 35.4888C67.6482 36.1518 67.3334 36.9073 66.6741 37.1814L64.9149 37.911C64.7519 37.9777 64.5852 38.011 64.4186 38.011Z" fill="#272727"/>
<path d="M74.8407 33.6926C74.3333 33.6926 73.8481 33.3926 73.6444 32.8926C73.3703 32.2296 73.6851 31.474 74.3444 31.2L76.1037 30.4703C76.7666 30.1963 77.5222 30.5111 77.7963 31.1703C78.0703 31.8333 77.7555 32.5889 77.0963 32.8629L75.337 33.5926C75.174 33.6592 75.0074 33.6926 74.8407 33.6926Z" fill="#272727"/>
<path d="M66.1779 33.6926C66.0112 33.6926 65.8445 33.6592 65.6816 33.5926L63.9223 32.8629C63.2593 32.5889 62.9482 31.8296 63.2223 31.1704C63.4964 30.5074 64.2556 30.1963 64.9149 30.4704L66.6742 31.2C67.3371 31.4741 67.6482 32.2333 67.3742 32.8926C67.1668 33.3926 66.6853 33.6926 66.1779 33.6926Z" fill="#272727"/>
<path d="M76.5963 38.0111C76.4296 38.0111 76.263 37.9777 76.1 37.9111L74.3408 37.1814C73.6778 36.9074 73.3667 36.1481 73.6408 35.4888C73.9148 34.8259 74.6741 34.5148 75.3334 34.7888L77.0926 35.5185C77.7556 35.7925 78.0667 36.5518 77.7926 37.2111C77.5852 37.7111 77.1037 38.0111 76.5963 38.0111Z" fill="#272727"/>
<path d="M67.9852 41.5777C67.8186 41.5777 67.6519 41.5443 67.489 41.4777C66.826 41.2036 66.5149 40.4443 66.789 39.7851L67.5186 38.0258C67.7927 37.3629 68.5519 37.0517 69.2112 37.3258C69.8741 37.5999 70.1852 38.3592 69.9112 39.0184L69.1815 40.7777C68.9741 41.2777 68.4927 41.5777 67.9852 41.5777Z" fill="#272727"/>
<path d="M72.3002 31.1592C72.1335 31.1592 71.9669 31.1259 71.8039 31.0592C71.1409 30.7851 70.8298 30.0259 71.1039 29.3666L71.8335 27.6074C72.1076 26.9444 72.8669 26.6333 73.5261 26.9074C74.1891 27.1814 74.5002 27.9407 74.2261 28.6L73.4965 30.3592C73.2891 30.8592 72.8076 31.1592 72.3002 31.1592Z" fill="#272727"/>
<path d="M60.2666 43.9149C62.5444 43.9149 64.6555 46.4075 62.9999 49.0519C59.1407 53.1556 55.6258 57.5704 52.5333 62.3037C49.4703 66.9149 46.837 71.7667 44.6221 76.8556C45.8258 71.3889 47.5221 65.9778 49.6666 60.7926C51.8518 55.5037 54.411 50.3112 57.5221 45.4852C58.2777 44.3778 59.2851 43.9149 60.2666 43.9149ZM60.2666 41.3223C58.3296 41.3223 56.5481 42.3075 55.3777 44.026C55.3666 44.0445 55.3555 44.063 55.3407 44.0778C52.3851 48.6593 49.7444 53.8 47.2666 59.8C45.0703 65.1038 43.3258 70.6519 42.0851 76.2963C41.7999 77.6 42.5481 78.9075 43.8184 79.3186C44.0851 79.4038 44.3518 79.4445 44.6184 79.4445C45.6258 79.4445 46.574 78.8556 46.9962 77.8889C49.1592 72.9223 51.7481 68.163 54.6888 63.7371L54.6999 63.7223C57.6407 59.2297 61.0666 54.8889 64.8888 50.8297C65.0036 50.7075 65.1073 50.5741 65.1962 50.4297C66.4147 48.4852 66.5184 46.2889 65.474 44.4037C64.437 42.5334 62.3925 41.3223 60.2666 41.3223Z" fill="#272727"/>
<path d="M6.97036 41.5777C6.80369 41.5777 6.63702 41.5443 6.47406 41.4777C5.8111 41.2036 5.49999 40.4443 5.77406 39.7851L6.50369 38.0258C6.77777 37.3629 7.53702 37.0517 8.19628 37.3258C8.85925 37.5999 9.17036 38.3592 8.89628 39.0184L8.16665 40.7777C7.95925 41.2777 7.47777 41.5777 6.97036 41.5777Z" fill="#272727"/>
<path d="M11.2853 31.1592C11.1186 31.1592 10.952 31.1259 10.789 31.0592C10.126 30.7851 9.81493 30.0259 10.089 29.3666L10.8186 27.6074C11.0927 26.9444 11.852 26.6333 12.5112 26.9074C13.1742 27.1814 13.4853 27.9407 13.2112 28.6L12.4816 30.3592C12.2742 30.8592 11.7927 31.1592 11.2853 31.1592Z" fill="#272727"/>
<path d="M15.5814 38.011C15.4148 38.011 15.2481 37.9777 15.0851 37.911L13.3259 37.1814C12.6629 36.9073 12.3518 36.1481 12.6259 35.4888C12.8999 34.8296 13.6592 34.5147 14.3185 34.7888L16.0777 35.5184C16.7407 35.7925 17.0518 36.5518 16.7777 37.211C16.5703 37.711 16.0888 38.011 15.5814 38.011Z" fill="#272727"/>
<path d="M5.1593 33.6926C4.99264 33.6926 4.82597 33.6592 4.66301 33.5926L2.90375 32.8629C2.24079 32.5889 1.92968 31.8296 2.20375 31.1704C2.47782 30.5074 3.23708 30.1963 3.89634 30.4704L5.6556 31.2C6.31856 31.4741 6.62967 32.2333 6.3556 32.8926C6.14819 33.3926 5.66671 33.6926 5.1593 33.6926Z" fill="#272727"/>
<path d="M13.8221 33.6926C13.3147 33.6926 12.8296 33.3926 12.6259 32.8926C12.3518 32.2296 12.6666 31.474 13.3259 31.2L15.0851 30.4703C15.7481 30.1963 16.5036 30.5111 16.7777 31.1703C17.0518 31.8333 16.737 32.5889 16.0777 32.8629L14.3184 33.5926C14.1555 33.6592 13.9888 33.6926 13.8221 33.6926Z" fill="#272727"/>
<path d="M3.40369 38.011C2.89628 38.011 2.4111 37.711 2.20739 37.211C1.93332 36.5481 2.24813 35.7925 2.90739 35.5184L4.66665 34.7888C5.32962 34.5147 6.08517 34.8296 6.35925 35.4888C6.63332 36.1518 6.3185 36.9073 5.65925 37.1814L3.89999 37.911C3.73702 37.9777 3.57036 38.011 3.40369 38.011Z" fill="#272727"/>
<path d="M12.0149 41.5778C11.5075 41.5778 11.0223 41.2778 10.8186 40.7778L10.089 39.0185C9.81491 38.3556 10.1297 37.6 10.789 37.3259C11.4519 37.0518 12.2075 37.3667 12.4816 38.0259L13.2112 39.7852C13.4853 40.4481 13.1705 41.2037 12.5112 41.4778C12.3482 41.5444 12.1816 41.5778 12.0149 41.5778Z" fill="#272727"/>
<path d="M7.69997 31.1592C7.19256 31.1592 6.70738 30.8592 6.50367 30.3592L5.77404 28.5999C5.49997 27.937 5.81478 27.1814 6.47404 26.9073C7.13701 26.6333 7.89256 26.9481 8.16664 27.6073L8.89627 29.3666C9.17034 30.0296 8.85553 30.7851 8.19627 31.0592C8.0333 31.1259 7.86664 31.1592 7.69997 31.1592Z" fill="#272727"/>
<path d="M19.7332 43.9149C20.711 43.9149 21.7221 44.3778 22.4777 45.4852C25.5925 50.3112 28.148 55.5 30.3332 60.7926C32.4814 65.9741 34.1777 71.3889 35.3777 76.8556C33.1592 71.7704 30.5295 66.9149 27.4666 62.3037C24.3703 57.5741 20.8592 53.1556 16.9999 49.0519C15.3443 46.4075 17.4554 43.9149 19.7332 43.9149ZM19.7332 41.3223C17.6036 41.3223 15.5592 42.5334 14.5221 44.4037C13.4814 46.2889 13.5814 48.4852 14.7999 50.4297C14.8888 50.5741 14.9925 50.7075 15.1073 50.8297C18.9258 54.8926 22.3554 59.2297 25.2962 63.7223L25.3073 63.7371C28.248 68.163 30.8369 72.9223 32.9999 77.8889C33.4221 78.8556 34.3703 79.4445 35.3777 79.4445C35.6443 79.4445 35.9147 79.4038 36.1777 79.3186C37.448 78.9075 38.1962 77.6 37.911 76.2963C36.6703 70.6519 34.9258 65.1038 32.7295 59.8C30.2517 53.8038 27.611 48.663 24.6554 44.0815C24.6443 44.063 24.6332 44.0445 24.6184 44.0297C23.448 42.3112 21.6666 41.326 19.7295 41.326L19.7332 41.3223Z" fill="#272727"/>
</svg>
