<svg width="80" height="80" viewBox="0 0 80 80" fill="none" xmlns="http://www.w3.org/2000/svg">
<path d="M70.5075 39.337C73.3487 39.337 75.6519 37.0337 75.6519 34.1925C75.6519 31.3513 73.3487 29.0481 70.5075 29.0481C67.6663 29.0481 65.363 31.3513 65.363 34.1925C65.363 37.0337 67.6663 39.337 70.5075 39.337Z" fill="#FFF194"/>
<path d="M9.42594 39.337C12.2671 39.337 14.5704 37.0337 14.5704 34.1925C14.5704 31.3513 12.2671 29.0481 9.42594 29.0481C6.58474 29.0481 4.28149 31.3513 4.28149 34.1925C4.28149 37.0337 6.58474 39.337 9.42594 39.337Z" fill="#FFF194"/>
<path d="M39.9962 67.2258C39.3406 67.2258 38.7925 66.7407 38.711 66.0888L34.8999 35.574C34.7295 34.211 35.0999 32.8666 35.9443 31.7851C36.7888 30.7036 37.9999 30.011 39.3629 29.8444C39.5703 29.8147 39.7999 29.7999 40.0295 29.7999C41.4851 29.7999 42.8851 30.4481 43.8703 31.5777C44.8443 32.6962 45.2925 34.1592 45.0962 35.5962L41.2888 66.0925C41.2073 66.7407 40.6555 67.2296 40.0036 67.2296L39.9962 67.2258Z" fill="#FFF194"/>
<path d="M40.0258 31.0926C42.2554 31.0926 44.1184 33.1444 43.8073 35.4148L39.9962 65.9296L36.1851 35.4148C35.9221 33.3111 37.4147 31.3926 39.5184 31.1296C39.6888 31.1074 39.8554 31.0963 40.0221 31.0963L40.0258 31.0926ZM40.0221 28.5037C39.7406 28.5037 39.4591 28.5222 39.1777 28.5592C35.6665 29.0074 33.1703 32.2222 33.611 35.737L37.4221 66.2518C37.5851 67.5481 38.6888 68.5222 39.9962 68.5222C41.3036 68.5222 42.4073 67.5481 42.5703 66.2518L46.3777 35.7518C46.6184 33.9518 46.0591 32.1222 44.8406 30.7259C43.611 29.3148 41.8554 28.5037 40.0258 28.5037H40.0221Z" fill="#272727"/>
<path d="M51.1446 12.8111C43.715 14.8629 42.052 16.5259 40.0002 23.9555C37.9483 16.5259 36.2853 14.8629 28.8557 12.8111C36.2853 10.7592 37.9483 9.09626 40.0002 1.66663C42.052 9.09626 43.715 10.7592 51.1446 12.8111Z" fill="#FF969C"/>
<path d="M40.0001 25.2518C39.4186 25.2518 38.9075 24.863 38.7519 24.3C36.826 17.3259 35.4853 15.9852 28.5112 14.0592C27.9482 13.9037 27.5593 13.3926 27.5593 12.8111C27.5593 12.2296 27.9482 11.7185 28.5112 11.563C35.4853 9.63703 36.826 8.29629 38.7519 1.32221C38.9075 0.75925 39.4186 0.370361 40.0001 0.370361C40.5815 0.370361 41.0927 0.75925 41.2482 1.32221C43.1741 8.29629 44.5149 9.63703 51.489 11.563C52.0519 11.7185 52.4408 12.2296 52.4408 12.8111C52.4408 13.3926 52.0519 13.9037 51.489 14.0592C44.5149 15.9852 43.1741 17.3259 41.2482 24.3C41.0927 24.863 40.5815 25.2518 40.0001 25.2518ZM33.0556 12.8111C36.7186 14.263 38.5482 16.0963 40.0001 19.7555C41.4519 16.0926 43.2853 14.263 46.9445 12.8111C43.2815 11.3593 41.4519 9.52592 40.0001 5.86666C38.5482 9.52962 36.7149 11.3593 33.0556 12.8111Z" fill="#272727"/>
<path d="M73.0296 41.5778C72.5222 41.5778 72.037 41.2778 71.8333 40.7778L71.1036 39.0185C70.8296 38.3556 71.1444 37.6 71.8036 37.3259C72.4666 37.0518 73.2222 37.3667 73.4962 38.0259L74.2259 39.7852C74.4999 40.4481 74.1851 41.2037 73.5259 41.4778C73.3629 41.5444 73.1962 41.5778 73.0296 41.5778Z" fill="#272727"/>
<path d="M68.7149 31.1593C68.2075 31.1593 67.7223 30.8593 67.5186 30.3593L66.7889 28.6001C66.5149 27.9371 66.8297 27.1815 67.4889 26.9075C68.1519 26.6334 68.9075 26.9482 69.1815 27.6075L69.9112 29.3667C70.1852 30.0297 69.8704 30.7852 69.2112 31.0593C69.0482 31.126 68.8815 31.1593 68.7149 31.1593Z" fill="#272727"/>
<path d="M64.4186 38.0112C63.9112 38.0112 63.426 37.7112 63.2223 37.2112C62.9482 36.5482 63.263 35.7926 63.9223 35.5186L65.6815 34.7889C66.3445 34.5149 67.1001 34.8297 67.3741 35.4889C67.6482 36.1519 67.3334 36.9075 66.6741 37.1815L64.9149 37.9112C64.7519 37.9778 64.5852 38.0112 64.4186 38.0112Z" fill="#272727"/>
<path d="M74.8407 33.6926C74.3333 33.6926 73.8481 33.3926 73.6444 32.8926C73.3703 32.2296 73.6851 31.474 74.3444 31.2L76.1037 30.4703C76.7666 30.1963 77.5222 30.5111 77.7963 31.1703C78.0703 31.8333 77.7555 32.5889 77.0963 32.8629L75.337 33.5926C75.174 33.6592 75.0074 33.6926 74.8407 33.6926Z" fill="#272727"/>
<path d="M66.1779 33.6926C66.0112 33.6926 65.8445 33.6592 65.6816 33.5926L63.9223 32.8629C63.2593 32.5889 62.9482 31.8296 63.2223 31.1704C63.4964 30.5074 64.2556 30.1963 64.9149 30.4704L66.6742 31.2C67.3371 31.4741 67.6482 32.2333 67.3742 32.8926C67.1668 33.3926 66.6853 33.6926 66.1779 33.6926Z" fill="#272727"/>
<path d="M76.5963 38.0111C76.4296 38.0111 76.263 37.9777 76.1 37.9111L74.3408 37.1814C73.6778 36.9074 73.3667 36.1481 73.6408 35.4888C73.9148 34.8259 74.6741 34.5148 75.3334 34.7888L77.0926 35.5185C77.7556 35.7925 78.0667 36.5518 77.7926 37.2111C77.5852 37.7111 77.1037 38.0111 76.5963 38.0111Z" fill="#272727"/>
<path d="M67.9852 41.5778C67.8186 41.5778 67.6519 41.5445 67.489 41.4778C66.826 41.2037 66.5149 40.4445 66.789 39.7852L67.5186 38.0259C67.7927 37.363 68.5519 37.0519 69.2112 37.3259C69.8741 37.6 70.1852 38.3593 69.9112 39.0185L69.1815 40.7778C68.9741 41.2778 68.4927 41.5778 67.9852 41.5778Z" fill="#272727"/>
<path d="M72.3 31.1592C72.1333 31.1592 71.9666 31.1259 71.8037 31.0592C71.1407 30.7851 70.8296 30.0259 71.1037 29.3666L71.8333 27.6074C72.1074 26.9444 72.8666 26.6333 73.5259 26.9074C74.1888 27.1814 74.5 27.9407 74.2259 28.6L73.4962 30.3592C73.2888 30.8592 72.8074 31.1592 72.3 31.1592Z" fill="#272727"/>
<path d="M44.6221 78.1481C44.4888 78.1481 44.3554 78.1259 44.2221 78.0852C43.5888 77.8778 43.211 77.2259 43.3554 76.574C44.5813 71.0074 46.2999 65.5296 48.4702 60.2963C50.9184 54.374 53.5221 49.3 56.4332 44.7852C57.3888 43.3815 58.7443 42.6222 60.2665 42.6222C61.9295 42.6222 63.5295 43.5703 64.3406 45.0333C65.148 46.4926 65.0591 48.2074 64.0962 49.7444C64.0517 49.8148 63.9999 49.8815 63.9406 49.9444C60.0702 54.0592 56.5962 58.4592 53.611 63.0148C50.6221 67.5111 47.9962 72.337 45.8036 77.374C45.5925 77.8592 45.1184 78.1518 44.6147 78.1518L44.6221 78.1481Z" fill="#81A5B5"/>
<path d="M60.2665 43.9148C62.5443 43.9148 64.6554 46.4074 62.9999 49.0518C59.1406 53.1555 55.6258 57.5703 52.5332 62.3037C49.4702 66.9148 46.8369 71.7666 44.6221 76.8555C45.8258 71.3889 47.5221 65.9777 49.6665 60.7926C51.8517 55.5037 54.411 50.3111 57.5221 45.4851C58.2777 44.3777 59.2851 43.9148 60.2665 43.9148ZM60.2665 41.3222C58.3295 41.3222 56.548 42.3074 55.3814 44.0259C55.3702 44.0444 55.3591 44.0629 55.3443 44.0777C52.3888 48.6592 49.748 53.8 47.2702 59.8C45.074 65.1037 43.3295 70.6518 42.0888 76.2926C41.8036 77.5963 42.5517 78.9037 43.8221 79.3148C44.0888 79.4 44.3554 79.4407 44.6221 79.4407C45.6295 79.4407 46.5777 78.8518 46.9999 77.8851C49.1628 72.9185 51.7517 68.1592 54.6925 63.7333L54.7036 63.7185C57.6443 59.2259 61.0703 54.8851 64.8925 50.8259C65.0073 50.7037 65.111 50.5703 65.1999 50.4259C66.4184 48.4814 66.5221 46.2851 65.4777 44.4C64.4406 42.5296 62.3962 41.3185 60.2702 41.3185L60.2665 41.3222Z" fill="#272727"/>
<path d="M6.97036 41.5777C6.80369 41.5777 6.63702 41.5443 6.47406 41.4777C5.8111 41.2036 5.49999 40.4443 5.77406 39.7851L6.50369 38.0258C6.77777 37.3629 7.53702 37.0517 8.19628 37.3258C8.85925 37.5999 9.17036 38.3592 8.89628 39.0184L8.16665 40.7777C7.95925 41.2777 7.47777 41.5777 6.97036 41.5777Z" fill="#272727"/>
<path d="M11.2853 31.1592C11.1186 31.1592 10.952 31.1259 10.789 31.0592C10.126 30.7851 9.81493 30.0259 10.089 29.3666L10.8186 27.6074C11.0927 26.9444 11.852 26.6333 12.5112 26.9074C13.1742 27.1814 13.4853 27.9407 13.2112 28.6L12.4816 30.3592C12.2742 30.8592 11.7927 31.1592 11.2853 31.1592Z" fill="#272727"/>
<path d="M15.5814 38.0111C15.4148 38.0111 15.2481 37.9777 15.0851 37.9111L13.3259 37.1814C12.6629 36.9074 12.3518 36.1481 12.6259 35.4888C12.8999 34.8259 13.6592 34.5148 14.3185 34.7888L16.0777 35.5185C16.7407 35.7925 17.0518 36.5518 16.7777 37.2111C16.5703 37.7111 16.0888 38.0111 15.5814 38.0111Z" fill="#272727"/>
<path d="M5.1593 33.6926C4.99264 33.6926 4.82597 33.6592 4.66301 33.5926L2.90375 32.8629C2.24079 32.5889 1.92968 31.8296 2.20375 31.1704C2.47782 30.5074 3.23708 30.1963 3.89634 30.4704L5.6556 31.2C6.31856 31.4741 6.62967 32.2333 6.3556 32.8926C6.14819 33.3926 5.66671 33.6926 5.1593 33.6926Z" fill="#272727"/>
<path d="M13.8221 33.6926C13.3147 33.6926 12.8296 33.3926 12.6259 32.8926C12.3518 32.2296 12.6666 31.474 13.3259 31.2L15.0851 30.4703C15.7481 30.1963 16.5036 30.5111 16.7777 31.1703C17.0518 31.8333 16.737 32.5889 16.0777 32.8629L14.3184 33.5926C14.1555 33.6592 13.9888 33.6926 13.8221 33.6926Z" fill="#272727"/>
<path d="M3.40369 38.011C2.89628 38.011 2.4111 37.711 2.20739 37.211C1.93332 36.5481 2.24813 35.7925 2.90739 35.5184L4.66665 34.7888C5.32962 34.5147 6.08517 34.8296 6.35925 35.4888C6.63332 36.1518 6.3185 36.9073 5.65925 37.1814L3.89999 37.911C3.73702 37.9777 3.57036 38.011 3.40369 38.011Z" fill="#272727"/>
<path d="M12.0149 41.5778C11.5075 41.5778 11.0223 41.2778 10.8186 40.7778L10.089 39.0185C9.81491 38.3556 10.1297 37.6 10.789 37.3259C11.4519 37.0518 12.2075 37.3667 12.4816 38.0259L13.2112 39.7852C13.4853 40.4481 13.1705 41.2037 12.5112 41.4778C12.3482 41.5444 12.1816 41.5778 12.0149 41.5778Z" fill="#272727"/>
<path d="M7.69997 31.1592C7.19256 31.1592 6.70738 30.8592 6.50367 30.3592L5.77404 28.5999C5.49997 27.937 5.81478 27.1814 6.47404 26.9073C7.13701 26.6333 7.89256 26.9481 8.16664 27.6073L8.89627 29.3666C9.17034 30.0296 8.85553 30.7851 8.19627 31.0592C8.0333 31.1259 7.86664 31.1592 7.69997 31.1592Z" fill="#272727"/>
<path d="M35.378 78.1482C34.8743 78.1482 34.4002 77.8519 34.1891 77.3704C31.9928 72.3371 29.3706 67.5075 26.3854 63.0186C23.3965 58.4519 19.9224 54.0556 16.052 49.9371C15.9928 49.8741 15.9446 49.8075 15.8965 49.7371C14.9335 48.2038 14.8446 46.4852 15.652 45.026C16.4632 43.5593 18.0632 42.6149 19.7261 42.6149C21.2483 42.6149 22.6039 43.3741 23.5409 44.7519C26.4706 49.2926 29.078 54.3667 31.5224 60.2926C33.6891 65.526 35.4113 71.0038 36.6372 76.5704C36.7817 77.2223 36.4076 77.8741 35.7706 78.0815C35.6372 78.126 35.5039 78.1445 35.3706 78.1445L35.378 78.1482Z" fill="#81A5B5"/>
<path d="M19.7334 43.9149C20.7112 43.9149 21.7223 44.3778 22.4779 45.4852C25.5927 50.3112 28.1482 55.5 30.3334 60.7926C32.4816 65.9741 34.1779 71.3889 35.3779 76.8556C33.1594 71.7704 30.5297 66.9149 27.4668 62.3037C24.3705 57.5741 20.8594 53.1593 17.0001 49.0519C15.3445 46.4075 17.4556 43.9149 19.7334 43.9149ZM19.7334 41.3223C17.6038 41.3223 15.5594 42.5297 14.526 44.4037C13.4853 46.2852 13.5853 48.4815 14.8038 50.4297C14.8927 50.5741 14.9964 50.7075 15.1112 50.8297C18.9297 54.8926 22.3594 59.2297 25.3001 63.7223L25.3112 63.7371C28.2519 68.163 30.8408 72.9223 33.0038 77.8889C33.426 78.8556 34.3742 79.4445 35.3816 79.4445C35.6482 79.4445 35.9186 79.4038 36.1816 79.3186C37.4519 78.9075 38.2001 77.6 37.9149 76.2963C36.6742 70.6519 34.9297 65.1038 32.7334 59.8C30.2556 53.8038 27.6149 48.663 24.6594 44.0815C24.6482 44.063 24.6371 44.0445 24.6223 44.0297C23.4519 42.3112 21.6705 41.326 19.7334 41.326V41.3223Z" fill="#272727"/>
</svg>
