<svg width="80" height="80" viewBox="0 0 80 80" fill="none" xmlns="http://www.w3.org/2000/svg">
<path d="M40.3704 72.0925C58.2992 72.0925 72.8334 57.5584 72.8334 39.6296C72.8334 21.7008 58.2992 7.16663 40.3704 7.16663C22.4416 7.16663 7.90747 21.7008 7.90747 39.6296C7.90747 57.5584 22.4416 72.0925 40.3704 72.0925Z" fill="#81A5B5"/>
<path d="M60.1592 44.289H48.4999C47.974 44.289 47.5036 43.9741 47.3036 43.489C47.1036 43.0038 47.2147 42.4482 47.5851 42.0779L57.0333 32.6297H48.4777C47.7629 32.6297 47.1814 32.0482 47.1814 31.3334C47.1814 30.6186 47.7629 30.0371 48.4777 30.0371H60.1629C60.6888 30.0371 61.1592 30.3519 61.3592 30.8371C61.5592 31.3223 61.4481 31.8779 61.0777 32.2482L51.6295 41.6964H60.1592C60.874 41.6964 61.4555 42.2779 61.4555 42.9927C61.4555 43.7075 60.874 44.289 60.1592 44.289Z" fill="#272727"/>
<path d="M78.3332 25.5927H66.674C66.1481 25.5927 65.6777 25.2779 65.4777 24.7927C65.2777 24.3075 65.3888 23.7519 65.7592 23.3816L75.2073 13.9334H66.6518C65.937 13.9334 65.3555 13.3519 65.3555 12.6371C65.3555 11.9223 65.937 11.3408 66.6518 11.3408H78.3369C78.8629 11.3408 79.3332 11.6556 79.5332 12.1408C79.7332 12.626 79.6221 13.1816 79.2518 13.5519L69.8036 23.0001H78.3332C79.0481 23.0001 79.6295 23.5816 79.6295 24.2964C79.6295 25.0112 79.0481 25.5927 78.3332 25.5927Z" fill="#272727"/>
<path d="M55.9592 14.663H44.3C43.774 14.663 43.3037 14.3482 43.1037 13.863C42.9037 13.3778 43.0148 12.8222 43.3851 12.4519L52.8333 3.00373H44.2777C43.5629 3.00373 42.9814 2.42224 42.9814 1.70743C42.9814 0.992614 43.5629 0.411133 44.2777 0.411133H55.9629C56.4889 0.411133 56.9592 0.725948 57.1592 1.21113C57.3592 1.69632 57.2481 2.25187 56.8777 2.62224L47.4296 12.0704H55.9592C56.674 12.0704 57.2555 12.6519 57.2555 13.3667C57.2555 14.0815 56.674 14.663 55.9592 14.663Z" fill="#272727"/>
<path d="M72.489 44.3407C71.7186 63.2222 56.163 78.2925 37.0927 78.2925C18.0223 78.2925 1.66675 62.4296 1.66675 42.8666C1.66675 23.3037 16.089 8.91847 34.3964 7.53699C25.589 12.2148 19.5927 21.4814 19.5927 32.1481C19.5927 47.5296 32.063 60 47.4445 60C58.4519 60 67.9705 53.6111 72.4927 44.3407H72.489Z" fill="#FFF194"/>
<path d="M37.0963 79.5889C16.8444 79.5889 0.370361 63.1148 0.370361 42.8666C0.370361 33.5444 3.86666 24.6555 10.2185 17.8407C16.537 11.0592 25.0889 6.94072 34.3 6.24813C34.9111 6.19998 35.4704 6.59257 35.6407 7.18146C35.8111 7.77035 35.5444 8.39998 35.0037 8.68516C26.2963 13.3111 20.8889 22.3 20.8889 32.1518C20.8889 46.7926 32.8 58.7074 47.4444 58.7074C57.6852 58.7074 66.837 52.9852 71.3259 43.7778C71.5963 43.2259 72.2148 42.9407 72.8074 43.0889C73.4037 43.2407 73.8111 43.7852 73.7852 44.4C73.3963 53.8852 69.4074 62.7407 62.5518 69.337C55.6778 75.9518 46.637 79.5963 37.0926 79.5963L37.0963 79.5889ZM28.7815 9.75183C22.437 11.337 16.6555 14.7296 12.1148 19.6037C6.21481 25.9407 2.96295 34.2 2.96295 42.8629C2.96295 61.6815 18.2741 76.9926 37.0963 76.9926C45.9667 76.9926 54.3704 73.6074 60.7593 67.4592C65.7185 62.6889 69.063 56.6444 70.4741 50.0407C65.0259 57.0963 56.637 61.2926 47.4481 61.2926C31.3778 61.2926 18.3 48.2185 18.3 32.1444C18.3 23.3741 22.2074 15.2222 28.7852 9.74813L28.7815 9.75183Z" fill="#272727"/>
</svg>
